<svg xmlns="http://www.w3.org/2000/svg" width="87" height="92" viewBox="0 0 87 92">
    <g fill="none" fill-rule="evenodd" stroke-linejoin="round" stroke-width="1.282">
        <path stroke="#323232" d="M46.074 13.415C46.074 9.293 46.437 1 35.821 1c-8.46 0-16.15 9.117-16.406 14.484-6.378.857-12.436 7.145-11.595 15.176-6.062 2.996-10.46 19.003-2.55 26.595-1.437 6.528 2.986 21.484 16.195 20.305 3.216 17.437 24.61 16.915 24.61 4.138V71.352M33.197 28c-7.36 0-14.167-1.215-14.167-12.857"/>
        <path stroke="#3F7FE7" d="M20.318 42.207c3.468 2.207 9.336 1.333 12.486-1.889 2.327-2.377 4.81-6.15 7.373-5.875h32.944M35.773 70.429c1.525-3.062 5.187-3.858 10.374-3.858h26.974"/>
        <path stroke="#323232" d="M24.182 65.286c-3.42-.536-6.44-3.756-6.44-6.429M21.606 76.857c0-7.853 4.34-18 15.455-18"/>
        <path stroke="#3F7FE7" d="M13.879 35.714c3.555 0 6.44 2.586 6.44 6.24 0 2.882-1.793 5.71-4.293 6.617M58.955 16.429h-12.53c-5.677 0-11.263-.779-13.228-5.143"/>
        <path stroke="#323232" d="M46.076 21.571V34.43M46.076 39.571v23.143"/>
        <path stroke="#3F7FE7" d="M46.076 49.857h12.879M49.94 83.286h7.727M86 34.429c0 3.55-2.883 6.428-6.44 6.428-3.556 0-6.439-2.878-6.439-6.428 0-3.551 2.883-6.429 6.44-6.429C83.117 28 86 30.878 86 34.429zM70.545 17.714c0 3.551-2.882 6.429-6.439 6.429s-6.44-2.878-6.44-6.429c0-3.55 2.883-6.428 6.44-6.428 3.557 0 6.44 2.878 6.44 6.428zM70.545 51.143c0 3.55-2.882 6.428-6.439 6.428s-6.44-2.877-6.44-6.428c0-3.55 2.883-6.429 6.44-6.429 3.557 0 6.44 2.878 6.44 6.429zM70.545 83.286c0 3.55-2.882 6.428-6.439 6.428s-6.44-2.878-6.44-6.428c0-3.551 2.883-6.429 6.44-6.429 3.557 0 6.44 2.878 6.44 6.429zM86 66.571C86 70.122 83.117 73 79.56 73c-3.556 0-6.439-2.878-6.439-6.429 0-3.55 2.883-6.428 6.44-6.428 3.556 0 6.439 2.878 6.439 6.428z"/>
    </g>
</svg>
