<svg xmlns="http://www.w3.org/2000/svg" width="76" height="91" viewBox="0 0 76 91">
    <g fill="none" fill-rule="evenodd" stroke-width="1.286">
        <path stroke="#505050" d="M65.498 25.894C65.628 9.07 54.508 1 38.404 1 22.3 1 11.18 9.071 11.31 25.894h54.188z"/>
        <path stroke="#3F7FE7" d="M70.736 57.596l-19.511 4.68c-2.058 0-4.076-.553-5.841-1.6l-2.998-1.78a7.812 7.812 0 0 0-7.965 0l-2.998 1.78a11.434 11.434 0 0 1-5.839 1.6l-19.513-4.68c-2.603-.624-4.437-2.931-4.437-5.582V31.638c0-3.173 2.599-5.745 5.805-5.745h61.929c3.206 0 5.805 2.572 5.805 5.745v20.376c0 2.65-1.832 4.958-4.437 5.582z"/>
        <path stroke="#505050" d="M63.562 64.191v1.915c0 4.99-2.188 7.578-5.982 10.865-2.72 2.36-5.96 4.76-8.84 6.85a17.625 17.625 0 0 1-20.672 0c-2.88-2.09-6.12-4.49-8.84-6.85-3.796-3.287-5.982-5.874-5.982-10.865v-1.915M19.051 77.596V91M57.757 77.596V91"/>
        <path stroke="#3F7FE7" d="M32.598 31.638H44.21M7.44 31.638v17.234M69.368 31.638v17.234"/>
    </g>
</svg>
