<svg xmlns="http://www.w3.org/2000/svg" width="92" height="87" viewBox="0 0 92 87">
    <g fill="none" fill-rule="evenodd" stroke-width="1.286">
        <path stroke="#1476F2" d="M53.826 78.093C53.826 82.46 50.322 86 46 86c-4.322 0-7.826-3.54-7.826-7.907s3.504-7.907 7.826-7.907c4.322 0 7.826 3.54 7.826 7.907zM53.826 38.558c0 4.367-3.504 7.907-7.826 7.907-4.322 0-7.826-3.54-7.826-7.907 0-4.366 3.504-7.907 7.826-7.907 4.322 0 7.826 3.54 7.826 7.907z"/>
        <path stroke="#505050" d="M38.174 8.907c0 4.367-3.504 7.907-7.826 7.907-4.322 0-7.826-3.54-7.826-7.907S26.026 1 30.348 1c4.322 0 7.826 3.54 7.826 7.907z"/>
        <path stroke="#1476F2" d="M46 66.233V46.465"/>
        <path stroke="#505050" d="M40.13 26.698l-5.87-9.884"/>
        <path stroke="#1476F2" d="M59.696 52.395c0 4.367 3.504 7.907 7.826 7.907 4.322 0 7.826-3.54 7.826-7.907 0-4.366-3.504-7.907-7.826-7.907-4.322 0-7.826 3.54-7.826 7.907z"/>
        <path stroke="#505050" d="M53.826 8.907c0 4.367 3.504 7.907 7.826 7.907 4.322 0 7.826-3.54 7.826-7.907S65.974 1 61.652 1c-4.322 0-7.826 3.54-7.826 7.907zM75.348 40.535l3.913-5.93"/>
        <path stroke="#1476F2" d="M55.783 68.21l6.904-9.884"/>
        <path stroke="#505050" d="M91 26.698c0 4.366-3.504 7.907-7.826 7.907-4.322 0-7.826-3.54-7.826-7.907s3.504-7.907 7.826-7.907c4.322 0 7.826 3.54 7.826 7.907z"/>
        <path stroke="#1476F2" d="M32.304 52.395c0 4.367-3.504 7.907-7.826 7.907-4.322 0-7.826-3.54-7.826-7.907 0-4.366 3.504-7.907 7.826-7.907 4.322 0 7.826 3.54 7.826 7.907z"/>
        <path stroke="#505050" d="M16.652 40.535l-3.913-5.93"/>
        <path stroke="#1476F2" d="M36.217 68.21l-6.904-9.884"/>
        <path stroke="#505050" d="M1 26.698c0 4.366 3.504 7.907 7.826 7.907 4.322 0 7.826-3.54 7.826-7.907s-3.504-7.907-7.826-7.907C4.504 18.79 1 22.33 1 26.698zM51.87 26.698l5.87-9.884"/>
    </g>
</svg>
