<svg xmlns="http://www.w3.org/2000/svg" width="92" height="80" viewBox="0 0 92 80">
    <g fill="none" fill-rule="evenodd" stroke-width="1.286">
        <path stroke="#323232" d="M69.478 53.537h7.827C84.868 53.537 91 47.44 91 39.917c0-7.523-6.132-13.621-13.695-13.621-1.454 0-2.853.227-4.168.646.163-.84.254-1.705.254-2.594 0-7.523-6.131-13.62-13.695-13.62a13.673 13.673 0 0 0-8.945 3.32C48.084 6.457 40.837 1 32.293 1 21.487 1 12.726 9.713 12.726 20.462c0 2.053.322 4.028.915 5.886-7.069.537-12.64 6.4-12.64 13.569 0 7.52 6.13 13.62 13.695 13.62h5.87"/>
        <path stroke="#323232" d="M13.64 26.336c.348-.028.7-.04 1.056-.04 2.655 0 5.134.752 7.233 2.052M50.784 14.036c.501 1.423.84 2.921.994 4.472M73.144 26.943a13.534 13.534 0 0 1-1.708 4.427"/>
        <path stroke="#3F7FE7" d="M59.696 78.833H30.348c-3.242 0-5.87-2.613-5.87-5.837V71.05c0-3.224 2.628-5.838 5.87-5.838h29.348c3.242 0 5.87 2.614 5.87 5.838v1.946c0 3.224-2.628 5.837-5.87 5.837zM59.696 65.212H30.348c-3.242 0-5.87-2.613-5.87-5.837v-1.946c0-3.224 2.628-5.837 5.87-5.837h29.348c3.242 0 5.87 2.613 5.87 5.837v1.946c0 3.224-2.628 5.837-5.87 5.837z"/>
        <path stroke="#3F7FE7" d="M59.696 51.592H30.348c-3.242 0-5.87-2.614-5.87-5.838v-1.946c0-3.224 2.628-5.837 5.87-5.837h29.348c3.242 0 5.87 2.613 5.87 5.837v1.946c0 3.224-2.628 5.838-5.87 5.838z"/>
    </g>
</svg>
