<svg xmlns="http://www.w3.org/2000/svg" width="92" height="92" viewBox="0 0 92 92">
    <g fill="none" fill-rule="evenodd" stroke-linejoin="round" stroke-width="1.286">
        <path stroke="#323232" d="M51.233 13.558V3.093H34.488v9.469a33.278 33.278 0 0 0-8.612 3.566L19.18 9.433 7.34 21.273l6.695 6.696a33.278 33.278 0 0 0-3.566 8.612H1v16.745h9.469a33.278 33.278 0 0 0 3.566 8.612L7.34 68.634l11.84 11.84 6.696-6.695a33.278 33.278 0 0 0 8.612 3.566v9.469h16.745V76.349"/>
        <path stroke="#3F7FE7" d="M55.419 21.93h2.093l10.465-10.465M67.977 80.535L55.419 67.977H42.86c-12.715 0-23.023-10.308-23.023-23.024 0-12.715 10.308-23.023 23.023-23.023"/>
        <path stroke="#3F7FE7" d="M44.953 55.419H42.86c-5.778 0-10.465-4.687-10.465-10.466 0-5.778 4.687-10.465 10.465-10.465h16.745l8.372-8.372h10.465M78.442 65.884H70.07L59.605 55.419h-2.093M78.442 7.28a6.279 6.279 0 1 1-12.558 0 6.279 6.279 0 1 1 12.558 0z"/>
        <path stroke="#3F7FE7" d="M91 26.116a6.279 6.279 0 1 1-12.558 0 6.279 6.279 0 1 1 12.558 0zM91 44.953a6.279 6.279 0 1 1-12.558 0 6.279 6.279 0 1 1 12.558 0zM91 65.884a6.279 6.279 0 1 1-12.558 0 6.279 6.279 0 1 1 12.558 0zM78.442 84.72a6.279 6.279 0 1 1-12.558 0 6.279 6.279 0 1 1 12.558 0zM57.512 44.953h18.837M40.767 44.953h4.186M49.14 44.953h4.186M49.14 55.419h4.186M47.047 21.93h4.186"/>
    </g>
</svg>
