<svg xmlns="http://www.w3.org/2000/svg" width="57" height="39" viewBox="0 0 57 39">
    <path fill="#171717" fill-rule="evenodd" d="M4.534 0H52.42c2.495 0 4.536 2.054 4.536 4.563v29.715a4.562 4.562 0 0 1-4.562 4.562H4.562A4.562 4.562 0 0 1 0 34.278V4.563C0 2.053 2.04 0 4.534 0zm44.959 18.914a.698.698 0 0 0 .696-.701v-3.296c0-.386-.312-.7-.696-.7H37.187a.698.698 0 0 0-.696.7v3.296c0 .387.311.7.696.7h12.306zm-18.587-5.175v15.805c0 .388.312.702.698.702h3.295a.698.698 0 0 0 .695-.702l-.001-14.637c0-.88.71-1.594 1.584-1.594l12.383.002a.699.699 0 0 0 .695-.7v-3.32c0-.387-.312-.7-.695-.7l-13.544.003c-2.822 0-5.11 2.302-5.11 5.141zm-12.453.748a2.286 2.286 0 0 1 1.998-1.177l3.286.003a1.59 1.59 0 0 1 1.586 1.595l-.002 14.637c0 .387.31.7.695.7h3.295a.7.7 0 0 0 .697-.7V13.74c0-2.84-2.289-5.142-5.11-5.142L20.44 8.6a6.974 6.974 0 0 0-6.114 3.628l-9.409 17a.688.688 0 0 0 .605 1.016l3.811-.002a.683.683 0 0 0 .6-.356l8.52-15.399zm-7.126 14.74a.703.703 0 0 0-.081.326c0 .381.306.69.684.69l3.813-.001a.683.683 0 0 0 .6-.356l5.875-10.622c.117-.209.34-.35.596-.35h.921a.698.698 0 0 0 .697-.701v-3.295c0-.387-.312-.7-.697-.7h-3.281c-.525 0-.981.29-1.22.72l-7.907 14.29z"/>
</svg>
