<svg xmlns="http://www.w3.org/2000/svg" width="59" height="59" viewBox="0 0 59 59">
    <g fill="none" fill-rule="evenodd">
        <path d="M-31-6H89v70H-31z"/>
        <g fill="#000" stroke="#000" stroke-width=".814">
            <path d="M18.1 53.114a21.413 21.413 0 0 1-2.443-1.628l2.443 1.628zM48.229 50.675c-.267.277-.54.546-.815.807v-.806h.815zM42.622 35.5c-4.254 0-8.17 1.493-11.26 3.975a21.405 21.405 0 0 1 2.112 2.715 14.446 14.446 0 0 1 9.148-3.242h10.46c-.387.941-.826 1.86-1.313 2.743h-9.147a11.77 11.77 0 0 0-7.778 2.917 20.671 20.671 0 0 1 1.317 3.55 8.427 8.427 0 0 1 6.46-3.018h6.873a25.71 25.71 0 0 1-2.465 2.737h-4.407c-3.16 0-5.73 2.582-5.73 5.76v.298c-.89.287-1.805.52-2.73.702v-1.005c0-4.74-1.82-9.056-4.794-12.292a18.104 18.104 0 0 0-4.799 12.297v1.106a25.812 25.812 0 0 1-2.73-.638v-.473c0-3.173-2.571-5.755-5.73-5.755h-4.952a26.402 26.402 0 0 1-2.47-2.743h7.422a8.414 8.414 0 0 1 6.46 3.024 21.414 21.414 0 0 1 1.318-3.55 11.775 11.775 0 0 0-7.778-2.923H6.416a24.464 24.464 0 0 1-1.307-2.737h11c3.365 0 6.56 1.143 9.148 3.237a20.922 20.922 0 0 1 2.116-2.71c-3.095-2.482-7.01-3.976-11.264-3.976H3.977a24.853 24.853 0 0 1-.534-2.742h12.666c5.032 0 9.656 1.812 13.259 4.815a20.624 20.624 0 0 1 13.254-4.81h12.12c-.126.93-.306 1.845-.534 2.737H42.622zM29.868 10.771L9.143 29.5h4.01l16.72-15.062L46.665 29.5h4.005z"/>
            <path d="M37.626 29.5h4.088l-11.82-10.586L18.1 29.5h4.08l7.718-6.925zM47.414 50.675v.807c.274-.26.548-.53.815-.806h-.815z"/>
            <path d="M55.106 33.118a24.274 24.274 0 0 1-.534 2.72 25.765 25.765 0 0 1-1.125 3.428 26.383 26.383 0 0 1-1.31 2.725 25.693 25.693 0 0 1-2.27 3.428 25.592 25.592 0 0 1-2.462 2.72 25.874 25.874 0 0 1-6.285 4.458 25.363 25.363 0 0 1-3.835 1.563c-.887.285-1.8.518-2.725.697a25.371 25.371 0 0 1-5.06.502 26.013 26.013 0 0 1-7.241-1.03 25.206 25.206 0 0 1-3.835-1.468 24.786 24.786 0 0 1-2.725-1.5 25.536 25.536 0 0 1-4.104-3.222 26.28 26.28 0 0 1-2.466-2.725 25.154 25.154 0 0 1-2.266-3.428 24.266 24.266 0 0 1-1.305-2.72 25.041 25.041 0 0 1-1.13-3.428 24.603 24.603 0 0 1-.534-2.725 25.515 25.515 0 0 1-.253-3.613C3.64 15.24 15.239 3.64 29.5 3.64c14.26 0 25.86 11.6 25.86 25.86a25.59 25.59 0 0 1-.254 3.618M1 29.5a28.28 28.28 0 0 0 2.842 12.396 28.723 28.723 0 0 0 8.007 9.967 28.543 28.543 0 0 0 3.85 2.567c.882.49 1.79.934 2.725 1.325 1.236.528 2.52.967 3.835 1.31A28.267 28.267 0 0 0 29.5 58c1.727 0 3.417-.153 5.06-.449a29.18 29.18 0 0 0 2.725-.634 28.113 28.113 0 0 0 6.56-2.799 28.03 28.03 0 0 0 3.835-2.683v-.523h.612a28.686 28.686 0 0 0 6.819-8.92l.047-.096A28.28 28.28 0 0 0 58 29.5C58 13.787 45.213 1 29.5 1S1 13.787 1 29.5z"/>
        </g>
    </g>
</svg>
