<svg xmlns="http://www.w3.org/2000/svg" width="67" height="40" viewBox="0 0 67 40">
    <path fill="#000" fill-rule="evenodd" d="M54.726 22.703c-2.595 0-5.04-.834-7.075-2.413a11.436 11.436 0 0 1-7.076 2.413 11.446 11.446 0 0 1-7.076-2.413 11.436 11.436 0 0 1-7.075 2.413 11.445 11.445 0 0 1-7.076-2.413 11.436 11.436 0 0 1-7.075 2.413c-6.328 0-11.477-5.09-11.477-11.348C.796 5.098 5.945.006 12.273.006c2.593 0 5.039.835 7.075 2.414A11.443 11.443 0 0 1 26.424.006c2.595 0 5.04.835 7.075 2.414A11.442 11.442 0 0 1 40.575.006c2.595 0 5.04.835 7.076 2.414A11.442 11.442 0 0 1 54.726.006c6.329 0 11.477 5.092 11.477 11.35 0 6.257-5.148 11.347-11.477 11.347zM17.387 4.36a8.912 8.912 0 0 0-5.114-1.637c-4.814 0-8.732 3.872-8.732 8.633 0 4.761 3.918 8.634 8.732 8.634 1.813 0 3.627-.581 5.114-1.638a11.336 11.336 0 0 1-2.44-6.996 11.133 11.133 0 0 1 2.44-6.996zm1.96 1.938a8.489 8.489 0 0 0-1.654 5.058c0 1.834.572 3.581 1.655 5.059a8.491 8.491 0 0 0 1.657-5.059 8.484 8.484 0 0 0-1.657-5.058zM31.54 4.359a8.734 8.734 0 0 0-5.121-1.635c-1.85 0-3.616.565-5.109 1.635a11.133 11.133 0 0 1 2.44 6.996 11.333 11.333 0 0 1-2.44 6.996 8.708 8.708 0 0 0 5.109 1.635 8.73 8.73 0 0 0 5.121-1.635 11.33 11.33 0 0 1-2.441-6.996c0-2.568.844-4.986 2.441-6.996zm1.96 1.938a8.489 8.489 0 0 0-1.655 5.058c0 1.834.572 3.581 1.655 5.059a8.495 8.495 0 0 0 1.657-5.059 8.484 8.484 0 0 0-1.657-5.058zm12.19-1.938a8.726 8.726 0 0 0-5.12-1.635c-1.85 0-3.615.565-5.108 1.634a11.138 11.138 0 0 1 2.44 6.997c0 2.521-.867 5.003-2.44 6.996a8.71 8.71 0 0 0 5.108 1.635c1.86 0 3.629-.564 5.12-1.635a11.341 11.341 0 0 1-2.44-6.996c0-2.568.844-4.986 2.44-6.996zm1.962 1.938a8.486 8.486 0 0 0-1.656 5.058c0 1.833.572 3.58 1.656 5.059a8.496 8.496 0 0 0 1.655-5.059 8.489 8.489 0 0 0-1.655-5.058zm7.075-3.575a8.91 8.91 0 0 0-5.114 1.637 11.134 11.134 0 0 1 2.44 6.996 11.341 11.341 0 0 1-2.44 6.996 8.9 8.9 0 0 0 5.114 1.638c4.815 0 8.732-3.873 8.732-8.634 0-4.76-3.917-8.633-8.732-8.633zm9.286 12.588h1.318-1.318zM14.2 28h4.432l7.898 11.714h-4.125l-1.215-1.93h-7.532l-1.191 1.93H8.474l6.95-10.282L14.2 28zm.824 7.498h4.773l-2.395-3.881-2.378 3.88zm10.891-4.288h3.51v3.753c0 .326-.02.63 0 .911.022.261.045.521.11.76.22.716.768 1.172 1.953 1.172.855 0 1.689-.348 1.93-1.128.066-.283.11-.586.11-1.67V31.21h3.467v4.947c0 1.237-.417 1.952-.987 2.494-1.097 1.063-2.633 1.345-4.63 1.345-1.645 0-3.422-.303-4.475-1.323-.615-.564-.988-1.388-.988-2.495V31.21zm14.173.716c1.229-.672 2.61-.955 3.97-.955.572 0 1.295.13 1.866.455 0 0-.504-.39-.9-.823L42.678 28h4.125l2.961 3.71c1.229 1.54 1.624 2.646 1.624 3.601 0 1.345-.548 2.364-1.36 3.101-1.383 1.237-3.818 1.584-5.375 1.584-1.054 0-3.927-.151-5.507-1.714-.702-.716-1.25-1.648-1.25-2.863 0-1.584.876-2.777 2.193-3.493zm2.567 5.402c.614.304 1.36.434 1.997.434.636 0 1.36-.087 1.974-.412.746-.37 1.338-1.042 1.338-1.93 0-.847-.658-1.628-1.645-2.04-.548-.218-1.251-.282-1.733-.282-.505 0-1.141.086-1.668.325-.856.369-1.58 1.107-1.58 2.04 0 .78.571 1.497 1.317 1.865zm13.273 2.386h-3.576V31.21h3.576v8.504z"/>
</svg>
