<svg xmlns="http://www.w3.org/2000/svg" width="120" height="26" viewBox="0 0 120 26">
    <path fill="#171717" fill-rule="evenodd" d="M118.31 24.466c-.343.834-.732 1.138-1.34 1.138-.335 0-.584-.07-.856-.203l.202-.475c.194.101.374.147.631.147.359 0 .584-.186.826-.755l-1.83-4.016h.662l1.463 3.361 1.294-3.36H120l-1.69 4.163zm-4.418-1.279c0 .491.273.67.678.67.202 0 .373-.039.584-.14v.514a1.502 1.502 0 0 1-.724.172c-.648 0-1.138-.318-1.138-1.138v-2.433h-.56v-.53h.56v-1.217h.6v1.217h1.278v.53h-1.278v2.355zm-4.038-10.754V11.42c0-1.7-.341-2.143-1.285-2.143h-1.026v6.007h-3.9V.294h6.102c2.982 0 4.107 1.68 4.107 3.991 0 1.994-.769 3.293-2.553 3.57v.04c1.892.166 2.454 1.36 2.454 3.363v1.277c0 .774 0 1.78.19 2.082.102.161.192.335.435.454v.213h-4.15c-.374-.796-.374-2.225-.374-2.851zm-1.555-9.324h-.756v3.528h.774c1.117 0 1.64-.713 1.64-1.788 0-1.215-.484-1.74-1.658-1.74zm-2.941 19.197v.015c0 1.319-.95 2.099-1.924 2.099-.748 0-1.23-.407-1.542-.858v.772h-.6V18.64h.6v2.473c.327-.484.8-.898 1.542-.898.965 0 1.924.764 1.924 2.09zm-2.034-1.552c-.747 0-1.457.631-1.457 1.552v.015c0 .937.71 1.56 1.457 1.56.78 0 1.418-.576 1.418-1.552v-.015c0-.951-.654-1.56-1.418-1.56zM93.164.294h8.866v3.19h-4.974v2.563h4.658v3.066h-4.658v2.98h5.162v3.191h-9.055V.294zm1.555 21.544v2.496h-.6v-2.355c0-.78-.39-1.217-1.044-1.217-.607 0-1.106.452-1.106 1.247v2.325h-.6v-2.371c0-.757-.397-1.2-1.036-1.2-.638 0-1.12.53-1.12 1.27v2.3h-.601v-4.03h.6v.677c.265-.397.622-.764 1.3-.764.654 0 1.076.35 1.294.803.288-.444.717-.803 1.418-.803.926 0 1.495.624 1.495 1.622zM87.51.293h3.897v14.991H87.51V.294zm-6.313 14.991h-5.658V.294h5.658c4.512 0 4.744 3.569 4.744 7.494 0 3.932-.232 7.496-4.744 7.496zM80.219 3.11h-.777v9.366h.777c1.51 0 1.698-.633 1.698-4.687 0-4.046-.187-4.679-1.698-4.679zM69.84 12.433V11.42c0-1.7-.34-2.143-1.278-2.143H67.53v6.007h-3.9V.294h6.108c2.974 0 4.11 1.68 4.11 3.991 0 1.994-.782 3.293-2.56 3.57v.04c1.886.166 2.45 1.36 2.45 3.363v1.277c0 .774 0 1.78.192 2.082.108.161.19.335.44.454v.213h-4.156c-.374-.796-.374-2.225-.374-2.851zm-1.558-9.324h-.752v3.528h.78c1.108 0 1.63-.713 1.63-1.788 0-1.215-.48-1.74-1.658-1.74zM64.039 19.42h-.685v-.662h.685v.662zm-6.028-6.764h-3.103l-.396 2.628h-4.15l3.65-14.99h4.903l3.65 14.99H58.41l-.4-2.628zm-1.527-9.293h-.042L55.37 9.72h2.188l-1.074-6.357zm-6.334 7.492c0 2.604-1.264 4.43-4.512 4.43h-5.897V.292h5.897c2.786 0 4.09 1.496 4.09 3.74 0 1.592-.691 3.02-2.35 3.36v.041c1.97.19 2.772 1.87 2.772 3.421zM44.592 3.11h-.944v3.066h.944c.794 0 1.238-.712 1.238-1.512 0-.84-.444-1.554-1.238-1.554zm.144 5.711h-1.088v3.655h1.088c.711 0 1.387-.633 1.387-1.85 0-1.158-.676-1.805-1.387-1.805zm-4.209 11.396c1.191 0 1.877.951 1.877 2.129 0 .079 0 .125-.008.195h-3.193c.086.873.701 1.364 1.418 1.364.553 0 .941-.226 1.27-.569l.374.335c-.406.453-.897.757-1.66.757-1.106 0-2.009-.851-2.009-2.098v-.015c0-1.162.817-2.098 1.931-2.098zm1.27 1.88c-.063-.733-.483-1.373-1.286-1.373-.7 0-1.23.584-1.308 1.373h2.595zm-7.415-17.98h-.048l-2.072 11.168H29.45L27.377 4.115h-.045v11.17h-3.647V.292h5.575l1.576 8.883h.04L32.455.293h5.576v14.991h-3.648V4.115zM23.687 19.084h.601v1.217h1.278v.53h-1.278v2.355c0 .491.273.67.678.67.201 0 .372-.039.583-.14v.514a1.5 1.5 0 0 1-.724.172c-.647 0-1.138-.318-1.138-1.138v-2.433h-.56v-.53h.56v-1.217zm-6.818-3.502c-3.984 0-5.346-2.183-5.346-7.795C11.523 2.183 12.885 0 16.87 0c3.989 0 5.348 2.183 5.348 7.788 0 5.612-1.36 7.795-5.348 7.795zm0-12.937c-1.198 0-1.317 1.096-1.317 5.142 0 4.054.12 5.149 1.317 5.149 1.195 0 1.325-1.095 1.325-5.149 0-4.046-.13-5.142-1.325-5.142zm-6.468 8.21c0 2.603-1.256 4.428-4.511 4.428H0V.294h5.89c2.793 0 4.09 1.495 4.09 3.74 0 1.591-.694 3.02-2.351 3.359v.041c1.974.19 2.772 1.87 2.772 3.421zM4.846 3.108h-.947v3.066h.947c.793 0 1.233-.712 1.233-1.512 0-.84-.44-1.554-1.233-1.554zM4.99 8.82H3.9v3.655h1.092c.712 0 1.382-.633 1.382-1.85 0-1.158-.67-1.805-1.382-1.805zm22.351 12.183c.265-.436.686-.787 1.379-.787.974 0 1.542.655 1.542 1.614v2.504h-.599v-2.355c0-.75-.406-1.217-1.114-1.217-.693 0-1.208.508-1.208 1.263v2.309h-.6V18.64h.6v2.362zm6-.787c1.192 0 1.877.951 1.877 2.129 0 .079 0 .125-.008.195h-3.193c.087.873.701 1.364 1.419 1.364.552 0 .941-.226 1.269-.569l.374.335c-.406.453-.896.757-1.66.757-1.106 0-2.009-.851-2.009-2.098v-.015c0-1.162.817-2.098 1.931-2.098zm1.27 1.88c-.062-.733-.482-1.373-1.285-1.373-.7 0-1.23.584-1.309 1.373h2.595zm10.39 1.55l1.362-3.344h.647l-1.753 4.062h-.53l-1.744-4.062h.662l1.356 3.345zm4.69-3.43c1.207 0 2.096.951 2.096 2.09v.015c0 1.14-.896 2.106-2.111 2.106-1.207 0-2.087-.951-2.087-2.09v-.016c0-1.138.888-2.105 2.102-2.105zm-1.487 2.105c0 .866.638 1.567 1.487 1.567.873 0 1.48-.7 1.48-1.55v-.017c0-.865-.646-1.575-1.495-1.575-.872 0-1.472.71-1.472 1.56v.015zm5.439 2.013h-.6V18.64h.6v5.693zm2.05-1.677c0 .749.405 1.216 1.113 1.216.686 0 1.207-.507 1.207-1.262v-2.309h.593v4.032h-.593v-.702c-.272.435-.684.788-1.378.788-.974 0-1.542-.655-1.542-1.615v-2.503h.6v2.355zm4.59-3.572h.6v1.217h1.278v.53h-1.278v2.355c0 .491.273.67.678.67.202 0 .373-.039.584-.14v.514a1.508 1.508 0 0 1-.724.172c-.648 0-1.138-.318-1.138-1.138v-2.433h-.56v-.53h.56v-1.217zm3.71 5.249h-.601v-4.032h.6v4.032zm3.364-4.118c1.207 0 2.096.951 2.096 2.09v.015c0 1.14-.896 2.106-2.112 2.106-1.207 0-2.087-.951-2.087-2.09v-.016c0-1.138.888-2.105 2.103-2.105zm-1.488 2.105c0 .866.639 1.567 1.488 1.567.872 0 1.48-.7 1.48-1.55v-.017c0-.865-.647-1.575-1.496-1.575-.872 0-1.472.71-1.472 1.56v.015zm5.386-1.318c.265-.436.686-.787 1.378-.787.975 0 1.543.655 1.543 1.614v2.504h-.6v-2.355c0-.75-.405-1.217-1.114-1.217-.693 0-1.207.508-1.207 1.263v2.309h-.6v-4.032h.6v.701zm8.626-.787c1.208 0 2.096.951 2.096 2.09v.015c0 1.14-.896 2.106-2.11 2.106-1.208 0-2.088-.951-2.088-2.09v-.016c0-1.138.887-2.105 2.102-2.105zm-1.488 2.105c0 .866.64 1.567 1.488 1.567.872 0 1.48-.7 1.48-1.55v-.017c0-.865-.646-1.575-1.495-1.575-.873 0-1.473.71-1.473 1.56v.015zm5.01-2.362c0-.46.126-.81.351-1.037.203-.203.5-.312.866-.312.28 0 .467.031.662.101v.522c-.219-.062-.382-.1-.585-.1-.468 0-.7.28-.7.857v.328h1.277v.514h-1.27v3.502h-.6v-3.502h-.553v-.522h.553v-.35zm14.59.257a2.07 2.07 0 0 1 2.096 2.09v.015c0 1.14-.896 2.106-2.112 2.106-1.206 0-2.086-.951-2.086-2.09v-.016c0-1.138.887-2.105 2.102-2.105zm-1.488 2.105c0 .866.64 1.567 1.488 1.567.872 0 1.48-.7 1.48-1.55v-.017c0-.865-.647-1.575-1.496-1.575-.872 0-1.472.71-1.472 1.56v.015zm10.779-2.9h-.686v-.663h.686v.662zm-.047 4.913h-.6v-4.032h.6v4.032zm2.167 0h-.601V18.64h.6v5.693zm2.213-4.914h-.686v-.662h.686v.662zm-.047 4.914h-.6v-4.032h.6v4.032z"/>
</svg>
