<svg xmlns="http://www.w3.org/2000/svg" width="82" height="57" viewBox="0 0 82 57">
    <g fill="#000" fill-rule="evenodd">
        <path d="M5.827 45.464c0 .213-.103.606-.276.885h-.207c-.172 0-.362-.05-.568-.115a2.538 2.538 0 0 0-.914-.196c-.052 0-.104 0-.19.016-1 .082-1.707.935-1.707 2.82 0 2.263.983 2.738 2 2.738.535 0 1.138-.18 1.586-.393.087.246.155.508.155.623-.017.246-.206.525-.448.705-.344.23-.93.377-1.603.377-1.914 0-3.57-.672-3.57-3.968 0-1.722.604-2.804 1.294-3.41.69-.607 1.586-.804 2.448-.804 1.087 0 1.914.492 2 .705v.017M12.517 46.693v5.165c0 .263-.017.46-.173.673-.276.196-.534.213-1.655.213.017-.87.035-1.984.035-3.247l.017-2.738c0-.525-.103-.902-.224-1.23.138-.13.362-.262.741-.41.104-.032.173-.032.241-.032.363 0 .518.098.621.327.328-.213.69-.36 1.018-.475.293-.115.672-.18 1-.131.5.049.81.213.862.459 0 .246-.07.705-.31 1.033-.121.033-.121.033-.277.033-.19 0-.362-.017-.5-.033-.12-.033-.172-.033-.224-.033-.465 0-.845.115-1.172.426M17.862 46.693v5.165c0 .263-.018.46-.173.673-.276.196-.534.213-1.655.213.017-.87.035-1.984.035-3.247l.017-2.738c0-.525-.104-.902-.224-1.23.138-.13.362-.262.741-.41.103-.032.172-.032.241-.032.362 0 .518.098.621.327.328-.213.69-.36 1.017-.475.294-.115.673-.18 1-.131.5.049.81.213.862.459 0 .246-.069.705-.31 1.033-.12.033-.12.033-.276.033-.19 0-.362-.017-.5-.033-.12-.033-.172-.033-.224-.033-.465 0-.845.115-1.172.426M23.379 46.89l-.172 2.952c0 1.393.43 1.688 1.138 1.688.517.033 1.034-.196 1.31-.508v-5.116c0-.36.034-.574.207-.787.241-.196.43-.196 1.19-.213h.448c-.018.87-.035 1.984-.035 3.23v2.755c0 .525.07.902.19 1.23-.12.115-.345.246-.724.41-.104.032-.207.032-.242.032a.675.675 0 0 1-.62-.36c-.345.246-.707.41-1.018.508-.362.115-.706.18-1.12.18-2.104-.081-2.518-1.065-2.552-2.836l.155-3.378c0-.607-.086-1.05-.224-1.443.138-.115.397-.279.862-.492.138-.033.207-.033.241-.033.483 0 .707.328.776.607.104.377.19.738.19 1.574M32.293 44.775c1.086.082 1.603.508 1.672.738 0 .213-.155.607-.344.836-.07-.016-.26-.05-.345-.066-.19-.032-.38-.065-.57-.13a2.167 2.167 0 0 0-.775-.148c-.604 0-.983.311-.983.754 0 .262.103.492.465.77.19.132.449.312.725.492.327.246.706.493 1 .706.724.573 1.069 1.147 1.069 1.836 0 1.558-1.345 2.345-3.018 2.345-1.12 0-2.086-.328-2.293-.787 0-.246.138-.623.345-.886h.172c.156 0 .328.05.518.148v-.016c.362.147.81.262 1.224.262.086 0 .207-.017.31-.033.518-.05.828-.394.828-.885 0-.361-.173-.673-.655-.984-.07-.05-.242-.164-.207-.131a17.331 17.331 0 0 1-1.173-.87l-.43-.327c-.535-.509-.794-1.017-.794-1.59 0-1.296 1.12-2.067 2.759-2.067.19 0 .379.016.5.033M42.04 44.955c.138.263.155.492.155 1.18v5.494c0 .377-.069.64-.241.902-.12.18-.414.18-1.603.213v-1.345c0-.475.017-.984.017-1.508v-2.853c0-.738-.017-1.246-.034-1.673.206-.41.793-.459 1.568-.459l.138.05M45.833 46.743l.052-.05v5.05c0 .361-.035.558-.207.788-.241.196-.43.196-1.19.213h-.448c.017-.87.035-1.984.035-3.23v-2.755c0-.525-.07-.902-.19-1.23.12-.13.345-.262.724-.41.104-.032.207-.032.242-.032.31 0 .517.147.62.344.345-.23.707-.394 1.017-.492.362-.115.707-.18 1.121-.18 2.155 0 2.57 1.049 2.57 2.918v2.476c0 .886.016 1.689.034 2.328-.224.197-.535.263-1.673.263a1.47 1.47 0 0 1-.19-.738V47.71c0-1.18-.292-1.607-1.172-1.607-.552 0-1 .279-1.345.64M54.902 44.775c1.087.082 1.604.508 1.673.738 0 .213-.155.607-.345.836-.069-.016-.259-.05-.345-.066a3.55 3.55 0 0 1-.569-.13 2.165 2.165 0 0 0-.776-.148c-.603 0-.982.311-.982.754 0 .262.103.492.465.77.19.132.448.312.724.492.328.246.707.493 1 .706.725.573 1.07 1.147 1.07 1.836 0 1.558-1.346 2.345-3.018 2.345-1.12 0-2.086-.328-2.293-.787 0-.246.138-.623.345-.886h.172c.155 0 .328.05.517.148v-.016c.362.147.81.262 1.224.262.087 0 .207-.017.31-.033.518-.05.828-.394.828-.885 0-.361-.172-.673-.655-.984-.068-.05-.24-.164-.207-.131a17.46 17.46 0 0 1-1.172-.87l-.431-.327c-.535-.509-.793-1.017-.793-1.59 0-1.296 1.12-2.067 2.759-2.067.189 0 .379.016.5.033M59.799 44.955c.138.263.155.492.155 1.18v5.494c0 .377-.069.64-.241.902-.121.18-.414.18-1.604.213v-1.345c0-.475.017-.984.017-1.508v-2.853c0-.738-.017-1.246-.034-1.673.207-.41.793-.459 1.569-.459l.138.05"/>
        <path fill-rule="nonzero" d="M63.333 47.562c.087 1.033.5 1.673 1.345 1.673.776 0 1.086-.77 1-1.804-.103-1-.535-1.59-1.31-1.59-.673 0-1.156.557-1.035 1.721m1.138 2.788c-.31 0-.517-.017-.724-.05l-.345.329a.322.322 0 0 0-.086.23c0 .147.31.294.88.343l.672.05c.275.016.551.049.827.065.224.017.466.033.621.066 1.069.197 1.81.77 1.862 1.738 0 1.443-1.569 3.082-3.707 3.558a9.463 9.463 0 0 1-1.603.148c-.863 0-1.655-.18-1.828-.722-.173-.82 1.57-2.23 2.655-2.919.431.214.535.771.224 1.05-.551.442-1.155 1.016-1.086 1.312.035.13.207.164.431.164.345 0 .845-.099 1.155-.148 1.138-.295 2.018-1.328 2-2v-.23c-.138-.344-.31-.623-.896-.689-.38-.049-.759-.065-1.155-.082-.104 0-.224-.016-.328-.016-.793-.066-1.31-.23-1.31-.23-.845-.246-1.276-.688-1.293-1.18 0-.115.086-.23.224-.394.241-.23.569-.492.827-.721.087-.066.07-.082.138-.148-.741-.442-1.103-1.213-1.103-2.23 0-1.852 1.276-2.902 3.052-2.902.603 0 1.138.197 1.534.377-.035-.016-.052-.032 0-.065.38-.017.862-.033 1.224-.05h-.017c.224-.016.586-.032.759-.032.069.13.138.328.138.557 0 .426-.208.738-.62.738-.243 0-.346 0-.553-.016.276.41.397.803.397 1.328 0 1.754-1.121 2.77-2.966 2.77"/>
        <path d="M69.213 52.662c.017-.935.034-2.033.034-3.362V43.12c0-.672-.017-1.148-.034-1.509.224-.426.775-.508 1.637-.508.138.246.19.476.19 1.148v3.115a5.72 5.72 0 0 1 .828-.426c.31-.115.707-.197 1.172-.197 1.793 0 2.293.902 2.293 3.116v2.377c0 .886 0 1.656.018 2.246-.207.214-.466.263-1.69.263a2.18 2.18 0 0 1-.155-.82v-3.919c0-.295 0-.508-.035-.672-.051-.968-.414-1.23-.931-1.23-.586 0-1.12.312-1.5.656v4.903c0 .328-.034.59-.19.852-.31.23-.517.23-1.482.23l-.155-.082M81.454 51.383c.017.098.034.23.034.377 0 .148 0 .328-.017.459-.034.115-.12.213-.241.312-.397.246-1.052.393-1.604.393-1.724 0-2.051-1.46-2.051-2.804v-3.902a2.549 2.549 0 0 1-1.018-.23c0-.475.017-.475.156-.606.258-.164.517-.23.741-.295.138-.033.172 0 .276-.05.017-.459.069-.967.086-1.426.138-.377.586-.689 1.62-.754v.262c-.016.689-.034 1.213-.034 1.836h2.19c-.052.918-.19 1.132-.534 1.197a3.54 3.54 0 0 1-.432.033c-.344.016-.586.016-1.224.016-.017.722-.034 1.427-.034 2.116 0 .377.017.721.017 1.065v.804c.069.853.19 1.46.741 1.46.225.016.914-.214 1.035-.312l.293.049M8.69 44.955c.137.263.154.492.154 1.18v5.494c0 .377-.069.64-.24.902-.122.18-.415.18-1.604.213v-1.345c0-.475.017-.984.017-1.508v-2.853c0-.738-.017-1.246-.035-1.673.207-.41.793-.459 1.57-.459l.137.05"/>
        <path fill-rule="nonzero" d="M43.152 17.607c5.625-5.731 2.777-9.62.943-10.113-4.402-1.112-7.887.864-10.27 3.21-6.91 7.53-3.765 16.36-3.467 17.648-3.312-2.845-5.942-8.638-4.536-15.365C28.085 4.1 35.536.76 41.485.767c1.854.014 12.27.679 10.864 10.245-.918 3.395-5.101 6.234-9.197 6.595zm-3.535-2.642c-2.268 5.984-.03 11.153 5.05 11.213 6.17.076 11.545-5.516 12.635-9.187.018 7.148-4.656 11.468-7.135 13.117-2.481 1.648-7.302 3.619-13.186 1.921-2.72-3.36-3.502-13.767 2.636-17.064z"/>
    </g>
</svg>
