<?xml version="1.0" encoding="UTF-8"?>
<svg width="103px" height="71px" viewBox="0 0 103 71" version="1.1" xmlns="http://www.w3.org/2000/svg" xmlns:xlink="http://www.w3.org/1999/xlink">
    <g id="Page-2" stroke="none" stroke-width="1" fill="none" fill-rule="evenodd">
        <g id="Devmind_1280_new_slider" transform="translate(-689.000000, -2102.000000)" fill="#ffffff">
            <g id="Cirrus" transform="translate(689.000000, 2102.000000)">
                <g id="Insight-Logo-full-blue-on-white-copy-01" transform="translate(0.000000, 51.000000)">
                    <path d="M7.31950514,5.6302188 C7.31950514,5.89560286 7.18975416,6.385804 6.97297266,6.73292156 L6.7130733,6.73292156 C6.4964905,6.73292156 6.25844812,6.67177131 5.99854876,6.59003782 C5.65181758,6.44715408 5.21885068,6.34503717 4.85065992,6.34503717 C4.78568508,6.34503717 4.72071024,6.34503717 4.61241884,6.36522075 C3.3564373,6.46753749 2.46824912,7.52967325 2.46824912,9.87836217 C2.46824912,12.6968688 3.70277108,13.2891869 4.9806096,13.2891869 C5.65181758,13.2891869 6.40985738,13.0643698 6.97297266,12.7989857 C7.08126406,13.1053364 7.16789718,13.4320706 7.16789718,13.5751542 C7.1462389,13.8815049 6.90799782,14.2286225 6.6047819,14.4532397 C6.1720137,14.739207 5.43543348,14.9230574 4.59076056,14.9230574 C2.18669148,14.9230574 0.107695301,14.0857387 0.107695301,9.98027924 C0.107695301,7.83582415 0.865735101,6.48792091 1.7320663,5.73233571 C2.5981988,4.97655068 3.72442936,4.73155003 4.80734336,4.73155003 C6.1720137,4.73155003 7.21121374,5.34405165 7.31950514,5.60963555 L7.31950514,5.6302188" id="Fill-5"></path>
                    <path d="M15.7223217,7.16197245 L15.7223217,13.5955376 C15.7223217,13.9222717 15.7006634,14.1672724 15.5057389,14.4328563 C15.1592064,14.6778569 14.8343322,14.6984402 13.4267427,14.6984402 C13.448401,13.615921 13.4700593,12.2270511 13.4700593,10.6543308 L13.4915188,7.2435061 C13.4915188,6.59003782 13.3617679,6.1202201 13.2101599,5.71175246 C13.3834261,5.54848531 13.6649838,5.38501832 14.1412672,5.20116791 C14.2712169,5.16040108 14.35785,5.16040108 14.4444832,5.16040108 C14.899307,5.16040108 15.0942316,5.28270157 15.2241812,5.56886872 C15.6356886,5.30328482 16.0905124,5.11943442 16.5020198,4.97655068 C16.8702105,4.8334671 17.346494,4.75173361 17.7580013,4.81308369 C18.3860914,4.87443377 18.7759405,5.07866759 18.8409153,5.38501832 C18.8409153,5.69136905 18.7542822,6.26330367 18.4510663,6.67177131 C18.2994583,6.71253814 18.2994583,6.71253814 18.1045338,6.71253814 C17.8664914,6.71253814 17.6497099,6.69215473 17.4766424,6.67177131 C17.3248357,6.63100448 17.2598609,6.63100448 17.1950847,6.63100448 C16.6103112,6.63100448 16.133829,6.77368838 15.7223217,7.16197245" id="Fill-6"></path>
                    <path d="M22.4359911,7.16197245 L22.4359911,13.5955376 C22.4359911,13.9222717 22.4143328,14.1672724 22.2194083,14.4328563 C21.8728758,14.6778569 21.5480016,14.6984402 20.1404121,14.6984402 C20.1620704,13.615921 20.1837287,12.2270511 20.1837287,10.6543308 L20.2051882,7.2435061 C20.2051882,6.59003782 20.0754373,6.1202201 19.9238293,5.71175246 C20.0970955,5.54848531 20.3786532,5.38501832 20.8549366,5.20116791 C20.9848863,5.16040108 21.0715194,5.16040108 21.1581526,5.16040108 C21.6129764,5.16040108 21.807901,5.28270157 21.9378506,5.56886872 C22.349358,5.30328482 22.8041818,5.11943442 23.2156892,4.97655068 C23.5838799,4.8334671 24.0601634,4.75173361 24.4716707,4.81308369 C25.0997608,4.87443377 25.4896099,5.07866759 25.5545847,5.38501832 C25.5545847,5.69136905 25.4679516,6.26330367 25.1647357,6.67177131 C25.0131277,6.71253814 25.0131277,6.71253814 24.8182032,6.71253814 C24.5801608,6.71253814 24.3633793,6.69215473 24.1903118,6.67177131 C24.0385051,6.63100448 23.9735303,6.63100448 23.9087541,6.63100448 C23.3239806,6.63100448 22.8474984,6.77368838 22.4359911,7.16197245" id="Fill-7"></path>
                    <path d="M29.3662433,7.40697309 L29.1496605,11.0833817 C29.1496605,12.8193691 29.6911175,13.1868701 30.579107,13.1868701 C31.2288554,13.2278368 31.8784051,12.9420693 32.2249375,12.5537852 L32.2249375,6.18157018 C32.2249375,5.73233571 32.2682541,5.46655198 32.4848369,5.20116791 C32.7880528,4.95616727 33.0262939,4.95616727 33.9792582,4.93558401 L34.5421748,4.93558401 C34.5205165,6.01810319 34.4990569,7.40697309 34.4990569,8.95930999 L34.4990569,12.3907179 C34.4990569,13.0439864 34.5856901,13.5138041 34.7370993,13.9224716 C34.5856901,14.0653553 34.3041324,14.2286225 33.8276503,14.4328563 C33.6977006,14.4738229 33.5677509,14.4738229 33.5244343,14.4738229 C33.1345853,14.4738229 32.8746859,14.2693893 32.7447363,14.0243886 C32.3115707,14.3307394 31.8567468,14.5349732 31.4668977,14.6576733 C31.0122726,14.8005571 30.579107,14.8822906 30.0593082,14.8822906 C27.4169981,14.7803735 26.8973981,13.5545709 26.8540815,11.3487657 L27.049006,7.14138919 C27.049006,6.385804 26.9407146,5.83425278 26.7674484,5.34405165 C26.9407146,5.20116791 27.2655888,4.99693409 27.8503624,4.73155003 C28.0236286,4.69058337 28.110063,4.69058337 28.1533796,4.69058337 C28.7598114,4.69058337 29.0413691,5.09925084 29.1280022,5.4463684 C29.2579519,5.91598628 29.3662433,6.36522075 29.3662433,7.40697309" id="Fill-8"></path>
                    <path d="M40.562978,4.77231686 C41.9274496,4.87443377 42.5769993,5.40540173 42.6636324,5.69136905 C42.6636324,5.95695295 42.4687079,6.44715408 42.2306655,6.73292156 C42.1440324,6.71253814 41.9055926,6.67177131 41.7973012,6.65118806 C41.5592588,6.61042123 41.3210178,6.5696544 41.0827767,6.48792091 C40.7579025,6.36522075 40.4328296,6.3040705 40.1081541,6.3040705 C39.3501143,6.3040705 38.8738308,6.69215473 38.8738308,7.2435061 C38.8738308,7.57044008 39.0035818,7.85620756 39.4584057,8.20352495 C39.6968455,8.36699194 40.021521,8.59160918 40.3680534,8.81622641 C40.7793621,9.12257714 41.2558442,9.42912771 41.624035,9.69451177 C42.5336827,10.4093301 42.967047,11.1241485 42.967047,11.9820504 C42.967047,13.9222717 41.2777012,14.902674 39.176848,14.902674 C37.7692585,14.902674 36.5563949,14.4940065 36.2962968,13.9222717 C36.2962968,13.615921 36.4697617,13.1461033 36.7296611,12.8193691 L36.9460452,12.8193691 C37.1409697,12.8193691 37.3577512,12.8807192 37.5957936,13.0032195 L37.5957936,12.9828361 C38.0508162,13.1666865 38.6139315,13.3095703 39.1337302,13.3095703 C39.2420216,13.3095703 39.3934308,13.2891869 39.5235792,13.2686036 C40.1733276,13.2074534 40.562978,12.7784025 40.562978,12.1659008 C40.562978,11.7164665 40.3463952,11.3283823 39.7399633,10.9402981 C39.6531315,10.878948 39.4369461,10.7362641 39.480064,10.7770309 C38.9819235,10.450097 38.4190069,10.0212459 38.0074996,9.69451177 L37.4660426,9.28604413 C36.7946359,8.65295926 36.4697617,8.01967455 36.4697617,7.30485618 C36.4697617,5.69136905 37.8773512,4.73155003 39.9346891,4.73155003 C40.1733276,4.73155003 40.4111713,4.75173361 40.562978,4.77231686" id="Fill-9"></path>
                    <path d="M52.8066619,4.99693409 C52.9797295,5.32386807 53.0015865,5.60963555 53.0015865,6.46753749 L53.0015865,13.3095703 C53.0015865,13.7791881 52.9149533,14.1061221 52.6983705,14.4328563 C52.5467626,14.6576733 52.1787705,14.6576733 50.6843492,14.6984402 L50.6843492,13.023603 C50.6843492,12.4312849 50.7060075,11.7982 50.7060075,11.1447318 L50.7060075,7.5908235 C50.7060075,6.67177131 50.6843492,6.03868644 50.6628896,5.50751864 C50.9225903,4.99693409 51.6591705,4.93558401 52.6335944,4.93558401 L52.8066619,4.99693409" id="Fill-10"></path>
                    <path d="M57.5712848,7.22312269 L57.636061,7.16197245 L57.636061,13.452454 C57.636061,13.9016885 57.5925457,14.1466891 57.3763603,14.4328563 C57.0729457,14.6778569 56.835102,14.6778569 55.881939,14.6984402 L55.3188237,14.6984402 C55.3400846,13.615921 55.362339,12.2270511 55.362339,10.6747142 L55.362339,7.2435061 C55.362339,6.59003782 55.2753085,6.12002026 55.1238992,5.71175246 C55.2753085,5.54848531 55.5570648,5.38501832 56.033547,5.20116791 C56.1632979,5.16040108 56.2932476,5.16040108 56.3367629,5.16040108 C56.7264132,5.16040108 56.9863126,5.34405165 57.116461,5.58925214 C57.5494279,5.30328482 58.0042517,5.09925084 58.3939021,4.97655068 C58.848726,4.8334671 59.2818916,4.75173361 59.801889,4.75173361 C62.5087766,4.75173361 63.0289727,6.05887002 63.0289727,8.38737536 L63.0289727,11.4712661 C63.0289727,12.5743685 63.0502336,13.5751542 63.0718919,14.3715062 C62.7905329,14.6167067 62.4004852,14.6984402 60.9712374,14.6984402 C60.7977725,14.3920894 60.7329963,14.0855389 60.7329963,13.7791881 L60.7329963,8.42814219 C60.7329963,6.95753879 60.3650043,6.42657083 59.2606307,6.42657083 C58.567367,6.42657083 58.0042517,6.77368838 57.5712848,7.22312269" id="Fill-11"></path>
                    <path d="M68.9627453,4.77231686 C70.327217,4.87443377 70.9769654,5.40540173 71.0633998,5.69136905 C71.0633998,5.95695295 70.868674,6.44715408 70.6302342,6.73292156 C70.5437998,6.71253814 70.3055587,6.67177131 70.1972673,6.65118806 C69.9588275,6.61042123 69.7205864,6.5696544 69.4823454,6.48792091 C69.1574712,6.36522075 68.8329944,6.3040705 68.5079215,6.3040705 C67.7498817,6.3040705 67.2737969,6.69215473 67.2737969,7.2435061 C67.2737969,7.57044008 67.4033492,7.85620756 67.8581731,8.20352495 C68.0964141,8.36699194 68.4212883,8.59160918 68.7678208,8.81622641 C69.1793281,9.12257714 69.6558103,9.42912771 70.0241998,9.69451177 C70.9338475,10.4093301 71.3668144,11.1241485 71.3668144,11.9820504 C71.3668144,13.9222717 69.6774686,14.902674 67.5764167,14.902674 C66.1688272,14.902674 64.9561622,14.4940065 64.6960642,13.9222717 C64.6960642,13.615921 64.8695291,13.1461033 65.1296272,12.8193691 L65.34621,12.8193691 C65.5409358,12.8193691 65.7575186,12.8807192 65.9957597,13.0032195 L65.9957597,12.9828361 C66.4505836,13.1666865 67.0133014,13.3095703 67.5332989,13.3095703 C67.6415903,13.3095703 67.7929995,13.2891869 67.9233466,13.2686036 C68.5726976,13.2074534 68.9627453,12.7784025 68.9627453,12.1659008 C68.9627453,11.7164665 68.7461625,11.3283823 68.139532,10.9402981 C68.053495,10.878948 67.8369122,10.7362641 67.88003,10.7770309 C67.3820883,10.450097 66.818973,10.0212459 66.4070683,9.69451177 L65.86581,9.28604413 C65.1944033,8.65295926 64.8695291,8.01967455 64.8695291,7.30485618 C64.8695291,5.69136905 66.2771186,4.73155003 68.3348539,4.73155003 C68.5726976,4.73155003 68.8109387,4.75173361 68.9627453,4.77231686" id="Fill-12"></path>
                    <path d="M75.1131008,4.99693409 C75.2861683,5.32386807 75.3078266,5.60963555 75.3078266,6.46753749 L75.3078266,13.3095703 C75.3078266,13.7791881 75.2213922,14.1061221 75.0048094,14.4328563 C74.8530027,14.6576733 74.4852093,14.6576733 72.9905893,14.6984402 L72.9905893,13.023603 C72.9905893,12.4312849 73.0124463,11.7982 73.0124463,11.1447318 L73.0124463,7.5908235 C73.0124463,6.67177131 72.9905893,6.03868644 72.9693284,5.50751864 C73.2290291,4.99693409 73.9656093,4.93558401 74.9400332,4.93558401 L75.1131008,4.99693409" id="Fill-13"></path>
                    <path d="M79.5528495,8.24449162 C79.6611409,9.53104478 80.1807409,10.3277965 81.2421953,10.3277965 C82.2162218,10.3277965 82.6062695,9.36777763 82.4979781,8.08082479 C82.3680285,6.83503846 81.8265715,6.09983668 80.8521476,6.09983668 C80.0072759,6.09983668 79.4010428,6.79427164 79.5528495,8.24449162 M80.9816998,11.7164665 C80.5920495,11.7164665 80.3325475,11.6960831 80.0724495,11.6551165 L79.6392839,12.0635841 C79.5528495,12.1455174 79.5309925,12.2680178 79.5309925,12.3495514 C79.5309925,12.5334018 79.9206428,12.7172522 80.6355648,12.7784025 L81.480039,12.8397525 C81.8265715,12.860136 82.1731039,12.9011026 82.5196364,12.921486 C82.8009954,12.9420693 83.1046087,12.9622529 83.2993345,13.0032195 C84.6417505,13.2482202 85.5732552,13.9630386 85.6384287,15.1680581 C85.6384287,16.9653956 83.667724,19.0077338 80.9816998,19.6000518 C80.4185846,19.7023686 79.6611409,19.7839022 78.9678772,19.7839022 C77.8847645,19.7839022 76.888881,19.559285 76.6724969,18.8852335 C76.4555167,17.8642642 78.6432017,16.1074937 80.0072759,15.2497915 C80.5489316,15.5153754 80.67908,16.2098104 80.2890323,16.556928 C79.5957686,17.1082793 78.8379275,17.8230977 78.9245606,18.1907985 C78.9678772,18.3542655 79.18446,18.3952322 79.4658189,18.3952322 C79.8989845,18.3952322 80.5272734,18.272532 80.9169237,18.2113818 C82.3465689,17.843681 83.4507438,16.556928 83.4292842,15.7196093 L83.4292842,15.433642 C83.2558192,15.0047909 83.0394351,14.6576733 82.3030536,14.57574 C81.8265715,14.5145898 81.3504867,14.4940065 80.8521476,14.4738229 C80.7219992,14.4738229 80.5707886,14.4532397 80.4406402,14.4532397 C79.4441607,14.3715062 78.7948097,14.1672724 78.7948097,14.1672724 C77.7333552,13.8609216 77.1920969,13.3095703 77.17024,12.6968688 C77.17024,12.5537852 77.2785314,12.4107017 77.4519963,12.2066677 C77.7552122,11.9207004 78.1665208,11.5939662 78.491395,11.3079989 C78.5996864,11.2262654 78.5782269,11.205882 78.6644626,11.1241485 C77.7333552,10.5725973 77.2785314,9.61277827 77.2785314,8.34660853 C77.2785314,6.03868644 78.8810454,4.73155003 81.1120469,4.73155003 C81.8696893,4.73155003 82.5414934,4.97655068 83.0394351,5.20116791 C82.9959199,5.1807845 82.9744603,5.16040108 83.0394351,5.11943442 C83.5159173,5.09925084 84.1225478,5.07866759 84.5769743,5.05808434 L84.5555147,5.05808434 C84.8368737,5.03790076 85.2918963,5.01731751 85.5082804,5.01731751 C85.5949135,5.1807845 85.6817453,5.42598498 85.6817453,5.71175246 C85.6817453,6.24272042 85.4214485,6.63100448 84.9022459,6.63100448 C84.5986326,6.63100448 84.4686829,6.63100448 84.2089823,6.61042123 C84.5555147,7.12100578 84.706924,7.61120691 84.706924,8.2646752 C84.706924,10.450097 83.2993345,11.7164665 80.9816998,11.7164665" id="Fill-14"></path>
                    <path d="M86.9377268,14.5963233 C86.9593851,13.4320706 86.9810434,12.0635841 86.9810434,10.4093301 L86.9810434,2.70959526 C86.9810434,1.87207673 86.9593851,1.27975869 86.9377268,0.830324382 C87.2194832,0.29935642 87.9121507,0.19723951 88.994866,0.19723951 C89.168331,0.503590239 89.2335045,0.789557553 89.2335045,1.62707608 L89.2335045,5.50751864 C89.5802357,5.28270157 89.9480291,5.11943442 90.2729033,4.97655068 C90.6625536,4.83326727 91.1608927,4.73155003 91.7456663,4.73155003 C93.99773,4.73155003 94.6260188,5.85483604 94.6260188,8.61199259 L94.6260188,11.5735828 C94.6260188,12.6764854 94.6260188,13.6363044 94.6476771,14.3715062 C94.3877778,14.6370901 94.0629036,14.6984402 92.524967,14.6984402 C92.3954147,14.3715062 92.3304399,14.044772 92.3304399,13.6770712 L92.3304399,8.795843 C92.3304399,8.42814219 92.3304399,8.16275813 92.2871233,7.95832447 C92.2221485,6.75350481 91.7673246,6.42657083 91.1173775,6.42657083 C90.3811947,6.42657083 89.709788,6.81485489 89.2335045,7.2435061 L89.2335045,13.3505369 C89.2335045,13.7590046 89.190188,14.0855389 88.994866,14.4124729 C88.6052157,14.6984402 88.3457137,14.6984402 87.1324527,14.6984402 L86.9377268,14.5963233" id="Fill-15"></path>
                    <path d="M102.314311,13.0032195 C102.33577,13.1257199 102.357429,13.2891869 102.357429,13.4730373 C102.357429,13.6568877 102.357429,13.8817047 102.33577,14.044772 C102.292653,14.1878556 102.184361,14.3103559 102.032555,14.4328563 C101.534414,14.7394068 100.711598,14.9230574 100.018533,14.9230574 C97.8529039,14.9230574 97.4411978,13.1053364 97.4411978,11.4304992 L97.4411978,6.5696544 C96.8564243,6.54907115 96.4884322,6.42657083 96.163558,6.28368709 C96.163558,5.69136905 96.1850176,5.69136905 96.3584825,5.52790206 C96.6833567,5.32386807 97.0080322,5.24193474 97.2897886,5.16040108 C97.4628561,5.11943442 97.5063714,5.16040108 97.6361224,5.09925084 C97.6577806,4.52711638 97.7229542,3.8940315 97.7446125,3.32209688 C97.91768,2.85227916 98.4807953,2.46439477 99.7802921,2.38286111 L99.7802921,2.70959526 C99.7588325,3.56729736 99.7367768,4.22076565 99.7367768,4.99693409 L102.48718,4.99693409 C102.422602,6.14060351 102.249137,6.40638725 101.81617,6.48792091 C101.664364,6.50830432 101.447781,6.52868774 101.274713,6.52868774 C100.841548,6.54907115 100.538133,6.54907115 99.7367768,6.54907115 C99.7153172,7.44773992 99.693659,8.32602528 99.693659,9.18392722 C99.693659,9.65374494 99.7153172,10.082596 99.7153172,10.511447 L99.7153172,11.5122327 C99.8019504,12.5745683 99.9533596,13.3299537 100.646425,13.3299537 C100.928181,13.3505369 101.794313,13.0643698 101.945723,12.9420693 L102.314311,13.0032195" id="Fill-16"></path>
                    <path d="M10.9145809,4.99693409 C11.0878472,5.32386807 11.1095054,5.60963555 11.1095054,6.46753749 L11.1095054,13.3095703 C11.1095054,13.7791881 11.0228723,14.1061221 10.8062895,14.4328563 C10.6546816,14.6576733 10.2864908,14.6576733 8.79206948,14.6984402 L8.79206948,13.023603 C8.79206948,12.4312849 8.81392646,11.7982 8.81392646,11.1447318 L8.81392646,7.5908235 C8.81392646,6.67177131 8.79206948,6.03868644 8.7704112,5.50751864 C9.03050926,4.99693409 9.76669208,4.93558401 10.7413147,4.93558401 L10.9145809,4.99693409" id="Fill-17"></path>
                </g>
                <path d="M54.2034039,21.9316074 C61.2686143,14.7925102 57.6912376,9.94981087 55.3875416,9.33428716 C49.8586712,7.9500379 45.4813774,10.4105029 42.4868439,13.3322033 C33.8087749,22.7117416 37.7578905,33.7102213 38.1323429,35.3150377 C33.9721229,31.772381 30.6693446,24.5555964 32.4352402,16.1762162 C35.2772793,5.10656826 44.6369602,0.948387778 52.1097268,0.955993543 C54.4378436,0.972291611 67.521426,1.80077675 65.7549877,13.7162944 C64.6023257,17.9450999 59.3475109,21.4812374 54.2034039,21.9316074 Z M49.763315,18.6410274 C46.914221,26.094134 49.7242417,32.5335008 56.1062123,32.6079286 C63.8573761,32.7019141 70.6078295,25.736663 71.97648,21.1639684 C71.9992727,30.0681463 66.1290537,35.4492252 63.0145869,37.503325 C59.8979494,39.5563384 53.8426749,42.0102842 46.4518537,39.8958815 C43.0351116,35.7116241 42.0523099,22.7470541 49.763315,18.6410274 Z" id="Combined-Shape"></path>
            </g>
        </g>
    </g>
</svg>