<svg xmlns="http://www.w3.org/2000/svg" width="98" height="26" viewBox="0 0 98 26">
    <path fill="#171717" fill-rule="evenodd" d="M.006 25.9v-.487H97.9v.487H.006zm93.513-6.142c.617.044 3.055.391 4.214-1.314l-.195 1.199s-.03 1.055-1.46 1.055H87.03s.813-.593.813-2.211V9.629s.076-2.325-.481-4.334c0 0 6.743.115 10.22-.275v2.182s-.332-1.228-2.935-.953l-4.32.462v5.404h6.849v1.2h-6.88v6.155l3.222.288zM75.05 5.15v11.791s-.03 3.18 3.793 3.18 4.53-3.108 4.53-5.015V7.723s.121-1.778-1.022-2.573h2.739s-.257.983-.257 2.269v8.973s.543 4.826-6.2 4.826c-6.73 0-6.368-3.685-6.368-4.913V7.78s.045-1.344-.572-2.63h3.357zm-8.49 16.37c1.07.825 1.611 1.793 3.116 1.793v.723s-1.505.13-3.116-.55c-1.354-.593-2.437-1.763-5.011-2.485-5.78-.202-7.707-3.77-7.707-8.106 0-4.465 2.152-8.12 8.219-8.12 6.065 0 8.218 3.655 8.218 8.12 0 3.786-2.65 6.98-6.217 7.875.828.058 1.882.274 2.498.75zm1.144-8.553c0-3.9-1.55-7.094-5.583-7.094-4.05 0-5.6 3.193-5.6 7.094 0 3.901 1.76 7.08 5.6 7.08 3.823 0 5.583-3.179 5.583-7.08zM52.156 5.135s-.482 2.385-.482 5.405v7.5s-.03 2.123.166 2.6h-2.89s.21-1.46.21-3.048v-6.358s.211-3.628-.466-6.099h3.462zm-19.582 15.39V7.202s-.016-1.054-.648-2.153h3.327l8.52 11.025.721-8.973s.302-1.271-1.023-2.008h2.198v15.432h-1.747L34.531 8.633l-.618 9.32s-.316 1.675.828 2.572h-2.167zm-2.695-15.39s-.481 2.385-.481 5.405v7.5s-.03 2.123.18 2.6h-2.92s.226-1.46.226-3.048v-6.358s.21-3.628-.467-6.099h3.462zm-11.289.116s-.27 5.058-.27 6.648v7.44s1.55.405 3.521.405c1.972 0 2.755-.607 3.417-1.632 0 0-.075 1.575-.858 2.47h-8.94s.33-1.893.33-4.147V9.53s.09-2.428-.42-4.278h3.22zM.006.787H97.9v.499H.006V.787zm8.74 19.246c3.357 0 4.696-2.283 4.696-2.283s.377 2.197-1.625 2.904c0 0-1.942.347-2.995.347C7.768 21 0 21.493 0 12.98c0-8.495 7.18-8.22 8.61-8.22 0 0 2.86.043 4.5.737v1.82s-1.234-1.402-4.38-1.402-6.141 2.168-6.141 6.98c0 4.81 2.814 7.137 6.156 7.137z"/>
</svg>
