<svg xmlns="http://www.w3.org/2000/svg" preserveAspectRatio="xMidYMid" width="79" height="90.656" viewBox="0 0 79 90.656"><defs><style>.cls-1{fill:#000000;fill-rule:evenodd}</style></defs><path d="M.012 28.816L.008 28.8 78.993.001v14.887L.012 28.816zm1.756 56.595l.217 1.218.17-.635.135-.627.54-1.842h1.089l.495 1.842.305 1.263.261-1.263.008.002-.008-.002.45-1.842h1.274l-1.44 5.076H4.175l-.54-2.11-.305-1.088-.262 1.132-.539 2.066H1.442l-.002-.002-.047-.047L0 83.525h1.273l.495 1.886zm-1.709-1.87H.022l.037.137v-.137zm7.942-6.097v.313l.045.267.089.178.089.177.133.134.133.088.222.088h.401l.222-.088.133-.088.133-.135.134-.176.044-.177.045-.269.044-.268V74.66h1.228v5.076H9.868v-.393l-.255.212-.271.181-.361.09-.359.044H8.62l-.269-.044-.27-.045-.225-.045-.002-.001-.223-.134-.181-.09-.001-.002-.135-.179-.269-.314-.181-.36-.09-.405-.045-.358V74.66h1.272v2.784zm-.913 7.564l.225-.495.27-.359.36-.314.36-.225.45-.18.495-.045h.001l.495.045.45.18.361.224.36.315.269.359.225.495.091.494.044.538-.045.583-.09.495-.225.449-.269.405-.36.314-.361.225-.45.134-.495.045-.495-.045-.45-.134-.361-.225-.36-.314-.27-.405-.225-.449-.09-.495-.045-.583.045-.538.09-.494zm1.182 1.344l.045.314.09.222.089.222.178.178.177.133.177.043.223.045.222-.045.178-.043.177-.133.178-.178.09-.222.089-.223.089-.313v-.624l-.089-.267-.089-.27-.089-.22-.178-.133-.179-.134-.177-.088h-.444l-.177.088-.179.134-.177.133-.089.221-.09.268-.045.268-.044.312.044.312zm5.248-13.664v1.269h-1.273v-1.269h1.273zm0 1.97v5.078h-1.273v-5.078h1.273zm.089 8.875v.424l.211-.252.271-.18h.001l.27-.09.36-.045h.002l.223.045.271.044v.001l.226.089.224.136.006.003-.364 1.224-.009-.004-.179-.089-.223-.09-.179-.044-.222-.044-.222.044-.179.044-.176.089-.089.133h-.001l-.133.132-.044.222-.045.223v3.053h-1.272v-5.076h1.272v.008zm.97-3.797v-6.551l1.273-.636v7.187h-1.273zm2.932 5.696l.433-.606.989-1.302h1.502L19.08 85.19l1.528 3.411H19.2l-1.073-2.366-.618.838v1.528h-1.272v-6.552l1.272-.635v4.018zm2.315-5.705v-.342l-.256.17-.27.18h-.001l-.27.091h-.001l-.314.044-.451-.044-.405-.136-.316-.225-.315-.314-.225-.405-.135-.449-.09-.539-.045-.583.045-.583.09-.539.179-.405.226-.403.27-.272.36-.224.361-.135.45-.045h.315l.002.001.314.089h.001l.27.136.211.21v-1.82l1.272-.636v7.187h-1.272v-.009zm0-3.534l-.132-.131-.178-.179-.267-.133-.311-.044-.133.044-.179.045-.177.044-.133.132-.133.178-.089.267-.045.312-.045.402.045.447.045.357.089.267.133.177.178.134.134.089.177.088h.177l.267-.044.267-.133.178-.134.132-.176v-2.009zm2.797 5.36v1.271h-1.272v-1.271h1.272zm0 7.047h-1.272v-5.077h1.272V88.6zm-.42-8.865v-5.077h1.272v5.077h-1.272zm2.797 3.795v.386l.258-.21.314-.182.315-.09.405-.045.405.045.407.135.315.179.27.225.18.362.135.405.09.446.044.539V88.6h-1.271v-3.097l-.044-.266-.09-.222-.087-.135-.135-.131-.132-.09-.177-.09h-.447l-.222.09-.131.087-.135.134-.132.177-.045.177-.045.269-.045.27V88.6h-1.271v-5.076h1.271v.006zm4.11 1.386l.18-.449.225-.356.269-.318.36-.224.363-.135.449-.045.315.045.315.09h.003l.27.134.21.21v-.344h1.274V88.1l-.045.584-.09.539-.18.449h-.003l-.135.18-.135.135-.18.177v.003l-.18.134-.449.18-.495.135-.591.045-.455-1.001h.057l.536-.047.402-.087.27-.18.222-.177.087-.176.09-.222v-.563l-.21.212-.315.135-.273.135h-.315l-.449-.045-.408-.135-.315-.224-.314-.315-.225-.359-.135-.497-.09-.536-.045-.585.045-.584.09-.494zm1.181 1.48l.045.359.09.267.132.221.18.132.131.09.177.045h.447l.222-.135.222-.176.132-.177v-1.965l-.132-.177-.177-.131-.267-.135-.312-.045h-.135l-.177.045-.176.09-.135.131-.132.177-.09.225-.045.356-.045.357.045.446zm2.507-4.78l-.495.135-.59.045-.456-1.003h.058l.537-.044.402-.089.267-.134.222-.177.089-.221.089-.223v-.52l-.256.17-.27.18h-.001l-.27.09h-.001l-.359.045-.406-.045-.406-.181-.315-.224-.315-.269-.225-.406-.136-.448-.134-.539v-1.167l.135-.538.135-.449.27-.36.27-.315.361-.18.36-.135.45-.045h.315l.001.001.316.089.27.18.001.001.21.168v-.35h1.272v4.622l-.044.582-.09.495-.225.448-.091.181-.001.001-.179.179-.135.135-.18.136-.45.179zm.123-5.424l-.132-.175-.178-.134-.267-.133-.312-.045h-.177l-.133.044-.178.089-.133.133-.133.178-.089.267-.045.312-.045.402.045.446.045.313.089.312.133.177.133.133.178.09.178.088h.132l.311-.045.223-.133.224-.133.131-.176v-2.01zm5.219 9.219l.26 1.214.127-.631.18-.629.54-1.841h1.044l.539 1.842.305 1.262.262-1.262.009.002-.008-.002.45-1.842h1.273l-1.44 5.077H40.59l-.585-2.112-.261-1.085-.261 1.131-.585 2.066h-1.091v-.052l-1.437-5.025h1.318l.45 1.887zm5.365-.404l.225-.449.27-.404.315-.315.405-.225.45-.18.495-.044h.001l.45.044.45.18.405.225.315.315.316.404.179.45.135.492.045.539-.045.585-.135.494-.179.448-.316.405-.315.315-.405.225-.45.134-.45.045-.496-.045-.45-.134-.405-.225-.315-.316-.27-.404-.225-.448-.135-.494-.044-.585.044-.539.135-.493zm1.183 1.657l.088.223.134.223.133.178.178.132.222.044.223.045.222-.045.177-.043.178-.133.133-.178.134-.223.089-.223.045-.311v-.626l-.045-.267-.089-.268-.134-.222-.133-.133-.179-.133-.176-.089h-.445l-.222.089-.178.133-.133.133-.133.222-.089.268-.046.267v.626l.046.311zm-4.412-10.518l-.045-.177-.088-.133-.088-.088-.133-.088-.178-.045-.357-.044-.358.044-.357.045-.313.135-.269.134-.007.003-.501-.866.457-.228.449-.179.495-.09h.943l.406.09.359.18.316.18.226.269.18.272.09.36.045.404v3.412h-1.272v-.395l-.257.214-.36.18h-.001l-.313.09h-.001l-.27.045h-.002l-.359-.045-.315-.045-.315-.136-.271-.179-.27-.27-.18-.316-.135-.359-.046-.449.046-.45.135-.361.225-.27.271-.226.315-.18h.001l.314-.089.36-.089h.63l.315.044h.001l.269.091.213.084v-.479zm-.219 1.35l-.224-.089-.267-.046h-.447l-.178.045-.133.045-.133.088-.088.089-.089.132-.044.132v.311l.044.177.089.132.088.09.133.088.133.044.179.045.178.045.311-.045.312-.134.178-.177.177-.177v-.708l-.219-.087zm-14.205 2.24h-1.272V74.66h1.272v.435l.256-.255.316-.135.315-.136h.81l.361.136.316.179.27.271.225.315.136.404.09.449.044.538v2.875h-1.272v-3.098l-.045-.222-.089-.223-.089-.177-.133-.133-.132-.088-.223-.044v-.001l-.178-.044-.222.045-.223.044-.132.088-.134.133-.133.178-.089.222-.045.222v3.098zm7.795-33.078l4.836-9.301.002-.004h9.393L37.869 54.604v11.247h-8.538V54.604l-9.962-17.251h9.483l4.793 9.305zM23.473 72.687v1.27h-1.272v-1.27h1.272zM.496 37.353h16.202l3.777 6.554H9.033v4.686h10.359v6.017H9.033v4.686h14.306v6.555H.496V37.353zm4.632 38.786l.18.135.001.001.179.179h.001l.135.18v.001l.135.27v.001l.045.269.045.358v.001l-.045.494-.135.449-.18.36-.27.315-.361.27-.405.18-.495.089-.539.045H.496v-6.957h2.968l.45.045.449.089.361.134.315.226.27.271.181.315.09.359.045.406v.001l-.045.179-.045.223-.045.181-.091.226-.001.001-.134.133-.134.18h-.001l-.136.136h-.001l-.165.083.301.172zm-.91-1.602l-.045-.135-.043-.133-.088-.087-.133-.089-.178-.045-.402-.043H1.768v1.461h1.65l.223-.045.179-.045.177-.088.089-.089.088-.088.044-.132.045-.266-.045-.176zm.224 2.82l-.044-.223-.09-.178-.088-.131-.177-.09-.178-.088-.178-.045H1.768v1.954h1.874l.223-.045.177-.088.133-.134.134-.134.089-.176.044-.178.045-.222-.045-.222zm42.746 2.513h-.001l-.315-.044-.315-.091-.271-.18v-.001l-.211-.168v.35h-1.272v-6.417l1.272-.637v2.326l.211-.169.316-.18h.001l.27-.09h.316l.45.045.36.135.361.224.271.272.225.403.179.405.09.539.045.583-.045.583-.09.539-.135.448-.225.406-.315.314-.315.225-.406.136-.451.044zm.575-1.802l.045-.268.045-.313.044-.357-.044-.356-.044-.314-.09-.221-.133-.223-.133-.133-.178-.088-.179-.045-.132-.045-.266.045-.268.089-.177.177-.178.222v1.963l.132.132.179.179.267.133.133.044h.178l.223-.044.178-.045.176-.132.133-.177.089-.223zm2.215 5.464v.428l.254-.255.271-.18.002-.001.269-.089h.001l.316-.045h.001l.268.045.271.044v.001l.226.089v.001l.179.135.004.003-.317 1.225-.009-.005-.178-.089-.224-.09-.223-.044-.223-.045-.178.045-.178.044-.178.089-.132.133-.089.132-.044.222-.046.223-.043.313v2.74h-1.273v-5.077h1.273v.008zm1.198-3.887l-.405-.225-.316-.269-.314-.405-.18-.449-.135-.494-.046-.584.046-.583.135-.495.18-.448.271-.405.359-.315.36-.224.45-.135.495-.045.451.045.405.135.36.224.316.315.27.36.18.45.09.538.044.583v.367h-3.136l.086.348.09.266.178.178.134.133.222.089.133.044.313.045.311-.045.268-.089.222-.134.179-.178.006-.005.82.818-.007.006-.224.179-.18.179-.001.001-.226.134-.001.001-.224.089-.449.18-.494.045-.541-.045-.495-.18zm-.077-2.971h1.865l-.044-.393-.089-.176-.088-.134-.134-.134-.177-.132-.179-.045-.222-.045-.177.045-.178.045-.178.089-.133.132-.089.133-.089.179-.088.222v.214zM53.923 88.6h-1.271v-6.551l1.271-.635V88.6zm1.374-15.237l1.272-.636v1.931h1.077v1.181h-1.077v2.14l.046.313.088.177.087.087.087.044.223.043h.222l.178-.043.358-.179.014-.007-.137 1.184-.003.002-.226.135h-.001l-.27.045-.269.044-.316.046h-.001l-.315-.046-.314-.135h-.001l-.226-.135-.001-.001-.179-.225h-.001l-.135-.224v-.001l-.09-.27v-.001l-.044-.268-.046-.269v-2.456h-.762v-1.181h.762v-1.295zm-.403 11.555l.179-.449.225-.359.271-.316.361-.224.405-.135.45-.045h.002l.27.045.314.09h.001l.27.135.256.213V82.05l1.273-.636v7.187h-1.273v-.393l-.256.213-.316.18h-.001l-.269.09h-.316l-.45-.044-.36-.136-.361-.225-.271-.315-.225-.36-.179-.493-.09-.495-.045-.627.045-.584.09-.494zm1.272 1.836l.089.268.134.222.132.133.178.089.133.044h.489l.221-.133.18-.178.176-.177v-1.963l-.132-.176-.223-.133-.223-.135-.311-.045h-.177l-.178.045-.133.089-.133.133-.133.177-.089.222-.09.358v.804l.09.356zm2.899-7.651l-.09-.27v-.001l-.045-.268-.046-.269v-2.456h-.762v-1.181h.762v-1.295l1.273-.636v1.931h1.166v1.181h-1.166v2.14l.045.313.088.177.088.087.087.044.223.043h.222l.178-.043.371-.186-.136 1.184-.004.002-.225.135h-.002l-.269.045-.27.045-.315.045h-.001l-.315-.046-.315-.135-.226-.135-.001-.001-.18-.225-.135-.224v-.001zm2.96-2.962l.224-.448.27-.405.315-.315.407-.224.449-.136.451-.044.493.044.407.136.36.224.316.315.225.36.179.45.135.538.045.583v.367h-3.138l.043.348.134.265.134.179.177.133.178.089.178.044.268.045.312-.045.267-.089.223-.134.223-.178.006-.005.774.817-.006.006-.179.18h-.001l-.224.179-.18.135-.001.001-.224.089-.495.18-.495.045-.495-.045-.496-.18-.404-.225-.36-.269-.271-.405-.224-.449-.091-.494-.045-.584.045-.583.091-.495zm1.182.532h1.864l-.087-.392-.044-.177-.089-.133-.133-.134-.178-.132-.177-.045-.222-.045-.222.045-.18.045-.132.087-.133.134-.134.134-.088.177-.045.222v.214zm5.157-2.006v.424l.21-.252.002-.001.27-.135.315-.134h.541l.271.044.002.001.223.135.224.089.007.002-.365 1.273-.009-.007-.178-.134-.179-.088-.222-.045h-.447l-.176.044-.133.089-.134.132-.088.178-.089.178-.045.268v3.007h-1.273v-5.077h1.273v.009z" class="cls-1"/></svg>