<svg xmlns="http://www.w3.org/2000/svg" preserveAspectRatio="xMidYMid" width="121" height="45" viewBox="0 0 121 45"><defs><style>.cls-1{fill:#ffffff;fill-rule:evenodd}</style></defs><path d="M120.661 13.466c-2.399 2.617-4.971 5.044-7.816 7.174-3.269 2.447-6.776 4.428-10.742 5.523a27.876 27.876 0 0 1-6.455.985c-5.89.207-11.653-.632-17.314-2.23-3.408-.962-6.804-1.971-10.226-2.885a56.887 56.887 0 0 0-8.762-1.619c-2.146-.225-4.293-.281-6.444-.24-3.425.064-6.718.808-9.948 1.91-4.234 1.443-8.333 3.226-12.478 4.894a605.04 605.04 0 0 1-7.464 2.944c-.337.131-.472.324-.482.656-.075 2.468-.102 4.932.534 7.349.17.644.223.682.903.589 1.542-.211 3.049-.582 4.559-.976.45-.111 1.438-.41 2.344-.74 2.139-.779 6.336-2.532 6.336-2.532s4.882-2.362 5.489-2.688l-.009-.003 2.228-1.172c.026-.013.062-.033.084-.025.459.183.519.688.81 1.01.17.188.013.332-.122.451-.492.434-12.302 9.609-15.678 11.255-2.605 1.269-5.331 2.027-8.256 1.915-1.032-.039-2.058-.153-3.063-.396-1.727-.417-2.848-1.561-3.634-3.091-.943-1.835-1.399-3.806-1.618-5.841-.068-.638-.137-1.278-.157-1.918-.012-.38-.116-.454-.48-.348-1.852.538-3.717 1.028-5.622 1.342-1.666.276-3.337.564-5.021.117-.64-.17-1.263-.376-1.714-.908-.446-.526-.566-1.15-.308-1.656.078-.153.162-.302.371-.234.537.174 1.076.04 1.601-.03 3.812-.505 7.483-1.561 11.078-2.904.253-.094.324-.257.356-.502.456-3.552 1.448-6.956 2.829-10.253 1.473-3.52 3.499-6.686 6.003-9.564 1.985-2.281 4.17-4.325 6.709-5.972C31.613 1.212 34.394.288 37.405.05c2.708-.214 5.284.187 7.621 1.639 2.057 1.277 3.245 3.132 3.498 5.555.143 1.364.35 2.733-.074 4.089-.009.029-.012.059-.021.087-.139.442-2.032 3.567-2.487 4.101-.086.262-.358.365-.479.642.283.021.52-.05.754-.116 2.638-.745 5.321-1.266 8.05-1.509 2.294-.204 4.598-.193 6.897-.055 5.247.316 10.333 1.557 15.427 2.741 3.641.846 7.302 1.585 11.017 2.017 2.106.246 4.218.421 6.34.494 1.241.042 2.481.093 3.719.052 2.267-.074 4.533-.178 6.793-.413 2.661-.277 5.252-.824 7.744-1.808 2.366-.933 4.402-2.394 6.358-3.98a61.209 61.209 0 0 0 1.681-1.412c.196-.17.316-.153.472.048.396.514.38.771-.054 1.244zm-80.766-8.23c-.182-.237-.421-.421-.667-.595-.404-.287-.812-.311-1.271-.136-1.248.474-2.327 1.21-3.341 2.062-2.602 2.186-4.516 4.925-6.24 7.808a49.482 49.482 0 0 0-4.468 9.716c-.048.143-.093.287-.137.431l2.454-1.04 4.673-2.251-.024-.018c.731-.353 1.462-.704 2.192-1.06 2.204-1.075 4.415-2.138 6.296-3.756.522-.449 1.01-.932 1.455-1.458.091-.107.21-.142.838-1.256.125-.222.213-.946.254-1.425.223-2.592-.422-4.947-2.014-7.022zm15.839 27.978h-3.596v1.887h3.407v1.111h-3.407v2.097h3.784v1.174h-5.105v-7.422h4.917v1.153zm3.679 3.491c0 .217.028.431.084.645.056.213.149.403.278.571.129.168.301.304.514.409.213.104.477.157.791.157.315 0 .579-.053.792-.157.213-.105.384-.241.514-.409a1.59 1.59 0 0 0 .277-.571c.056-.214.084-.428.084-.645v-4.644h1.321v4.696c0 .448-.077.851-.23 1.211-.154.36-.364.666-.629.917a2.767 2.767 0 0 1-.944.582 3.352 3.352 0 0 1-1.185.204 3.35 3.35 0 0 1-1.184-.204 2.808 2.808 0 0 1-.949-.582 2.609 2.609 0 0 1-.629-.917 3.1 3.1 0 0 1-.226-1.211v-4.696h1.321v4.644zm11.126-4.534c.329.074.621.194.876.362.255.168.459.388.613.66.154.273.231.605.231.996 0 .538-.152.977-.456 1.316-.304.339-.718.567-1.243.686l1.982 3.292h-1.594l-1.719-3.145h-1.323v3.145h-1.321v-7.422h2.937c.35 0 .689.037 1.017.11zm-2.633 1.001v2.086h1.438c.189 0 .378-.014.566-.041.189-.028.359-.081.509-.158a.998.998 0 0 0 .372-.33.952.952 0 0 0 .147-.55.852.852 0 0 0-.136-.498 1.027 1.027 0 0 0-.346-.309 1.45 1.45 0 0 0-.477-.158 3.358 3.358 0 0 0-.519-.042h-1.554zm7.346-.251a3.662 3.662 0 0 1 1.258-.776 4.516 4.516 0 0 1 1.589-.272c.58 0 1.114.091 1.604.272.489.182.912.44 1.268.776.357.335.635.742.834 1.221.199.479.299 1.015.299 1.609 0 .58-.1 1.11-.299 1.588a3.65 3.65 0 0 1-.834 1.237 3.777 3.777 0 0 1-1.268.807 4.357 4.357 0 0 1-1.604.288 4.284 4.284 0 0 1-1.589-.288 3.734 3.734 0 0 1-1.258-.807 3.694 3.694 0 0 1-.828-1.237 4.096 4.096 0 0 1-.299-1.588c0-.594.1-1.13.299-1.609.199-.479.475-.886.828-1.221zm.493 3.925c.122.332.297.621.524.865.227.245.496.435.807.571.311.137.656.205 1.033.205.377 0 .724-.068 1.038-.205a2.39 2.39 0 0 0 .813-.571c.227-.244.401-.533.524-.865.122-.331.183-.697.183-1.095 0-.384-.061-.741-.183-1.069a2.63 2.63 0 0 0-.519-.86 2.412 2.412 0 0 0-.808-.576 2.548 2.548 0 0 0-1.048-.21c-.384 0-.732.07-1.043.21-.311.14-.579.332-.802.576a2.597 2.597 0 0 0-.519.86 3.023 3.023 0 0 0-.184 1.069c0 .398.061.764.184 1.095zm9.698 1.484c.304.146.603.22.896.22.154 0 .311-.019.472-.058.161-.038.306-.103.435-.194.129-.091.234-.204.315-.341a.987.987 0 0 0 .12-.508.826.826 0 0 0-.136-.487 1.219 1.219 0 0 0-.367-.336 2.68 2.68 0 0 0-.545-.246l-.661-.22a6.626 6.626 0 0 1-.671-.252 2.23 2.23 0 0 1-.603-.388 1.872 1.872 0 0 1-.435-.592c-.112-.234-.167-.525-.167-.875 0-.377.078-.702.235-.975a2.1 2.1 0 0 1 .619-.676c.255-.178.545-.311.87-.398.325-.088.655-.131.991-.131.377 0 .76.066 1.148.199a2.82 2.82 0 0 1 1.012.597l-.86.944a1.599 1.599 0 0 0-.592-.456 1.776 1.776 0 0 0-1.232-.126 1.407 1.407 0 0 0-.42.178.99.99 0 0 0-.309.315.866.866 0 0 0-.12.466c0 .168.034.311.104.43a.95.95 0 0 0 .289.304c.122.084.271.157.445.22.175.063.367.126.577.189.238.077.484.164.739.262s.489.227.702.387c.214.161.389.364.525.608.136.245.204.549.204.912 0 .399-.073.746-.22 1.043a2.156 2.156 0 0 1-.587.739 2.503 2.503 0 0 1-.86.441 3.642 3.642 0 0 1-1.038.146c-.482 0-.954-.089-1.415-.267a2.732 2.732 0 0 1-1.132-.791l.943-.881c.182.252.425.451.729.598zm10.772-5.116H93.94v6.269h-1.321v-6.269h-2.275v-1.153h5.871v1.153zm4.645-1.153l3.198 7.422h-1.51l-.692-1.698h-3.219l-.671 1.698h-1.478l3.229-7.422h1.143zm.535 4.591l-1.143-3.018-1.164 3.018h2.307zm8.295-4.481c.328.074.62.194.875.362.255.168.46.388.614.66.153.273.23.605.23.996 0 .538-.152.977-.456 1.316-.304.339-.718.567-1.242.686l1.981 3.292h-1.593l-1.72-3.145h-1.323v3.145h-1.321v-7.422h2.938c.349 0 .688.037 1.017.11zm-2.634 1.001v2.086h1.439c.188 0 .377-.014.566-.041.189-.028.358-.081.508-.158a.99.99 0 0 0 .372-.33.952.952 0 0 0 .147-.55.844.844 0 0 0-.136-.498 1.018 1.018 0 0 0-.346-.309 1.45 1.45 0 0 0-.477-.158 3.339 3.339 0 0 0-.519-.042h-1.554zm6.465-.839h-.454v1.275h-.388v-1.275h-.454v-.332h1.296v.332zm1.299.699h.009l.35-1.031h.561v1.607h-.381l.009-1.137h-.007l-.417 1.137h-.273l-.406-1.137h-.007l.009 1.137h-.365v-1.607h.552l.366 1.031z" class="cls-1"/></svg>