<svg xmlns="http://www.w3.org/2000/svg" width="98" height="38" viewBox="0 0 98 38">
    <path fill="#000" fill-rule="evenodd" d="M96.924 11.696c-1.927 2.116-3.993 4.078-6.278 5.8-2.626 1.979-5.443 3.58-8.629 4.466a22.258 22.258 0 0 1-5.185.796c-4.731.167-9.36-.511-13.908-1.803-2.738-.778-5.465-1.594-8.214-2.333a45.43 45.43 0 0 0-7.039-1.309c-1.723-.181-3.448-.227-5.176-.194-2.751.052-5.396.654-7.991 1.545-3.401 1.166-6.694 2.608-10.023 3.957-1.994.806-3.992 1.6-5.996 2.38-.27.106-.38.262-.387.53-.06 1.996-.082 3.988.429 5.942.136.52.179.551.725.476 1.239-.17 2.45-.47 3.662-.789.362-.09 1.155-.331 1.883-.598 1.718-.63 5.09-2.047 5.09-2.047s3.921-1.91 4.409-2.174l-.007-.002 1.79-.948c.02-.01.05-.026.067-.02.369.148.417.556.65.817.137.152.011.268-.097.364-.396.351-9.882 7.77-12.594 9.1-2.093 1.026-4.282 1.639-6.632 1.548a12.367 12.367 0 0 1-2.46-.32c-1.388-.337-2.288-1.262-2.92-2.499-.757-1.484-1.123-3.077-1.3-4.722-.054-.516-.11-1.034-.125-1.551-.01-.307-.094-.367-.386-.281-1.488.434-2.986.83-4.516 1.085-1.338.223-2.68.456-4.033.094-.514-.137-1.015-.304-1.377-.734-.358-.425-.455-.93-.248-1.339.063-.124.13-.244.298-.19.432.142.865.033 1.287-.023 3.062-.409 6.01-1.262 8.898-2.348.203-.076.26-.208.286-.406.366-2.872 1.163-5.624 2.273-8.29 1.183-2.846 2.81-5.405 4.822-7.732 1.594-1.845 3.35-3.497 5.389-4.829 2.033-1.327 4.267-2.074 6.686-2.266C32.222.676 34.29 1 36.168 2.174c1.653 1.033 2.607 2.532 2.81 4.491.115 1.103.281 2.21-.06 3.306-.006.024-.009.048-.016.07-.112.358-1.632 2.885-1.998 3.316-.069.212-.287.296-.385.52.228.016.418-.041.606-.094a35.079 35.079 0 0 1 6.467-1.22c1.842-.165 3.693-.156 5.54-.045 4.215.256 8.3 1.259 12.392 2.216 2.925.684 5.865 1.282 8.85 1.631 1.691.199 3.388.34 5.092.4.997.033 1.993.075 2.988.042 1.82-.06 3.641-.144 5.456-.334 2.138-.224 4.22-.667 6.221-1.462 1.9-.755 3.536-1.936 5.107-3.218.457-.372.907-.753 1.35-1.142.158-.137.254-.123.38.04.318.415.305.622-.044 1.005zM32.047 5.042c-.146-.192-.338-.34-.536-.481-.325-.232-.652-.252-1.021-.11-1.002.383-1.87.978-2.684 1.667-2.09 1.767-3.627 3.982-5.012 6.313a40.13 40.13 0 0 0-3.59 7.855 13.46 13.46 0 0 0-.11.349l1.972-.841 3.754-1.82-.02-.015c.588-.285 1.175-.569 1.761-.857 1.77-.869 3.547-1.728 5.058-3.036.419-.363.811-.754 1.168-1.18.074-.086.17-.114.674-1.015.1-.18.17-.764.204-1.152.179-2.095-.34-4-1.618-5.677zm12.723 22.62H41.88v1.526h2.737v.898h-2.737v1.696h3.04v.949h-4.1v-6h3.949v.931zm2.955 2.823c0 .175.023.348.068.521.045.173.12.326.223.462.104.136.242.246.413.33.171.085.383.128.635.128.253 0 .465-.043.636-.127a1.16 1.16 0 0 0 .413-.331c.105-.137.18-.294.223-.462a2.06 2.06 0 0 0 .067-.521V26.73h1.061v3.797c0 .362-.061.688-.184.979a2.198 2.198 0 0 1-.506.741 2.22 2.22 0 0 1-.758.471 2.677 2.677 0 0 1-.952.165 2.675 2.675 0 0 1-.95-.165 2.253 2.253 0 0 1-.763-.47 2.11 2.11 0 0 1-.505-.742 2.52 2.52 0 0 1-.182-.98V26.73h1.061v3.755zm8.937-3.666c.265.06.5.157.704.293.205.136.369.313.493.533.123.221.185.49.185.806 0 .435-.122.79-.366 1.064s-.577.458-.999.554l1.592 2.662h-1.28l-1.38-2.543h-1.064v2.543h-1.06v-6h2.359c.28 0 .553.03.816.088zm-2.115.81v1.686h1.156c.151 0 .303-.011.454-.033.152-.023.289-.066.41-.128a.803.803 0 0 0 .298-.267.774.774 0 0 0 .118-.444.692.692 0 0 0-.11-.403.827.827 0 0 0-.277-.25 1.16 1.16 0 0 0-.383-.128 2.68 2.68 0 0 0-.417-.034h-1.249zm5.901-.204c.291-.276.635-.49 1.01-.627.41-.15.842-.224 1.277-.22.466 0 .895.074 1.289.22.393.147.732.356 1.018.627.287.271.51.6.67.988.16.387.24.82.24 1.3 0 .47-.08.898-.24 1.284a2.952 2.952 0 0 1-1.688 1.653 3.48 3.48 0 0 1-1.289.233 3.421 3.421 0 0 1-1.276-.233 2.997 2.997 0 0 1-1.01-.652 2.988 2.988 0 0 1-.666-1 3.33 3.33 0 0 1-.24-1.284c0-.48.08-.914.24-1.301.16-.388.382-.717.665-.988zm.396 3.174c.098.268.239.502.421.7.183.197.399.351.649.46.25.112.526.167.83.167.302 0 .58-.055.833-.166a1.92 1.92 0 0 0 .653-.462c.183-.197.322-.43.421-.7a2.56 2.56 0 0 0 .147-.884c0-.31-.049-.6-.147-.865a2.13 2.13 0 0 0-.417-.695 1.938 1.938 0 0 0-.649-.466 2.035 2.035 0 0 0-.842-.17 1.943 1.943 0 0 0-1.482.635 2.102 2.102 0 0 0-.417.696c-.1.277-.15.57-.147.865 0 .321.049.617.147.885zm7.79 1.2c.245.118.485.178.72.178.124 0 .25-.016.38-.047a.995.995 0 0 0 .349-.157.882.882 0 0 0 .253-.276.802.802 0 0 0 .096-.41.671.671 0 0 0-.109-.394.982.982 0 0 0-.295-.272 2.146 2.146 0 0 0-.438-.199l-.53-.178a5.3 5.3 0 0 1-.54-.203 1.79 1.79 0 0 1-.484-.314 1.513 1.513 0 0 1-.35-.479c-.09-.189-.133-.424-.133-.707 0-.305.062-.568.188-.789.124-.216.294-.403.498-.546a2.2 2.2 0 0 1 .698-.322c.261-.071.527-.106.796-.106.303 0 .61.054.923.161.301.102.578.266.813.483l-.691.763a1.286 1.286 0 0 0-.476-.369 1.418 1.418 0 0 0-.99-.102c-.119.03-.233.078-.337.144a.798.798 0 0 0-.248.255.704.704 0 0 0-.096.377c0 .136.027.251.083.347a.766.766 0 0 0 .232.246c.098.068.218.127.358.178.14.051.294.102.463.153.191.062.389.133.594.212.205.079.393.183.564.313.172.13.312.294.421.491.11.198.164.444.164.738 0 .322-.058.603-.176.843a1.741 1.741 0 0 1-.472.597c-.205.163-.44.284-.69.357-.272.08-.552.12-.835.118-.387 0-.766-.072-1.136-.216a2.195 2.195 0 0 1-.91-.64l.758-.712c.146.204.341.365.586.484zm8.653-4.137H75.46v5.069h-1.061v-5.069H72.57v-.932h4.716v.932zm3.732-.932l2.569 6h-1.213l-.556-1.372h-2.586l-.539 1.373h-1.187l2.594-6h.918zm.43 3.712l-.919-2.44-.935 2.44h1.853zm6.663-3.623a2.1 2.1 0 0 1 .703.293c.204.136.369.313.493.533.123.221.184.49.184.806 0 .435-.122.79-.366 1.064s-.577.458-.997.554l1.59 2.662H88.44l-1.381-2.543h-1.063v2.543h-1.061v-6h2.36c.28 0 .552.03.817.088zm-2.116.81v1.686h1.156c.15 0 .303-.011.454-.033a1.3 1.3 0 0 0 .408-.128.797.797 0 0 0 .3-.267.774.774 0 0 0 .117-.444.686.686 0 0 0-.109-.403.82.82 0 0 0-.278-.25 1.16 1.16 0 0 0-.383-.128 2.665 2.665 0 0 0-.417-.034h-1.248zm5.193-.679h-.365v1.03h-.311v-1.03h-.365v-.268h1.041v.268zm1.043.565h.008l.28-.833h.451v1.299h-.306l.008-.92h-.006l-.335.92h-.22l-.325-.92h-.006l.007.92h-.293v-1.3h.443l.294.834z"/>
</svg>
