<svg xmlns="http://www.w3.org/2000/svg" width="69" height="41" viewBox="0 0 69 41">
    <g fill="#171717" fill-rule="evenodd">
        <path fill-rule="nonzero" d="M19.88 38.007c.012.414.161.832.163.836l.013.037-.932.001.008-.034c0-.003.062-.269.071-.43.008-.13.002-.194-.002-.241l-.003-.037a.729.729 0 0 0-.005-.04 1.75 1.75 0 0 1-1.48.831c-1.02 0-1.705-.718-1.705-1.786 0-1.04.709-1.737 1.763-1.737.004 0 .338 0 .754.061.35.051.65.158.703.178l.45-.091.197-.023v1.717c-.003.146-.007.419.004.758zm-.928-1.768a1.811 1.811 0 0 0-.399-.298c-.097-.052-.34-.182-.768-.182-.049 0-.1.002-.153.006-.531.036-.888.523-.888 1.211 0 .748.399 1.25.992 1.25.67 0 1.216-.56 1.216-1.25v-.737zm-1.656-1.537c-.304 0-.552-.158-.552-.352 0-.194.248-.352.552-.352.304 0 .552.158.552.352 0 .194-.248.352-.552.352zm1.84 0c-.304 0-.552-.158-.552-.352 0-.194.248-.352.552-.352.304 0 .552.158.552.352 0 .194-.248.352-.552.352zm-13.984 0c-.304 0-.552-.158-.552-.352 0-.194.248-.352.552-.352.304 0 .552.158.552.352 0 .194-.248.352-.552.352zm1.84 0c-.305 0-.552-.158-.552-.352 0-.194.247-.352.552-.352.304 0 .552.158.552.352 0 .194-.248.352-.552.352zm-4.5-1.409c.418 0 .739.029.982.087l.022.005v.67l-.044-.025a2.107 2.107 0 0 0-.96-.251c-.47 0-.72.272-.72.789v.693h1.486v.485H1.773c-.001.214-.005 1.653-.002 1.969.004.336.173.823.174.828l.012.035H.92l.006-.032c.001-.003.074-.37.074-.615l.001-3.34.001-.023c0-.822.529-1.275 1.49-1.275zm3.396 2.114c1.21 0 2.024.708 2.024 1.762 0 1.053-.813 1.761-2.024 1.761-1.21 0-2.024-.708-2.024-1.761 0-1.054.813-1.762 2.024-1.762zm1.288 1.585c0-.737-.518-1.233-1.288-1.233S4.6 36.255 4.6 36.992c0 .738.518 1.234 1.288 1.234s1.288-.496 1.288-1.234zm2.272-.803c.338-.491.867-.782 1.43-.782h.346v.71h-.597c-.697 0-1.166.432-1.166 1.077 0 .005-.01.462-.01.84 0 .373.17.854.173.859l.013.037h-.989l.007-.033c0-.004.068-.34.068-.644v-2.796h.679l.046.732zm4.439.676c.7.151 1.385.353 1.385.997 0 .689-.686 1.068-1.932 1.068-.356 0-.814-.084-1.36-.249l-.02-.006v-.714l.046.027c.43.249.96.392 1.457.392.569 0 .951-.176.951-.439 0-.286-.434-.404-.958-.517-.724-.157-1.496-.382-1.496-1.078 0-.614.647-.939 1.87-.939.363 0 .736.041 1.173.13l.024.004v.736l-.046-.026c-.323-.187-.787-.293-1.273-.293-.516 0-.89.155-.89.368 0 .307.543.425 1.069.539zm10.477 1.755c.16.123.385.256.387.257l.089.053H23.7l-.008-.012c0-.001-.057-.083-.273-.32-.218-.239-1.489-1.446-1.502-1.458l-.021-.02 1.745-1.713h.967l-1.838 1.71c.13.138.868.915 1.098 1.105.21.171.377.305.496.398zm-2.691-.91c-.006.476.197.825.2.828l.023.04h-1.104l.006-.032c0-.004.077-.417.077-.62v-4.633h.802v.027c0 .04.001 3.906-.004 4.39zm4.697-1.52c.34-.492.87-.783 1.434-.783h.348v.71h-.599c-.7 0-1.17.432-1.17 1.077 0 .004-.004.427 0 .838.004.406.146.857.147.862l.012.036h-.966l.004-.031a8.6 8.6 0 0 0 .062-.646v-2.796h.682l.046.732zm3.07-2.544c.304 0 .552.237.552.528a.541.541 0 0 1-.552.528.541.541 0 0 1-.552-.528c0-.291.248-.528.552-.528zm.39 4.415c.003.395.148.828.15.833l.012.036h-1.104l.006-.033c.001-.005.085-.437.084-.615-.002-.182 0-.248 0-.248v-2.627h.85v1.812c0 .005-.001.443.002.842zm4.779-.051c.005.503.15.879.152.882l.015.038H33.77l.005-.032c0-.004.063-.43.063-.645v-1.712c0-.374-.348-.626-.866-.626-.773 0-1.403.596-1.403 1.329 0 .045.002.305 0 .795-.002.539.127.85.128.853l.017.038h-.986l.005-.032c0-.004.062-.411.062-.645v-2.796h.712l.05.711a1.81 1.81 0 0 1 1.475-.76c.945 0 1.58.414 1.58 1.032 0 .011-.009 1.062-.003 1.57zm4.95-2.486l.001 3.5c0 .997-.9 1.668-2.239 1.668-.387 0-1.24-.053-1.622-.126l-.024-.005v-.758l.046.025c.34.189 1.19.366 1.6.366.863 0 1.443-.47 1.443-1.17v-.96c-.347.44-.888.7-1.467.7-1.068 0-1.785-.685-1.785-1.703 0-.99.742-1.654 1.846-1.654h.001c.004 0 .421.014.764.055.318.039.7.154.76.173l.677-.111zm-.735.717c-.06-.045-.358-.263-.581-.348a2.114 2.114 0 0 0-.496-.117 3.15 3.15 0 0 0-.327-.017h-.029c-.684 0-1.143.49-1.143 1.218 0 .747.465 1.249 1.157 1.249.783 0 1.419-.583 1.419-1.298v-.687zm28.332 2.606c0-.003.062-.269.071-.43.008-.13.002-.194-.002-.241l-.003-.037a.636.636 0 0 0-.004-.04 1.75 1.75 0 0 1-1.481.831c-1.02 0-1.705-.718-1.705-1.786 0-1.04.709-1.737 1.763-1.737.004 0 .338 0 .754.061.35.051.65.158.703.178l.45-.091.197-.023v1.637l-.001.08c-.002.146-.006.419.005.758.013.414.162.832.164.836l.013.037-.932.001.008-.034zm-.18-2.608a1.807 1.807 0 0 0-.399-.298c-.097-.052-.34-.182-.768-.182-.049 0-.1.002-.153.006-.531.036-.888.523-.888 1.211 0 .748.399 1.25.992 1.25.67 0 1.216-.56 1.216-1.25v-.737zm-11.033 1.768c.013.414.162.832.164.836l.013.037-.932.001.008-.034c0-.003.062-.269.071-.43.008-.13.002-.194-.002-.241l-.003-.037a.636.636 0 0 0-.004-.04 1.75 1.75 0 0 1-1.481.831c-1.02 0-1.705-.718-1.705-1.786 0-1.04.709-1.737 1.763-1.737.004 0 .338 0 .754.061.35.051.65.158.703.178l.45-.091.197-.023v1.637l-.001.08c-.002.146-.006.419.005.758zm-.927-1.768a1.807 1.807 0 0 0-.399-.298c-.097-.052-.34-.182-.768-.182-.049 0-.1.002-.153.006-.531.036-.888.523-.888 1.211 0 .748.399 1.25.992 1.25.67 0 1.216-.56 1.216-1.25v-.737zm-1.656-1.537c-.304 0-.552-.158-.552-.352 0-.194.248-.352.552-.352.304 0 .552.158.552.352 0 .194-.248.352-.552.352zm1.84 0c-.304 0-.552-.158-.552-.352 0-.194.248-.352.552-.352.304 0 .552.158.552.352 0 .194-.248.352-.552.352zm-4.025 3.012c.001.416.147.824.148.828l.013.036h-.996l.004-.03c0-.005.06-.443.06-.623v-1.65c0-.36-.346-.603-.862-.603-.77 0-1.398.596-1.398 1.329v.709c0 .41.128.83.13.833l.01.035h-.996l.005-.031c.001-.005.08-.473.08-.622v-4.632h.771v2.626c.342-.463.88-.737 1.457-.737.942 0 1.574.4 1.574.996v1.536zm6.954-.007c.003.444.18.83.182.834l.017.037h-1.104l.005-.03c0-.006.078-.512.078-.657v-4.598h.821v3.832l.001.582zm3.812-1.034c.779.16 1.539.371 1.539 1.048 0 .723-.762 1.121-2.147 1.121-.395 0-.904-.088-1.51-.261l-.023-.007v-.75l.05.028a3.473 3.473 0 0 0 1.62.412c.632 0 1.057-.185 1.057-.46 0-.301-.482-.424-1.065-.544-.804-.164-1.662-.4-1.662-1.131 0-.645.719-.986 2.079-.986.403 0 .816.043 1.302.136l.026.005v.773l-.05-.028c-.36-.196-.875-.308-1.415-.308-.573 0-.99.163-.99.387 0 .322.605.446 1.189.565zm-17.598.709v1.46H43.6v-1.46h-1.486v-.73H43.6v-1.46h.743v1.46h1.486v.73h-1.486z"/>
        <path d="M0 30.519V22.33h69v8.188H0zm23.937-5.504c.372-.02.663.047.877.13l.215-.911c-.187-.088-.6-.189-1.145-.189-1.406 0-2.57.806-2.57 2.253 0 1.21.86 2.128 2.467 2.128.565 0 1-.1 1.192-.19l-.188-.889c-.281.06-.482.084-.848.093-.76.017-1.237-.295-1.237-1.144 0-.944.544-1.244 1.237-1.281zm-7.77-.016c.448-.03.81.146.81.146l.252-.911c-.187-.088-.6-.189-1.145-.189-1.406 0-2.57.806-2.57 2.253 0 1.21.86 2.128 2.467 2.128.565 0 1-.1 1.192-.19l-.24-.907c-.207.075-.539.126-.884.148-.676.042-1.183-.342-1.183-1.192 0-.944.594-1.237 1.3-1.286zm13.319 3.427h1.485v-4.38h-1.485v4.38zM7.73 27.4l.34 1.009 1.358.016-1.515-4.38H6.05l-1.45 4.38 1.35-.016.31-1.001L7.73 27.4zm-.975-1.62c.083-.243.13-.392.205-.64h.07c.075.248.137.391.226.64l.314.82H6.457l.3-.82zm47.969-.152l-.877-1.581-1.705-.003v4.38h1.281v-1.319c0-.714-.003-1.043-.032-1.621l.022-.007c.26.522.502.936.737 1.341.235.406.893 1.607.893 1.607H56.6v-4.38h-1.234v1.273c.023.716.026.773.064 1.474h-.022c-.253-.446-.393-.674-.683-1.164zm8.483 2.797V25.06H64.4v-1.015h-3.714v1.015h1.192v3.366h1.33zM47.575 24.96l.008-.913-3.24-.002v4.377l3.343.004-.008-.975h-2.017v-.834h1.813v-.893l-1.813.002v-.766h1.914zm-7.69 1.167c0-.76-.313-1.29-.812-1.622-.463-.313-1.055-.46-1.968-.46-.549 0-1.278.053-1.676.11v4.21c.27.032.878.06 1.441.06.94 0 1.71-.178 2.217-.555.464-.35.799-.919.799-1.743zm-2.617 1.381c-.13 0-.266.016-.354-.002v-2.364c.13.001.24-.004.486 0 .776.014 1.247.268 1.24 1.117 0 .976-.433 1.256-1.372 1.25z"/>
        <path fill-rule="nonzero" d="M47.883 12.91c2.87 2.361 4.882 6.816 4.882 6.816h-5.839s-.764-2.822-2.927-4.643c-1.847.319-4.429.311-4.429.311v4.332h-5.254L34.334.782l.183-.009c.103-.007.274-.005.373-.013.284-.02.737-.022 1.312.003 2.416.028 6.832.26 10.27 1.406 1.417.472 2.943 1.5 3.56 3.163.796 2.147.12 5.655-2.149 7.578zm-8.402-.256c.362.007 4.035-.285 5.233-3.16.587-1.407.318-3.058-.797-4.084-.892-.822-2.224-1.184-4.436-1.316v8.56zM0 19.726V.744h14.39v2.843l-9.146.002v4.232h7.381v2.883H5.288v6.173h9.102v2.849H0zM26.694.763L32.1.744l.002 16.246c-.906 3.23-7.943 3.48-7.943 3.48-6.18 0-7.924-3.48-7.924-3.48V.763h5.305l-.03 15.442s.166 1.535 2.594 1.535 2.546-1.478 2.546-1.478L26.694.763zM69 16.42c.007 0-.178 3.67-7.826 3.678-7.233.007-8.41-3.729-8.41-3.729V4.034C53.044 3.412 54.123 0 61.134 0 68.143 0 69 4.034 69 4.034V16.42zm-5.545-.368l.01-12.186s-.495-1.26-2.486-1.26c-1.99 0-2.68 1.26-2.68 1.26l.098 12.13s.409 1.551 2.485 1.495c2.078-.056 2.573-1.439 2.573-1.439z"/>
    </g>
</svg>
