<svg xmlns="http://www.w3.org/2000/svg" width="63" height="73" viewBox="0 0 63 73">
    <path fill="#000" fill-rule="evenodd" d="M.01 23.116l-.004-.013L62.994.001v11.942L.01 23.116zm1.4 45.4l.173.978.136-.51.107-.503.43-1.477h.87l.394 1.477.243 1.013.208-1.013.007.002-.007-.002.36-1.477h1.015l-1.148 4.072h-.869l-.43-1.693-.243-.873-.21.908-.43 1.658H1.15l-.002-.002-.037-.038L0 67.004h1.015l.395 1.513zm-1.363-1.5h-.03l.03.11v-.11zm6.334-4.89v.25l.035.215.071.142.071.142.106.108.107.07.177.071h.32l.176-.07.106-.071.106-.108.107-.142.035-.142.036-.215.035-.215v-2.269h.98v4.072h-.98v-.315l-.203.17-.216.145-.288.072-.286.036h-.002l-.214-.036L6.444 64l-.18-.036-.179-.108-.144-.072v-.002l-.108-.144-.215-.252-.144-.288-.072-.325-.036-.287v-2.594h1.015v2.233zm-.729 6.067l.18-.397.215-.288.287-.252.287-.18.36-.145.394-.036.396.036.358.145.288.18.287.252.215.288.18.397.072.397.035.431-.036.468-.072.397-.18.36-.214.325-.287.252-.288.18-.358.108-.395.036-.395-.036-.359-.108-.288-.18-.287-.252-.215-.325-.18-.36-.071-.397-.036-.468.036-.431.071-.397zm.943 1.078l.036.252.072.178.07.178.143.143.14.107.142.034.178.037.177-.037.142-.034.14-.107.143-.143.072-.178.07-.179.072-.25v-.501l-.071-.214-.071-.217-.071-.176-.142-.107-.143-.108-.141-.07h-.354l-.141.07-.143.108-.141.107-.071.177-.072.215-.036.215-.035.25.035.25zm4.185-10.96v1.017H9.765V58.31h1.015zm0 1.58v4.073H9.765V59.89h1.015zm.071 7.119v.34l.168-.202.217-.144.216-.073.287-.036h.001l.178.036.216.036.18.072.18.109.004.002-.29.982-.008-.003-.142-.071-.178-.073-.143-.035-.177-.035-.177.035-.143.035-.14.072-.071.107-.107.105-.035.179-.036.178v2.45H9.837v-4.072h1.014v.006zm.774-3.046v-5.255l1.015-.51v5.765h-1.015zm2.338 4.57l.345-.487.789-1.044h1.198l-1.08 1.336 1.22 2.737H15.31l-.855-1.898-.493.672v1.226h-1.015V65.82l1.015-.51v3.223zm1.846-4.577v-.275l-.204.137-.215.144h-.001l-.216.073-.25.036-.36-.036-.323-.109-.252-.18-.252-.252-.179-.325-.108-.36-.071-.433-.036-.467.036-.468.071-.432.143-.325.18-.324.216-.218.287-.18.288-.108.358-.036h.253l.25.072h.001l.216.11.168.168v-1.46l1.014-.51v5.765H15.81v-.007zm0-2.835l-.105-.105-.142-.144-.213-.107-.248-.035-.106.035-.143.037-.141.035-.106.106-.106.143-.071.214-.036.25-.036.323.036.358.036.286.07.215.107.142.142.107.107.072.14.07h.142l.213-.035.213-.107.142-.107.105-.142v-1.611zm2.23 4.3v1.02h-1.014v-1.02h1.015zm0 5.653h-1.014v-4.073h1.015v4.073zm-.334-7.112V59.89h1.014v4.073h-1.014zm2.23 3.045v.31l.206-.17.25-.145.251-.072.323-.037.323.037.325.108.251.143.216.181.143.29.108.325.071.358.036.432v2.307h-1.014V68.59l-.035-.213-.072-.178-.07-.108-.107-.106-.105-.072-.141-.072h-.357l-.177.072-.104.07-.108.108-.105.142-.036.142-.036.215-.036.217v2.268h-1.013v-4.072h1.013v.005zm3.278 1.111l.143-.36.18-.285.214-.255.287-.18.29-.108.358-.037.251.037.251.072h.003l.215.107.167.169v-.276h1.016v3.67l-.035.47-.072.431-.144.36h-.002l-.108.145-.108.108-.143.142v.003l-.144.107-.358.145-.394.108-.472.036-.363-.803h.046l.427-.038.32-.07.216-.144.177-.142.07-.141.071-.178v-.452l-.167.17-.251.109-.218.108h-.251l-.358-.036-.326-.108-.25-.18-.251-.253-.18-.288-.107-.399-.072-.43-.036-.469.036-.468.072-.397zm.942 1.188l.035.288.072.214.105.177.144.106.104.072.142.036h.356l.177-.108.177-.141.105-.142v-1.576l-.105-.142-.141-.106-.213-.108-.249-.036h-.107l-.142.036-.14.072-.108.105-.105.142-.072.18-.035.287-.036.286.036.358zm1.999-3.835l-.395.108-.47.037-.364-.805h.046l.428-.035.32-.072.214-.107.177-.142.07-.177.072-.18v-.417l-.204.137-.216.144-.216.072-.287.037-.324-.037-.323-.145-.252-.18-.25-.215-.18-.326-.109-.36-.107-.432v-.936l.108-.431.108-.36.215-.29.215-.252.288-.145.287-.108.36-.036h.251l.252.072.216.145.168.135v-.28h1.014v3.707l-.035.467-.072.397-.18.36-.072.145-.143.144-.108.108-.143.11-.36.143zm.098-4.35l-.105-.141-.142-.108-.213-.107-.25-.036h-.14l-.106.036-.142.071-.106.107-.106.143-.071.214-.036.25-.036.323.036.357.036.251.07.25.107.143.106.106.142.073.142.07h.105l.248-.036.178-.107.178-.106.105-.142v-1.612zm4.162 7.395l.207.973.101-.506.144-.504.43-1.477h.833l.43 1.477.243 1.013.21-1.013.006.002-.006-.002.359-1.477h1.015l-1.148 4.073h-.869l-.466-1.695-.208-.87-.209.907-.466 1.658h-.87v-.042l-1.146-4.031h1.051l.359 1.514zm4.278-.325l.18-.36.215-.324.251-.253.323-.18.36-.144.394-.036.36.036.358.144.323.18.251.253.252.324.143.361.108.395.036.432-.036.47-.108.396-.143.36-.252.324-.25.253-.324.18-.359.108-.358.036-.396-.036-.359-.108-.323-.18-.251-.254-.215-.324-.18-.36-.107-.395-.035-.47.035-.432.107-.396zm.944 1.33l.07.179.107.178.106.143.142.106.177.035.178.037.177-.037.14-.034.143-.107.106-.143.107-.178.07-.18.037-.249v-.502l-.036-.214-.071-.215-.107-.178-.106-.107-.143-.107-.14-.071h-.355l-.177.071-.142.107-.106.107-.106.178-.071.215-.037.214v.502l.037.25zm-3.519-8.438l-.036-.142-.07-.107-.07-.07-.106-.07-.142-.037-.285-.035-.285.035-.285.036-.25.109-.214.107-.006.002-.4-.694.365-.183.358-.144.395-.072h.752l.324.072.286.145.252.144.18.216.144.218.072.289.036.324v2.737h-1.015v-.317l-.205.172-.287.144-.25.072h-.001l-.215.037h-.002l-.286-.037L30.62 64l-.252-.109-.216-.143-.215-.217-.144-.253-.107-.288-.037-.36.037-.362.107-.29.18-.216.216-.181.251-.144h.001l.25-.072.287-.071h.503l.251.035.215.073.17.067v-.384zm-.174 1.083l-.179-.071-.213-.037h-.356l-.142.036-.106.036-.107.07-.07.072-.07.106-.036.106v.25l.035.141.071.106.07.072.107.07.106.036.142.036.142.036.248-.036.25-.107.141-.142.141-.142v-.568l-.174-.07zm-11.328 1.797H19.6v-4.072h1.015v.349l.204-.205.252-.108.25-.109h.647l.288.11.252.143.215.217.18.253.108.324.072.36.035.432v2.306h-1.015v-2.485l-.035-.178-.071-.18-.071-.141-.106-.107-.106-.07-.178-.036-.142-.036-.177.036-.177.036-.106.07-.107.107-.106.143-.07.178-.036.178v2.485zm6.216-26.535l3.856-7.461.002-.004h7.49l-7.98 13.84v9.022h-6.808v-9.023l-7.945-13.839h7.563l3.822 7.465zm-8.112 20.88v1.02h-1.014v-1.02h1.014zM.396 29.964h12.92l3.012 5.258H7.204v3.76h8.26v4.826h-8.26v3.76h11.408v5.258H.396V29.964zM4.089 61.08l.144.108.144.144.108.145.108.217.036.217.035.287-.035.397-.108.36-.144.289-.215.253-.288.216-.323.145-.395.07-.43.037H.397v-5.58h2.366l.36.035.357.072.288.107.251.181.216.218.144.253.072.288.036.325v.001l-.036.144-.036.178-.036.146-.072.181h-.001l-.107.107-.107.145-.11.109-.132.067.24.138zm-.725-1.286l-.036-.108-.034-.107-.07-.07-.107-.07-.142-.037-.32-.034H1.41v1.172h1.316l.178-.036.142-.037.141-.07.071-.072.07-.07.036-.106.036-.213-.036-.142zm.178 2.263l-.035-.18-.072-.142-.07-.105-.14-.072-.143-.07-.142-.037H1.41v1.567h1.494l.178-.036.141-.07.106-.108.107-.107.071-.141.035-.143.036-.178-.036-.178zm34.089 2.016l-.252-.036-.251-.073-.216-.144v-.001l-.169-.135v.281H35.73v-5.148l1.014-.51v1.865l.169-.135.252-.145.216-.072h.252l.359.036.287.108.288.18.216.218.18.324.142.325.072.432.036.468-.036.467-.072.433-.108.36-.18.325-.25.252-.252.18-.323.11-.36.035zm.458-1.446l.036-.215.036-.251.035-.286-.035-.286-.035-.252-.072-.177-.106-.18-.106-.106-.142-.07-.142-.037-.106-.036-.212.036-.214.072-.14.142-.143.178v1.575l.106.106.142.143.213.107.106.035h.142l.178-.035.142-.036.14-.106.107-.142.07-.179zm1.767 4.383v.344l.202-.205.217-.144.001-.001.215-.072.252-.036h.001l.214.036.216.036.18.072.143.109.003.002-.253.983-.007-.004-.142-.071-.178-.073-.178-.035-.178-.036-.142.036-.142.035-.142.072-.105.107-.071.105-.035.179-.037.178-.034.252v2.198H38.84v-4.073h1.015v.006zm.955-3.118l-.323-.18-.252-.216-.25-.325-.144-.36-.107-.397-.037-.468.037-.468.107-.397.144-.36.216-.324.286-.253.287-.18.36-.108.394-.036.36.036.323.108.287.18.252.253.215.289.144.36.071.432.035.468v.294h-2.5l.068.28.072.213.142.143.107.106.177.072.106.035.25.036.247-.036.214-.071.177-.108.143-.143.005-.004.654.657-.006.004-.179.144-.143.144-.181.108-.18.072-.358.144-.394.037-.431-.037-.395-.144zm-.061-2.383h1.487l-.035-.316-.07-.14-.071-.108-.107-.108-.141-.106-.143-.036-.177-.036-.141.036-.142.036-.142.072-.106.106-.071.106-.071.144-.07.178v.172zm2.252 9.567h-1.014V65.82l1.014-.51v5.765zm1.096-12.223l1.014-.51v1.548h.859v.948h-.859v1.717l.037.25.07.143.07.07.069.035.177.034h.177l.142-.034.286-.144.011-.005-.11.95h-.002l-.18.11-.216.035-.214.036-.252.037h-.001l-.251-.037-.25-.109h-.002l-.18-.108-.143-.181h-.001l-.108-.18-.072-.217v-.001l-.035-.215-.036-.216v-1.97h-.608v-.948h.608v-1.038zm-.322 9.269l.143-.36.18-.288.216-.254.287-.18.323-.108.36-.036.216.036.25.073h.001l.216.108.204.17V65.82l1.015-.51v5.766h-1.015v-.316l-.204.171-.252.145h-.001l-.215.072h-.252l-.359-.036-.287-.109-.287-.18-.217-.253-.179-.289-.143-.395-.072-.397-.035-.503.035-.469.072-.396zm1.015 1.473l.07.215.107.178.106.107.142.071.106.035h.39l.176-.106.143-.143.14-.142v-1.575l-.104-.141-.178-.107-.178-.108-.248-.036h-.141l-.142.036-.106.071-.106.107-.106.142-.071.178-.072.287v.645l.072.286zm2.311-6.138l-.071-.216v-.001l-.036-.215-.037-.216v-1.97h-.608v-.948h.608v-1.038l1.015-.51v1.548h.93v.948h-.93v1.717l.036.25.07.143.07.07.07.035.178.034h.177l.142-.034.296-.15-.109.95-.003.002-.18.108h-.001l-.215.036-.215.036-.251.037-.252-.037-.251-.109-.18-.108h-.001l-.144-.181-.108-.18zm2.361-2.376l.179-.36.215-.324.251-.253.325-.18.358-.109.36-.035.393.035.324.11.287.18.252.252.18.289.142.36.108.432.036.468v.294H50.37l.035.28.107.212.107.144.14.106.143.072.142.035.213.036.25-.036.212-.071.178-.108.178-.143.004-.004.618.656-.005.005-.143.144-.18.144-.143.108-.18.072-.394.144-.395.037-.394-.037-.396-.144-.322-.18-.287-.216-.216-.325-.179-.36-.073-.397-.035-.468.035-.468.073-.397zm.943.427h1.486l-.07-.315-.034-.142-.071-.106-.106-.108-.142-.106-.142-.036-.177-.036-.177.036-.143.036-.105.07-.106.108-.107.107-.07.142-.036.178v.172zm4.112-1.61v.34l.168-.201.001-.001.216-.108.25-.108h.432l.216.035.002.001.178.108.178.072.006.001-.291 1.022-.007-.006-.142-.107-.143-.071-.177-.036h-.357l-.14.035-.106.072-.107.105-.07.143-.071.143-.036.215v2.412h-1.015V59.89h1.015v.008z"/>
</svg>
