<svg xmlns="http://www.w3.org/2000/svg" width="110" height="22" viewBox="0 0 110 22">
    <path fill="#000" fill-rule="evenodd" d="M108.904 5.392h-5.346L99.95 14.44h-5.667l3.555-9.074h-5.453l1.23-3.24H110l-1.096 3.266zm-27.293 9.102l-3.475-6.96-3.047 6.96h-5.614l4.999-12.341h7.004l3.234 6.585 2.807-6.585H93l-4.919 12.34h-6.469zm-10.719 2.945c.4.24.508.615.347 1.07h-.988a.47.47 0 0 0-.08-.455c-.161-.188-.455-.294-.91-.267-.481.026-.908.24-1.256.615l-.428.67c-.133.347-.187.615-.16.829a.757.757 0 0 0 .455.535l.374.054.427-.054a1.56 1.56 0 0 0 1.07-.695h.989c-.187.455-.562.83-1.096 1.07-.455.241-1.016.348-1.631.375-.561 0-.963-.134-1.257-.375-.294-.24-.4-.562-.374-.99.027-.214.08-.428.187-.67l.402-.75c.668-.829 1.577-1.257 2.7-1.257.534 0 .935.107 1.23.295zm-8.608-4.39h-6.522l-1.31 1.445h-6.175L60.04 2.153h7.458l1.283 12.34h-6.201l-.295-1.445zm-.133-7.175l-3.368 3.962 3.501-.027-.133-3.935zm-20.263 8.62l4.946-12.368h5.96L47.85 14.494h-5.96zm-4.678-8.54c-.187-.67-.618-1.23-1.336-1.338-1.055-.16-2.264-.038-3.395.134-1.188.18-2.059.99-2.754 1.953-.962 1.42-1.23 2.624-.828 3.668.642.723 1.55 1.098 2.753 1.151.936.027 1.951-.16 3.02-.535.589-.214 1.07-.616 1.417-1.178h-2.405l1.015-2.677h8.581l-2.833 6.933c-1.417-.642-3.208-.75-5.373-.294l-2.673.59-2.78.267c-1.791-.054-3.155-.215-4.064-.509-1.417-.428-2.433-1.232-3.048-2.382-.293-1.606-.026-3.186.803-4.712.748-1.365 1.871-2.57 3.368-3.614 1.898-1.178 4.303-1.847 7.19-2.008a24.576 24.576 0 0 1 7.646.804c.668.268 1.176.589 1.523.937.722.615.937 1.552.615 2.81H37.21zM14.114 9.006c-1.336.294-2.593.857-3.77 1.66v-.027a7.318 7.318 0 0 1 3.904-2.972c1.737-.562 3.368-.427 4.892.348.187.91.214 1.606.107 2.062-1.898-.937-3.61-1.312-5.133-1.07zM13.82 5.58c-1.738.241-3.288.911-4.598 1.982L7.298 9.354c-.75.669-1.444 1.204-2.059 1.552-1.657.964-3.288 1.125-4.891.456-.16-.188-.241-.509-.268-.937L0 9.46a9.377 9.377 0 0 1 1.577-5.14C2.619 2.715 3.982 1.538 5.64.814c1.416-.642 2.993-.91 4.73-.776 1.738.134 3.262.59 4.545 1.419 1.417.937 2.46 2.008 3.181 3.239l.695 1.633c-1.497-.75-3.154-.99-4.972-.75zM5.8 14.36c2.032.08 3.69-.401 5-1.392l1.042-.803.962-.91c.776-.697 1.55-1.045 2.299-1.045 1.31-.053 2.62.321 3.93 1.152-.214 1.499-.936 2.918-2.193 4.23-1.176 1.23-2.512 2.087-4.01 2.596a9.816 9.816 0 0 1-5.132.348c-1.764-.348-3.288-1.07-4.544-2.195a8.02 8.02 0 0 1-2.352-3.373c1.523.856 3.18 1.312 4.998 1.392zm55.068 2.837c1.149 0 1.63.348 1.416 1.018-.16.321-.427.588-.802.776.295.241.375.589.188.99-.134.295-.402.59-.856.83-.348.16-.775.241-1.31.241H57.26l1.55-3.855h2.059zm.374 1.098c.133-.294-.027-.429-.455-.429h-1.23l-.346.858h1.175c.455 0 .723-.135.856-.429zm-1.498 2.088c.509 0 .856-.16.99-.509.134-.32 0-.481-.375-.481h-1.416l-.401.99h1.202zm5.882-3.186l-1.55 3.855h-1.043l1.577-3.855h1.016zm8.687 0l.348 1.66 1.63-1.66h1.15l-2.593 2.437-.561 1.418h-1.042l.587-1.418-.668-2.437h1.15zm4.144 1.205c.668-.83 1.577-1.258 2.7-1.258.534 0 .935.107 1.23.295.4.24.507.615.347 1.07h-.989c.134-.508-.214-.75-.989-.722-.48.026-.909.24-1.257.615l-.427.67c-.134.347-.188.615-.16.829.044.24.205.441.427.535l.401.054.428-.054c.347-.08.588-.187.775-.348l.294-.347h.99c-.188.455-.562.803-1.097 1.07-.454.241-1.015.348-1.63.375-.562 0-.99-.134-1.284-.375-.267-.24-.374-.562-.347-.99.026-.214.08-.428.16-.67.134-.267.268-.508.428-.75zm7.592-1.205l-1.31 3.186h2.406l-.241.67h-3.449l1.578-3.856h1.016zm7.752 0l-.24.67h-2.62l-.348.857H93l-.267.669h-2.406l-.401.99h2.726l-.267.67h-3.742l1.55-3.856h3.61zm1.524 2.704c-.081.134-.054.268.053.402.133.187.428.24.855.214l.856-.16.32-.295c.08-.134.054-.268-.026-.348-.08-.107-.348-.188-.775-.24l-1.016-.188c-.615-.188-.775-.562-.481-1.07.4-.724 1.176-1.072 2.326-1.072.775 0 1.283.16 1.47.482.16.24.16.482 0 .75h-.963c.187-.402-.08-.59-.802-.616-.561 0-.935.16-1.096.455-.08.187-.026.321.187.374l1.15.241c.508.081.855.188 1.016.375.187.241.187.536-.053.91-.241.348-.535.616-.937.777-.4.187-.961.294-1.683.294-.509 0-.855-.107-1.096-.294-.348-.214-.455-.535-.321-.991h1.016zm9.356-8.432c.401 0 .748.16 1.043.455.294.294.427.642.427 1.044 0 .401-.133.75-.427 1.044a1.41 1.41 0 0 1-1.043.428c-.428 0-.776-.133-1.07-.428a1.414 1.414 0 0 1-.427-1.044c0-.402.133-.75.427-1.044a1.45 1.45 0 0 1 1.07-.455zm-.883 2.33c.241.24.535.374.883.374.32 0 .615-.135.855-.375.214-.241.32-.51.32-.83 0-.348-.106-.615-.32-.857a1.194 1.194 0 0 0-1.738 0 1.133 1.133 0 0 0-.347.857c0 .32.107.589.347.83zm1.47-1.554c.147.054.188.214.188.402 0 .294-.16.428-.454.455l.4.642h-.374l-.347-.642h-.322v.642h-.293v-1.579h.796c.112 0 .267.03.406.08zm-.909.16v.456h.482c.187 0 .294-.08.294-.241 0-.134-.133-.214-.374-.214h-.402z"/>
</svg>
