<svg xmlns="http://www.w3.org/2000/svg" width="66" height="71" viewBox="0 0 66 71">
    <g fill="none" fill-rule="evenodd">
        <path fill="#FFF" d="M13.242 49.334l-.628-3.47.932.337c.01.002.96.347 1.559.538a11.808 11.808 0 0 1 4.363-.866c1.195 0 2.325.204 3.361.611.246-.07.669-.16 1.185-.16.357 0 .708.043 1.038.133l.44.115-.04 1.221-1.904 3.444-3.87.198-6.436-2.101"/>
        <path fill="#FFF" d="M13.345 46.753s1.207.436 1.789.608c0 0 3.883-1.846 7.663-.254 0 0 .987-.377 2.103-.082l-.019.627-1.684 3.045-3.447.177-6.015-1.965-.39-2.156"/>
        <path fill="#FFF" d="M17.804 51.497l.006-8.714h2.843v-.63h5.142v-1.789l5.03-2.663v7.227h.027v-2.102h4.685v-2.689h4.442v5.326l.4.068c.546-.312 2.127-1.067 4.717-1.067.384.01 3.515.117 4.986 1.062l2.116-.378-1.542 1.548-.012 4.507-9.315 1.76-5.675.565-17.85-2.03"/>
        <path fill="#171717" d="M24.884 55.337c-2.453-2.675-1.818-5.059-1.538-5.779-.376-1.091-.168-1.894.115-2.41l-1.498-1.703c-.646-.73-1.251-1.969-1.804-3.685l-.469.013h-.057c-.674 0-1.176-.12-1.485-.224-.103.078-.21.138-.308.189.17 1.582-.714 2.486-1.253 2.756l-.838.422.119-.932c.03-.236-.008-.331-.023-.345a.23.23 0 0 0-.102-.017.687.687 0 0 0-.072.005c-.042.02-.053.036-.053.051l.017.043-.01.001c.16 1.152-1.008 2.013-1.059 2.05l-.014.01c-.319.215-.61.356-.834.445.238.684 1.15 1.426 1.502 1.666l1.448.983-1.746-.067a6.749 6.749 0 0 1-1.86-.319c.052.025.082.04.085.04l1.64.69-1.759.266c-.115.02-.229.035-.34.045l.625.169-2.591.303a7.986 7.986 0 0 1-.926.058c-.675 0-1.183-.105-1.566-.252l.45.95-1.282-.624c-1.408-.689-2.151-1.47-2.212-2.322-.056-.794.504-1.35.758-1.561.702-1.459.402-2.008.344-2.095l-.545-.34.54-.405c3.531-3.265 3.121-4.642 3.059-4.792l-.747-.784 1.136-.002c.638-.032 1.557-1.107 1.904-1.622l1.162-1.728-.251 2.068a4.85 4.85 0 0 1-.068.41c1.701-1.046 3.315-2.696 4.499-4.078-.423-1.065-.612-1.986-.568-2.76l-2.938 2.402 2.744-4.745c.14-.244.347-1.035.297-2.113-.056-1.37-.064-2.628.35-3.859l-2.544.662 3.074-2.755c.018-.023.278-.348.78-2.205l.008-.025c.6-2.42 1.368-4.799 1.825-5.654a7.881 7.881 0 0 1 1.053-1.59c-.934.082-1.67.091-1.94.091H19l-4.544-.221 4.225-1.726a12.735 12.735 0 0 0 1.862-.828l-5.659-1.28 7.09-.46c.444-.016 1.21-.637 1.595-1.08l.321-.372.49.027c.127.007.256.012.382.012 3.817 0 6.238-3.308 6.26-3.34l.627-.882.83.694c.355.297 1.113.54 1.65.643a.422.422 0 0 0 .043-.049L34.718.45l.892.671.404-.438 2.759 1.39c.965-.12 1.904-.18 2.8-.18.818 0 1.296.053 1.347.058l.198.024.173.096a9.24 9.24 0 0 1 2.18 1.73l.193.126.02.122.09.108.055.215c.313 1.206.343 2.646.343 2.707l.004.287-.006.012.006.049-.169.222-4.193 7.064.04-3.715c.004-.65-.107-1.866-.426-2.538-.35-.178-.812-.34-1.375-.482-2.602 1.073-4.401 2.588-4.93 3.113 0 .03-.002.065-.004.11.09.076.174.16.25.254.66.824.415 2.099.37 2.299a2.163 2.163 0 0 0-.032.563c.36.3.79.732 1.017.966.3.064.598.08.806.08.339 0 .59-.036.617-.04l2.92-.457-2.201 1.97a3.297 3.297 0 0 1-.107.094l-1.504 4.793-.238.19c-.386.311-.933.504-1.43.624.138.662.382 1.028.651 1.237a1.93 1.93 0 0 1 .276-.696c.265-.458.911-.766 1.803-1.19 2.245-1.069 5.633-2.683 5.66-7.57l.009-2.106.938 1.887c.017.032.32.65.642 1.703a13.224 13.224 0 0 0 1.936-5.431l.02-.145.09-.112c2.28-2.782 2.547-5.357 2.55-5.382l.11-1.155.763.873c.1.115 1.99 2.33 2.431 6.689.077-.751.056-1.516-.153-2.18l-.665-2.138 1.512 1.65c.11.12 2.035 2.262 2.645 5.556.091-.491.155-.957.17-1.345l.064-1.587.858 1.335c.073.117 1.82 2.878 2.346 6.676.48 3.482-.188 6.563-1.722 8.267l2.104-.969-1.961 1.97c-.088.09-.199.206-.321.342l-.4 1.159a3.992 3.992 0 0 0-.068.2l.016 1.124c.022 1.374.352 3.707 1.133 4.4l.607-.03-.44 1.137a20.538 20.538 0 0 1-1.716 3.316 7.516 7.516 0 0 1 1.448 2.065l.607 1.375-1.308-.736c-.57-.318-1.362-.513-2.305-.564-1.026 1.242-1.837 1.938-1.932 2.018l-.051.042-.429.568c-1.979 2.632-4.747 4.503-5.65 5.077l.035.02-1.062.76c-1.926 1.376-4.326 2.052-6.042 2.378-.153.11-2.404.263-2.404.263l-1.331-.02a12.149 12.149 0 0 1-1.39-.024l-1.297-.02a7.318 7.318 0 0 0-.133 1.124l-.036 1.107-.804-.755c-.989-.926-1.346-1.718-1.475-2.165-.05-.014-.1-.03-.15-.043-.248.432-.47 1.728-.492 2.996l-.027 1.508-.88-1.222c-.948-1.325-1.306-2.565-1.433-3.452-.353.813-.648 2.151-.759 3.35l-.125 1.359-.78-1.119a8.359 8.359 0 0 1-1.475-4.296c-.758 1.188-.079 3.193-.073 3.219l.793 2.282-1.631-1.78"/>
        <path fill="#FFF" fill-rule="nonzero" d="M37.776 17.884l-.814.572c.017-.121.03-.2.031-.203l.028-.181-.147-.11a1.296 1.296 0 0 1-.348-.432 4.49 4.49 0 0 0 .574-.178c.236.16.464.337.676.532zM52.364 33.833l.125.021a2.1 2.1 0 0 1-.071.008c-.02-.009-.036-.02-.054-.03zM51.593 33.242c-.006.002-.011.002-.02.003a.054.054 0 0 0-.011-.02l.031.017z"/>
        <path fill="#FFF" fill-rule="nonzero" d="M56.856 33.358c-.232-1.23.613-3.647.613-3.647-1.074.997-1.722 2.802-1.722 2.802.073-1.997 2.564-4.494 2.564-4.494-1.381.635-3.214 2.048-4.042 2.713.566-.862 1.508-1.9 3.079-3.007 2.106-1.353 2.905-4.89 2.4-8.55-.514-3.73-2.273-6.473-2.273-6.473-.074 1.855-1.18 5.317-1.18 5.317 1.045-5.336-2.504-9.21-2.504-9.21.783 2.513-.834 6.175-.834 6.175.68-6.802-2.299-10.204-2.299-10.204s-.26 2.72-2.66 5.651a13.6 13.6 0 0 1-2.635 6.538c-.39-1.647-.885-2.647-.885-2.647-.038 7.071-6.853 7.78-7.536 9.018-.248.372-.274.799-.216 1.182-.977-.206-1.522-.943-1.697-2.282a.57.57 0 0 1-.007-.101c.438-.073 1.226-.25 1.682-.616l.119-.097 1.155-3.685-.194.137c-.042-.079-.186-.34-.372-.662.396-.19.772-.441 1.12-.755l.938-.837-1.24.195c-.002 0-.298.046-.7.046-.281 0-.677-.024-1.064-.128-.14-.147-.802-.836-1.224-1.15a2.497 2.497 0 0 1 .008-.932c.025-.109.255-1.226-.272-1.886a1.11 1.11 0 0 0-.367-.305c.003-.26.012-.486.044-.606.266-.295 2.213-2.142 5.362-3.405.66.158 1.298.366 1.783.638.466.809.557 2.362.551 2.912l-.017 1.858 3.257-5.492.06-.078-.004-.016.027-.044-.003-.143c0-.058-.028-1.44-.327-2.589l-.026-.107-.071-.084a1.41 1.41 0 0 0-.038-.046l-.006-.035-.06-.039a8.712 8.712 0 0 0-2.096-1.68l-.085-.047-.1-.013c-.02-.001-.479-.055-1.29-.055-.784 0-1.803.048-3.01.21l-.096-.125L36.127 1.3l-.447.488a9.54 9.54 0 0 1-.33-.236l-.465-.35-.275.514c-.038.072-.131.168-.22.261l-.078.079c-.59-.071-1.64-.364-2.153-.794l-.416-.348-.312.443c-.025.036-2.563 3.55-6.668 3.55a6.63 6.63 0 0 1-.41-.013l-.246-.013-.16.185c-.294.341-1.219 1.228-1.956 1.252l-4.456.15 4.341.836c-.595.44-1.577 1.038-3.027 1.554l-2.607.93 2.768.043.108.001c.372 0 1.748-.017 3.277-.254-.717.651-1.46 1.491-1.944 2.484-.434.804-1.203 3.192-1.79 5.558l-.007.024c-.501 1.854-.799 2.328-.93 2.446l-1.536 1.378 1.671-.435-.152.067-.082.166c-.676 1.371-.68 2.794-.614 4.38.052 1.119-.153 2.021-.364 2.387l-1.374 2.374 2.123-1.734c.186-.155.37-.312.549-.469-.196.23-.399.462-.609.692l-.021.024-.02.026c-.605.855-.516 2.21.26 4.03-1.604 1.907-3.828 4.139-6.096 5.077 0 0 .47-.539.593-1.56 0 0-1.2 1.79-2.297 1.841 0 0 1.12 1.514-3.134 5.446 0 0 .788.656-.28 2.798 0 0-2.133 1.442 1.278 3.108 0 0-.286-.57-.024-1 0 0 .414 1.134 3.07.822 0 0-1.62-.437-1.748-2.212 0 0 .93 2.17 4.036 1.698 0 0-1.875-.788-1.979-2.528 0 0 1.093 1.737 3.966 1.843 0 0-1.813-1.226-1.779-2.423 0 0 .495-.105 1.114-.519 0 0 .975-.71.855-1.576 0 0-.114-.447.393-.646 0 0 .989-.259.842.9 0 0 1.342-.674.915-2.641 0 0 .488-.087.756-.44 0 0 .586.318 1.642.309 0 0 .298-.008.843-.026.418 1.358 1.036 2.984 1.815 3.869l.732.83-.017-.707.182.809.058.072c.03.038.328.411.824.951-.37.448-.727 1.253-.232 2.503 0 0-1.308 2.508 1.37 5.426 0 0-1.187-3.424 1.062-4.47 0 0-.36 2.63 1.364 5.096 0 0 .385-4.181 1.7-4.535l.013.006c-.02.157-.23 2.137 1.381 4.384 0 0 .056-3.092.852-3.556a18 18 0 0 0 .718.211c.005.087.105.998 1.387 2.199 0 0 .031-.948.251-1.62l1.702.03c.294.02.59.032.884.032.16 0 .321-.004.478-.01l1.561.025.018.018.194-.014h.014l1.286.02c.185-.063.333-.155.456-.259 1.619-.298 4.045-.947 5.963-2.316l.475-.34-1.014-.684 1.131.503.178-.106c.143-.084 3.518-2.092 5.8-5.126l.35-.462-.73-.223.8.11.135-.114c.07-.059.943-.807 2.027-2.147.88.024 1.942.172 2.776.64 0 0-.548-1.245-1.642-2.188a20.056 20.056 0 0 0 1.902-3.577l.16-.416-.02.002c-1.41-.914-1.473-4.906-1.473-4.906-.536.732-.536 2.152-.536 2.152z"/>
        <path fill="#171717" d="M3.337 67.59a33.544 33.544 0 0 1-2.292-2.661L.16 63.785l.429-1.672V50.13l-.411-1.682.848-1.12a28.086 28.086 0 0 1 2.338-2.713l1.464-1.485 1.882.892a69.757 69.757 0 0 0 5.37 2.277l.794.298.778.269a63.283 63.283 0 0 0 5.962 1.736l.861.206.045.05 2.263.409a60.66 60.66 0 0 0 2.87.446l.353.044.322.04a57.39 57.39 0 0 0 6.678.393l.506-.002.24-.003a57.05 57.05 0 0 0 6.85-.506l.297-.039.277-.04a58.299 58.299 0 0 0 2.87-.487l.35-.07.325-.068a60.864 60.864 0 0 0 2.725-.632l1.316-.34 1.322-.4c.947-.288 1.91-.604 2.86-.945l1.786-.634.018-.03.9-.365a70.556 70.556 0 0 0 5.021-2.273l4.252-2.124-.002 14.007c.088.144.175.293.262.441l.628 1.07s-.301 1.106-.386 1.412v3.97l.418 1.714-.884 1.129c-.73.929-1.502 1.81-2.295 2.627l-1.434 1.475c-28.21-13.142-56.456.005-56.456.005l-1.435-1.493"/>
        <path fill="#FFF" d="M2.591 63.723l-.295-.38.252-.98V49.89s-.159-.643-.244-1l.281-.373a25.75 25.75 0 0 1 2.174-2.52l1.417-1.45.904.462c1.822.862 3.34 1.414 5.185 2.104l2.218.4 1.195.626c2.032.704 1.424.483 3.47.97l.738.115.799.17 1.932.342c.99.182 1.924.502 2.903.63l.626.284 1.762.114c2.288.27 2.201.115 4.494.115h1.14l.964-.058c2.354-.03 3.458.087 5.804-.227l1.025-.288 1.31-.284c.983-.142.893-.035 1.876-.228l.569-.114.681-.055c.938-.197.777-.504 1.707-.745l1.876-.397 2.051-.629c.977-.297 1.126-.506 2.105-.854l.909-.343.569-.343 1.537-.455c1.718-.698 2.368-.968 4.073-1.82l2.41-.861-.048 12.611.144.237c.13.213.26.43.389.65l.206.355-.236.865v4.476l.248 1.013-.296.375a31.15 31.15 0 0 1-2.156 2.471l-.48.491-.621-.28a35.41 35.41 0 0 0-5.586-1.956l-.442-.116-.418-.1a48.43 48.43 0 0 0-2.856-.59l-1.268-.223-1.371-.176a68.832 68.832 0 0 0-2.969-.32l-.303-.028-.396-.033c-.953-.076-1.93-.14-2.988-.196l-2.255-.116-2.505-.048c-.985-.02-1.997-.031-3.012-.035l-2.424-.01-2.351.05c-1.034.02-2.045.05-3.005.09l-.336.011-.367.018c-1.028.045-2.037.105-2.994.171l-.178.013-.3.024a77.607 77.607 0 0 0-3.64.358l-1.183.144-1.077.176a48.53 48.53 0 0 0-3.034.58l-2.76.623-.076.12-.339.107c-1.36.422-2.624.901-3.87 1.462l-.628.282-.48-.498a31.489 31.489 0 0 1-2.156-2.502z"/>
        <path fill="#231F20" d="M15.134 47.361s3.883-1.846 7.663-.254c0 0 .987-.377 2.103-.082l-.019.627-1.684 3.045-3.447.177-6.015-1.965-.39-2.156s1.207.436 1.789.608z"/>
        <path fill="#171717" d="M11.359 61.322c-.643.829-1.285 1.729-1.925 2.717-1.329.417-2.656.91-3.98 1.505a30.497 30.497 0 0 1-2.089-2.426l.164-.628V49.77c-.054-.22-.11-.436-.164-.657a24.551 24.551 0 0 1 2.089-2.425 72.35 72.35 0 0 0 5.597 2.372l-.002 3.568c-.19-.278-.379-.56-.567-.851a141.811 141.811 0 0 1-4.355-1.178c-.199.23-.399.47-.599.715v9.6c.2.251.4.497.6.735a43.546 43.546 0 0 1 2.608-.567c.204-.297.407-.584.61-.866v-4.591c-.156-.314-.315-.634-.475-.963.993.112 1.987.23 2.982.346-.164.252-.328.509-.492.773l-.002 5.54"/>
        <path fill="#171717" fill-rule="nonzero" d="M18.249 53.458a105.3 105.3 0 0 1-3.055-.59c-.004.809-.004 1.617-.006 2.428 1.017.115 2.033.228 3.052.332.204-.152.408-.3.613-.447 0-.373.001-.74.003-1.11-.202-.202-.406-.406-.607-.613m.685-1.988a43.84 43.84 0 0 0 2.119 2.117l-.166.279c-.002.672-.004 1.344-.004 2.017l.165.338c-.68.47-1.358.971-2.033 1.506a83.24 83.24 0 0 0 2.009 3.64c.246.178.49.351.737.523a80.24 80.24 0 0 0-3.686.365c.182-.231.363-.456.543-.681a80.528 80.528 0 0 1-1.97-3.834c-.487-.013-.974-.024-1.462-.036 0 1.418-.002 2.84-.004 4.263.198.208.399.41.599.61a52.21 52.21 0 0 0-3.097.594c.16-.297.32-.59.479-.877l.01-11.69c-.159-.311-.319-.63-.478-.954a65.214 65.214 0 0 0 6.24 1.82"/>
        <path fill="#171717" d="M22.26 52.168c1.005.18 2.01.336 3.014.468-.164.153-.33.306-.497.464l-.014 8.073.498.507c-1.007.046-2.014.102-3.017.176.16-.2.322-.398.483-.591l.015-8.458-.482-.64M28.502 56.533c.835.028 1.673.049 2.507.061.194-.134.384-.267.575-.401v2.49c-.193-.141-.383-.283-.575-.426-.836-.006-1.674-.015-2.509-.026-.002.946-.003 1.893-.003 2.84.165.164.331.328.497.489-1.008.022-2.016.05-3.024.091.162-.18.323-.356.485-.534.004-2.61.006-5.218.012-7.824-.16-.187-.32-.377-.482-.57 2.398.284 4.8.422 7.202.412v2.066l-.575-.412a78.469 78.469 0 0 1-4.108-.125c-.002.624-.002 1.245-.002 1.87M36.318 56.568c.836-.02 1.67-.05 2.506-.088.193-.15.383-.304.575-.459l.004 2.621c-.194-.147-.385-.292-.577-.433-.834.014-1.67.026-2.508.036.002.937.002 1.872.002 2.81.168.165.334.335.5.503-1.01-.02-2.018-.034-3.027-.035l.486-.487-.004-7.423c-.16-.16-.323-.32-.484-.482a59.675 59.675 0 0 0 7.201-.53c.002.746.004 1.491.004 2.238l-.573-.392c-1.369.128-2.74.218-4.107.275 0 .615 0 1.231.002 1.846M41.596 52.517a59.227 59.227 0 0 0 3.014-.513c-.166.225-.33.446-.499.663.01 2.881.014 5.762.018 8.644.166.201.335.404.497.61a101.816 101.816 0 0 0-3.016-.198c.163-.17.323-.342.486-.516-.006-2.74-.012-5.483-.016-8.221-.16-.158-.323-.314-.483-.47M47.828 51.872a53.009 53.009 0 0 1 3.61 5.704c-.001-2.195-.003-4.387-.007-6.576-.167-.197-.331-.389-.495-.576 1-.302 1.997-.633 2.994-.987-.159.326-.32.642-.478.957.002 3.999.008 8.005.01 12.017.159.294.317.595.478.903a49.154 49.154 0 0 0-2.913-.604c.14-.218.285-.441.428-.668a59.582 59.582 0 0 0-3.618-6.315c.003 1.958.005 3.917.01 5.876.164.23.33.463.495.701a74.512 74.512 0 0 0-3.008-.324c.162-.181.32-.366.483-.554-.006-3.026-.014-6.05-.018-9.071-.16-.166-.32-.33-.481-.493.953-.198 1.904-.42 2.855-.663-.113.226-.23.45-.345.673M62.647 63.152a30.246 30.246 0 0 1-2.089 2.392 36.394 36.394 0 0 0-5.737-2.008c-.002-1.186-.002-2.371-.002-3.555.19.255.379.518.57.787a46.12 46.12 0 0 1 4.501.881c.198-.233.396-.473.595-.719v-2.076c-.207-.326-.41-.64-.614-.946a70.922 70.922 0 0 0-3.112-.145 31.533 31.533 0 0 0-2.106-2.4c.051-.141.107-.286.16-.431v-2.998c-.061-.123-.12-.248-.18-.37a48.653 48.653 0 0 0 2.118-3.203 73.003 73.003 0 0 0 5.23-2.368v4.98a27.512 27.512 0 0 0-.58-.817c-1.32.392-2.644.769-3.972 1.126-.2.309-.402.614-.602.908v1.653c.226.235.45.478.675.73 1.08-.124 2.158-.244 3.234-.354a37.131 37.131 0 0 1 1.91 2.953c-.053.197-.108.395-.162.59v4.728c.054.218.107.439.163.662"/>
        <path fill="#B0AFAF" d="M60.774 54.275l-.038-.055c-.913.092-1.829.193-2.744.296.016.021.032.037.05.057.913-.106 1.822-.204 2.732-.298"/>
        <path fill="#231F20" d="M19.678 41.272c-1.056.009-1.642-.309-1.642-.309-.268.353-.756.44-.756.44.427 1.967-.915 2.641-.915 2.641.147-1.16-.842-.9-.842-.9-.507.2-.393.646-.393.646.12.867-.855 1.576-.855 1.576-.619.414-1.114.519-1.114.519-.034 1.197 1.78 2.424 1.78 2.424-2.874-.107-3.967-1.844-3.967-1.844.104 1.74 1.979 2.528 1.979 2.528-3.105.472-4.036-1.698-4.036-1.698.127 1.775 1.747 2.212 1.747 2.212-2.655.312-3.07-.823-3.07-.823-.26.43.025 1.001.025 1.001-3.41-1.666-1.277-3.108-1.277-3.108 1.067-2.142.279-2.798.279-2.798 4.253-3.932 3.134-5.446 3.134-5.446 1.098-.052 2.297-1.84 2.297-1.84-.123 1.02-.593 1.559-.593 1.559 4.318-1.786 8.482-8.257 8.482-8.257.02 1 9.861 11.106 3.752 11.339-2.486.098-4.015.138-4.015.138z"/>
        <path fill="#FFF" d="M15.987 41.167s.834-.496 1.022.596c0 0 .1.756-.406 1.744 0 0-.234-1.377-.866-1.1 0 0-.51-.695.25-1.24M6.583 46.914s-1.51 1.041.602 2.31c0 0-.423-.74.087-1.248 0 0 .167-.643-.689-1.062"/>
        <path fill="#FFF" d="M9.591 49.28s-2.725-.337-2.206-2.795c0 0 1.018-.179 1.258.929 0 0-.066 1.117.948 1.865M12.07 48.828s-2.868-.216-3.383-2.943c0 0-.067-.825.63-.863.727.022.938.265 1.162 1.679 0 0 .207 1.119 1.59 2.127M14.069 47.963s-3.167-.69-3.141-3.203c0 0 .002-.827.698-.81 0 0 1.052.116 1.026 1.767 0 0 .119 1.132 1.417 2.246"/>
        <path fill="#FFF" d="M10.238 38.597s.232 2.238-3.198 5.214c0 0 .468 1.299-.42 2.736 0 0 .252-.072.395.2 0 0 .053-.389.348-.545 0 0 .582-.108.865.223 0 0 .118-.166.282-.151 0 0-.355-1.09.478-1.58.764-.367 1.496.685 1.496.685s.01-.04.097-.073c.09-.036.104-.008.104-.008s-.31-1.385.576-1.654c.884-.274 1.476.516 1.698 1.127 0 0 .145.501.129.824 0 0 .366-.818.41-1.651.044-.834.63-.908.63-.908s-.19.215-.204.636c0 0 .218-.5.576-.705 0 0-.05.181-.004.476 0 0 .304-.674.783-.92 0 0-.316-1.067.581-1.641.896-.576 1.374.329 1.374.329s.235-.124.718-.65c0 0 1.647.886 4.988-.026 0 0-1.432-1.679-.735-3.543-.412.252-.747 1.943-.172 2.804 0 0-2.365-2.416-1.223-5.353 0 0-.513.205-.626.4 0 0 .073-.961.596-1.508 0 0-.555.278-.794.427 0 0 .069-.512.35-.804 0 0-.998.147-1.886-.166 0 0-2.97 3.838-7.56 5.976 0 0 .157-.3.398-.938 0 0-.412.652-1.05.767"/>
        <path fill="#171717" d="M9.542 45.267s.536.078.636.643c.096.567.027 1.688 1.484 2.738 0 0-1.998-1.01-2.12-3.38M8.005 46.823s.335.119.466.497c0 0-.024 1.292.65 1.703 0 0-1.03-.577-1.116-2.2M6.681 47.109s.43.252.445.7c0 0-.474.62-.171 1.117 0 0-.616-.847-.274-1.817M11.717 44.265s.71.358.71 1.325c.002.97.894 1.938 1.261 2.149 0 0-2.117-1.192-1.971-3.474M15.793 42.256s.597-.374.82.943c0 0 .266-1.667-.635-1.7 0 0-.318.124-.185.757"/>
        <path fill="#231F20" d="M7.08 46.568s.472-.581.445-2.435c0 0 .35.832-.027 2.184l-.418.251M8.442 45.872s.148-.763.002-1.717c0 0 1.227-1.151 1.865-2.82 0 0-.738 2.294-1.587 2.868 0 0 .145.571.093.77l-.373.9M10.639 44.741s.077-1.046.041-1.217c0 0 .872-1.493.995-3.004 0 0-.063 1.795-.66 3.026l.001.386-.377.81"/>
        <path fill="#171717" d="M11.096 38.9s1.966-.49 4.92-3.06c0 0-.832 1.441-1.401 1.903 0 0 .848-.547 1.043-.942 0 0-.279 1.073-1.338 1.718 0 0 .862-.447 1.192-.853 0 0-.577 2.47-4.416 1.234M16.988 38.967s.55.071 1.121.64c0 0 1.272.749 2.745.288.338.05.75.885 1.105.86 0 0-2.527.714-3.98-.085l-.427.391s-.22-1.792-.58-2.111"/>
        <path fill="#231F20" d="M23.085 40.56s-2.627-.292-4.997-5.092c0 0 .407 1.804 1.178 2.762 0 0-.966-.11-1.383-.388 0 0 1.072 1.01 2.011 1.582 0 0-.58.06-1.176-.092 0 0 2.117 1.548 3.798 1.634l.569-.406M17.23 41.294l-.67-.328s1.11-.826.412-2.016c0 0 .917.893.597 2.276l-.339.068"/>
        <path fill="#171717" d="M11.322 43.438s1.238-.236 1.714.96c0 0 .181-.25.225-.767.043-.521.364-1.013.615-1.078 0 0-.883.28-.986.97 0 0-.885-.516-1.568-.085M9 44.5s.769-.278 1.305.426c0 0 .102-.082.179-.047-.05-.166-.013-.298-.013-.298s.11-.53.002-1.05c0 0-.025.675-.276.874 0 0-.763-.377-1.197.095M6.717 46.463s.157-.022.277.097c0 0 .016-.154.159-.289 0 0 .129-.138.194-.66 0 0-.132.516-.262.615-.127.103-.136.193-.136.193s-.125-.029-.232.044M7.63 46.097s.427-.02.562.162c0 0 .042-.093.162-.1 0 0-.131-.616.052-.856 0 0 .067-.343-.048-1.111 0 0 .048.87-.064 1.078 0 0-.24.463-.094.728 0 0-.074.015-.083.059 0 0-.216-.059-.487.04"/>
        <path fill="#231F20" d="M36.968 50.984l.877 1.733-.61.04c-.216.013-.44.019-.668.019-3.686 0-7.49-1.817-7.647-1.894l-.15-.073-.7-1.99.214 1.77-.733-.498c-2.392-1.625-4.183-3.876-4.26-3.972l-.057-.072-.183-.81.017.708-.732-.83c-1.467-1.67-2.37-5.964-2.408-6.148l-.004-.01c-.047-.266-1.15-6.557.38-9.712.032-.071.11-.203.901-.804a23.63 23.63 0 0 1 2-1.357c1.495-.902 3.744-2.028 5.983-2.251.526-.054 1.195-.421 1.84-.778.807-.444 1.644-.905 2.432-.905.472 0 .884.165 1.22.49.15.139.28.199.419.262.234.107.824.805.915 1.585.21 1.821.714 4.127.872 4.836l11.192 6.322 10.808-.535-.16.416c-1.834 4.52-4.933 7.16-5.064 7.271l-.135.114-.8-.108.731.223-.35.46c-2.283 3.035-5.658 5.043-5.8 5.127l-.179.106-1.132-.503 1.015.684-.476.34c-3.095 2.212-7.531 2.543-7.718 2.555l-.194.014-1.656-1.825"/>
        <path fill="#231F20" d="M35.612 25.534c-.17-1.48-.592-1.015-1.209-1.603-1.353-1.29-3.548 1.142-5.177 1.306-4.148.414-8.5 4.044-8.555 4.178-1.497 3.07-.349 9.47-.349 9.47s.904 4.353 2.319 5.961l-.08-3.649 1.045 4.67s1.803 2.277 4.171 3.888l-.551-4.565 1.867 5.328s4.304 2.08 8.116 1.834l-1.956-3.862 3.54 3.903s4.47-.312 7.508-2.482l-4.334-2.923 5.136 2.277s3.42-2.016 5.683-5.021l-5.043-1.52 5.661.763s3.13-2.634 4.946-7.115l-10.547-1.798L36.54 30.63s-.673-2.88-.929-5.096"/>
        <path fill="#FFF" d="M35.612 25.534c-.17-1.48-.592-1.015-1.209-1.603-1.353-1.29-3.548 1.142-5.177 1.306-4.148.414-8.5 4.044-8.555 4.178-1.497 3.07-.349 9.47-.349 9.47s.904 4.353 2.319 5.961l-.08-3.649 1.045 4.67s1.803 2.277 4.171 3.888l-.551-4.565 1.867 5.328s4.304 2.08 8.116 1.834l-1.956-3.862 3.54 3.903s4.47-.312 7.508-2.482l-4.334-2.923 5.136 2.277s3.42-2.016 5.683-5.021l-5.043-1.52 5.661.763s3.13-2.634 4.946-7.115l-10.547-1.798L36.54 30.63s-.673-2.88-.929-5.096"/>
        <path fill="#231F20" d="M56.058 38.403s-.474.135-1.381.616c0 0-3.787 7.006-13.011 9.412 0 0-1.013.695-.535 1.23 0 0-.692.855 0 1.55 0 0 .055 1.23-1.013 1.605l-6.559-.107 1.334-6.096 11.891-4.76 5.76-4.599 1.324.22.845.337 1.345.592M33.466 12.03l.248-1.77.08-.074c2.254-2.093 5.532-3.724 5.668-3.793l.11-.054 1.767.553-.482.248c-3.64 1.245-5.915 3.399-6.202 3.718-.075.288-.032 1.18-.022 1.74l-.101.796-1.066-1.364"/>
        <path fill="#231F20" d="M39.599 6.666s-3.35 1.656-5.6 3.741l-.216 1.537.432.55s-.024-1.485.119-1.871c0 0 1.964-2.326 6.03-3.717l-.765-.24"/>
        <path fill="#FFF" d="M39.599 6.666s-3.35 1.656-5.6 3.741l-.216 1.537.569.567s-.081-1.421.063-1.805c0 0 1.962-2.394 6.032-3.783l-.848-.257"/>
        <path fill="#231F20" d="M35.697 19.957c0-.034.002-.783.14-1.504-.24-.25-.736-.866-1.186-2.075l-.186-.503 1.645.304.033.212c.052.325.286 1.24.731 1.571l.147.11-.028.18c-.002.012-.166 1.047-.188 1.48l-.01.18-1.098.525v-.48"/>
        <path fill="#231F20" d="M35.844 16.439s.204 1.287.85 1.766c0 0-.168 1.056-.192 1.511l-.502.24s0-.863.167-1.607c0 0-.646-.504-1.232-2.078l.909.168"/>
        <path fill="#FFF" d="M35.844 16.439s.204 1.287.85 1.766c0 0-.168 1.056-.192 1.511l-.502.24s0-.863.167-1.607c0 0-.646-.504-1.232-2.078l.909.168"/>
        <path fill="#231F20" d="M17.126 33.973l.828-.026.615.614.933 3.43.454.482-.24-2.786-.496-1.718-.657-1.296-.263-.121z"/>
        <path fill="#171717" d="M27.509 42.406c-4.04-3.205-5.564-6.293-6.14-8.155a9.29 9.29 0 0 1-1.439 2.036l-1.013 1.095.148-1.483c.048-.481-.158-.768-.552-1.276-.218-.278-.466-.596-.662-.996-1.043-2.152-1.228-3.727-.556-4.682l.02-.026.021-.024c.21-.23.413-.461.609-.692-.179.157-.363.315-.55.469l-2.122 1.734 1.374-2.374c.21-.366.416-1.269.364-2.387-.065-1.586-.062-3.009.613-4.38l.083-.166.152-.067-1.671.435 1.537-1.378c.13-.118.428-.592.929-2.446l.008-.024c.586-2.366 1.355-4.754 1.79-5.558.483-.993 1.226-1.833 1.943-2.484a22.832 22.832 0 0 1-3.277.254h-.108l-2.768-.044 2.607-.93c1.45-.516 2.432-1.114 3.027-1.554l-4.34-.837 4.455-.15c.737-.023 1.662-.91 1.956-1.25l.16-.186.246.013c.137.009.274.013.41.013 4.105 0 6.643-3.514 6.668-3.55l.312-.443.416.348c.513.43 1.563.723 2.153.794l.077-.08c.09-.092.183-.187.22-.26l.276-.513.466.35c.106.08.223.163.328.236l.448-.489 2.338 1.18.9 1.169-4.714 1.075L30.57 9.43l-1.877 3.385-.661.689 3.126 2.35 1.093 4.17 3.247.959-.307.548c-.057.105-.2.443-.16.708.208 1.604.947 2.346 2.324 2.346 1.502 0 3.152-.914 3.17-.922l1.064-.597-.34 1.175c-.044.148-1.088 3.667-2.953 4.988l-.033.024-.038.018a.544.544 0 0 1-.24.053c-.303 0-2.13-.409-3.192-.653l-.058-.014-.97-.484-2.144 2.967c-.833 3.998 1.024 7.955 1.044 7.995l.67 1.404-1.362-.746c-2.719-1.493-4.156-3.484-4.916-5.163.192 3.532 1.228 7.197 1.242 7.245l.431 1.498-1.22-.968"/>
        <path fill="#231F20" d="M38.493 3.333l-.352-.458-1.9-.957-.486.528s-.383-.252-.704-.493c-.122.227-.376.418-.523.621-.549-.008-1.965-.324-2.689-.928 0 0-2.841 4.01-7.514 3.748 0 0-1.197 1.388-2.317 1.424l.972.188S21.858 8.32 19.018 9.33c0 0 3.327.053 5.717-.846 0 0-2.708 1.48-3.84 3.807-.414.762-1.183 3.171-1.75 5.461-.169.62-.62 2.292-1.085 2.713 0 0 1.933-.504 3.723-2.213 0 0-1.44 2.254-3.71 3.235-.646 1.311-.619 2.75-.562 4.137.051 1.123-.136 2.147-.433 2.66 3.302-2.699 5.004-6.152 5.004-6.152s-1.177 3.626-4.378 7.104c-.65.916-.169 2.597.594 4.17.489.999 1.372 1.454 1.266 2.543 1.632-1.764 1.957-3.491 1.957-3.491s.087 4.631 6.298 9.555c0 0-1.865-6.507-1.117-10.712 0 0 .098 5.084 5.51 8.054 0 0-1.996-4.162-1.057-8.42l2.452-3.4 1.298.65s2.998.687 3.1.637c1.745-1.236 2.761-4.72 2.761-4.72s-5.59 3.14-6.23-1.785c-.077-.5.218-1.029.218-1.029l-2.915-.862-1.121-4.273-3.44-2.587 1.008-1.048 1.871-3.373 4.224-4.874 4.112-.937"/>
        <path fill="#FFF" d="M38.493 3.333l-.352-.458-1.9-.957-.486.528s-.383-.252-.704-.493c-.122.227-.376.418-.523.621-.549-.008-1.965-.324-2.689-.928 0 0-2.841 4.01-7.514 3.748 0 0-1.197 1.388-2.317 1.424l.972.188S21.858 8.32 19.018 9.33c0 0 3.327.053 5.717-.846 0 0-2.708 1.48-3.84 3.807-.414.762-1.183 3.171-1.75 5.461-.169.62-.62 2.292-1.085 2.713 0 0 1.933-.504 3.723-2.213 0 0-1.44 2.254-3.71 3.235-.646 1.311-.619 2.75-.562 4.137.051 1.123-.136 2.147-.433 2.66 3.302-2.699 5.004-6.152 5.004-6.152s-1.177 3.626-4.378 7.104c-.65.916-.169 2.597.594 4.17.489.999 1.372 1.454 1.266 2.543 1.632-1.764 1.957-3.491 1.957-3.491s.087 4.631 6.298 9.555c0 0-1.865-6.507-1.117-10.712 0 0 .098 5.084 5.51 8.054 0 0-1.996-4.162-1.057-8.42l2.452-3.4 1.298.65s2.998.687 3.1.637c1.745-1.236 2.761-4.72 2.761-4.72s-5.59 3.14-6.23-1.785c-.077-.5.218-1.029.218-1.029l-2.915-.862-1.121-4.273-3.44-2.587 1.008-1.048 1.871-3.373 4.224-4.874 4.112-.937"/>
        <path fill="#231F20" d="M18.38 43.356h2.05v2.526h.794v-3.156h4.137v3.156h1.004v-6.07l3.889-2.06v7.747h1.17v-2.1h4.348v3.614h.334v-7.745h3.303v9.3h.963v-2.06l-.377-.461.502.084s1.545-1.096 4.599-1.096c0 0 3.616.094 4.849 1.096l.57-.102-.43.43-.011 4.27-8.826 1.668-5.59.556-17.285-1.966.008-7.631"/>
        <path fill="#FFF" d="M47.58 46.136s1.285.152 2.115.257l.192-.167s-1.066-.71-3.812-.782c0 0 2.132.226 3.422.712l-.05.04s-1.367-.091-1.866-.06M48.59 47.323v-.96a34.562 34.562 0 0 0-1.063-.078v.958c.357.02.71.047 1.062.08M47.43 47.238v-.957a30.46 30.46 0 0 0-1.06-.04v.955c.353.007.708.022 1.06.042M46.27 47.193v-.952a33.49 33.49 0 0 0-1.061 0v.945c.354-.004.71 0 1.062.007M49.687 47.437v-.958a36.998 36.998 0 0 0-1-.11v.96c.336.032.667.067 1 .108M48.686 47.428v.866c.337.032.668.068 1.001.11v-.868a35.71 35.71 0 0 0-1-.108M43.954 47.318c-.356.017-.709.038-1.062.064v.868c.353-.026.706-.05 1.062-.064v-.868M47.527 49.299v1.036c.357.019.71.046 1.062.075v-1.032c-.352-.033-.705-.06-1.062-.08M46.37 49.251v1.042c.353.007.708.018 1.06.038v-1.038c-.352-.02-.707-.034-1.06-.042"/>
        <path fill="#B0AFAF" d="M48.686 50.42c.337.032.668.068 1.001.11v-1.038a57.06 57.06 0 0 0-1-.109v1.037"/>
        <path fill="#FFF" d="M48.686 49.285c.337.032.668.07 1.001.11V48.5c-.333-.04-.664-.078-1-.107v.89M47.527 49.2c.357.02.71.048 1.062.079v-.893c-.352-.032-.705-.059-1.062-.079v.893M46.37 48.258v.894c.353.01.708.024 1.06.042v-.892c-.352-.02-.707-.035-1.06-.044M45.209 49.241v1.052c.354-.007.71-.007 1.062-.002v-1.04a34.274 34.274 0 0 0-1.062-.01M45.209 48.25v.892c.354-.003.71 0 1.062.008v-.893a37.06 37.06 0 0 0-1.062-.007M45.112 48.152v-.867c-.355.005-.708.014-1.06.03v.866c.352-.015.705-.026 1.06-.029M42.892 48.348v.893c.353-.026.706-.05 1.062-.064v-.892c-.356.014-.709.036-1.062.063M45.112 47.187v-.944c-.355.007-.708.02-1.06.042v.932c.352-.016.705-.026 1.06-.03M47.43 48.204v-.866c-.352-.02-.707-.036-1.06-.045v.867c.353.009.708.025 1.06.044M44.052 48.28v.892c.352-.014.705-.024 1.06-.028v-.893c-.355.004-.708.014-1.06.028M48.59 48.287v-.866a27.65 27.65 0 0 0-1.063-.08v.866c.357.023.71.048 1.062.08M46.27 48.157v-.864c-.352-.01-.707-.013-1.061-.01v.867c.354-.002.71 0 1.062.007M43.954 47.22v-.932c-.356.02-.709.045-1.062.08v.915c.353-.026.706-.047 1.062-.063M42.793 47.39c-.315.024-.63.052-.943.086v.867c.313-.033.628-.06.943-.086v-.868M42.892 49.339v1.077c.353-.031.706-.058 1.062-.078v-1.063c-.356.016-.709.037-1.062.064M42.793 48.355c-.315.025-.63.053-.943.088v.891c.313-.031.628-.06.943-.084v-.895M42.793 46.375c-.315.03-.63.065-.943.104v.9c.313-.035.628-.064.943-.087v-.917M41.85 49.432v1.098c.313-.039.628-.073.943-.103v-1.08c-.315.025-.63.054-.943.085M44.052 49.27v1.064c.352-.02.705-.034 1.06-.041v-1.05c-.355.003-.708.013-1.06.028"/>
        <path fill="#231F20" fill-rule="nonzero" d="M48.59 49.279c-.353-.03-.706-.058-1.063-.079v-.893c.357.02.71.047 1.062.08v.892zm-2.22-.127v-.894c.353.009.708.025 1.06.044v.892a41.548 41.548 0 0 0-1.06-.042zm-1.161-.01v-.892c.355-.003.71 0 1.062.007v.893a34.262 34.262 0 0 0-1.062-.008zm-1.157.03v-.892c.352-.015.705-.025 1.06-.029v.893c-.355.004-.708.014-1.06.028zm-1.16.069v-.894a32.18 32.18 0 0 1 1.063-.063v.893c-.357.014-.71.037-1.063.064zm0-1.859c.353-.026.706-.047 1.063-.064v.868c-.357.015-.71.038-1.063.064v-.868zm2.22-.097v.867c-.355.003-.708.014-1.06.03v-.868c.352-.015.705-.024 1.06-.03zm1.159.008v.864a41.523 41.523 0 0 0-1.062-.007v-.866c.355-.003.71 0 1.062.009zm1.16.045v.866a39.19 39.19 0 0 0-1.061-.045v-.866c.353.009.708.025 1.06.045zm1.158.083v.866a37.348 37.348 0 0 0-1.062-.08v-.865c.357.021.71.044 1.062.08zm.098.007a35.933 35.933 0 0 1 1.165.126v-.098a42.016 42.016 0 0 0-1.165-.128v-1.017h-.098v1.012a29.41 29.41 0 0 0-1.062-.08v-1.08h-.097v1.075c-.352-.02-.707-.035-1.06-.042v-1.048h-.1v1.045a32.637 32.637 0 0 0-1.061-.007v-2.04h-.097v2.041c-.355.004-.708.014-1.06.03v-1.759h-.097v1.763c-.357.015-.71.036-1.063.062v-1.26h-.099v1.269c-.315.023-.63.052-.943.086-.236.026-.47.05-.705.078v.098c.235-.03.47-.054.705-.078.313-.033.628-.062.943-.087v.868c-.315.026-.63.053-.943.086-.236.025-.47.049-.705.078v.098c.235-.029.47-.052.705-.076.313-.035.628-.063.943-.088v.895c-.315.024-.63.053-.943.084-.236.027-.47.048-.705.079v.098c.235-.029.47-.052.705-.08.313-.03.628-.059.943-.085v1.222h.1v-1.23c.352-.026.705-.047 1.062-.064v1.294h.097V49.27a35.86 35.86 0 0 1 1.06-.029v1.326h.097V49.24c.355-.002.71 0 1.062.009v1.318h.099V49.25c.353.008.708.023 1.06.042v1.275h.097v-1.27c.357.02.71.047 1.062.08V50.6h.098v-1.217c.336.034.667.07 1 .109l.165.02v-.099c-.054-.01-.107-.01-.165-.018a43.48 43.48 0 0 0-1-.11v-.891c.336.03.667.067 1 .108.058.006.111.01.165.017v-.098c-.054-.008-.107-.011-.165-.017a33.96 33.96 0 0 0-1-.11v-.866z"/>
        <path fill="#231F20" d="M30.066 41.836s-3.49-.516-4.813 4.136c0 0 1.675-1.45 2.958-.705 0 0-.024.958-3.59 1.358 0 0-1.57.856-.738 2.948 0 0-1.308 2.508 1.37 5.426 0 0-1.187-3.424 1.062-4.47 0 0-.36 2.63 1.364 5.096 0 0 .39-4.215 1.713-4.542 0 0-.3 2.056 1.381 4.397 0 0 .086-4.768 1.57-3.354 0 0 .041.945 1.387 2.208 0 0 .073-2.28.812-2.268 0 0 .965.18 1.635-.974 0 0-.055-1.188.632-1.8 0 0-.14-1.893 2.64-2.097 0 0 5.637 1.295 14.55-5.46 0 0 2.73-.419 4.466.556 0 0-1.236-2.81-3.699-3.183 0 0 1.361-.553 2.292-.336 0 0-2.292-3.482-6.43-2.677 0 0-2.187-6.072-10.115-6.65-.593-.737-.918-1.187-1.356-1.731-2.54-.619-3.054-.758-4.522-.346 0 0-2.233.424-3.22 3.555-.277.865-.876.145 1.574 5.339.966-.059 2.895 1.863 4.036 1.841.501.534.624.74 1.266 1.364 0 0-1.62 2.17-5.33 2.672 0 0-1.44 1.04-2.895-.303"/>
        <path fill="#FFF" d="M25.976 50.085s.013-1.795-1.18-1.703c0 0-2.125 2.793.006 5.612 0 0-.72-2.14.486-3.204 0 0 .618-.376.688-.705M27.674 48.28s-2.011 1.595-.116 6.8c0 0-.205-3.518 1.304-4.404 0 0 .1-1.91-1.188-2.397M30.605 54.915s-1.724-3.36-.211-6.299c0 0 1.487-.027 1.596 2.392 0 0-1.602-.288-1.385 3.907M33.258 48.923s-1.542 1.537.329 4.977c0 0-.101-1.962.77-2.107 0 0 .122-2.28-1.099-2.87M25.996 45.088s1.47-3.258 3.9-2.837c0 0-1.552 1.236-1.612 2.344 0 0-.745-.371-2.288.493"/>
        <path fill="#FFF" d="M24.7 46.993s3.581-.121 3.96-1.735c0 0 2.256-.688 3.134-2.31 0 0 1.03-.206 1.39-.556 0 0 4.824-.682 5.935-3.069 0 0 3.244-3.007 11.127-1.371 0 0-7.348-2.784-11.574 1.053 0 0-.629-.582-1.393-1.375 0 0-2.012.121-4.069.486-.457-1.327-1.988-5.375-2.188-6.187 0 0 .692-2.87 2.686-4.36 0 0 2.508-1.043 4.63.067 0 0 1.049.95 1.824 2.116 0 0 7.676.145 10.217 6.785 0 0 3.626-.631 5.717 1.696 0 0-1.732.216-2.204 1.168 0 0 2.556-.051 3.353 1.931 0 0-2.172-.444-3.412-.032 0 0-6.23 5.707-14.192 5.545 0 0-2.84-.198-3.15 2.241 0 0-.762.669-.611 1.86 0 0-.108.674-1.25.837 0 0 .338-2.68-1.473-3.469 0 0-.6.645-.752 2.209l-.196-.005s-.188-2.317-1.94-2.34c0 0-.5.645-.756 2.012 0 0-.24-.143-.31.04 0 0-.2-2.303-1.638-2.35 0 0-.59.551-1.04 2.15 0 0-.145-.155-.303-.041 0 0 .187-2.212-1.498-2.07 0 0-.251.259-.678 1.298 0 0-.438-1.481.654-2.224z"/>
        <path fill="#231F20" d="M31.415 33.46s-.263-4.024 2.711-5.922l-.087-.357s-3.362 1.347-3.12 6.766l.496-.487"/>
        <path fill="#FFF" d="M28.633 44.699s.135-.015.115.195c0 0 1.99-.927 2.523-2.011 0 0-.63-.082-.893-.413 0 0-1.18.827-1.745 2.229"/>
        <path fill="#231F20" d="M26.97 48.902s.399-.939.067-1.286c0 0 2.284-1.156 2.613-2.124 0 0-.275 1.252-2.133 2.185 0 0 .206.325.054.593l-.6.632M29.939 48.848s.287-.607.074-1.42c0 0 1.28-.36 2.042-2.138 0 0 0 1.582-1.528 2.328 0 0 .121.461-.043.655l-.194.104-.351.471M32.762 49.104s.195-1.053-.093-1.718c0 0 1.5-1.507 1.625-2.55 0 0-.156 1.612-1.101 2.655 0 0 .097.518.045 1.04l-.476.573"/>
        <path fill="#171717" d="M26.333 44.745s.992-.637 1.714-.45c0 0 .116-.739.602-1.15 0 0-1.06-.1-2.316 1.6M25.813 49.952s-.055.42-.662.711c-.6.498-.89.834-.653 2.696 0 0-.966-2.477.921-4.466 0 0 .256.13.394 1.059M28.249 49.38s.271.234.368 1.146c0 0-1.135.091-1.206 3.838 0 0-.666-2.662.838-4.984M31.314 49.738s.417.212.359 1.096c0 0-1.243.25-1.209 3.346 0 0-.471-2.904.85-4.442M33.934 50.357s.246.459.184 1.12c0 0-.694-.108-.668 1.72 0 0-.313-2.253.484-2.84M33.452 48.207s1.554.681 1.354 2.834c0 0 .477.065.769-.598 0 0-.102-.8.63-1.457 0 0-.314-.995 1.131-1.926 0 0-1.332.324-1.605 1.892 0 0-.523.318-.464 1.28 0 0-.248-1.721-1.815-2.025M41.305 46.211s4.453-1.837 6.111-4.788c0 0-.339 1.625-.586 2.156 0 0 1.66-1.551 1.874-2.992 0 0-.012 1.654-.18 2.3 0 0 1.464-1.298 1.655-2.985 0 0 .33 1.65-.131 2.457 0 0 1.553-1.072 2.82-2.71 0 0-2.245 5.813-11.563 6.562M30.71 48.061s1.268.15 1.5 1.76c0 0 .067-.455.27-.931 0 0 .185-.858-.141-1.374 0 0 .14.88-.185 1.354 0 0-.446-.857-1.444-.809M27.741 47.769s1.231-.153 1.511 1.961c0 0 .155-.731.537-1.135 0 0 .216-.739-.1-1.054 0 0 .163.814-.327 1.094 0 0-.45-1.137-1.62-.866M24.726 47.665s1.525-.29 1.646 1.651c0 0 .675-.844.444-1.327 0 0-.17.388-.376.513 0 0-.298-1.212-1.714-.837M34.69 42.766s4.156-1.03 5.095-3.175c0 0 2.52-1.792 6.91-.783 0 0-4.571.335-5.79 1.48-1.219 1.144-2.49 2.228-6.214 2.478"/>
        <path fill="#231F20" d="M25.03 7.828s3.254-2.08 5.386-3.628c.755-.548.83-.818 1.608-1.029 0 0 1.012.893 2.076.321.278-.186.914.051.914.051l.224-.592V2.4l.61.626-.083.684-1.233.37-2.716 2.754-1.584.628-2.485 2.404 2.26-2.812.689-.467-.004-.392-.464-.666-.345-.058-4.852 2.358"/>
        <path fill="#171717" d="M29.84 10.238l1.355-1.542 3.078-2.058 2.4-.41 1.806.206 1.19.308-1.067.699-2.197 1.235-1.332 1.028-.945.823-.143 1.81.656 2.531 1.007 2.448.636.947-.103 1.542-.822.535-2.973-.535-1.581-3.97-2.707-2.263-.718-.062z"/>
        <path fill="#231F20" d="M36.222 2.444l-.467.621-.034.682.702-.12-.258-.515z"/>
        <path fill="#231F20" d="M36.11 3.085l.533-.193s.34.17 1.01.19l-.67.291-.842.12-.031-.408"/>
        <path fill="#231F20" d="M42.805 2.946s-3.446-.407-8.302 1.056c0 0-3.997 3.263-6.248 8.086l-2.248 2.493 1.388-.598 3.16 2.28s1.027 3.045 1.1 4.293c0 0 1.53.84 3.014 1.128 0 0 1.242-.217 1.724-.552l.67-2.135-1.437 1.007s-1.458.289-2.681-.43c0 0-1.387-1.776-1.721-3.744l-2.728-2.663-.456.12.862-.96s1.031-2.183 2.226-3.19c1.198-1.007 3.852-2.28 5.431-2.664 0 0 3.829.168 5.6 1.248.718 1.08.694 3.288.694 3.288l2.32-3.912s-.024-1.369-.311-2.47c0 0-.814-.985-2.057-1.68"/>
        <path fill="#231F20" d="M34.344 22.201c-1.82 0-3.004-1.248-3.054-1.301l-.125-.132-.01-.181c-.052-.915-.715-3.077-1.024-4.013l-2.798-2.017-3.236 1.397 3.738-4.147c2.276-4.833 6.186-8.058 6.35-8.193l.076-.062.097-.03c3.097-.933 5.633-1.13 7.215-1.13.81 0 1.27.055 1.29.056l.099.013.085.047a8.478 8.478 0 0 1 2.2 1.8l.07.084.027.108c.299 1.148.327 2.53.327 2.588l.004.143-3.341 5.63.018-1.858c.005-.55-.086-2.103-.551-2.912-1.554-.874-4.687-1.083-5.194-1.112-1.56.396-4.088 1.64-5.158 2.54-1.1.927-2.084 3.002-2.094 3.023l-.032.066-.32.356 2.686 2.62.027.161c.272 1.596 1.312 3.094 1.566 3.443.569.307 1.195.372 1.629.372.231 0 .418-.02.523-.032l2.544-1.787-1.155 3.685-.119.098c-.612.493-1.84.642-1.98.658-.132.012-.257.019-.38.019"/>
        <path fill="#231F20" d="M42.805 2.946s-3.446-.407-8.302 1.056c0 0-3.997 3.263-6.248 8.086l-2.248 2.493 1.388-.598 3.16 2.28s1.027 3.045 1.1 4.293c0 0 1.209 1.298 3.014 1.128 0 0 1.205-.134 1.724-.552l.67-2.135-1.437 1.007s-1.458.289-2.681-.43c0 0-1.387-1.776-1.721-3.744l-2.728-2.663-.456.12.862-.96s1.031-2.183 2.226-3.19c1.198-1.007 3.852-2.28 5.431-2.664 0 0 3.829.168 5.6 1.248.718 1.08.694 3.288.694 3.288l2.32-3.912s-.024-1.369-.311-2.47c0 0-.814-.985-2.057-1.68"/>
        <path fill="#FFF" d="M42.805 2.946s-3.446-.407-8.302 1.056c0 0-3.997 3.263-6.248 8.086l-2.248 2.493 1.388-.598 3.16 2.28s1.027 3.045 1.1 4.293c0 0 1.209 1.298 3.014 1.128 0 0 1.205-.134 1.724-.552l.67-2.135-1.437 1.007s-1.458.289-2.681-.43c0 0-1.387-1.776-1.721-3.744l-2.728-2.663-.456.12.862-.96s1.031-2.183 2.226-3.19c1.198-1.007 3.852-2.28 5.431-2.664 0 0 3.829.168 5.6 1.248.718 1.08.694 3.288.694 3.288l2.32-3.912s-.024-1.369-.311-2.47c0 0-.814-.985-2.057-1.68"/>
        <path fill="#171717" d="M20.475 8.992s1.85-.674 3.364-2.108c0 0-.307.029-.786-.113 0 0 .973-.572 1.374-1.095 0 0 2.44-.059 3.87-.872 0 0-1.57 1.208-3.673 1.406l-.337.421.787.057s-1.152 1.349-4.599 2.304M31.613 17.19s.458 1.864 1.098 2.753c0 0 1.274 1.012 2.959.654l1.024-.974-.337 1.643.934-2.479-2.107.423-2.059-.376-1.512-1.645M34.41 4.017s4.549-.861 8.068-.58c0 0 1.39.127 1.843 1.543 0 0 .264.757.248 2.02l-1.75 4.06L45.65 7.29l-.448-3.064-2.37-1.517s-5.319.014-8.424 1.307"/>
        <path fill="#231F20" d="M31.213 15.655s-.066 1.359.594 3.197c0 0-.299-2.061-.232-2.884l-.362-.313M37.568 6.558s-2.315-.227-3.432-.08c0 0 1.754.245 2.552.645l.88-.565M42.213 7.813s-.288-.512-.515-.881c0 0 .1.533.12.797l.395.084M36.106 4.648s1.924-.653.806-.644c0 0-1.292-.015-1.637.188 0 0 1.499.041.83.456M27.15 14.09l.843-.366-.613.61z"/>
        <path fill="#171717" d="M34.124 6.357s3.402-.496 7.425.844c0 0-.062-.56-.149-.772 0 0-2.936-1.023-7.276-.072M34.064 6.616l1.007.173s-3.036 1.108-4.506 2.645c0 0 1.571-1.77 3.5-2.818"/>
        <path fill="#231F20" d="M35.943 37.751c-1.19-.586-2.631-1.352-2.631-1.352s2.585-.189 2.492-1.6c.14-1.399.997-2.374 1.056-2.528 0 0-.752 1.645-.691 2.534 0 0 .357 1.947.48 2.47 0 0-.155-1.504-.064-2.088 0 0 .379 1.786.882 2.648-.083.02-1.023.164-1.524-.084M40.574 29.501s-.626.061-2.102.588l1.375-.243s-1.134.813-1.316.952l1.781-.87s.405-.103 1.578 0l-1.316-.427"/>
        <path fill="#171717" d="M40.509 30.138s7.104.597 9.485 6.528c0 0-2.423-.679-5.756-.36 0 0 1.428-1.114 2.857-1.51 0 0-1.07-.445-2.58-.245 0 0 .955-.715 1.946-1.073 0 0-1.389-.471-1.946-.43 0 0 .973-.394 1.25-.394 0 0-.891-1.283-5.256-2.516M35.907 28.068c-.654.072-1.537.195-2.37.248 0 0 1.415-.425 2.404-.652.71.086 1.47.262 2.354.458.301.337.666.738 1.028 1.294 0 0-1.947.25-2.796 2.146 0 0 .052-1.67.751-2.456 0 0-.467.01-.687.393 0 0-.064-.909.624-1.123 0 0-.598-.113-1.308-.308"/>
        <path fill="#FFF" d="M32.618 3.731c.305.054.594-.125.713.189a.917.917 0 1 1-1.557-.263c.097-.117.212-.053.362-.11.16-.06.324.157.482.184"/>
        <path fill="#231F20" d="M33.056 4.114a.43.43 0 0 1-.246.552.424.424 0 0 1-.549-.247.426.426 0 1 1 .795-.305"/>
        <path fill="#FFF" d="M33.084 4.247a.282.282 0 0 1-.284.283.284.284 0 1 1 .283-.283"/>
        <path fill="#231F20" d="M33.426 4.163s-.451.092-.95-.204c-.498-.295-.845-.1-.845-.1l-.743.152.743-.568s.252-.078.803.034c.318.261 1.232.272 1.232.272l-.24.414"/>
        <path fill="#FFF" d="M33.33 4.177s.404-.035 1.04-.457c0 0-.617.59-1.195.812l.154-.355M31.756 3.82s-.842.15-1.53 1.303c0 0 1.148-1.064 1.549-.915.243.028-.019-.388-.019-.388"/>
        <path fill="#231F20" d="M35.557 17.643c1.084 0 2.112-.409 2.976-1.182l.937-.837-1.24.195c-.002 0-.298.046-.7.046-.54 0-1.523-.087-2.011-.671-.297-.355-.386-.872-.27-1.539.026-.109.256-1.226-.271-1.886-.166-.208-.476-.452-1.015-.452-.045 0-.093 0-.144.004l-.077.007-.07.035c-.006.005-.775.396-2.408.396-.257 0-.523-.01-.793-.028l-1.077-.077.804.722c.015.013 1.386 1.256 1.55 2.588.097 1.256 1.746 2.68 3.809 2.68"/>
        <path fill="#FFF" d="M33.751 11.506c-.194.02-.946.099-1.399.45-.696-.415-1.274-.48-2.004.045 0 0 1.485 1.329 1.67 2.82.128 1.672 3.545 3.615 6.172 1.266 0 0-3.973.633-3.402-2.594 0 0 .454-2.099-1.037-1.987"/>
        <path fill="#171717" d="M30.076 12.01s1.637-.319 2.41 2.41c.059.26.122.714.245.985 0 0 1.078 2.346 5.68.572l-.435.749-2.24.63-1.927-.039-2.126-1.42-.63-1.854-.977-2.032"/>
        <path fill="#231F20" d="M32.136 11.814s1.421.803 1.457 2.38c.036 1.576 1.492 1.779 1.492 1.779s-1.268-.396-1.217-1.821c.052-1.423-1.258-2.422-1.258-2.422l-.474.084M31.003 31.857s1.229-4.517 4.659-4.704c0 0 1.83-.147 2.936.726l.56-.165s-1.267-1.284-3.566-1.023c0 0-4.094.393-4.589 5.166"/>
        <path fill="#171717" d="M39.702 23.562s3.945-1.433 5.204-3.67c0 0 .097 1.017-.058 1.951 0 0 .4-.293.506-.823 0 0 .424.905-.227 2.771 0 0 .37-.34.48-.623 0 0-.226 1.866-1.55 2.602 0 0 .648-.792.734-1.273 0 0-.34.198-.507.227 0 0 .703-1.273.733-2.346 0 0-.424.366-.932.537 0 0 .424-1.188.424-1.67 0 0-.814 1.24-4.807 2.317M45.41 20.538s3.564-2.221 4.333-4.67c0 0 .584 1.107.346 1.919 0 0 .331-.368.327-.908 0 0 .599.797.35 2.756 0 0 .29-.408.34-.708 0 0 .164 1.873-.98 2.867 0 0 .47-.91.455-1.397 0 0-.29.265-.45.328 0 0 .426-1.392.232-2.45 0 0-.339.448-.799.72 0 0 .167-1.25.07-1.721 0 0-.541 1.381-4.223 3.264"/>
        <path fill="#171717" d="M37.352 24.912s-.608-1.423.495-1.883c1.104-.459 6.137-2.047 6.839-6.37 0 0 .43.876.348 1.444 0 0 3.08-3.396 3.484-7.313 0 0 2.156-2.513 2.344-4.593 0 0 1.968 2.782 1.724 9.835 0 0-.404-6.243-1.589-8.107 0 0-.216 1.406-1.994 3.135 0 0-.196 4.836-4.317 7.888 0 0 .113-.394.06-.673 0 0-.916 3.755-6.738 5.052 0 0-.341.067-.537.449-.165.37-.129.804-.119 1.136"/>
        <path fill="#171717" d="M45.496 19.503s3.965-3.446 3.902-8.14c0 0 .434.436.464.964 0 0 .314-1.412.224-1.878 0 0 .509.823.509 1.195 0 0 .323-1.398.323-2.3 0 0 1.238 4.101.834 8.14 0 0-.278-4.32-.743-5.716 0 0-.062 1.368-.34 2.236 0 0-.08-1.757-.296-2.162 0 0-.262 1.79-.511 2.224 0 0-.038-.92-.217-1.211 0 0-.554 3.913-4.149 6.648M52.818 16.645s1.724-2.844 1.502-6.16c0 0 .53 1.505.557 2.535 0 0 .138-.668.138-1.366 0 0 .56 1.479.53 3.095 0 0 .166-.835.138-1.31 0 0 1.112 2.538-.527 6.607 0 0 .585-2.954.444-4.516 0 0-.277 1.171-.557 1.673 0 0 .284-2.4.034-3.21 0 0-.133.613-.45 1.12 0 0 .081-1.254-.031-1.7 0 0-.637 1.756-1.778 3.232M55.848 21.073s1.904-2.727 1.894-6.052c0 0 .432 1.536.393 2.567 0 0 .18-.658.224-1.354 0 0 .461 1.511.33 3.123 0 0 .22-.826.224-1.3 0 0 1.264 4.033-1.53 8.463 0 0 1.651-3.35 1.31-6.381 0 0-.35 1.152-.66 1.634 0 0 .435-2.38.236-3.202 0 0-.17.603-.517 1.088 0 0 .159-1.244.075-1.697 0 0-.747 1.71-1.98 3.111"/>
        <path fill="#171717" d="M51.81 19.051s1.25-.95 1.666-2.216c0 0 .148.92-.178 1.624 0 0 .818-.869 1.02-1.626 0 0 .058 2.025-.531 3.073 0 0 .59-.577.787-1.003 0 0 .234 3.101-3.65 6.735 0 0 2.284-2.913 2.61-4.68 0 0-.686.49-1.273.621 0 0 .783-.752 1.173-2.226 0 0-.743.553-1.304.556 0 0 .284-.531.478-1.154 0 0-.474.248-.799.296"/>
        <path fill="#171717" d="M47.486 28.547s5.118-1.994 7.55-7.064c0 0-.193 2.094-1.079 3.379 0 0 2.26-2.03 3.179-4.137 0 0-.426 2.798-1.346 4.412 0 0 1.675-1.448 2.1-2.304 0 0-.425 3.523-3.217 5.926 0 0 1.151-1.514 1.773-3.325 0 0-1.115.823-1.803 1.086 0 0 .555-1.118.721-2.074 0 0-1.492 1.398-2.736 2.121 0 0 .6-.87.697-1.397 0 0-1.274 1.83-5.84 3.377M44.86 25.874s2.84-2.54 3.713-5.3c0 0 .16 1.282-.759 3.078 0 0 1.067-.889 1.503-1.501 0 0-.379 1.816-.773 2.297 0 0 2.126-.72 3-1.947 0 0-1.486 3.592-5.069 4.6 0 0 1.837-1.314 2.447-2.147 0 0-1.137.428-1.575.428 0 0 .814-1.17.856-1.477 0 0-.868 1.01-1.385 1.073 0 0 .568-.934.568-1.136 0 0-.683.819-2.526 2.032"/>
        <path fill="#171717" d="M48.94 29.2s3.042-.925 4.27-2.033c0 0-.398 1.017-.707 1.385 0 0 1.536-.739 2.06-1.416 0 0-.645 2.064-1.32 2.648 0 0 .643-.216.95-.338 0 0-.767 1.51-3.562 2.279 0 0 1.904-1.046 2.21-1.355 0 0-.796.184-2.242.092 0 0 1.751-.585 2.304-1.323 0 0-.872.15-1.51.06 0 0 .466-.523.652-.8 0 0-1.753.831-3.228.831M53.266 34.152s.882-3.196 3.095-4.382c0 0-1.858 3.01-.731 4.177 0 0 .14-.88.367-1.236 0 0-.026.573.138.877 0 0 .133-1.712.432-2.202 0 0-.07 2.49.49 3.312 0 0-.096-1.655.11-2.107 0 0 .157 2.36 1.031 3.43 0 0-.58-.287-.822-.927 0 0-.058.397.035.622 0 0-.864-.688-.955-2.045 0 0-.095.621-.022 1.205 0 0-.529-.747-.529-1.255 0 0-.145.776.117 1.549 0 0-1.857-1.45-.955-3.652 0 0-.658.339-1.801 2.634M24.488 9.624s-3.597 1.297-4.439 7.067c0 0-.19 1.883-1.03 2.9 0 0 2.772-1.71 3.85-3.633 0 0-1.815 1.526-2.398 1.648 0 0 .129-.32.139-1.013 0-.344.82-5.328 3.878-6.97M18.359 21.753s-.45 1.606-.225 2.572c.225.963-.096 2.217-.096 2.217s2.308-1.768 4.36-6.525c0 0-2.278 4.017-3.528 4.66 0 0-.127-.352-.256-.578-.225-.431-.418-1.382-.255-2.346M22.397 22.915s-.586 3.597-3.818 6.389c0 0-.636.39-.561 1.21 0 0 .056 1.461 1.066 2.867.857 1.29.757 1.351.757 1.351s1.373-1.828 1.991-5.71c0 0-.477 2.567-1.856 4.272 0 0-.157-.305-.416-.588-.195-.17-1.12-1.167-.96-2.29.137-.643.528-.98.528-.98s2.431-2.286 3.27-6.521M22.256 31.557s.39 4.669 4.138 8.212c0 0-1.767-8.083.257-12.187 0 0-2.11 3.23-1.234 10.24 0 0-1.694-1.639-3.16-6.265M27.204 29.997s.183 4.994 3.625 7.841c0 0-2.688-8.63 2.477-11.052 0 0-4.47 1.514-3.685 8.752 0 0-1.662-1.483-2.417-5.541M32.593 22.442s1.008.398 1.404.275c0 0 .367 3.119 3.75 2.72 0 0-3.597 1.04-5.154-2.995"/>
        <path fill="#231F20" d="M41.456 50.421s5.709.082 10.966-2.633l-.032 1.693-1.912.703-.321.672-1.625.032-6.149.83-.927-1.297"/>
        <path fill="#FFF" d="M18.67 43.581h1.4v2.702h1.557v.735l-.185-.523h-1.584l-.017-2.703zM21.614 42.999h3.36v3.26h1.378v.281s-.062.035-.212.085v-.174h-1.403v-3.167L21.614 43M29.988 38.198L26.6 40.062v3.22s.121-.168.214-.291v-2.779l3.174-2.014"/>
        <path fill="#AEACAC" d="M26.6 45.16l.012 1.3s.222-.06.196-.149v-1.285s-.038.013-.208.135"/>
        <path fill="#FFF" d="M42.145 49.814s-2.768.446-5.669.473c0 0 4.728.256 5.883.094l-.214-.567M42.135 47.848s-1.484.315-4.385.343c0 0 2.99.347 4.61.093l-.225-.436M42.225 47.2s-1.411.115-3.258.101c0 0 2.132.242 3.331.014l-.073-.116M42.135 48.843s-2.239.315-5.14.343c0 0 3.745.347 5.364.093l-.224-.436M18.814 44.508h.281v-.29h-.28zM18.814 45.028h.281v-.293h-.28zM19.322 44.508h.28v-.29h-.28zM21.789 43.86h.455v-.556h-.455zM22.7 44.334h.455v-.555h-.456zM23.007 45.467h.455v-.557h-.455zM23.623 46.247h.456v-.555h-.456zM21.936 45.831h.456v-.556h-.456zM22.429 46.639h.454v-.556h-.454zM27.09 40.356l2.83-1.881v.607l-2.844 1.874z"/>
        <path fill="#231F20" d="M27.408 40.905h.273v-.975h-.273zM28.039 40.502h.27v-.973h-.27zM28.663 40.069h.271v-.972h-.271zM29.32 39.64h.27v-.975h-.27z"/>
        <path fill="#FFF" d="M27.09 41.358l2.83-1.878v.607l-2.844 1.871z"/>
        <path fill="#231F20" d="M27.408 41.906h.273v-.971h-.273zM28.039 41.504h.27v-.974h-.27zM28.663 41.072h.271v-.97h-.271zM29.32 40.642h.27v-.974h-.27z"/>
        <path fill="#FFF" d="M27.09 42.306l2.83-1.88v.607l-2.844 1.872z"/>
        <path fill="#231F20" d="M27.408 42.854h.273v-.972h-.273zM28.039 42.451h.27v-.972h-.27zM28.663 42.02h.271v-.971h-.271zM29.32 41.589h.27v-.972h-.27z"/>
        <path fill="#FFF" d="M36.272 39.456v1.616s.26-.175.278-.245v-1.112l1.515-.27-1.793.01"/>
        <path fill="#FFF" d="M37.36 40.117h.305v-.461h-.305zM36.797 40.401h.305v-.46h-.305z"/>
        <path fill="#231F20" d="M33.409 38.415h-.004c-1.452.001-1.984.654-1.984.654v3.808l.576-.108.628-.266.784-.201V42.3l.78-.202.628-.128.575-.196v-2.705s-.53-.653-1.983-.654"/>
        <path fill="#231F20" d="M33.409 38.192h-.004c-1.379 0-1.886.62-1.886.62v3.62l.546-.104.598-.25.746-.192.74-.194.597-.12.549-.187v-2.572s-.507-.62-1.886-.621"/>
        <path fill="#FFF" d="M33.409 38.63h-.004c-1.31 0-1.792.59-1.792.59v3.442l.52-.099.566-.24.71-.18.705-.185.567-.114.519-.179v-2.444s-.481-.59-1.791-.59M31.613 38.93s.66-.494 1.8-.494c0 0-.73-.074-1.416.22 0 0 .381-.236.74-.331 0 0-.646.124-1.126.48l.002.124"/>
        <path fill="#231F20" d="M31.312 42.491s.774.186 1.649-.352c0 0 1.605-.228 2.518-.682l.008.273-1.587.49-.58.13-.173.036-.228.114-1.054.364-.6-.246.047-.127M35.23 39.432a3.107 3.107 0 0 0-3.662 0v.09a3.104 3.104 0 0 1 3.662 0v-.09"/>
        <path fill="#231F20" d="M35.23 39.762a3.105 3.105 0 0 0-3.662 0v.088a3.105 3.105 0 0 1 3.662 0v-.088"/>
        <path fill="#231F20" d="M35.23 40.09a3.1 3.1 0 0 0-3.662 0v.087a3.107 3.107 0 0 1 3.662 0v-.088"/>
        <path fill="#231F20" d="M35.23 40.416a3.109 3.109 0 0 0-3.662 0v.089a3.109 3.109 0 0 1 3.662 0v-.09"/>
        <path fill="#231F20" d="M35.23 40.741a3.111 3.111 0 0 0-3.662 0v.092a3.104 3.104 0 0 1 3.662 0v-.092"/>
        <path fill="#231F20" d="M35.23 41.07a3.107 3.107 0 0 0-3.662 0v.09a3.105 3.105 0 0 1 3.662 0v-.09"/>
        <path fill="#231F20" d="M35.23 41.399a3.11 3.11 0 0 0-3.662 0v.088a3.107 3.107 0 0 1 3.662 0V41.4"/>
        <path fill="#231F20" d="M35.23 41.724a3.118 3.118 0 0 0-3.662 0v.09a3.111 3.111 0 0 1 3.662 0v-.09"/>
        <path fill="#231F20" d="M34.782 41.782a3.11 3.11 0 0 0-3.214.271v.09a3.099 3.099 0 0 1 3.214-.272v-.089"/>
        <path fill="#231F20" d="M34.312 41.92a3.115 3.115 0 0 0-2.744.461v.088a3.117 3.117 0 0 1 2.748-.458l-.004-.09"/>
        <path fill="#231F20" d="M33.62 42.12a3.11 3.11 0 0 0-2.052.588v.09a3.095 3.095 0 0 1 2.045-.59l.008-.089"/>
        <path fill="#231F20" d="M31.899 42.643h.079V38.87h-.08zM32.267 42.484h.08v-3.77h-.08zM32.635 42.328h.081v-3.77h-.081zM33.004 42.173h.082v-3.648h-.082zM33.373 42.315h.081v-3.827h-.081zM33.741 42.16h.082v-3.685h-.082zM34.11 42.004h.081v-3.522h-.08v3.522zM34.479 41.847h.083V38.62h-.083zM34.847 41.765h.081V38.87h-.08z"/>
        <path fill="#FFF" d="M24.119 47.302c-.858-.071-1.7.172-1.7.172s-1.514.472-3.917.44c-2.403-.033-4.73-.627-4.73-.627l.194.232s2.133.558 4.536.589c2.403.033 3.917-.437 3.917-.437s.704-.211 1.551-.182c0 0 .052-.097.149-.187"/>
        <path fill="#FFF" d="M15.92 47.506s2.29-1.306 6.755-.15c0 0-2.767-.752-5.05.32 0 0-.647-.004-1.705-.17M14.602 49.962h.227V47.85h-.227zM15.533 50.193h.226v-2.11h-.226zM16.46 50.37h.226v-2.112h-.226zM17.39 50.507h.227v-2.11h-.227zM18.319 50.33h.225v-1.835h-.225zM19.249 50.41h.225v-2.002h-.225zM20.176 50.299h.228v-2.035h-.228zM21.107 50.297h.226v-2.245h-.226zM22.037 50.177h.224v-2.34h-.224zM22.964 49.987h.226v-2.37h-.226z"/>
        <path fill="#231F20" d="M23.562 47.513c-.642.034-1.118.177-1.118.177s-1.515.471-3.919.44c-2.404-.033-4.843-.626-4.843-.626l.428.392s2.011.558 4.415.592c2.404.03 3.919-.44 3.919-.44s.467-.141 1.1-.174l.018-.361M23.673 49.64c-.681.024-1.199.18-1.199.18s-1.515.473-3.918.44c-2.403-.033-4.844-.626-4.844-.626l.426.394s2.015.558 4.418.59c2.403.032 3.918-.439 3.918-.439s.522-.157 1.209-.182l-.01-.356"/>
        <path fill="#FFF" d="M13.92 49.178s1.64 1.012 5.168 1.091c-.703.016-2.808.145-5.013-.605l-.155-.486M20.642 50.164s1.642-.24 3.093-.749c0 0 .016.144.057.224 0 0-1.438.371-3.15.525"/>
        <path fill="#231F20" fill-rule="nonzero" d="M63.973 68.328c.073 0 .14.006.201.018a.912.912 0 0 0-.484-.018h.283zm-.1.646c.037 0 .075-.002.112-.005a.231.231 0 0 0 .07-.016.04.04 0 0 0 .02-.014s.002-.008.002-.028c0-.021-.004-.03-.004-.03a.047.047 0 0 0-.019-.012.207.207 0 0 0-.065-.014 2.058 2.058 0 0 0-.117-.003h-.052v.122h.052zm.736.837a.906.906 0 0 0 .21-.586.908.908 0 0 0-.27-.651l-.01-.01a.607.607 0 0 1 .102.358c0 .17-.048.304-.144.398a.537.537 0 0 1-.13.094l.242.397zm-1.359-1.237a.932.932 0 0 0-.268.651.933.933 0 0 0 .268.651l.006.006v-1.314l-.006.006zm.376 1.53a.9.9 0 0 0 .548 0h-.015l-.339-.557v.557h-.194zm.274.566c-.198 0-.387-.04-.561-.115a1.472 1.472 0 0 1-.765-.767 1.404 1.404 0 0 1-.115-.563c0-.198.04-.388.115-.563a1.48 1.48 0 0 1 .764-.766c.175-.077.364-.115.562-.115.198 0 .387.038.561.115a1.479 1.479 0 0 1 .765.766c.076.175.114.365.114.563a1.4 1.4 0 0 1-.114.563 1.473 1.473 0 0 1-.764.766 1.392 1.392 0 0 1-.562.116z"/>
        <path fill="#FFF" fill-rule="nonzero" d="M64.564 69.457a.775.775 0 0 0 .098-.103.725.725 0 0 1-.05.17l-.003.007-.045-.074zm-.664-1.823c-.218 0-.427.043-.62.127a1.626 1.626 0 0 0-.84.842 1.546 1.546 0 0 0-.127.622c0 .219.043.428.127.622a1.626 1.626 0 0 0 .84.842c.193.085.402.128.62.128.218 0 .427-.043.62-.128a1.62 1.62 0 0 0 .84-.842c.084-.194.127-.403.127-.622 0-.219-.043-.428-.127-.622a1.624 1.624 0 0 0-.84-.842 1.538 1.538 0 0 0-.62-.127zm-.226 1.486h.198c.042 0 .084-.001.125-.005a.376.376 0 0 0 .113-.026.189.189 0 0 0 .082-.063.187.187 0 0 0 .032-.115.187.187 0 0 0-.032-.115.193.193 0 0 0-.082-.063.346.346 0 0 0-.113-.024 2.392 2.392 0 0 0-.125-.004h-.198v.415zm.3-.645c.178 0 .31.038.394.115.084.077.127.188.127.332 0 .13-.033.228-.1.293a.416.416 0 0 1-.251.115l.382.628h-.285l-.369-.607h-.198v.607h-.272v-1.483h.571zm-.074 1.818a1.073 1.073 0 0 0 .981-.652c.056-.131.083-.27.083-.416a1.079 1.079 0 0 0-.311-.755 1.073 1.073 0 0 0-.753-.312 1.07 1.07 0 0 0-.414 2.051c.13.056.268.084.414.084zm0-2.365c.179 0 .346.034.503.102a1.323 1.323 0 0 1 .688.691c.069.157.103.325.103.504 0 .18-.034.347-.103.504a1.327 1.327 0 0 1-.688.69 1.242 1.242 0 0 1-.503.104 1.24 1.24 0 0 1-.503-.103 1.318 1.318 0 0 1-.689-.69 1.251 1.251 0 0 1-.102-.505c0-.179.034-.347.102-.504a1.328 1.328 0 0 1 .69-.69 1.24 1.24 0 0 1 .502-.103z"/>
    </g>
</svg>
