<svg xmlns="http://www.w3.org/2000/svg" width="86" height="44" viewBox="0 0 86 44">
    <path fill="#171717" fill-rule="evenodd" d="M84.542 30.685a.863.863 0 0 1-.768-.421.854.854 0 0 1 0-.873.863.863 0 0 1 1.603.437.86.86 0 0 1-.835.857zm0-1.547a.692.692 0 0 0-.698.686.686.686 0 0 0 .698.694.692.692 0 0 0 .693-.69c0-.381-.31-.69-.693-.69zm.124.716l.262.398h-.147l-.249-.398h-.152v.398h-.128v-.866h.378a.444.444 0 0 1 .213.04c.064.038.096.116.096.19 0 .169-.12.233-.273.238zm-.06-.37h-.226v.26h.141c.121 0 .288.023.288-.132 0-.112-.096-.128-.203-.128zm-3.974 5.634c2.233 1.492 2.922 2.57 2.922 4.43 0 2.73-1.91 4.406-4.718 4.406-1.98 0-3.13-.619-3.752-.619v-3.214h.323c.276 1.4 1.726 2.365 3.268 2.365 1.312 0 2.348-.69 2.348-2.067 0-.94-.46-1.767-1.657-2.593l-1.68-1.148c-1.45-.986-2.67-2.11-2.67-4.13 0-2.388 1.61-3.926 4.28-3.926 1.589 0 2.256.368 3.177.46v2.776h-.322c-.208-1.055-1.312-1.904-2.785-1.904-1.382 0-2.003.758-2.003 1.767 0 .873.53 1.56 1.819 2.433l1.45.964zm-9.46 0c2.233 1.492 2.923 2.57 2.923 4.43 0 2.73-1.91 4.406-4.718 4.406-1.98 0-3.13-.619-3.753-.619v-3.214h.324c.275 1.4 1.725 2.365 3.267 2.365 1.313 0 2.348-.69 2.348-2.067 0-.94-.46-1.767-1.657-2.593l-1.68-1.148c-1.45-.986-2.67-2.11-2.67-4.13 0-2.388 1.61-3.926 4.282-3.926 1.587 0 2.254.368 3.175.46v2.776h-.322c-.207-1.055-1.313-1.904-2.785-1.904-1.38 0-2.002.758-2.002 1.767 0 .873.529 1.56 1.818 2.433l1.45.964zm-14.685 8.308c.115-.114.139-.712.139-1.032V30.688c0-.963-.323-1.468-.668-1.537v-.298h8.078v2.019h-.299c-.069-.344-.758-.574-1.197-.574h-3.06v5.096h2.577c.345 0 1.151-.093 1.243-.322h.3V37h-.3c-.116-.115-.76-.16-1.15-.16h-2.67v5.438h3.037c.83 0 1.336-.321 1.428-.688h.299v2.135h-7.757v-.3zm-1.867-19.99l.003-.17c.558.021.873-.308.883-.85-.05.085-.197.168-.353.185-.42.043-.679-.168-.71-.546-.035-.405.227-.745.624-.779.525-.046.814.293.835.851.036.976-.572 1.4-1.282 1.31zm.524-1.995c-.271 0-.297.344-.298.492 0 .269.073.465.294.465.296 0 .298-.368.298-.49 0-.148-.048-.467-.294-.467zm-10.51 8.857c-.253-.46-.736-1.078-1.173-1.147v-.298h3.681l5.317 9.5v-7.665c0-.963-.253-1.468-.575-1.537v-.298h2.187v14.872h-1.82l-7.616-13.427zm8.817-7.599c0 .418-.32.749-.846.749-.154 0-.317-.022-.46-.087l.009-.177a.93.93 0 0 0 .446.062.495.495 0 0 0 .441-.498c0-.298-.19-.46-.483-.46-.124 0-.24.02-.349.063l.074-1.041h1.078v.275a.86.86 0 0 0-.223-.029h-.521l-.03.53a1.23 1.23 0 0 1 .257-.016c.374.02.607.275.607.63zm-.317-17.292h-.025l-.246.935h-.148l-.246-.935v.935h-.198V5.16h.296l.222.837.222-.837h.295v1.18h-.172v-.934zm-1.307.935h-.221v-.984h-.295v-.197h.812v.197h-.296v.984zm-6.333-.897c-1.386-.069-2.638-.416-4.385-1.186a28.858 28.858 0 0 1-1.948-.964c-.007.04-.187.855-.668 1.895-.468 1.046-.963 1.716-.99 1.75l.622 1.365c.01-.055.24-1.049.83-2.324.576-1.288 1.177-2.117 1.208-2.156-.009.049-.239 1.046-.831 2.325-.575 1.285-1.174 2.113-1.207 2.156l.663 1.456c.012-.064.289-1.272 1.006-2.822.7-1.563 1.431-2.568 1.468-2.614-.01.058-.287 1.27-1.006 2.824-.698 1.56-1.427 2.563-1.467 2.613l.715 1.567c.015-.08.353-1.524 1.213-3.382.84-1.876 1.713-3.085 1.757-3.14-.013.069-.352 1.52-1.217 3.385-.836 1.87-1.705 3.077-1.753 3.138l.767 1.682c.02-.095.426-1.821 1.454-4.043 1.007-2.245 2.047-3.692 2.1-3.759-.016.084-.423 1.816-1.456 4.047-1.004 2.239-2.039 3.682-2.097 3.756l.834 1.827c.024-.12.524-2.197 1.763-4.87 1.21-2.703 2.455-4.451 2.518-4.532-.02.101-.518 2.187-1.76 4.874-1.208 2.695-2.452 4.44-2.52 4.53l.9 1.971c.029-.134.67-2.658 2.18-5.928 1.477-3.296 2.966-5.441 3.04-5.54-.025.12-.665 2.652-2.178 5.93-1.475 3.289-2.961 5.432-3.042 5.54l.527 1.152c.173.394.47.638.79.688-.592.86-2.518 2.778-2.961 3.073L34.668 6.095a2.255 2.255 0 0 1-.912.198c-1.38 0-2.44-1.058-2.44-2.606C31.315 1.794 32.941 0 36.121 0c1.208 0 2.662.27 4.314.884C44.68 2.482 48.204 1.77 50.472 0l1.282 3.318C50.41 4.58 47.83 5.56 45.494 5.445zM33.682 3.097a.924.924 0 0 0-.912.91c0 .491.419.909.912.909a.924.924 0 0 0 .912-.91.924.924 0 0 0-.912-.91zm3.681-.723c-.823-.332-1.803-.37-2.398-.16.497.266.807.87 1.18 1.732.068.155.357.792.77 1.702.006-.035.139-.676.517-1.49.366-.82.763-1.344.784-1.37a9.757 9.757 0 0 0-.853-.414zm.854.415a7.214 7.214 0 0 1-.517 1.49 7.257 7.257 0 0 1-.784 1.37l.586 1.291c.008-.044.188-.857.668-1.894.469-1.048.966-1.72.99-1.75-.344-.185-.659-.356-.943-.507zm-7.37 18.674c-.218 0-.373.111-.39.276-.008.08.018.16.087.228.06.06.155.107.303.18.389.167.543.343.543.663s-.223.64-.74.64a.906.906 0 0 1-.543-.164v-.205c.154.102.32.17.544.154.19-.013.35-.126.359-.313.01-.187-.109-.284-.36-.407-.392-.18-.548-.325-.543-.639.006-.331.26-.605.667-.614a.962.962 0 0 1 .484.103l-.001.22a.742.742 0 0 0-.41-.122zm-.74 22.262h-3.244v-.3c.091-.067.16-.71.16-1.101V30.688c0-.963-.322-1.468-.667-1.537v-.298h3.498v13.22c0 .849.16 1.33.253 1.353v.299zm-1.995-20.668v-1.45c0-.125 0-.173-.025-.296h1.158v.271a1.171 1.171 0 0 0-.256-.025h-.459v.64h.345c.05 0 .14-.003.222-.02v.282a1.203 1.203 0 0 0-.222-.017h-.345v.712h.543c.098 0 .152-.016.222-.034v.28h-1.208c.025-.123.025-.246.025-.343zm-8.293 20.897c-3.498 0-4.972-1.95-4.972-4.935v-8.331c0-.963-.322-1.468-.667-1.537v-.298h3.545v10.235c0 .987.115 1.515.322 1.928.46.895 1.289 1.171 2.187 1.171.944 0 1.84-.276 2.301-1.171.208-.413.323-.94.323-2.042v-8.286c0-.963-.323-1.468-.668-1.537v-.298h2.37v9.914c0 1.17-.091 1.813-.275 2.387-.553 1.859-2.049 2.8-4.466 2.8zm-7.273-.69c-.161.071-2.187.736-4.857.736-4.165 0-7.687-3.006-7.687-9.294 0-5.44 3.084-9.044 7.55-9.044 2.186 0 3.221.55 3.867.55.091 0 .137-.022.16-.046h.23v3.696h-.368c-.437-1.881-1.887-2.708-3.498-2.708-2.624 0-4.765 2.18-4.765 7.436 0 5.623 2.371 7.85 4.857 7.85.714 0 1.22-.093 1.542-.23v-5.37c0-.78-.207-1.768-1.059-1.952v-.32h4.19v.298c-.116.068-.162 1.124-.162 1.584v6.815zm19.706-21.682c-.073 0-.147 0-.221.024v-.295h1.552v.295c-.074-.024-.147-.024-.221-.024h-.345v1.475c0 .097 0 .22.024.343h-.468c.024-.123.024-.246.024-.343V21.58h-.345zm8.098 16.772v-7.666c0-.963-.253-1.468-.575-1.537v-.298h2.187v14.872h-1.82l-7.617-13.427c-.254-.46-.737-1.078-1.174-1.147v-.298h3.682l5.317 9.5zm-7.987-6.335l1.611 2.961v7.23c0 .574.116 1.148.23 1.216v.299h-1.979v-.3c.115-.113.138-.986.138-1.147V32.02zm2.897-8.857v.257a.43.43 0 0 0-.148-.019h-.247c-.049 0-.108 0-.148.017v-.255a.507.507 0 0 0 .148.017h.247c.05 0 .1-.006.148-.017zm-.814-.524v-1.204c0-.025 0-.074-.024-.123h.542c.493 0 .789.171.789.688 0 .443-.296.763-.715.763h-.616c.024-.05.024-.099.024-.124zm.345-.07h.148c.271 0 .444-.157.444-.574 0-.339-.173-.495-.395-.495h-.197v1.069zm15.15-.98v-.278h1.372l-.96 2.09h-.437l.887-1.843h-.64a.607.607 0 0 0-.222.031zM38.858 24.58L33.83 7.595c-.05-.172-.148-.492-.148-.639 0-.197.148-.32.345-.32.148 0 .272.074.32.222l5.4 16.444c5.77-4.646 8.852-10.397 8.31-17.501.789-.172 1.799-.542 2.39-.885 1.356 7.57-1.183 14.502-7.346 19.664h-4.243zm9.327-3.127l.558-.192v1.794c0 .098 0 .221.025.344h-.44c.023-.123.023-.246.023-.344V21.77a.367.367 0 0 0-.166-.317zm-3.713 10.566l1.612 2.961v7.23c0 .574.115 1.148.23 1.216v.299h-1.979v-.3c.115-.113.137-.986.137-1.147V32.02z"/>
</svg>
