<svg xmlns="http://www.w3.org/2000/svg" width="65" height="48" viewBox="0 0 65 48">
    <path fill="#171717" fill-rule="evenodd" d="M64.603 15.066H51.055c.084-1.433 1.286-2.568 2.757-2.568V6.511C41.298 6.078 35.441 2.041 32.746 0c-2.696 2.042-8.568 6.078-21.083 6.511v5.987c1.471 0 2.673 1.135 2.757 2.568H.798v16.556h12.66c0 .528-.283 2.095-3.685 2.47 2.331 2.116 15.918 13.51 22.973 13.51 7.054 0 20.677-11.394 23.008-13.51-3.181-.343-3.685-1.724-3.685-2.47h12.534V15.066zm-51.557-3.59l.002-3.734c11.325-.581 16.913-3.94 19.698-6.005 2.986 2.093 8.356 5.424 19.68 6.005l-.005 3.734c-1.54.55-2.653 1.89-2.705 3.59h-1.36c.045-1.925 1.11-3.504 2.681-4.424l.004-1.692c-9.145-.636-15.115-3.438-18.295-5.6-2.777 2.015-8.36 4.715-18.311 5.6l.003 1.692c1.572.92 2.636 2.499 2.68 4.424h-1.36c-.051-1.7-1.172-3.04-2.712-3.59zm34.078 2.068v1.522h-1.48V13.87c0-.373-.456-.544-.662-.544h-1.417v1.74h-1.48V8.641l3.56.732c.503.108 1.48.435 1.48 1.4v1.043c0 .374-.048.7-.52.934.22.124.52.544.52.794zm-6.298-3.829v3.923c.016.482-.268 1.428-1.56 1.428H37.33c-.646 0-1.48-.34-1.48-1.49V7.846c0-.685.708-1.121 1.496-.84l2.582.98c.63.249.914.794.898 1.728zm-10.771-1.79v-1.62l2.69-1.447 2.821 1.526v1.618L33.614 6.96v8.107h-1.606v-8.2l-1.953 1.059zm-.189-.078v5.728c0 1.151-.834 1.491-1.48 1.491h-1.937c-1.29 0-1.575-.946-1.559-1.428V9.715c-.016-.934.268-1.479.898-1.728l2.582-.98c.788-.281 1.496.155 1.496.84zm-8.487 7.22L20.166 12.5v2.565h-1.48V9.668l1.48-.265 1.165 2.46 1.291-2.973 1.386-.359v6.535h-1.48v-2.658l-1.15 2.658zM52.604 34.65c-3.716 3.736-14.945 11.52-19.858 11.52s-16.107-7.784-19.823-11.52c1.921-.84 2.236-2.065 2.362-3.03h1.543c-.094.903-.283 2.345-1.543 3.217 1.449 1.37 12.296 9.962 17.46 9.962 5.166 0 16.048-8.592 17.497-9.962-1.26-.872-1.449-2.314-1.543-3.216h1.543c.126.964.441 2.188 2.362 3.03zm-32.574.869c.085.055 3.41 2.618 3.41 2.618v1.559s-4.677-3.453-4.818-3.537c-.17-.111-.395-.5-.45-.78-.057-.278 0-2.506 0-2.757 0-.251.28-1.001.676-1.001h3.634v1.475h-2.17c-.338-.028-.535.083-.535.39v1.643c0 .112.141.334.253.39zm3.324-3.898h1.52l.819 2.506 1.324-2.506h1.436l-2.057 4.4v5.264c0 .25-1.436-.53-1.465-.724-.056-.196 0-4.596 0-4.596l-1.577-4.344zm7.103 9.548c.084.167 1.943 1.03 1.943 1.03v1.726s-2.985-1.252-3.268-1.53a1.086 1.086 0 0 1-.338-.78V32.87c0-.53 1.07-1.248 1.324-1.248h2.198v1.582c0 .055-1.268.055-1.577 0-.17-.027-.395.195-.395.975v6.461c0 .14 0 .39.113.53zm6.338-.418v1.503s-2.48 1.087-2.874 1.282c-.225.111-.479-.084-.479-.419V31.622h1.69v9.798l1.663-.668zm3.633-5.289v1.282H38.85v3.092l1.916-.892v1.365l-2.536 1.253c-.31.14-.704 0-.704-.278v-9.108c0-.362.31-.555.563-.555h2.959v1.586H38.85v2.255h1.578zm4.871.108s-2.48.056-2.93 0c-.422-.056-.592-.139-.592-.445 0-.279-.028-2.117 0-2.645.057-.53.902-.805 1.296-.86.367-.027 3.719 0 3.719 0v1.444h-3.577c-.142 0-.114 1.197 0 1.197h3.211c.451 0 .394.112.394.307v1.782c0 .195-.282.419-.394.529-.084.084-4.79 2.897-4.79 2.897v-1.254s3.748-2.339 3.776-2.505a.554.554 0 0 0-.113-.447zm17.95-5.34H2.215V16.656h61.034V30.23zM26.717 9.231l1.197-.467c.22-.093.472 0 .472.343v3.984c0 .265-.126.483-.457.483h-1.086c-.346 0-.472-.171-.472-.452V9.948c0-.342.031-.56.346-.716zm12.628.716v3.175c0 .281-.125.452-.472.452h-1.086c-.331 0-.457-.218-.457-.483V9.108c0-.343.252-.436.472-.343l1.197.467c.315.156.346.374.346.716zm5.984.778c.315.063.315.359.315.624 0 .264-.047.512-.33.512h-1.749v-1.494l1.764.358zM3.633 17.902V28.83h58.23V17.902H3.633zm5.43 9.65h-1.28V23.9H6.77v3.654H5.487v-8.511H6.77v3.404h1.012v-3.404h1.282v8.51zm2.986 0l-.225-2.213h-.94l-.262 2.214h-1.16l.979-8.511h1.923l.98 8.51h-1.295zm5.368-5.844c0 .633-.117 1.129-.577 1.49.066.075.56.4.576.977v3.378h-1.282l.001-2.847c0-.514-.22-.678-1.038-.678v3.525h-1.282v-8.511h2.118c1.029 0 1.484.358 1.484 1.458v1.208zm3.325 5.845h-2.584v-8.511h1.283v7.166h1.301v1.345zm3.103 0h-2.673v-8.511h2.65v1.33h-1.368v2.078h1.307v1.345h-1.307v2.413h1.391v1.345zm2.974 0h-1.282v-3.18l-1.318-5.331h1.318l.69 2.973.713-2.973h1.197l-1.318 5.272v3.239zm3.268-3.751h-2.346v-1.074h2.346v1.074zm4.04 2.21c0 .812-.532 1.54-1.524 1.54h-1.827v-8.51h1.548c1.27 0 1.803.43 1.803 1.924v5.045zm2.928 1.54l-.226-2.213h-.939l-.262 2.214h-1.161l.98-8.511h1.922l.98 8.51h-1.294zm3.528 0H39.15l-1.203-8.51h1.306l.623 5.118.62-5.118h1.292l-1.204 8.51zm2.848 0H42.15v-8.51h1.282v8.51zm4.111-1.54c0 .812-.532 1.54-1.524 1.54h-1.825v-8.51h1.548c1.27 0 1.801.43 1.801 1.924v5.045zm4.172-4.08h-1.282v-1.188c0-.432-.258-.526-.513-.526-.265 0-.509.094-.509.526v.942c0 .61 2.288 1.688 2.288 2.55v2.05c0 1.112-.992 1.435-1.79 1.435-.786 0-1.764-.323-1.764-1.435v-1.852h1.282v1.51c0 .432.228.527.493.527.255 0 .498-.095.498-.526v-.896c0-1.196-2.289-1.527-2.289-2.914V20.31c0-1.112.994-1.435 1.78-1.435.798 0 1.806.323 1.806 1.435v1.622zm4.163 4.354c0 1.112-1.033 1.435-1.82 1.435-.786 0-1.795-.323-1.795-1.435v-5.977c0-1.112 1.01-1.435 1.796-1.435s1.819.323 1.819 1.435v5.977zm4.4 1.267H58.71l-1.019-4.845v4.845h-1.288v-8.511h1.734l.837 4.328v-4.328h1.304v8.51zM11.037 23.9l.299-3.305h.085l.25 3.305h-.634zm4.06-3.687h.507c.29 0 .484.204.484.528v1.276c0 .31-.097.69-.544.69h-.447v-2.494zm16.962.17h.302c.326 0 .483.085.483.634v4.559c0 .55-.157.633-.483.633h-.302v-5.825zm3.984 3.517l.298-3.305h.085l.25 3.305h-.633zm9.431-3.516h.303c.326 0 .484.084.484.633v4.559c0 .55-.158.633-.484.633h-.303v-5.825zm8.07 5.39v-5c0-.431.26-.526.526-.526s.524.095.524.525v5c0 .43-.258.526-.524.526-.267 0-.525-.096-.525-.526z"/>
</svg>
