<svg xmlns="http://www.w3.org/2000/svg" preserveAspectRatio="xMidYMid" width="79.5" height="59.5" viewBox="0 0 79.5 59.5"><defs><style>.cls-1{fill:#ffffff;fill-rule:evenodd}</style></defs><path d="M79.505 18.833H62.623c.104-1.792 1.602-3.21 3.435-3.21V8.139C50.464 7.598 43.165 2.552 39.806 0c-3.359 2.552-10.677 7.598-26.272 8.139v7.484c1.833 0 3.331 1.418 3.435 3.21H-.006v20.694h15.777c0 .661-.353 2.619-4.592 3.087 2.905 2.646 19.836 16.889 28.627 16.889S65.573 45.26 68.478 42.614c-3.964-.428-4.592-2.154-4.592-3.087h15.619V18.833zm-64.248-4.488l.003-4.668c14.112-.726 21.076-4.925 24.546-7.506 3.722 2.617 10.414 6.78 24.526 7.506l-.007 4.668c-1.92.687-3.306 2.362-3.371 4.488H59.26c.055-2.407 1.382-4.38 3.34-5.531l.005-2.114c-11.396-.796-18.836-4.298-22.799-7.001-3.46 2.519-10.417 5.894-22.818 7.001l.004 2.114c1.959 1.151 3.285 3.124 3.34 5.531h-1.694c-.065-2.126-1.461-3.801-3.381-4.488zm42.467 2.585v1.903H55.88v-1.495c0-.467-.569-.681-.825-.681h-1.766v2.176h-1.844v-8.032l4.435.915c.628.135 1.844.544 1.844 1.751v1.303c0 .467-.059.876-.647 1.168.274.155.647.68.647.992zm-7.849-4.786v4.903c.02.603-.334 1.786-1.943 1.786h-2.413c-.805 0-1.845-.425-1.845-1.864v-7.16c0-.857.883-1.402 1.865-1.051l3.218 1.226c.784.311 1.138.992 1.118 2.16zM36.453 9.906V7.882l3.353-1.81 3.515 1.908v2.023l-2.433-1.304v10.134h-2.001V8.583l-2.434 1.323zm-.235-.097v7.16c0 1.439-1.04 1.864-1.845 1.864H31.96c-1.609 0-1.963-1.183-1.943-1.786v-4.903c-.02-1.168.334-1.849 1.119-2.16l3.218-1.226c.981-.351 1.864.194 1.864 1.051zm-10.577 9.024l-1.511-3.207v3.207h-1.844v-6.748l1.844-.331 1.452 3.074 1.609-3.716 1.727-.448v8.169h-1.844V15.51l-1.433 3.323zm38.912 24.481c-4.631 4.67-18.624 14.399-24.747 14.399-6.122 0-20.071-9.729-24.702-14.399 2.394-1.051 2.786-2.581 2.943-3.787h1.923c-.117 1.128-.353 2.931-1.923 4.02C19.853 45.26 33.37 56 39.806 56c6.437 0 19.998-10.74 21.803-12.453-1.569-1.089-1.805-2.892-1.923-4.02h1.923c.157 1.206.55 2.736 2.944 3.787zM23.961 44.4c.106.069 4.249 3.272 4.249 3.272v1.949s-5.829-4.316-6.004-4.421c-.211-.139-.492-.626-.562-.974-.07-.349 0-3.134 0-3.447 0-.314.351-1.252.843-1.252h4.529v1.844h-2.704c-.421-.035-.667.104-.667.487v2.054c0 .14.176.418.316.488zm4.142-4.873h1.895l1.019 3.133 1.65-3.133h1.79l-2.563 5.501v6.579c0 .314-1.79-.661-1.826-.905-.07-.244 0-5.744 0-5.744l-1.965-5.431zm8.851 11.935c.105.209 2.422 1.288 2.422 1.288v2.158s-3.721-1.566-4.073-1.914a1.36 1.36 0 0 1-.421-.975V41.087c0-.661 1.334-1.56 1.65-1.56h2.739v1.978c0 .069-1.58.069-1.966 0-.211-.034-.492.244-.492 1.219V50.8c0 .174 0 .488.141.662zm7.898-.522v1.879s-3.09 1.358-3.581 1.602c-.281.139-.597-.105-.597-.523V39.527h2.107v12.248l2.071-.835zm4.527-6.611v1.602h-1.966v3.865l2.388-1.115v1.707l-3.16 1.566c-.386.174-.878 0-.878-.348V40.221c0-.452.386-.694.702-.694h3.687v1.983h-2.739v2.819h1.966zm6.071.135s-3.09.07-3.652 0c-.526-.07-.737-.174-.737-.557 0-.348-.035-2.646 0-3.306.07-.663 1.124-1.006 1.615-1.074.457-.035 4.634 0 4.634 0v1.804h-4.458c-.176 0-.141 1.497 0 1.497h4.002c.562 0 .491.139.491.383v2.228c0 .244-.351.523-.491.661-.105.105-5.969 3.621-5.969 3.621v-1.567s4.67-2.924 4.705-3.132c.07-.313-.14-.558-.14-.558zm22.368-6.676H1.76V20.821h76.058v16.967zM32.293 11.54l1.492-.584c.274-.116.588 0 .588.429v4.98c0 .331-.157.604-.569.604H32.45c-.431 0-.588-.214-.588-.565v-3.969c0-.428.039-.7.431-.895zm15.737.895v3.969c0 .351-.156.565-.588.565h-1.354c-.412 0-.569-.273-.569-.604v-4.98c0-.429.314-.545.588-.429l1.492.584c.392.195.431.467.431.895zm7.457.973c.393.078.393.448.393.779 0 .33-.059.641-.412.641h-2.179V12.96l2.198.448zm-51.96 8.97v13.659h72.564V22.378H3.527zm6.768 12.063H8.698v-4.567H7.436v4.567H5.838V23.802h1.598v4.255h1.262v-4.255h1.597v10.639zm3.72 0l-.281-2.767h-1.17l-.327 2.767H10.79l1.221-10.639h2.396l1.221 10.639h-1.613zm6.689-7.306c0 .791-.145 1.411-.719 1.862.083.094.699.501.718 1.222l.001 4.222h-1.598l.001-3.558c0-.643-.275-.848-1.294-.848v4.406h-1.597V23.802h2.639c1.282 0 1.849.448 1.849 1.823v1.51zm4.144 7.306h-3.22V23.802h1.598v8.958h1.622v1.681zm3.867 0h-3.331V23.802h3.301v1.662h-1.704v2.599h1.629v1.681h-1.629v3.016h1.734v1.681zm3.706 0h-1.598v-3.974l-1.643-6.665h1.643l.861 3.717.887-3.717h1.492l-1.642 6.59v4.049zm4.072-4.689h-2.924V28.41h2.924v1.342zm5.034 2.762c0 1.016-.663 1.927-1.899 1.927h-2.276V23.802h1.929c1.583 0 2.246.538 2.246 2.406v6.306zm3.649 1.927l-.282-2.767h-1.169l-.327 2.767h-1.447l1.221-10.639h2.396l1.221 10.639h-1.613zm4.397 0h-1.787l-1.5-10.639h1.628l.776 6.398.774-6.398h1.609l-1.5 10.639zm3.549 0h-1.598V23.802h1.598v10.639zm5.123-1.927c0 1.016-.663 1.927-1.899 1.927h-2.275V23.802H56c1.582 0 2.245.538 2.245 2.406v6.306zm5.199-5.1h-1.598V25.93c0-.54-.322-.658-.639-.658-.331 0-.634.118-.634.658v1.178c0 .762 2.851 2.11 2.851 3.186v2.563c0 1.391-1.237 1.794-2.232 1.794-.979 0-2.197-.403-2.197-1.794v-2.314h1.597v1.888c0 .539.284.658.615.658.317 0 .62-.119.62-.658v-1.12c0-1.495-2.852-1.909-2.852-3.642v-2.283c0-1.39 1.238-1.793 2.217-1.793.995 0 2.252.403 2.252 1.793v2.028zm5.187 5.443c0 1.391-1.287 1.794-2.267 1.794s-2.237-.403-2.237-1.794v-7.471c0-1.39 1.257-1.793 2.237-1.793.98 0 2.267.403 2.267 1.793v7.471zm5.484 1.584h-1.954l-1.27-6.056v6.056h-1.605V23.802h2.16l1.044 5.41v-5.41h1.625v10.639zm-61.361-4.565l.372-4.131h.106l.311 4.131h-.789zm5.059-4.609h.632c.362 0 .603.256.603.66v1.596c0 .388-.121.862-.678.862h-.557v-3.118zm21.137.214h.377c.406 0 .602.105.602.792v5.698c0 .687-.196.792-.602.792h-.377v-7.282zm4.965 4.395l.372-4.131h.105l.312 4.131h-.789zm11.753-4.395h.377c.407 0 .603.105.603.792v5.698c0 .687-.196.792-.603.792h-.377v-7.282zm10.057 6.737v-6.25c0-.538.322-.657.654-.657s.654.119.654.657v6.25c0 .537-.322.657-.654.657s-.654-.12-.654-.657z" class="cls-1"/></svg>