<svg xmlns="http://www.w3.org/2000/svg" width="100" height="29" viewBox="0 0 100 29">
    <path fill="#000" fill-rule="evenodd" d="M14.543 18.106H9.632v-6.653H5.07v16.942h4.56V21.83h4.912v6.564h4.56V11.453h-4.56v6.653zm16.84-1.065c-.527-.532-1.229-1.065-2.017-1.33-.878-.266-1.755-.533-2.807-.533-1.053 0-2.018.178-2.807.533-.877.265-1.49.798-2.017 1.33-.526.532-.965 1.242-1.228 2.129s-.438 1.774-.438 2.75c0 .975.175 1.951.438 2.75.263.797.702 1.507 1.228 2.128.526.532 1.228 1.065 2.017 1.33.877.267 1.754.533 2.807.533 1.052 0 2.017-.178 2.719-.533.79-.265 1.49-.798 2.017-1.33.526-.532.964-1.242 1.227-2.129a8.596 8.596 0 0 0 .44-2.75 8.596 8.596 0 0 0-.44-2.75c-.263-.886-.613-1.596-1.14-2.128zm-3.158 7.628c-.263.622-.877.887-1.666.887-.877 0-1.316-.265-1.667-.887-.263-.621-.439-1.596-.439-2.75 0-1.241.176-2.128.44-2.75.262-.62.876-.886 1.666-.886.876 0 1.315.266 1.666.887.263.621.439 1.597.439 2.75-.088 1.153-.176 2.128-.439 2.75zm16.84-7.628c-.527-.532-1.229-1.065-2.018-1.33-.877-.266-1.754-.533-2.806-.533-1.053 0-2.018.09-2.894.444-.878.266-1.492.798-2.018 1.33-.526.532-.964 1.242-1.227 2.13-.264.886-.44 1.773-.44 2.749 0 .975.176 1.952.44 2.75.263.798.7 1.508 1.227 2.129.526.532 1.228 1.064 2.018 1.33.876.266 1.754.532 2.806.532s2.017-.177 2.719-.532c.79-.266 1.49-.798 2.017-1.33.527-.533.964-1.243 1.228-2.13a8.597 8.597 0 0 0 .438-2.75 8.597 8.597 0 0 0-.438-2.749c-.088-.798-.526-1.508-1.052-2.04zm-3.158 7.628c-.263.622-.877.887-1.666.887-.877 0-1.316-.265-1.667-.887-.263-.621-.439-1.596-.439-2.75 0-1.241.176-2.128.44-2.75.262-.62.877-.886 1.666-.886.877 0 1.315.266 1.666.887.35.621.439 1.597.439 2.75s-.176 2.128-.44 2.75zm14.56-3.547c-.527-.267-.965-.533-1.58-.622-.526-.177-1.053-.266-1.578-.355-.526-.177-.877-.177-1.228-.354-.35-.177-.527-.444-.527-.71 0-.355.176-.532.614-.71.439-.177.878-.177 1.316-.177.526 0 1.14.09 1.754.178.615.089 1.228.265 1.666.532v-3.105c-.263-.088-.526-.177-.876-.177-.351-.089-.614-.177-.965-.177-.176-.178-.527-.178-.877-.267-.352 0-.614-.088-.877-.088-.702 0-1.316.088-2.018.177-.701.089-1.227.444-1.841.71-.521.35-.968.801-1.316 1.33-.35.532-.526 1.242-.526 2.04 0 .887.176 1.508.526 2.04.351.533.701.888 1.228 1.242.526.266.965.532 1.666.621.526.178 1.14.266 1.667.355.526.089.877.178 1.227.355.351.177.527.354.527.62 0 .267-.176.533-.527.622-.263.177-.701.177-1.227.177-.351 0-.702 0-1.14-.088-.439-.09-.79-.178-1.228-.267-.44-.088-.79-.177-1.14-.355-.352-.177-.702-.266-.965-.532l-.175 3.282a16.16 16.16 0 0 0 2.455.71c.877.177 1.754.177 2.544.177.701 0 1.315-.089 2.017-.178a10.33 10.33 0 0 0 1.754-.709c.526-.355.877-.798 1.228-1.33.263-.533.526-1.242.526-2.041 0-.798-.175-1.507-.526-2.04-.614-.266-1.053-.62-1.579-.886zm14.032-4.79a3.43 3.43 0 0 0-1.403-.887 5.597 5.597 0 0 0-1.755-.267c-.701 0-1.315.178-1.929.355a2.731 2.731 0 0 0-1.403 1.065v-6.475h-5.964v3.104h1.578v14.636c.351.089.702.177 1.14.265.439.089.878.178 1.404.178.526.089.965.177 1.49.177.527.089.965.089 1.492.089 1.14 0 2.104-.177 3.07-.355.965-.177 1.666-.71 2.367-1.33.527-.532.966-1.242 1.229-2.218a10.24 10.24 0 0 0 .438-2.927c0-1.242-.175-2.395-.438-3.281-.263-.977-.702-1.686-1.316-2.13zm-2.895 7.362c-.175.532-.35.975-.701 1.33-.175.178-.526.443-.79.532-.31.11-.635.17-.964.178-.176 0-.439 0-.614-.09-.176 0-.35-.088-.526-.088V20.5c0-.62.175-1.153.438-1.508s.702-.531 1.316-.531c.79 0 1.228.265 1.578.886.263.62.44 1.42.44 2.395.087.799 0 1.508-.177 1.952zm17.717 1.95c-.438 0-.614-.177-.614-.708v-4.968c0-.798-.087-1.42-.263-2.04a3.148 3.148 0 0 0-.965-1.42 4.78 4.78 0 0 0-2.017-.975c-.79-.177-1.666-.266-2.807-.266-.877 0-1.666.089-2.543.266-.877.178-1.578.355-2.192.62v2.928a9.73 9.73 0 0 1 1.93-.71c.788-.177 1.49-.265 2.103-.265.44 0 .79.088 1.053.177.35.089.527.178.79.443.175.178.263.444.35.71.088.266.088.532.088.887v.355c-.79-.266-1.666-.444-2.543-.444-.681.001-1.36.09-2.018.266-.526.178-1.14.444-1.578.798-.439.355-.79.8-.965 1.33-.176.533-.35 1.155-.35 1.864 0 1.33.438 2.395 1.227 3.105.79.709 1.93 1.064 3.246 1.064.7 0 1.402-.178 2.016-.355.615-.266 1.14-.62 1.491-1.064.175.532.527.886.877 1.064.439.177.966.355 1.58.355.525 0 1.052-.089 1.578-.178.526-.177.877-.355 1.227-.531l.176-2.396c-.088.089-.263.178-.526.178 0-.178-.175-.09-.351-.09zm-5-1.418c0 .532-.174.887-.437 1.153-.176.266-.527.443-1.053.443-.527 0-.878-.177-1.14-.443-.263-.266-.438-.71-.438-1.242s.175-.887.35-1.242c.263-.354.614-.532 1.228-.532.263 0 .526 0 .789.09.264.088.439.176.614.176l.088 1.597zm19.383 1.241c-.175.089-.438.178-.613.178-.438 0-.614-.178-.614-.71v-4.967c0-.798-.088-1.42-.263-2.04a3.16 3.16 0 0 0-.965-1.42 4.79 4.79 0 0 0-2.017-.975c-.79-.177-1.754-.266-2.895-.266-.877 0-1.666.089-2.543.266-.877.178-1.578.355-2.192.62v2.928a9.73 9.73 0 0 1 1.929-.71c.789-.177 1.49-.265 2.105-.265.438 0 .789.088 1.052.177.35.089.527.178.79.443.175.178.263.444.35.71.088.266.088.532.088.887v.355c-.79-.266-1.666-.444-2.544-.444-.68.001-1.358.09-2.017.266-.526.178-1.14.444-1.578.798-.44.355-.79.8-.965 1.33-.176.533-.35 1.155-.35 1.864 0 1.33.438 2.395 1.227 3.105.79.709 1.93 1.064 3.245 1.064.702 0 1.403-.178 2.018-.355.614-.266 1.14-.62 1.49-1.064.176.532.527.886.878 1.064.438.177.964.355 1.578.355.526 0 1.053-.089 1.667-.178.526-.177.876-.355 1.227-.531l.176-2.396c.087-.177-.088-.089-.264-.089zm-5.613-1.241c0 .532-.175.887-.438 1.153-.175.266-.526.443-.965.443-.526 0-.877-.177-1.14-.443-.263-.266-.439-.71-.439-1.242s.176-.887.351-1.242c.263-.354.614-.532 1.228-.532.264 0 .527 0 .79.09.263.088.438.176.613.176v1.597zM12 .01L.861 11.453h4.123L12 4.268l7.016 7.185h4.122L12 .011z"/>
</svg>
