<svg xmlns="http://www.w3.org/2000/svg" preserveAspectRatio="xMidYMid" width="114" height="51" viewBox="0 0 114 51"><defs><style>.cls-1{fill:#171717;fill-rule:evenodd}</style></defs><path d="M108.687 47.517l5.308 3.185h-4.109l-5.053-3.125h-4.43v3.125H97.03v-9.018h10.456c2.155 0 3.237.132 4.113.515.985.433 1.526 1.204 1.526 2.409 0 .902-.409 1.771-1.268 2.232-.828.444-1.902.634-3.17.677zm1.064-2.958c0-.646-.13-1.064-.495-1.335-.385-.287-.945-.404-2.209-.404h-6.644v3.62h6.685c1.077 0 1.67-.065 2.093-.355.431-.298.57-.772.57-1.356v-.17zm-9.67-12.066c.786.584 1.104 1.269 1.2 1.981 0 0-.986 1.561-1.863 1.962-2.471 1.131-4.33-.941-6.35-2.853-1.475-1.403-1.959-1.57-2.829-2.024-1.998-1.049-3.968-.954-6.387-.811l-3.965.358c-8.766.767-11.291-5.534-13.281-8.707-.49-.777-2.103-1.961-3.872-2.093 0 0-1.033-.039-2.347.131-7.57.973-10.459.486-13.538-.52-1.926 2.341-7.041 1.016-7.041 1.016-1.72-.45-9.358-3.109-10.222-3.388-1.322-.428-1.82.893-1.82.893-1.36 2.981-4.176 3.202-4.204 3.229 0 0-2.983-1.033-1.524-4.027.561-1.147 2.488-3.968 5.49-4.501 1.053-.187 2.43-.462 3.588-.554-4.053-3.228-6.438-2.567-6.583-2.549 0 0-2.183.381-3.738 1.799-.568.516-.976 1.147-1.514 1.887 0 0-.278.492-1.011.448-1.063-.065-2.16-.807-2.16-.807-.255-.186-.155-.593-.035-.806.078-.125.198-.34.198-.34a9.98 9.98 0 0 1-.187-.603c-.088-.357-.072-.445-.072-.445s.62.347.952.347c.095 0 .141-.016.141-.016.494-.149.955-1.128.974-1.233.418-1.381-.084-2.349-.505-2.647-.528-.363-1.184-.074-1.439.179-.292.282-.557.84-.691 1.284 0 0-.114.374-.064.764.048.356.377.943.473 1.243 0 0-.768.014-1.241-.453 0 0-.075.13-.423.191-.945.163-1.616-.519-1.947-.913-.23-.268-.402-.717-.588-1.018-.088-.143-.299-.307-.299-.307-.469-.433-.215-1.052.013-1.42.65-1.013 1.927-2.152 1.927-2.152.096-.095.051-.237.051-.237-.231-.497.175-.956.175-.956C15.899.387 23.496.051 23.496.051 38.151-.814 59.142 8.37 59.142 8.37c10.85 4.278 18.233 7.964 18.233 7.964 6.435 3.152 19.092 10.366 23.028 12.061 0 0 2.042.876 4.599.122 1.191-.35 1.992-1.152 2.695-1.298 0 0 1.485-.388 2.025.807.192.427.137 1.134-.37 1.93-1.96 3.412-7.026 3.068-9.271 2.537zm-82.139-25.4c.27.188.5.493.669.874-.395-1.329-1.248-1.297-1.428-1.275 0 0-.273.016-.445.143a1.62 1.62 0 0 1 1.204.258zm-4.306-1.84c-.01.014-.026.026-.041.039-.012.01-1.109.94-1.95 2.174 0 0 1.665-1.772 2.304-2.042a.974.974 0 0 1-.267-.221c-.017.016-.03.034-.046.05zm45.267 3.711l-.012-.003-.014-.003C58.675 8.866 37.865-.153 23.536.692c-.035 0-1.312.067-2.951.368 1.026-.1 2.444-.164 4.278-.081l1.026.044s-.325.607-.422.784c.845-.405 1.936-.76 3.184-.76h.014c.304.009 6.501.192 11.677 3.839l-.729-1.177 1.321.152c.014 0 .345.038 1.213.179.228.029 3.434.473 10.767 2.993.048.015 5.641 1.847 8.683 3.051.003 0 1.892.747 2.259.891-1.553-.645-3.21-1.32-4.953-2.011zM108.7 28.402c-.657-.651-2.161.5-2.99.813 0 0-2.551 1.002-6.234-.646 0 0-13.302-6.907-14.616-7.618-7.354-3.992-18.891-8.442-23.495-10.268-3.064-1.211-8.662-3.042-8.662-3.042-7.473-2.569-10.654-2.964-10.654-2.964-.869-.141-1.187-.178-1.187-.178l.35.566c.833 1.359 1.065 2.318 1.065 2.318-5.293-5.514-13.626-5.692-13.626-5.692-2.671-.001-4.594 1.798-4.594 1.798-.199.253.207.34.207.34 3.254.982 5.171 4.773 5.171 4.773-4.008-3.208-6.372-3.627-6.372-3.627-2.614-.382-2.635-1.449-2.635-1.449 2.41.529 3.868-.898 4.235-1.591l.172-.317c-4.157-.187-6.103.396-6.103.396-3.944.909-4.548 1.964-4.709 2.211-.18.269-.206 1.147.821.914 0 .002.413-1.421 1.626-1.633 0 0 .602-.081 1.835-.065 0 0-.864 1.896-2.692 2.202 0 0-.663.096-.865.121-.194.025-1.634.275-2.375 1.995 0 0-.399.768.151 1.356.021.024.047.054.075.082 0 0 .457.553 1.059.574.054.002.218.005.308-.011.204-.038.598-.225.984-1.058 0 0 .63-1.397.927-1.854 0 0 .348-.71 1.214-.793 0 0 1.778-.288 2.251 2.189.23 1.235.006 2.165-1.865 4.07 0 0-.27.261-.602.523 0 0-.111.086-.133.221-.011.064.007.161.074.197 0 0 .863.438 1.259.383.393-.058.301-.104 2.071-2.341 0 0 2.54-.689 2.561-2.871a9.343 9.343 0 0 0-.067-.888c-.06-.456-.221-1.186-.646-1.762 0 0 1.188.041 2.391 2.085.03.051.061.099.091.153 0 0 .403 1.045 1.267 1.155 0 0 2.057.277 4.664 1.861.605.366 2.192 1.405 2.292 1.441-.354-.983-.575-2.147-.173-3.528l.003.008c.025.079.041 4.265 7.3 6.394-3.42-.331-4.851-1.614-7.135-1.928-.874-.12-2.022-.022-3.399.108-3.148.287-4.865 1.226-6.551 4.157-1.209 2.102.955 3.384.955 3.384.265-.097.577-.212.907-.372-.552-.075-2.297-1.122-.631-3.495 0 0-1.054 2.445 1.593 2.92.502-.307 1.498-1.29 1.514-2.133.363-.574 1.057-1.529 3.067-.929 8.554 2.361 9.272 2.565 9.882 2.685 5.714 1.15 6.252-1.704 6.252-1.704.778-2.677-2.5-6.767-2.5-6.767 5.268 4.184 12.781 4.144 12.781 4.144-4.617.933-9.478-.702-10.241-.944 0 0 1.383 2.026.924 3.999 0 0 3.366 2.464 13.253 1.061 2.297-.326 3.142.064 3.142.064.12-1.155-1.918-2.902-1.918-2.902 2.074.87 4.124 3.519 4.508 4.028.249.314.509.7.799 1.18.83 1.381 3.982 8.001 11.488 7.437l3.854-.2s5.251-.455 7.592 1.159c1.541 1.062 1.645 1.25 2.553 1.997 1.194.985 3.324 3.651 5.497 3.772.641.034 1.255-.188 1.882-.709-2.077.601-3.292-.669-3.455-.829 2.319.617 3.286.413 4.065-.364.05-.719-.934-1.464-1.536-1.769-1.733-.869-2.374-1.757-3.25-2.625-.735-.735-1.93-2.407-2.628-2.991-.754-.632-1.777-1.37-4.071-1.333-2.331.033-5.048.059-5.854-.075-.84-.139-1.325-.256-2.101-.877-.624-.499-1.038-1.064-1.404-1.703-.366-.635-.705-1.503-1.377-2.695-.466-.823-1.288-1.473-1.288-1.473 1.072.677 1.632.995 2.42 2.15 1.637 2.414 2.868 3.103 3.888 3.442 1.527.504 5.586.615 7.249.837 1.596.213 2.556 1.168 2.946 1.575.887.911 1.847 1.833 2.628 2.645 2.475 2.575 5.3 2.862 5.305 2.862 1.458.236 3.984.095 5.195-.445 1.153-.509 2.101-1.392 2.293-2.054.163-.443.118-.896-.222-1.233zM23.401 3.883l-.001-.017a4.707 4.707 0 0 1-.992.321c.219.055.458.106.748.151l.02.001c.069.012 1.132.219 2.98 1.248-.607-.488-1.301-.906-2.075-1.141-.166-.045-.539-.179-.68-.563zm-8.162 1.225c.148-.005.513-.089.513-.089.933-.163 1.17-.921 1.17-.921-.485 0-.799.019-.799.019-.543.056-.762.652-.784.707l-.1.284zm7.388-2.964c.218 0 .802.006 1.167.009.024 0-.158.114-.439.245-.395.183-.988.399-1.514.391l-.336-.008c-.203-.009-.333-.022-.33-.052.005-.05.503-.585 1.452-.585zm-8.161 39.539v4.398c0 1.422-.328 2.285-1.007 2.977-1.185 1.207-3.458 1.643-6.674 1.643H.003v-1.21h6.243c1.916 0 3.21-.316 3.991-1.085.591-.58.857-1.39.857-2.595v-4.128h3.372zm12.72 0l7.865 9.018H31.27l-1.662-1.92h-9.992l-1.656 1.92h-1.955l7.858-9.018h3.323zm1.414 5.932l-3.995-4.619-3.984 4.619H28.6zm14.668-5.932h9.475v1.204h-8.425c-1.805 0-2.789.271-3.538.878-.667.539-1.021 1.346-1.021 2.426-.001 1.118.373 1.942 1.085 2.482.751.57 1.764.823 3.502.823l5.384.001V46.56h3.356v4.141h-9.759c-1.83 0-3.271-.212-4.36-.648-1.813-.729-2.642-2.059-2.642-3.878 0-1.717.903-2.909 2.052-3.55 1.222-.681 2.598-.942 4.891-.942zM60.18 46.05c0 1.171.148 1.86.579 2.464.73 1.024 1.989 1.393 4.254 1.393h.286c2.368 0 3.524-.369 4.253-1.393.432-.606.58-1.324.58-2.461v-4.37h3.373v4.494c0 1.163-.128 2.083-.717 2.851-.959 1.252-2.715 1.971-7.616 1.971l-.051.001c-4.874 0-6.64-.721-7.597-1.97-.589-.769-.717-1.69-.717-2.852v-4.494h3.373v4.366zm25.992-4.367l7.865 9.018h-3.782l-1.661-1.92h-9.992l-1.656 1.92h-1.955l7.857-9.018h3.324zm1.414 5.932l-3.996-4.619-3.983 4.619h7.979z" class="cls-1"/></svg>