<svg xmlns="http://www.w3.org/2000/svg" width="86" height="39" viewBox="0 0 86 39">
    <path fill="#171717" fill-rule="evenodd" d="M81.992 36.388l4.004 2.389h-3.1l-3.811-2.344h-3.342v2.343h-2.545v-6.763h7.888c1.626 0 2.442.099 3.103.386.743.325 1.15.903 1.15 1.807 0 .676-.308 1.328-.956 1.674-.624.333-1.434.475-2.391.508zm.803-2.219c0-.484-.098-.798-.374-1.001-.29-.215-.713-.303-1.666-.303h-5.012v2.715h5.043c.812 0 1.26-.049 1.579-.266.325-.224.43-.58.43-1.017v-.128zM75.5 25.12c.593.439.833.953.905 1.486 0 0-.744 1.171-1.405 1.472-1.865.848-3.267-.706-4.79-2.14-1.114-1.052-1.479-1.177-2.135-1.518-1.507-.787-2.993-.715-4.818-.608l-2.991.268c-6.613.576-8.518-4.15-10.02-6.53-.369-.582-1.586-1.47-2.92-1.57 0 0-.78-.029-1.77.099-5.712.73-7.891.364-10.214-.39-1.453 1.755-5.311.762-5.311.762-1.298-.338-7.06-2.332-7.712-2.541-.997-.321-1.373.67-1.373.67-1.026 2.235-3.15 2.401-3.171 2.421 0 0-2.25-.774-1.15-3.02.423-.86 1.877-2.976 4.142-3.376.794-.14 1.833-.346 2.706-.415-3.057-2.421-4.856-1.925-4.966-1.912 0 0-1.646.286-2.82 1.35-.428.386-.736.86-1.142 1.414 0 0-.21.37-.762.336-.802-.048-1.63-.605-1.63-.605-.192-.14-.117-.444-.026-.604.059-.094.15-.255.15-.255-.053-.15-.1-.3-.142-.453-.066-.267-.054-.333-.054-.333s.467.26.718.26c.072 0 .106-.012.106-.012.373-.112.72-.846.735-.925.315-1.035-.063-1.761-.38-1.985-.4-.272-.894-.055-1.086.134-.22.212-.42.63-.522.963 0 0-.086.28-.048.573.036.267.284.707.357.933 0 0-.58.01-.936-.34 0 0-.057.097-.32.143-.712.122-1.219-.39-1.468-.685-.174-.2-.304-.537-.444-.763-.066-.107-.225-.23-.225-.23-.354-.325-.163-.79.01-1.065.49-.76 1.453-1.615 1.453-1.615.072-.07.039-.177.039-.177-.175-.373.132-.717.132-.717 1.792-2.579 7.523-2.83 7.523-2.83 11.056-.65 26.89 6.239 26.89 6.239C52.802 10.236 58.372 13 58.372 13c4.854 2.364 14.402 7.774 17.372 9.045 0 0 1.54.657 3.469.092.899-.263 1.503-.864 2.033-.974 0 0 1.12-.29 1.528.605.145.32.103.851-.28 1.448-1.478 2.559-5.3 2.301-6.993 1.903zM13.535 6.07c.204.142.377.37.505.656-.298-.996-.942-.972-1.077-.956 0 0-.206.012-.336.107.316-.057.643.013.908.194zm-3.248-1.38c-.008.011-.02.02-.031.03-.01.007-.837.705-1.471 1.63 0 0 1.256-1.329 1.738-1.531a.734.734 0 0 1-.201-.166c-.013.012-.023.026-.035.038zm34.149 2.784l-.01-.002-.01-.003C44.264 7.4 28.565.635 17.756 1.27c-.027 0-.99.05-2.227.276a22.92 22.92 0 0 1 3.227-.06l.774.032s-.245.456-.318.588c.637-.303 1.46-.57 2.402-.57h.01c.23.007 4.905.144 8.81 2.88l-.55-.883.996.114c.01 0 .26.028.915.134.172.022 2.59.355 8.123 2.245.036.011 4.255 1.385 6.55 2.288l1.704.668a249.69 249.69 0 0 0-3.736-1.508zm37.566 14.579c-.496-.489-1.63.375-2.256.61 0 0-1.924.75-4.703-.485 0 0-10.035-5.18-11.026-5.714-5.548-2.994-14.25-6.331-17.724-7.7-2.312-.909-6.535-2.282-6.535-2.282-5.637-1.927-8.037-2.223-8.037-2.223a24.04 24.04 0 0 0-.895-.134l.264.425c.628 1.019.803 1.738.803 1.738-3.993-4.135-10.28-4.269-10.28-4.269-2.014 0-3.465 1.349-3.465 1.349-.15.19.156.255.156.255 2.455.736 3.901 3.58 3.901 3.58-3.023-2.407-4.807-2.72-4.807-2.72-1.972-.287-1.987-1.088-1.987-1.088 1.818.397 2.918-.673 3.194-1.193l.13-.238c-3.136-.14-4.604.297-4.604.297-2.975.682-3.43 1.474-3.552 1.659-.136.201-.156.86.62.685 0 .002.31-1.066 1.226-1.224 0 0 .454-.061 1.384-.05 0 0-.652 1.423-2.03 1.652 0 0-.5.072-.653.091-.147.019-1.233.206-1.792 1.496 0 0-.301.576.114 1.017.016.018.035.04.057.062 0 0 .344.415.798.43.041.002.165.004.233-.008.154-.029.45-.169.742-.793 0 0 .475-1.048.7-1.391 0 0 .262-.532.915-.595 0 0 1.342-.216 1.698 1.642.174.926.005 1.624-1.407 3.053 0 0-.203.195-.454.392 0 0-.083.064-.1.165-.008.049.005.121.056.148 0 0 .65.329.95.287.296-.043.227-.078 1.562-1.755 0 0 1.916-.517 1.932-2.154a6.967 6.967 0 0 0-.05-.665c-.046-.343-.167-.89-.488-1.322 0 0 .896.03 1.804 1.564.022.038.046.074.068.115 0 0 .304.783.956.866 0 0 1.552.208 3.519 1.396.456.274 1.653 1.053 1.729 1.08-.267-.737-.434-1.61-.13-2.646l.001.006c.02.06.031 3.199 5.507 4.796-2.58-.248-3.66-1.21-5.382-1.446-.66-.09-1.525-.017-2.564.08-2.375.216-3.67.92-4.942 3.118-.912 1.577.72 2.538.72 2.538.2-.072.435-.159.684-.279-.416-.056-1.732-.841-.476-2.62 0 0-.795 1.833 1.202 2.19.379-.231 1.13-.968 1.142-1.6.274-.431.798-1.147 2.314-.697 6.453 1.77 6.995 1.924 7.455 2.014 4.31.862 4.716-1.279 4.716-1.279.587-2.007-1.886-5.075-1.886-5.075 3.974 3.138 9.642 3.108 9.642 3.108-3.483.7-7.15-.526-7.726-.708 0 0 1.044 1.52.697 3 0 0 2.54 1.848 9.998.795 1.733-.244 2.37.048 2.37.048.091-.866-1.446-2.176-1.446-2.176 1.564.652 3.11 2.639 3.4 3.02.188.236.384.526.603.886.626 1.036 3.004 6 8.667 5.578l2.907-.15s3.961-.342 5.727.869c1.163.796 1.241.937 1.926 1.498.901.738 2.508 2.738 4.147 2.828.484.026.947-.14 1.42-.531-1.567.45-2.484-.502-2.607-.622 1.75.463 2.48.31 3.067-.273.038-.54-.705-1.098-1.159-1.327-1.307-.651-1.79-1.317-2.451-1.968-.555-.552-1.456-1.806-1.983-2.244-.569-.474-1.34-1.027-3.071-1-1.759.025-3.808.045-4.416-.056-.634-.104-1-.192-1.585-.657-.47-.375-.783-.798-1.06-1.278-.275-.476-.531-1.127-1.038-2.021-.352-.617-.972-1.105-.972-1.105.809.508 1.231.746 1.826 1.613 1.235 1.81 2.163 2.327 2.933 2.581 1.152.378 4.214.461 5.468.628 1.204.16 1.929.876 2.223 1.181.669.684 1.393 1.375 1.982 1.984 1.867 1.931 3.999 2.146 4.002 2.146 1.1.177 3.006.072 3.92-.333.87-.382 1.584-1.044 1.73-1.54.122-.333.088-.673-.168-.925zM17.653 3.662V3.65c-.24.107-.491.188-.749.24.165.042.346.08.565.113l.015.001c.052.01.854.165 2.248.936-.458-.366-.982-.68-1.566-.856-.125-.033-.406-.134-.513-.422zm-6.157.919c.112-.004.387-.067.387-.067.704-.122.883-.69.883-.69-.366 0-.603.014-.603.014-.41.042-.575.489-.591.53l-.076.213zm5.573-2.223c.165 0 .606.004.88.007.019 0-.118.085-.33.183-.298.138-.746.3-1.142.294l-.254-.006c-.153-.007-.251-.017-.249-.04.004-.037.38-.438 1.095-.438zm-6.156 29.654v3.299c0 1.066-.247 1.714-.76 2.233-.894.905-2.608 1.232-5.034 1.232H.002v-.908h4.71c1.445 0 2.421-.237 3.01-.814.446-.434.647-1.042.647-1.946v-3.096h2.544zm9.596 0l5.933 6.764H23.59l-1.254-1.44h-7.538l-1.25 1.44h-1.474l5.928-6.764h2.507zm1.066 4.45l-3.013-3.465-3.006 3.464h6.02zm11.066-4.45h7.148v.903h-6.356c-1.362 0-2.104.203-2.67.659-.502.404-.77 1.01-.77 1.82 0 .838.282 1.456.82 1.86.566.428 1.33.618 2.641.618h4.062V35.67h2.531v3.106h-7.362c-1.38 0-2.467-.16-3.289-.486-1.368-.547-1.993-1.544-1.993-2.909 0-1.288.681-2.181 1.548-2.662.922-.511 1.96-.707 3.69-.707zm12.758 3.276c0 .878.112 1.395.437 1.848.55.767 1.5 1.044 3.209 1.044h.216c1.786 0 2.658-.276 3.208-1.044.326-.455.438-.994.438-1.846v-3.278h2.544v3.37c0 .873-.096 1.563-.54 2.139-.724.939-2.049 1.478-5.746 1.478l-.039.001c-3.677 0-5.009-.54-5.73-1.477-.445-.577-.542-1.268-.542-2.14v-3.37H45.4v3.275zm19.608-3.276l5.933 6.764h-2.853l-1.253-1.44h-7.538l-1.249 1.44h-1.475l5.927-6.764h2.508zm1.067 4.45l-3.015-3.465-3.005 3.464h6.02z"/>
</svg>
