<svg xmlns="http://www.w3.org/2000/svg" width="56" height="57" viewBox="0 0 56 57">
    <g fill="none" fill-rule="evenodd">
        <path d="M-32-7H88v70H-32z"/>
        <g fill="#000">
            <path d="M27.831 47.772a4.489 4.489 0 0 0-4.478 4.495 4.489 4.489 0 0 0 4.487 4.486 4.489 4.489 0 0 0 4.487-4.486 4.489 4.489 0 0 0-4.478-4.495h-.018M13.43 48.002a4.484 4.484 0 0 0 .714 4.928 4.474 4.474 0 0 0 7.798-2.767 4.482 4.482 0 0 0-2.546-4.278 4.585 4.585 0 0 0-1.964-.451 4.422 4.422 0 0 0-4.002 2.57M36.239 45.813a4.46 4.46 0 0 0 .526 8.223 4.453 4.453 0 0 0 4.784-1.276 4.462 4.462 0 0 0 .652-4.912 4.374 4.374 0 0 0-3.963-2.5 4.573 4.573 0 0 0-2 .465M6.344 39.847a4.483 4.483 0 0 0-.656 6.302 4.474 4.474 0 0 0 6.297.657 4.503 4.503 0 0 0 1.372-4.973 4.496 4.496 0 0 0-4.197-2.995 4.481 4.481 0 0 0-2.816 1.009M42.963 40.41a4.419 4.419 0 0 0 .077 5.488A4.409 4.409 0 0 0 48.4 47.07a4.417 4.417 0 0 0-1.93-8.38 4.473 4.473 0 0 0-3.506 1.72M3.472 29.413a4.48 4.48 0 0 0 2.066 8.719 4.484 4.484 0 0 0 3.392-4.867 4.481 4.481 0 0 0-4.403-3.974c-.355 0-.709.04-1.055.121M46.68 32.617a4.455 4.455 0 1 0 8.7 1.926 4.46 4.46 0 0 0-3.385-5.317 4.544 4.544 0 0 0-1.011-.115 4.42 4.42 0 0 0-4.303 3.506M.111 22.185A4.65 4.65 0 0 0 0 23.13v.12a4.397 4.397 0 0 0 3.503 4.284 4.48 4.48 0 0 0 4.649-1.795 4.49 4.49 0 0 0 .118-4.986 4.48 4.48 0 0 0-8.159 1.432M49.983 18.608a4.396 4.396 0 0 0 1.602 8.627 4.395 4.395 0 0 0 3.846-4.634 4.393 4.393 0 0 0-5.448-3.993M5.505 10.793a4.463 4.463 0 0 0 2.838 7.222 4.454 4.454 0 0 0 4.155-1.693 4.468 4.468 0 0 0 .532-4.712 4.46 4.46 0 0 0-4.005-2.534 4.471 4.471 0 0 0-3.52 1.717M43.566 9.93a4.483 4.483 0 0 0 2.294 7.953 4.475 4.475 0 0 0 4.417-2.287 4.483 4.483 0 0 0-.42-4.96 4.501 4.501 0 0 0-3.518-1.71 4.321 4.321 0 0 0-2.773 1.003M15.29 2.89a4.456 4.456 0 0 0-2.206 5.497 4.45 4.45 0 0 0 8.61-2.01A4.452 4.452 0 0 0 15.29 2.89M34.035 4.89a4.482 4.482 0 0 0 2.098 5.978 4.474 4.474 0 0 0 5.973-2.1 4.482 4.482 0 0 0-2.098-5.978 4.546 4.546 0 0 0-1.972-.453 4.373 4.373 0 0 0-4 2.555M27.556 0a4.421 4.421 0 0 0-4.446 4.512 4.479 4.479 0 0 0 4.528 4.39 4.48 4.48 0 0 0 4.425-4.495A4.442 4.442 0 0 0 27.605 0h-.05zM30.088 19.613a1.667 1.667 0 1 1 2.627 1.947 1.667 1.667 0 0 1-1.838.264 1.647 1.647 0 0 1-.789-2.211M33.634 21.489a1.666 1.666 0 0 1 2.71 1.471 1.668 1.668 0 0 1-2.96.864 1.65 1.65 0 0 1 .25-2.335M36.023 24.72a1.666 1.666 0 0 1 1.808 2.5 1.666 1.666 0 0 1-3.042-.505 1.648 1.648 0 0 1 1.234-1.995M36.771 28.674a1.668 1.668 0 1 1-1.978 1.261 1.647 1.647 0 0 1 1.978-1.261M35.738 32.558a1.669 1.669 0 0 1-.824 2.974 1.666 1.666 0 0 1-1.504-2.694 1.647 1.647 0 0 1 2.328-.28M33.125 35.606a1.67 1.67 0 0 1-2.032 2.32 1.668 1.668 0 0 1-.188-3.08 1.645 1.645 0 0 1 2.22.76M29.448 37.224a1.668 1.668 0 0 1-2.835 1.212 1.67 1.67 0 0 1 1.163-2.858 1.645 1.645 0 0 1 1.672 1.646M25.43 37.084a1.667 1.667 0 1 1-2.63-1.94c.5-.453 1.224-.56 1.834-.27a1.646 1.646 0 0 1 .796 2.21M21.875 35.217a1.666 1.666 0 0 1-2.714-1.464 1.668 1.668 0 0 1 2.958-.87 1.647 1.647 0 0 1-.244 2.334M19.476 31.988a1.666 1.666 0 0 1-1.808-2.5 1.666 1.666 0 0 1 3.042.505 1.65 1.65 0 0 1-1.234 1.995M18.717 28.043a1.668 1.668 0 1 1 1.975-1.268 1.647 1.647 0 0 1-1.975 1.268M19.742 24.154a1.669 1.669 0 0 1 .818-2.975 1.666 1.666 0 0 1 1.51 2.69 1.646 1.646 0 0 1-2.328.285M22.342 21.1a1.67 1.67 0 0 1 2.023-2.33 1.668 1.668 0 0 1 .2 3.08 1.644 1.644 0 0 1-2.223-.75M26.018 19.475a1.668 1.668 0 0 1 2.831-1.22 1.67 1.67 0 0 1-1.152 2.862 1.645 1.645 0 0 1-1.679-1.642M28.457 12.16c-.43 1.56 1.466 5.572 1.512 5.667.12-.081 3.775-2.532 4.2-4.09a2.964 2.964 0 1 0-5.712-1.577M35.466 14.116c-1.07 1.235-1.062 5.767-1.062 5.767s4.476-.651 5.547-1.89a2.968 2.968 0 0 0-1.673-4.885 2.962 2.962 0 0 0-2.812 1.008M40.801 18.905c-1.502.646-3.477 4.72-3.477 4.72s4.309 1.379 5.813.735a2.969 2.969 0 0 0 1.513-3.878 2.964 2.964 0 0 0-3.849-1.577M38.49 28.383s3.303 3.091 4.935 3.155a2.965 2.965 0 0 0 3.033-2.854 2.966 2.966 0 0 0-2.81-3.075h-.053c-1.659 0-5.11 2.776-5.11 2.776M37.547 32.906s1.603 4.234 3.045 5.01a2.962 2.962 0 0 0 4.367-2.702 2.967 2.967 0 0 0-1.558-2.524 3.978 3.978 0 0 0-1.762-.295 22.534 22.534 0 0 0-4.093.511M35.16 42.608a2.962 2.962 0 0 0 4.144.633 2.969 2.969 0 0 0 .633-4.148c-.97-1.321-5.383-2.32-5.383-2.32s-.363 4.514.606 5.833M28.249 44.304a2.964 2.964 0 1 0 5.831-1.069c-.295-1.615-3.827-4.44-3.827-4.44s-2.3 3.894-2.004 5.51M21.194 42.991a2.964 2.964 0 1 0 5.727 1.536c.424-1.581-1.554-5.654-1.554-5.654s-3.75 2.534-4.176 4.117M15.58 38.788a2.97 2.97 0 0 0 1.71 4.846 2.963 2.963 0 0 0 2.795-.989c1.066-1.245 1.033-5.773 1.033-5.773s-4.475.673-5.539 1.916M12.15 32.483a2.967 2.967 0 0 0-1.497 3.918 2.962 2.962 0 0 0 3.915 1.497c1.494-.665 3.406-4.772 3.406-4.772a20.259 20.259 0 0 0-4.622-.833c-.41-.018-.82.047-1.204.19M8.994 28.13a2.966 2.966 0 0 0 2.857 3.07c1.634.06 5.155-2.784 5.155-2.784s-3.308-3.085-4.946-3.145h-.108a2.964 2.964 0 0 0-2.958 2.862M10.82 20.165a2.966 2.966 0 0 0 1.267 3.998c1.454.756 5.85-.3 5.85-.3s-1.667-4.21-3.12-4.964a2.96 2.96 0 0 0-3.997 1.266M16.187 13.558a2.97 2.97 0 0 0-.609 4.151C16.554 19.024 20.972 20 20.972 20s.342-4.517-.635-5.83a2.963 2.963 0 0 0-4.15-.612M23.721 10.04a2.968 2.968 0 0 0-2.328 3.488c.32 1.606 3.891 4.384 3.891 4.384s2.24-3.933 1.92-5.54a2.963 2.963 0 0 0-3.484-2.331"/>
        </g>
    </g>
</svg>
