<svg xmlns="http://www.w3.org/2000/svg" width="80" height="43" viewBox="0 0 80 43">
    <path fill="#171717" fill-rule="evenodd" d="M67.68 36.76c-8.256 4.326-18.424 6.006-27.645 6.006-9.222 0-19.387-1.685-27.646-6.005C6.742 33.8.636 28.75.636 21.702c0-7.051 6.106-12.098 11.753-15.055C20.65 2.321 30.813.636 40.035.636c9.22 0 19.388 1.684 27.646 6.011 5.65 2.957 11.756 8.004 11.756 15.055 0 7.05-6.106 12.1-11.756 15.059zm-.993-28.164c-7.093-3.717-16.553-5.76-26.647-5.76-10.09 0-19.559 2.043-26.656 5.76C6.563 12.17 2.8 16.82 2.8 21.702c0 4.878 3.762 9.534 10.583 13.108.443.232.896.456 1.356.676l.002.001c6.924 3.285 15.833 5.084 25.293 5.084 10.093 0 19.559-2.046 26.652-5.76 5.972-3.128 9.597-7.083 10.41-11.291.073-.376.122-.754.15-1.136.004-.075.01-.15.013-.226.007-.152.011-.303.011-.456 0-4.88-3.759-9.532-10.584-13.106zM40.035 39.257c-8.647 0-18.291-1.554-26.04-5.611a26.773 26.773 0 0 1-.829-.45c-.14-.078-.282-.157-.422-.24a45.09 45.09 0 0 1-.761-.455l-.374-.236h-.002c-3.748-2.4-7.489-5.993-7.489-10.552 0-5.543 5.524-9.651 9.876-11.93 7.75-4.058 17.392-5.615 26.041-5.615 8.649 0 18.293 1.552 26.044 5.615 3.513 1.84 7.793 4.872 9.312 8.89a8.456 8.456 0 0 1 .263.814l.055.211c.102.412.171.83.208 1.252.025.254.037.508.037.763 0 5.54-5.523 9.652-9.875 11.933-7.75 4.059-17.397 5.611-26.044 5.611zm0-34.213c-19.359 0-35.155 7.945-35.155 16.67 0 8.686 15.796 16.666 35.155 16.666S75.19 30.4 75.19 21.713c0-8.724-15.796-16.669-35.155-16.669zm23.136 22.464c-.352.322-.709.525-1.415.644l1.217 3.355h-2.59l-.974-3.282h-.873l-1.103 3.282h-2.581l2.824-8.267c.149-.438.158-.643-.015-.813l-.163-.16.08-.247h4.04c1.44 0 2.198.407 2.558.952.26.396.507 1.168.1 2.52-.278.932-.615 1.565-1.105 2.016zm-1.775-3.323h-1.49l-.668 1.96h1.234c.315 0 .642-.02.802-.085.229-.096.407-.193.568-.6.11-.288.19-.6.186-.773-.004-.267-.188-.502-.632-.502zm-7.183-5.55l.302-.809 4.901-1.686h-4.315l.81-2.258h6.23l-.864 2.4-7.064 2.354zm-6.371 1.332h-4.124L46.51 11.7c.15-.438.157-.642-.016-.813l-.16-.16.078-.247h3.745c2.158 0 3.183 1.05 3.212 2.658.031 1.576-.91 4.439-1.935 5.541-.818.892-1.827 1.288-3.593 1.288zm1.937-7.236h-1.003l-1.692 4.973h.832c.888 0 1.277-.14 1.566-.45.364-.396.618-.931.938-1.864.361-1.041.457-1.524.452-1.877-.011-.548-.396-.782-1.093-.782zm-9.972 7.231l-1.198-6.14-2.046 6.14h-2.348l2.79-8.262c.149-.438.156-.642-.018-.813l-.16-.16.08-.247h3.31l.976 5.155 1.71-5.155 2.454-.003-3.2 9.485h-2.35zm-8.711-2.097h-2.812l-1.177 2.097h-2.72l4.413-7.489c.718-1.159.799-1.436.605-1.63l-.12-.117.08-.246h3.691l.534 9.482h-2.466l-.028-2.097zm-.083-4.763h-.085l-1.596 2.865h1.725l-.044-2.865zm-7.317 6.863l-6.388.002 2.793-8.267c.152-.438.157-.642-.015-.813l-.16-.16.077-.247h3.205l-2.452 7.224h3.712l-.772 2.261zm-3.497 4.087l-4.901 1.684h4.314l-.81 2.26h-6.229l.866-2.4 7.063-2.354-.303.81zm2.863-1.625l-.16-.16.08-.247h4.04c1.438 0 2.198.407 2.556.952.262.396.509 1.168.1 2.52-.279.932-.614 1.565-1.103 2.016-.353.322-.709.525-1.416.644l1.216 3.355h-2.59l-.972-3.282-.874-.002-1.102 3.284h-2.581l2.822-8.267c.151-.438.16-.643-.016-.813zm2.807 3.718c.321 0 .65-.02.807-.085.23-.096.41-.193.57-.6.11-.288.19-.6.186-.773-.005-.267-.19-.502-.634-.502h-1.49l-.67 1.96h1.231zm9.823-4.243h.296c2.159 0 3.184 1.115 3.204 2.722.02 1.575-.928 4.556-1.954 5.66-.83.89-1.838 1.371-3.602 1.371h-.318c-2.157 0-3.184-1.113-3.203-2.721-.019-1.576.95-4.557 1.977-5.66.828-.89 1.833-1.372 3.6-1.372zm-2.068 7.494c.89 0 1.276-.229 1.566-.539.375-.395.626-.995.946-1.927.372-1.041.468-1.577.462-1.932 0-.545-.387-.836-1.086-.836-.888 0-1.275.225-1.564.537-.373.396-.626.996-.948 1.93-.37 1.04-.467 1.575-.461 1.93 0 .545.387.837 1.085.837zm9.041-7.376l.171 6.816h.074l3.424-6.816H49l-5.152 9.487h-3.193l-.389-8.277c-.031-.472-.096-.645-.333-.814l-.245-.15.11-.246h2.867zm7.195.432l-.162-.16.094-.279h6.728l-.783 2.19h-3.565l-.51 1.515h3.29l-.714 1.983H50.99l-.54 1.597h3.67l-.76 2.206h-6.286l2.801-8.237c.15-.44.158-.644-.015-.815z"/>
</svg>
