<svg xmlns="http://www.w3.org/2000/svg" width="116" height="23" viewBox="0 0 116 23">
    <g fill="none" fill-rule="evenodd">
        <path fill="#000" d="M63.245 13.617V8.844c0-.898-.437-1.476-1.33-1.688-.807-.191-1.633-.183-2.443-.03-.722.136-1.215.569-1.396 1.283a3.2 3.2 0 0 0-.097.774c-.006 3.115-.003 6.23-.005 9.346 0 .323.113.605.36.808.2.166.428.319.669.418.745.305 1.526.365 2.322.241.476-.074.936-.197 1.334-.477.387-.272.595-.625.59-1.11-.011-1.598-.004-3.195-.004-4.792M46.873 20.11v.26H41.87v-.293c.238-.057.475-.103.705-.17 1.027-.297 1.519-.888 1.601-1.927.024-.303.037-.607.038-.91.003-2.649.003-5.298 0-7.946 0-.972-.558-1.737-1.46-1.995-.217-.063-.448-.083-.686-.125v-.281c.044-.005.086-.012.127-.012.753 0 1.505-.006 2.257.001.933.009 1.624.445 2.057 1.227.614 1.11 1.2 2.236 1.77 3.367 1.046 2.073 2.073 4.155 3.108 6.233.024.048.051.093.088.159l1.097-2.395c1.061-2.32 2.116-4.643 3.187-6.959.493-1.066 1.359-1.628 2.557-1.63 4.87-.009 9.738-.004 14.607-.004h.192l.063 4.317c-.306.05-.305.05-.412-.202-.377-.882-.81-1.734-1.459-2.463-.773-.871-1.749-1.319-2.93-1.327-.908-.005-1.816-.001-2.724 0-.048 0-.096.006-.153.011v6.049c.015.01.025.022.035.022.757-.02 1.518 0 2.27-.07.745-.068 1.32-.474 1.67-1.119.254-.468.438-.973.653-1.461l-.045-.03h.318v5.733c-.294.038-.283.034-.375-.225-.127-.36-.249-.726-.415-1.07-.392-.812-1.041-1.324-1.972-1.386-.704-.047-1.414-.01-2.135-.01v6.566c.05.004.104.013.157.013.883 0 1.766-.005 2.649.001 1.865.014 3.256-.8 4.214-2.333.332-.531.602-1.101.873-1.666.093-.192.189-.281.43-.21l-.106 4.52H53.68v-.29c.223-.031.457-.051.685-.096.905-.178 1.307-.642 1.349-1.546.004-.097.007-.194.007-.292l.005-8.638c0-.075 0-.15-.042-.233-.03.056-.06.111-.087.169-1.677 3.659-3.353 7.318-5.032 10.976-.037.081-.042.188-.187.19-.142.001-.155-.1-.196-.182L44.67 9.448l-.104-.207c-.012.084-.022.125-.022.166.001 2.692-.003 5.383.012 8.074.001.367.063.739.148 1.097.125.534.47.927.984 1.141.373.155.771.256 1.185.39zm53.448-8.301c-.284.046-.284.046-.342-.201-.262-1.125-.688-2.179-1.42-3.097-.717-.902-1.614-1.554-2.785-1.756-1.663-.286-3.007.271-4.027 1.57-.63.802-.973 1.73-1.167 2.712-.355 1.8-.365 3.596.125 5.377.26.942.662 1.818 1.323 2.561.872.98 1.978 1.432 3.304 1.385 2.19-.076 3.715-1.169 4.775-2.975.083-.142.178-.282.234-.434.081-.223.221-.303.454-.238.001.004.011.017.007.025-.564 1.192-1.303 2.25-2.432 3.003-1.056.703-2.238.96-3.5.94-1.631-.025-3.147-.413-4.47-1.382-1.348-.988-2.147-2.323-2.472-3.924-.382-1.877-.192-3.696.772-5.383 1.194-2.089 3.044-3.249 5.463-3.58 1.214-.167 2.333.071 3.395.636.344.183.702.31 1.104.26.546-.07.935-.38 1.23-.805.113-.16.226-.227.43-.171v5.477zM86.7 15.82l-.108 4.524H74.814c-.067-.301-.054-.293.248-.331.398-.052.8-.111 1.184-.22.414-.117.616-.43.622-.854.002-.103.006-.206.006-.31V8.351c0-.784-.242-1.08-1.036-1.233-.333-.064-.674-.091-1.022-.136v-.288h6.266v.287c-.376.043-.746.078-1.114.132a1.789 1.789 0 0 0-.424.13.635.635 0 0 0-.405.567 4.821 4.821 0 0 0-.018.419V20.01c.039.012.056.023.074.023.9-.014 1.805.016 2.701-.053 1.381-.108 2.432-.811 3.237-1.89a9.295 9.295 0 0 0 1.15-2.076c.083-.208.196-.251.417-.194zm17.632-2.556c.023.552.03 1.105.072 1.656.074.978.246 1.94.633 2.852.458 1.08 1.17 1.93 2.332 2.339.827.29 1.678.32 2.536.162a3.46 3.46 0 0 0 2.214-1.363c.362-.48.606-1.016.784-1.581.373-1.185.473-2.405.482-3.634.01-1.347-.09-2.682-.521-3.974-.22-.657-.53-1.27-1.007-1.79-.958-1.042-2.191-1.34-3.566-1.23-1.465.116-2.487.859-3.114 2.14a6.301 6.301 0 0 0-.328.81c-.384 1.175-.484 2.388-.517 3.613zm-2.568.036c.006-3.09 2.247-5.956 5.442-6.736 3.615-.882 7.354 1.167 8.41 4.675.766 2.549.38 4.94-1.422 6.988-1.547 1.76-3.556 2.626-5.941 2.423-2.92-.248-4.873-1.824-5.975-4.44-.36-.857-.513-1.76-.514-2.91z"/>
        <path fill="#171717" d="M17.843 14.22h-.011v.182c-.036 1.299-.077 2.599.05 3.894.037.377.124.754.236 1.117.09.293.262.36.552.24.23-.096.455-.225.65-.38.55-.433 1-.965 1.403-1.526 1.202-1.674 2.384-3.36 3.57-5.046.031-.045.035-.143.007-.19-.276-.438-.534-.891-.852-1.3-.564-.726-1.285-1.247-2.23-1.407-1.132-.191-2.196.053-3.22.514-.046.021-.086.11-.087.17-.026 1.244-.046 2.488-.068 3.732m16.2-3.964c-.03-.43-.046-.862-.095-1.29-.058-.508-.174-1.005-.444-1.454-.225-.372-.538-.634-.982-.72a3.212 3.212 0 0 0-1.296.01c-.858.184-1.591.612-2.268 1.137-1.686 1.307-2.955 2.973-4.18 4.675-.027.038-.025.116-.006.163.474 1.166.956 2.328 1.428 3.495.354.874.697 1.753 1.198 2.561.295.476.636.914 1.092 1.256.787.589 1.685.644 2.513.11.295-.19.56-.445.789-.711.443-.518.706-1.139.93-1.772.394-1.11.624-2.258.841-3.41.252-1.339.435-2.685.48-4.05M14.62 9.348c-.055-1.804-.087-3.608-.402-5.392-.134-.756-.316-1.5-.714-2.171C12.996.93 12.29.63 11.3.827c-.834.164-1.561.55-2.24 1.03-1.275.902-2.307 2.036-3.198 3.288C3.497 8.467 1.845 12.11.826 16.028c-.333 1.28-.54 2.582-.486 3.91.026.616.115 1.222.408 1.78.323.614.839.926 1.548.92.769-.006 1.5-.18 2.2-.489 1.056-.467 1.947-1.163 2.779-1.937 1.308-1.218 2.45-2.583 3.628-3.916 1.182-1.338 2.335-2.702 3.635-3.936.052-.05.078-.148.078-.225.005-.929.003-1.858.003-2.787m9.898 3.633c-.063.087-.106.144-.147.203-1.023 1.464-2.036 2.934-3.072 4.39a11.592 11.592 0 0 1-1.682 1.921c-.396.356-.817.687-1.355.806-.712.157-1.821-.007-2.504-.934-.427-.58-.644-1.242-.791-1.929-.289-1.338-.332-2.697-.353-4.058a46.187 46.187 0 0 0-.012-.529c0-.01-.01-.02-.027-.055-.073.071-.145.133-.209.203-1.153 1.265-2.312 2.526-3.455 3.8-1.13 1.261-2.217 2.56-3.474 3.708-.909.83-1.882 1.568-3.045 2.035a5.704 5.704 0 0 1-2.16.425c-.787-.002-1.368-.345-1.744-1.016C.2 21.44.089 20.88.038 20.31c-.132-1.484.093-2.936.46-4.365 1.111-4.313 3.01-8.265 5.769-11.81.907-1.166 1.951-2.206 3.218-3.01.88-.561 1.827-.95 2.884-1.058 1.992-.204 3.54.624 4.43 2.381.482.952.728 1.97.888 3.013.22 1.427.254 2.866.253 4.306v.176c.405-.127.789-.267 1.183-.365.8-.198 1.609-.249 2.417-.05.948.234 1.664.802 2.23 1.556.29.385.539.799.812 1.209.034-.044.078-.098.12-.155.914-1.259 1.862-2.492 2.988-3.583.794-.77 1.656-1.453 2.69-1.897 1.013-.436 2.06-.6 3.144-.3.984.271 1.692.894 2.21 1.738.51.834.771 1.75.86 2.707a11.79 11.79 0 0 1-1.08 6.21c-.65 1.38-1.612 2.504-2.99 3.251-.806.437-1.668.694-2.6.667-.866-.025-1.558-.41-2.13-1.023-.655-.7-1.09-1.534-1.447-2.404-.515-1.255-1-2.522-1.502-3.782-.096-.24-.21-.474-.328-.741"/>
    </g>
</svg>
