<svg xmlns="http://www.w3.org/2000/svg" width="110" height="30" viewBox="0 0 110 30">
    <path fill="#171717" fill-rule="evenodd" d="M108.486 10.8H98.99a.512.512 0 0 1-.515-.51v-.681c0-.282.192-.553.535-.592.294-.033 9.475-.93 9.475-.93.43-.042.785.348.785.78v1.153a.775.775 0 0 1-.23.55.79.79 0 0 1-.554.23zm-4.835 1.519c4.13 0 5.948 3.054 5.948 6.11 0 .65-.316 1.032-1.023 1.032h-7.678c.082 1.376 1.178 2.617 2.76 2.617 1.12 0 1.876-.401 2.392-1.155a.901.901 0 0 1 .758-.392h1.805c.415 0 .615.386.55.68-.47 2.176-2.96 3.502-5.488 3.502-3.691 0-5.985-2.942-5.985-6.284 0-3.135 2.141-6.11 5.961-6.11zm2.75 4.804c-.123-1.352-1.341-2.35-2.75-2.35-1.41 0-2.606.998-2.73 2.35h5.48zm-10.61 7.366h-1.377a.937.937 0 0 1-.658-.272.92.92 0 0 1-.271-.654V9.23c0-.513.414-.929.93-.929h1.375c.515 0 .93.415.93.926V23.56a.92.92 0 0 1-.27.656.937.937 0 0 1-.66.273zm-3.607-9.502l-2.095-.001.003 5.305c0 1.04.633 1.753 1.765 1.753l.19-.002c.189 0 .37.074.503.206a.7.7 0 0 1 .208.497v1.042a.7.7 0 0 1-.207.497.713.713 0 0 1-.502.207h-1.263c-2.362 0-3.85-1.784-3.85-3.77v-5.735h-.678a.654.654 0 0 1-.461-.19.642.642 0 0 1-.19-.458v-.96a.65.65 0 0 1 .654-.647h.674l-.002-3.525c0-.239.095-.468.265-.638a.913.913 0 0 1 .642-.265h1.343c.5 0 .906.406.906.906v3.523h2.093a.65.65 0 0 1 .654.646v.961a.65.65 0 0 1-.652.648zm-7.405 1.118h-1.487c-.373 0-.644-.062-.783-.387-.292-.673-1.101-1.065-2.183-1.065-1.012 0-1.823.298-1.823 1.172 0 .577.63.797 1.308.972.379.097 2.125.538 2.85.723 1.857.469 2.999 1.644 2.999 3.343 0 2.93-3.06 3.839-5.256 3.839-3.096 0-5.34-1.743-5.34-3.41V21.1c0-.343.304-.569.567-.569h1.513c.45 0 .747.061.917.484.293.728 1.315 1.184 2.342 1.184 1.08 0 2.074-.319 2.074-1.255 0-.594-.623-.805-1.319-.987-.645-.169-1.97-.495-2.747-.697-1.704-.443-3.088-1.482-3.088-3.227 0-2.282 1.982-3.715 5.003-3.715 2.92 0 4.98 1.537 4.98 3.259a.54.54 0 0 1-.527.53zm-.425-5.226h-22.7l.001 12.59a1.02 1.02 0 0 1-1.023 1.02h-1.878a1.799 1.799 0 0 1-1.606-.903c-.231-.383-5.642-10.116-5.642-10.116l.082 9.997a1.023 1.023 0 0 1-1.022 1.022h-1.312a1.02 1.02 0 0 1-1.023-1.02V9.208c0-.562.457-1.02 1.023-1.02h2.044c.781 0 1.346.426 1.608.89.28.49 5.639 10.128 5.639 10.128l-.086-9.724c0-.563.457-1.02 1.022-1.02h24.871c.388 0 .701.31.701.694v1.029c0 .184-.073.36-.204.49a.702.702 0 0 1-.495.204zM42.873 25.257a35.31 35.31 0 0 1-2.983-1.854l1.138 3.333c.292.852 0 .953-.513.953-.514 0-.978-.12-1.26.06-.282.18-.635.674-1.059 1.105-.373.381-.916.282-1.027-.432l-1.366-8.225a31.06 31.06 0 0 1-2.492-2.487c-.35-.15-.696-.305-1.04-.467-.049.909.039 1.805.126 2.094.002.018.001.044-.018.062-.194.194-.702.756-.702.756l.011 1.486c0 .046-.015.068-.057.125a3.334 3.334 0 0 1-.43.462c-.348.337-2.476 1.807-3.486 2.252-1.013.467-2.07.757-2.545.913-.307.03-1.11.08-1.674.08-.537 0-2.803-.06-3.577-.07-.287-.006-1.273.138-2.114.301-.47.091-.843.22-1.134.286-.19.043-.369.04-.423.04-.932 0-1.834-.38-2.383-.677-1.043.501-3.4 2.493-3.824 2.824-.423.33-.854.617-1.007.742-.715.271-1.469.495-2.153.495-.296 0-.52-.03-.633-.183-.292-.402-.958-.868-1.806-.85-.312.008-.511.037-.602.076-.459-.212-.832-.538-1.22-1.267-.387-.728-.57-1.815-.57-2.16 0-.391-.007-.776.037-1.12.061-.483.206-.91.347-1.15.212-.12.465-.278.69-.306 1.124-.14 2.685-.773 3.466-1.078-.573-.537-1.367-1.577-1.51-1.747-.409-.487-.333-.986-.423-1.437l-.719-1.52c-.1-.18-.106-.218.024-.361.147-.165.329-.347.329-.53 0-.11-.382-.674-.459-.78-.075-.104-.063-.182.114-.292.272-.172.416-.311.416-.693 0-.16-.06-.331-.06-.481 0-.911 1.653-1.417 4.13-1.697.23-.31.468-.612.71-.904-.798.047-2.723.273-3.216.32l.37-.654c.66.09 2.598-.096 3.344-.243l.158-.177c-.7-.803-2.583-2.696-2.746-2.867 0 0 .168-.46.34-.67.434.896 2.032 2.537 2.815 3.1a24.839 24.839 0 0 1 4.296-3.596c.569-.37.779-.643 1.113-1.288.635-1.226 1.307-2.61 2.907-2.61.665 0 1.1.24 1.55.768l1.725.547-1.121.61 1.111.452c-1.585.599-3.24 1.466-3.726 2.953.416.104.746.321 1.01.559l1.517.561-1.113.615 1.002.55c-1.412.435-2.33 1-2.966 1.671.986-.01 1.98-.047 2.962-.047 2.925 0 5.078.13 6.563.38-1.134-2.144-.721-3.168-1.326-4.111-.501-.781-2.93-.295-3.333-.211l.702-1.16-1.385.111 1.174-1.39c.128-.18.189-.344.324-.826.208-.732.84-1.982 2.689-1.982 2.052 0 2.689 1.653 3.584 2.372A55.35 55.35 0 0 1 33 7.77c.579-.34 1.303-.893 1.801-1.655.578-.885 1.048-1.98 1.049-2.974l2.448.23c-.345.436-.912 1.429-1.128 2.14-.112.373-.106.669.03.77.259.193.713-.116 1.155-.587.622-.665 1.23-1.669 1.5-2.027l1.77 1.463c-.786.415-1.55.889-1.398 1.156.139.243.644.17 1.196 0a6.46 6.46 0 0 0 1.314-.568v2.383c-.854-.011-2.3.147-3.693.568.331.466 1.282.636 1.886.72l-.302 1.933c-1.523-.637-2.699-1.009-4.546-1.043-.156.162-.295.34-.414.53 2.47 3.592 5.54 10.456 6.898 13.6.132.303.225.612.307.847zm-3.614 1.348c.107.404.278.532.752.552.473.02.574-.16.473-.47l-1.203-3.71c-.382-.274-.76-.555-1.133-.84l1.11 4.468zm-1.617 1.284c.092.422.454.352.746-.019.293-.372.404-.472.293-.964l-1.16-5.26a41.85 41.85 0 0 1-1.114-.92l1.235 7.163zM20.474 12.18c-1.161 0-2.343.043-3.51.057-.474.736-.737 1.57-1.005 2.481l-.534-.12c.725-2.749 1.975-4.187 3.99-4.815l-.705-.43.841-.513-.77-.251c-.363-.34-.817-.521-1.24-.521-.862 0-1.3.603-1.708 1.414-.207.413-.62.843-1.486 1.425l-4.394 2.929-.654-.091 4.755-3.3c.595-.401 1.003-.612 1.26-1.143.38-.784.941-1.722 2.104-1.784.604-1.55 2.095-2.607 3.186-2.912l-.836-.331.819-.552-.81-.24c-.292-.361-.718-.653-1.238-.653-1.117 0-1.76 1.066-2.44 2.45-.279.568-.46.873-1.259 1.393-2.196 1.432-4.808 3.784-7.32 7.403l-.407-.225c.246-.435.51-.856.786-1.264-1.603.197-2.6.469-2.6.948 0 .623 1.54 1.37 2.077 1.37.439 0 1.053-.476 1.708-.476 1.109 0 3.104.898 4.02 1.539l-.704.276c-1.034-.506-2.133-1.049-3.091-1.049-.432 0-.804.127-1.076.268-.278.143-.63.3-1.098.434-.182-.114-1.11-.543-1.597-.854a2.225 2.225 0 0 1-.436-.35c-.023.157-.06.31-.113.46-.038.09.007.142.045.24.382.987 2.045 1.84 3.355 1.84.156 0 .393 0 .507-.034l.354.41c-.226.2-.582.406-.967.406-.254 0-.482-.039-.74-.088-.902-.172-1.78-.604-2.374-1.181-.135-.127-.241-.225-.339-.36-.013.098-.05.22-.052.354a.886.886 0 0 0 .143.489c.328.51.805.945 1.352 1.339.426.305 1.09.689 1.43.828.192.079 1.076.188 1.693.188 1.127 0 1.832-.307 2.097-.647.21-.27.388-.317.713-.317.688 0 2.664.676 3.231.94l-.428.219c-.128.06-.21.075-.416.015-.203-.06-1.308-.5-2.038-.5-.68 0-1.037.478-1.037.808 0 .479 1.096.663 2.256.663.823 0 2.618-.195 3.23-.292l.431.473c-.884.21-2.38.384-3.763.384-.698 0-1.958-.04-2.411-.216-.292-.112-.316-.498-.683-.668-.546-.254-1.206-.138-1.766-.138-.392 0-.81-.04-1.133-.138-.367-.117-.739-.327-1.065-.511-.232-.131-.478-.26-.673-.406-.202-.153-.358-.344-.52-.516.056.236.209.706.296.82.151.202.714.7.831.845.267.33.473.56 1.03.557.378-.002.584-.18 1.043-.18.712 0 1.711.534 2.247.903.497.342.771.64 1.444.64.19 0 .493-.065.785-.065.484 0 1.103.268 1.429.592.397.395.66.944.745 1.446l-.491.355c-.27-.877-.81-1.73-1.751-1.73-.68 0-.927.326-1.058.542-.801-.783-2.121-1.94-3.452-1.94-.543 0-1.112.2-1.32.21-.989.447-3.023 1.219-4.04 1.355-.158.457-.452 1.372-.452 1.951 0 .967.619 2.18 1.243 2.557 1.018-.196 2.016.331 2.419.873.128.173.329.188.63.185a2.813 2.813 0 0 0 1.153-.25c.196-.092.396-.182.54-.46.103-.202.434-.767.597-1.49.062-.277.128-.632.113-.888-.024-.408-.038-.59-.075-.678-.091-.21-.443-.602-.658-.676-.366-.127-.98-.268-1.197-.342a.785.785 0 0 0-.493.01c-.118.035-1.711.475-1.968.573l1.478-.975-1.164-.222 1.01-.327 1.087.327c.137.03.236.058.438.098.69.135 1.913.596 2.35 1.324.046.075.04.132.031.203-.045.399-.53 2.392-.575 2.701.411-.588 1.61-1.124 1.887-1.691.544.39 1.479-.9 1.899-1.11.214-.106.429-.199.514-.224.592.286 1.557.657 2.292.657.393 0 .478-.135.816-.22.746-.19 3.094-.354 4.233-.354 1.138 0 3.087.057 3.46.068.265-.091.672-.211.968-.294.99-.28 1.623-.531 2.294-.903.948-.526 1.803-1.2 2.533-1.997.09-.098.12-.212.166-.304.04-.08.14-.332.14-.437 0-.149-.236-.29-.77-.29-.604 0-1.134.19-1.627.462l-.29-.081c.527-.596 1.987-1.046 2.753-1.168.516-.807.8-1.737.823-2.691a5.022 5.022 0 0 0-.372-.16c-.377.453-.74.956-1.163 1.317-.225.192-.379.302-.71.302a.686.686 0 0 1-.348-.068c-.127-.071-.246-.213-.378-.415-.1-.151-.248-.347-.378-.563-.27-.451-.56-1.017-.824-1.475-.294-.514-.547-.899-.581-.963-.053-.097-.196-.218-.196-.218-.145.233-.25.684-.25.933l-.514-.173c.068-.339.204-.775.279-.986 0-.18-.204-.42-.37-.42-.234 0-.476.255-.597.744l-.521.225c.06-.79.332-1.655 1.118-1.655.635 0 1.028.482 1.33.933.302.45 1.292 1.799 1.504 2.061l.566-1.218a21.869 21.869 0 0 1-1.824-2.487c-1.388-.407-3.959-.538-7.054-.538zm19.718-1.614l.11-.732c-.696-.091-1.573-.485-1.945-.932-.606.227-1.18.51-1.664.855 1.361.029 2.725.422 3.5.81zm1.99-3.056v-.948c-.262.08-.545.171-.805.233-.37.088-.71.171-.998.163-.289-.007-.522-.121-.63-.275-.277-.393-.02-.989.886-1.544l-.715-.592c-.552.712-1.095 1.498-1.649 1.969-.502.426-1.028.638-1.454.322-.23-.17-.315-.247-.338-.691.03-.653.43-1.65.78-2.293l-.846-.1c-.15.984-.555 1.823-.989 2.515-.54.863-1.236 1.469-1.954 1.964.607.617 1.227 1.252 1.799 2.02 1.332-1.768 4.85-2.597 6.913-2.743zm-1.739 13.646c-2.94-1.656-5.913-4.698-7.3-7.311l.61.07c1.29 2.27 4.37 5.3 6.19 6.18-1.664-3.515-3.83-7.97-5.52-9.886-2.096-2.376-4.385-4.215-5.479-5.171-1.077-.943-1.521-2.126-3.072-2.126-1.28 0-1.953.917-2.21 1.842-.053.181-.083.294-.211.482l-.604.722 1.307-.158-.757 1.053s2.049-.457 2.767.512c.772 1.045.273 2.218 1.542 4.5.557 1.002 1.906 2.804 2.357 3.204l-.884 1.851c.068.309.2.488.264.587.137.21.288.195.491.007.094-.086.393-.328.683-.63a5.2 5.2 0 0 0 .595-.74c.288.13.825.385 1.257.575-1.855-2.276-3.63-5.038-4.4-6.916-.32-.776.303-1.036.604-.27.816 2.075 3.204 5.747 4.957 7.673 2.027 2.226 5.743 5.447 8.161 6.741-.35-.68-.813-1.659-1.348-2.791zM25.271 5.167a.498.498 0 1 1-.001-.996.498.498 0 0 1 .001.996zm-3.075 11.317c-.408 0-.843-.03-1.247-.068-.714-.07-1.332-.163-1.544-.163-.577 0-1.408.268-1.962.736 0 0-.375-.104-.506-.114.236-.312.522-.584.846-.804.513-.345 1.05-.535 1.862-.584.22-.013.67-.056.921-.045.226.01.61.025.962.09.25.047.482.116.676.146.117.018.527.013.67-.01.574-.09 1.264-.311 1.627-.508l.151.549c-.776.395-1.652.775-2.456.775zm-7.192-.008c-.321.128-.435.315-.435.58 0 .383.43.533.91.677.281.086.599.107.865.107.329 0 .96-.123 1.584-.26.752-.166 1.451-.362 1.656-.437l.272.487c-.838.28-1.694.548-2.49.71-.448.09-.876.147-1.259.147-.638 0-1.33-.267-1.9-.537-.48-.227-.908-.453-1.29-.453-.431 0-.836.148-1.235.375-.196.111-.784.514-1.309.72-.402.158-.73.246-1.137.246-.363 0-.58-.05-.768-.197l.63-.384c.082.08.228.094.318.094.091 0 .2-.01.447-.113.163-.077.32-.165.469-.265.249-.16.332-.253.43-.33.192-.15.262-.35.018-.567a2.6 2.6 0 0 0-.387-.299c-.219-.13-.377-.258-.772-.258-.465 0-.794.128-.975.221l-.31-.21c.26-.208.548-.38.854-.512.175-.073.374-.11.519-.11.347 0 .647.146.939.3.461.245.98.534 1.378.534.151 0 .297-.036.469-.036.393 0 .771.175.987.175.13 0 .222-.117.308-.24.217-.31.516-.54.898-.7.41-.171.905-.24 1.442-.24.423 0 .83.06 1.04.106 0 0-.322.387-.403.473-.427 0-1.24-.014-1.763.196zm-1.445-1.978l-.204-.218c.569-.527 1.171-1.367 1.27-1.86.09-.458.752-.384.626.114-.16.638-.945 1.407-1.692 1.964zm5.775 4.094c.635-.1 1.361-.175 1.778-.316.192.482.57.997 1.115.997.199 0 .525-.15.852-.294.37-.161.74-.338.93-.424.208-.09.88-.385 1.45-.638.218-.096.817-.379.85-.399l.384.206c-.115.502-.307 1.118-.523 1.559a1.843 1.843 0 0 1-.259.418c-.235.255-.499.484-.786.682-.383.271-.85.55-1.345.833-.387.22-.775.445-1.169.626l-.204-.37c.608-.342 1.224-.774 1.767-1.175a9.2 9.2 0 0 0 .681-.541c.106-.094.2-.2.28-.316.162-.236.424-.697.504-.918-.227.11-1.083.512-1.465.712-.433.226-1.134.583-1.527.767-.309.146-.585.225-.783.225-.44 0-.639-.315-.746-.505-.277-.492-.574-.537-1.355-.547-.908-.012-2.152.36-2.892.872l-.73-.331c1.012-.511 2.558-1.023 3.193-1.123zm1.028 2.202c.19 0 .202.086.257.174.151.24 1.34 1.93 1.462 2.062 1.009-.31 2.042-.761 2.64-1.332.62-.595 1.137-1.286 1.635-1.82a2.67 2.67 0 0 1 .548-.456c.516-.273 2.122-.297 2.796-.267l-.4.564c-1.19 0-1.854.123-2.154.346a2.947 2.947 0 0 0-.5.522c-.405.527-.849 1.248-1.026 1.39.347.24.728.45 1.332.45 1.008 0 1.73-.627 2.125-.98l.338.2c-.25.323-.536.653-.901.901-.405.274-.915.453-1.216.535-.585-.112-1.873-.37-2.175-.43-1.114.452-2.927 1.182-3.536 1.365a2.458 2.458 0 0 1-.41.065c-.482.027-1.152.023-1.762.016-.433-.007-.843-.003-1.047-.041l-.538-.56c.474.091.659.118 1.101.118 1.048 0 1.723-.173 1.945-.23.187-.048.218-.156.162-.323-.089-.269-.243-.522-.48-.794a3.957 3.957 0 0 0-.528-.479c-.145-.097-.285-.121-.68.012-.367.125-1.504.737-1.996.997-.242.129-.43.166-.865.064-.462-.107-1.564-.508-2.006-.775l.483-.2c.444.171 1.084.366 1.53.366.269 0 .49-.097.672-.177.143-.063 1.755-.851 2.555-1.14.255-.092.513-.143.639-.143zm5.529-3.962c-.261 0-.495.02-.66.105-.186.096-.298.24-.473.382a2.698 2.698 0 0 1-.772.42c-.331.123-.743.205-1.356.205-.81 0-1.248-.134-1.5-.166 0 0-.106-.43-.156-.585 0 0 .126-.042.293-.042.271 0 .943.075 1.222.075 1.05 0 1.437-.328 1.744-.605.264-.236.534-.428 1.248-.428.63 0 1.353.253 1.56.353l-.046.57a2.442 2.442 0 0 0-1.104-.284zm-8.254-8.136c.229 0 .415.184.415.411a.413.413 0 0 1-.708.29.409.409 0 0 1 0-.58.417.417 0 0 1 .293-.12zm.94-5.244a.419.419 0 1 1 0 .836.42.42 0 0 1-.423-.418.42.42 0 0 1 .422-.418zM2.296 9.718c.573-.617 1.671-1.425 2.382-1.72l.166.245c-.604.616-1.724 1.44-2.317 1.726l-.232-.251zm1.076-7.006c.757.381 2.232 1.69 2.751 2.298l-.292.36c-.79-.518-2.353-1.907-2.705-2.408l.246-.25zm8.145 3.314c-.164 1.712-1.786 1.933-2.834 1.12-.592-.458-.834-1.095-.948-1.575-.12-.508-.12-.963-.623-1.485-.38-.396-1.058-.382-1.058-.382 0-1.244-1.17-2.383-2.62-1.831-.514-.44-1.15-.485-1.605.06-.265.317-.41 1.15.406 1.53-.043 1.133.826 1.857 2.095 1.757.05.602.721 1.162 1.315 1.243l-.006.302c-.633-.06-.977.16-1.4.682-1.492-.07-2.537.59-2.494 1.656-1.047.199-1.244 1.292-.65 1.874.595.582 1.467.354 1.764-.341 1.059.2 1.993-.554 2.035-1.424.988 0 1.421-.39 1.582-1.294l.373.03c.11.974-.342 1.898-1.521 1.788-.03 1.162-1.164 1.812-2.222 1.411-.493.923-1.625 1.293-2.575.392-.916-.87-.581-2.361.618-2.721.027-1.14.873-2.224 2.517-1.806 0 0 .21-.51.725-.54-.343-.14-.602-.328-.673-.679-1.24.263-2.292-.873-2.01-2.016C.591 3.189.572 2.09 1.127 1.437c.578-.681 1.54-.831 2.403-.098 1.46-.805 3.108.18 3.008 1.835 1.02-.067 1.64.822 1.526 1.746.17-.407.365-.596.742-.678-.664-1.384.5-2.799 1.929-2.473.207-.45.603-.788 1.084-.924.48-.137.998-.058 1.414.216.917.552 1.112 1.978.137 2.67.459 1.332-.457 2.42-1.852 2.295zm1.247-4.298c-.68-.406-1.32-.25-1.728.531-1.09-.078-2.132.774-1.726 2.202-1.047.452-1.201 1.522-.466 2.163.886.774 2.347.1 2.207-1.083 1.188.06 1.955-1.163 1.765-2.02.53-.452.582-1.415-.052-1.793zM9.737 5.102c.515-.83 1.618-2.205 2.08-2.627l.248.175c-.48 1.005-1.326 2.073-2.051 2.66l-.277-.208zm58.926 7.217c4.13 0 5.949 3.054 5.949 6.11 0 .65-.317 1.032-1.024 1.032H65.91c.083 1.376 1.179 2.617 2.76 2.617 1.12 0 1.876-.401 2.392-1.155a.902.902 0 0 1 .758-.392h1.806c.415 0 .614.386.55.68-.47 2.176-2.961 3.502-5.488 3.502-3.692 0-5.986-2.942-5.986-6.284 0-3.135 2.141-6.11 5.961-6.11zm2.75 4.804c-.123-1.352-1.34-2.35-2.75-2.35s-2.606.998-2.73 2.35h5.48z"/>
</svg>
