<svg xmlns="http://www.w3.org/2000/svg" width="78" height="32" viewBox="0 0 78 32">
    <path fill="#171717" fill-rule="evenodd" d="M.793 31.804V.796h76.604v31.008H.793zM25.299 3.788l-3.503 17.307h-.07L16.61 3.788H8.284l-5.33 24.958h6.293l3.47-17.27h.071l5.217 17.27h8.3l5.287-24.958H25.3zm23.347 0l-1.969 9.548h-7.9l1.964-9.548h-6.683l-5.184 24.958h6.682l2.217-10.69h7.904l-2.217 10.69h6.684l5.185-24.958h-6.683zm18.231-.428c-5.471 0-11.121 1.93-11.121 8.37 0 7.04 9.69 5.537 9.69 9.544 0 2.574-3.251 2.968-5.327 2.968-2.18 0-4.828-.573-6.148-1.432l-1.573 5.077c2.18.681 5.148 1.292 7.72 1.292 5.792 0 12.194-1.79 12.194-8.69 0-7.58-9.69-6.26-9.69-9.797 0-2.006 2.147-2.395 4.79-2.395 2.466 0 4.218.536 5.505 1.141l1.611-4.968c-1.682-.785-4.575-1.11-7.651-1.11z"/>
</svg>
