<svg xmlns="http://www.w3.org/2000/svg" width="86" height="85" viewBox="0 0 86 85">
    <defs>
        <filter id="a" width="106.2%" height="113.2%" x="-3.1%" y="-6.6%" filterUnits="objectBoundingBox">
            <feOffset dy="3" in="SourceAlpha" result="shadowOffsetOuter1"/>
            <feGaussianBlur in="shadowOffsetOuter1" result="shadowBlurOuter1" stdDeviation="7.5"/>
            <feColorMatrix in="shadowBlurOuter1" result="shadowMatrixOuter1" values="0 0 0 0 0 0 0 0 0 0 0 0 0 0 0 0 0 0 0.06 0"/>
            <feMerge>
                <feMergeNode in="shadowMatrixOuter1"/>
                <feMergeNode in="SourceGraphic"/>
            </feMerge>
        </filter>
    </defs>
    <g fill="none" fill-rule="evenodd" filter="url(#a)" transform="translate(-799 -438)">
        <path fill-rule="nonzero" d="M781 442h120v70H781z"/>
        <g fill="#000">
            <path stroke="#000" stroke-width=".892" d="M860.203 459.705a7.561 7.561 0 0 1 1.434 8.764l-10.275-10.186c2.869-1.416 6.452-.945 8.84 1.422zm4.984 12.284c3.26-4.825 2.748-11.432-1.548-15.69-4.296-4.26-10.96-4.768-15.826-1.536L842 449l-29 28.751 13.49 13.374a2.44 2.44 0 0 0 3.436 0 2.4 2.4 0 0 0 0-3.407l-10.053-9.967L842 455.814l2.206 2.187-11.701 11.83c-.94.95-.933 2.482.017 3.423a2.417 2.417 0 0 0 3.42-.017l11.7-11.829 10.843 10.75-12.593 12.962a2.444 2.444 0 0 0 .033 3.439 2.395 2.395 0 0 0 3.404-.032l12.592-12.963 2.206 2.187-2.189 2.17a2.399 2.399 0 0 0 0 3.407 2.44 2.44 0 0 0 3.436 0l5.626-5.577-5.813-5.762z"/>
            <path d="M841.6 507l-7.235-7.285a2.48 2.48 0 0 1 0-3.494 2.444 2.444 0 0 1 3.47 0l3.764 3.79 11.705-11.787a2.444 2.444 0 0 1 3.47 0 2.48 2.48 0 0 1 0 3.493L841.598 507z"/>
        </g>
    </g>
</svg>
