<svg xmlns="http://www.w3.org/2000/svg" width="87" height="47" viewBox="0 0 87 47">
    <path fill="#000" fill-rule="evenodd" d="M86.953 29.949c-.023.029-.053.04-.093.04h-.012l-6.532-.608a.13.13 0 0 1-.124-.129l-.063-10.631a.14.14 0 0 1 .052-.1.138.138 0 0 1 .1-.035l1.972.182a.13.13 0 0 1 .123.134l.04 8.42 4.45.404c.07.005.123.07.123.14L87 29.849a.123.123 0 0 1-.047.1zm-8.221-.714h-.012l-2.265-.17a.125.125 0 0 1-.118-.088l-.763-2.112-3.685-.263-.78 1.983c-.018.053-.077.094-.135.082l-1.902-.135a.144.144 0 0 1-.106-.07.12.12 0 0 1-.012-.117l4.073-10.292a.133.133 0 0 1 .135-.081l1.591.11c.053 0 .093.042.117.094l3.99 10.877a.126.126 0 0 1-.017.13c-.023.034-.07.052-.111.052zm-4.977-7.326l-.968 2.434 1.901.14-.933-2.574zm-9.337-.556c1.614.684 3.832 1.61 3.838 3.838.006 1-.282 1.797-.857 2.37-.675.667-1.69 1.013-3.033 1.013-.147 0-.294-.006-.447-.012-1.625-.088-3.327-1.1-3.808-1.41a.143.143 0 0 1-.065-.117l-.011-2.423a.138.138 0 0 1 .102-.252.138.138 0 0 1 .109.141c1.479.983 2.88 1.615 3.679 1.656.751.047 1.25-.064 1.497-.316a.603.603 0 0 0 .182-.48c0-.24-.24-.468-.763-.731-.348-.163-.7-.315-1.056-.457-1.644-.672-3.891-1.591-3.903-4.072-.006-.825.258-1.51.775-2.036.675-.667 1.748-1.006 2.958-.948 1.42.082 3.11.802 3.902 1.275a.127.127 0 0 1 .064.117l.012 2.347a.135.135 0 0 1-.211.11c-.487-.315-2.195-1.362-3.767-1.444-.564-.03-.84.122-.963.24a.417.417 0 0 0-.135.298c.006.258.252.51.769.79.317.17.71.333 1.132.503zm-1.878-8.11c-.012-.017-.023-.022-.035-.034v-.047c.03.03.03.023.035.082zm.047.21a.234.234 0 0 1-.035.042c-.017-.024-.03-.059-.047-.082.018.011.03.023.047.04-.005-.022-.017-.04-.023-.064.023.024.04.047.058.065zm.041.861c-.018-.01-.029-.023-.053-.04-.005-.012-.005-.03-.012-.047l.065.04v.047zm-.11-.157a.273.273 0 0 0-.036-.042v-.1c.03.042.053.089.082.135-.006.007-.006.018-.017.024a.111.111 0 0 0-.03-.017zm-2.26-1.844l-.036-.087c.13.07.217.403.223.59h-.011c-.012-.011-.018-.022-.03-.029-.1-.058-.217-.27-.217-.427a.514.514 0 0 0 .07-.047zm.328 1.346c-.024-.064.006-.181-.035-.275-.047-.123-.194-.257-.206-.403.06.028.042.028.094-.007.012-.035.018-.07.03-.11a.2.2 0 0 1 .04.017c.142.199.27.51.312.796h-.012c-.035-.024-.04-.03-.07-.03 0 .03.005.065.012.1-.106-.017-.112-.059-.165-.088zm-1.9-5.313c-.007-.017-.013-.04-.025-.058.06.023.082.035.117.088-.035-.012-.064-.018-.093-.03zM42.587 2.261v.041c-.023.023-.06.046-.083.07-.111.058-.387.006-.475-.041V2.32l.018-.06c.053-.022.105-.04.164-.057.164 0 .252.028.376.058zm-3.986 2.61c.018-.006.042-.012.06-.024a.752.752 0 0 1 .257.059c.012.04.024.064.012.122h-.017c-.088-.023-.276-.087-.312-.158zm1.175-1.996c.076-.023.14-.04.205-.058.117.017.235.035.352.058-.006.006-.011.012-.011.024-.17.047-.347.035-.534.052a.363.363 0 0 0-.012-.076zm.75.258c.006-.017.018-.035.024-.047.041-.017.088-.03.13-.047a.296.296 0 0 1 .152.047c-.012.018-.03.03-.048.047-.081.018-.128.07-.222.053l-.035-.053zm.312.28h-.082l-.024-.023c.036.006.064.006.106.012v.011zm.334-.491c.006-.006.006-.018.012-.023.07.017.135.04.2.058v.036c-.007 0-.012.011-.012.017-.035-.006-.077-.017-.112-.017-.03-.024-.053-.047-.088-.071zm.235-.093c.03.005.058.017.082.023v.012h-.082v-.035zm.217.152c-.006.005-.006.012-.012.023h-.053c-.047-.035-.076-.04-.1-.093.041.005.083.017.124.023.015.014.029.03.041.047zm.534.275h-.053c-.04-.018-.07-.024-.094-.06.054.013.112.03.147.06zm1.18.749c.005-.012.017-.024.023-.035a.093.093 0 0 1 .041-.024c.018.006.041.006.059.012.02.013.042.024.064.035 0 .012-.012.017-.017.024-.06.01-.13.017-.17-.012zm.92-.118c.09.006.077.012.09-.029.035.006.064.018.1.024.01.023.022.052.04.076-.023.017-.047.029-.065.047a.31.31 0 0 1-.164-.106v-.012zm-.686 2.867c.335.019.67.247.869.422v.035a.046.046 0 0 0-.023.012c-.376-.117-.576-.263-.858-.445.007-.005.007-.017.012-.024zm-.047 1.025s.523.123.61.158v.012c-.005.005-.011.005-.011.01-.17-.005-.152.053-.275.077-.047-.024-.065-.03-.095-.064-.012-.035.012-.012-.03-.035a1.363 1.363 0 0 1-.444-.27c.005-.005.01-.012.01-.023.053-.017.1-.035.148-.053.01.007.022.01.035.012-.018.076-.047.059.012.117.005.059-.012.035.04.059zm18.997 4.886c.059.098.105.21.17.286.024.053.041.246.03.398-.013-.058-.018-.065-.024-.117-.077 0-.124-.135-.188-.088l-.07.053c.047.07.094.146.146.21h-.012c-.058-.053-.152-.018-.17-.151h-.017c.03.233.27.38.311.537-.053-.012-.03-.028-.047.024.135.058.305.34.37.48-.053-.047-.095-.094-.135-.135.017.047.035.105.058.152h-.011c-.03-.03-.06-.064-.089-.094-.005 0-.011.007-.023.007.041.064.112.14.1.198v.03c-.012-.012-.018-.018-.023-.018-.019-.018-.03-.035-.042-.053.065.13.124.264.188.387h-.012c-.023-.03-.052-.06-.076-.088.005.029.012.065.024.093-.012 0-.019-.005-.024-.012l-.088-.192h-.012c.011.03.02.061.023.094h-.01c-.013-.012-.025-.018-.036-.035-.053-.159-.135-.276-.224-.404.007-.1.007-.077.03-.147a.328.328 0 0 1-.2-.14c-.03-.065 0-.117 0-.13-.035.013-.005.007-.035.013-.076-.17-.264-.328-.346-.48-.076-.187-.14-.369-.21-.55-.083-.128-.306-.363-.447-.433-.065-.035-.059.018-.106-.035l.07-.017c-.005-.012-.005-.018-.011-.03l-.07-.052c-.012 0-.018.005-.024.005l.059.06c-.018-.007-.042-.007-.06-.007-.034-.047-.057-.065-.087-.117.015.007.03.011.047.012-.082-.082-.217-.147-.306-.258-.063-.07-.105-.269-.222-.316.017.041.035.076.047.117a.186.186 0 0 0-.035-.03c-.018-.04-.047-.08-.065-.134l-.012.094c-.006-.006-.018-.012-.023-.018a1.791 1.791 0 0 0-.177-.316c-.01 0-.029 0-.047-.005-.028.047-.028.064-.093.082.023.087.093.105.117.17 0 .034-.006.058-.012.087.065.217.3.275.423.439.14.182.223.415.405.562.076.064.135.035.205.075 0 .089.012.117.042.164.234.117.499.345.569.62-.106-.076-.2-.169-.276-.275-.006.007-.018.012-.024.019l.07.292c.083.1.16.117.2.275-.047.023-.04.005-.052.075.046.095.059.202.035.305h-.012l-.07-.053c0 .229.094.334.122.521h-.01c-.06-.023-.512-.38-.53-.427-.029-.052-.017-.111-.011-.164h.012c.014.015.03.03.047.042.006-.042.006-.036.023-.065.077.065.077.076.2.082.035-.059.111-.076.146-.094-.158-.515-.264-.614-.621-.954-.03-.052-.065-.1-.094-.146-.042-.035-.095 0-.106-.006-.165-.155-.33-.31-.493-.468-.17-.234-.364-.69-.698-.754v.023c-.016.058-.03.116-.041.176-.147.017-.13.169-.212.25-.17-.07-.287-.152-.481-.21-.023.047-.088.076-.1.117-.052.146.165.345.182.486-.04.047-.1.17-.158.204-.094.071-.159.036-.223.13.105.204-.235.531.141.783-.018.1-.082.1-.106.17-.04.129.012.246.012.316a.264.264 0 0 0-.135.023c-.042.077-.07.229-.112.316-.035-.029-.035-.035-.105-.047-.012.024-.024.042-.03.06-.135-.048-.252-.024-.422-.018-.018.04-.2.216-.247.263-.229-.04-.34-.556-.551-.457-.077.018-.1.07-.141.082-.065.023-.218-.04-.323-.005a1.586 1.586 0 0 0-.106-.603c-.029.017-.053.03-.076.047-.053-.058-.082-.093-.14-.147.04-.18.075-.707.01-.883-.07-.205-.199-.357-.222-.567-.035.017-.03.017-.07.023-.018-.094-.089-.082-.094-.21.017-.013.03-.018.047-.03.023-.053.105-.053.164-.077-.03-.058.006-.133.082-.116.083-.024.106.023.158.04.118.041.305-.04.382-.034.287.035.798.181 1.015.094 0-.387-.164-.68-.311-.885 0-.005.006-.005.012-.01a.22.22 0 0 0 .058.046c-.005-.03-.592-.58-.604-.58-.188-.07-.381-.035-.516-.157.03-.006.052-.012.076-.012-.064-.053-.147-.04-.164-.146.005 0 .017 0 .023-.006.071-.07.206-.053.294-.094.047.035.094.07.152.105.065-.052.123-.035.223-.017v-.012c-.011-.011-.023-.029-.035-.04-.047-.13-.135-.188-.211-.293.006-.006.006-.012.018-.012.11.035.281.17.44.14l.034-.035c-.058-.04-.03-.082 0-.122a.29.29 0 0 0 .142-.065c-.035-.082-.077-.158-.106-.234.053-.076.182-.088.246-.146.1-.094-.04-.363-.082-.527h.012c.012.006.018.012.023.012.042.129.094.251.135.374l.094.018c-.04-.053-.035-.064-.047-.158h.012c.053.017.03.035.06-.012.01-.058-.02-.07-.048-.14-.053.017-.041.024-.089 0-.017-.035-.035-.065-.046-.088l.023-.059.17-.017V8.69c.1-.011.112.006.182.03-.005-.076-.023-.053.03-.07-.065-.095-.112-.14-.165-.235a.544.544 0 0 0-.094-.012c.024-.105-.428-.444-.47-.667.025-.005.042-.023.066-.035h.047c-.012-.035-.018-.064-.03-.1.03-.011.06-.022.082-.034.06.187.223.257.341.392a.161.161 0 0 0-.012.059c-.017-.012-.035-.018-.053-.03.036.053.047.147.083.182.135-.047.252.123.299.233-.082-.046-.164-.105-.247-.151a.04.04 0 0 0-.012.023.04.04 0 0 0 .012.023c.059.006.076.024.106.059-.012.011-.035.011-.012.018.076.058.153.145.258.145a.19.19 0 0 1-.023-.052c.04.012.035.012.058.041.006.029.018.093.041.117l.06.018c.017-.089.052-.065.04-.135.024.006.047.006.071.011v-.07c.035.03.07.07.117.1-.017.047-.035.017.012.059.1.01.123.105.211 0 .018-.007.042-.012.06-.019-.004-.01-.003-.015-.006-.023a23.443 23.443 0 0 0-.55-.498c-.001.006-.004.01-.015.03l.106.123v.035h-.012c-.052-.005-.1-.005-.146-.011-.018-.03-.047-.047-.07-.07-.03.029-.024.005-.024.046.065.024.105.1.14.135v.093c-.023 0-.046 0-.07-.005a.218.218 0 0 1-.105-.082v-.012c.064.012.053.041.088-.006a.752.752 0 0 1-.264-.222c.03-.042.035-.077.1-.094a1.304 1.304 0 0 0-.06-.135c-.363-.146-.54-.585-.891-.754v.017c.005.023.017.041.023.058a.33.33 0 0 1-.07.03c.023.076.017.164-.041.2-.124.07-.458-.118-.516-.194-.018-.053-.042-.1-.054-.153-.04.024-.04.042-.1.03-.093-.21-.334-.292-.445-.468-.018-.041-.024-.082-.036-.134-.04-.053-.099-.094-.146-.164.047-.024.07-.041.11-.053-.034-.047-.017-.053-.028-.135.013-.003.017-.013.028-.018a24.023 24.023 0 0 0-2.47-1.443c-.3.297-1.108-.102-1.449-.188-.005-.018-.017-.036-.023-.06.006 0 .006-.005.011-.01l.124.034c-.006-.011-.012-.017-.012-.029-.153-.076-.247-.14-.475-.2-.006-.005-.012-.01-.012-.022l.012-.012c.135.024.217.047.3-.006l-.488-.123c0-.011.006-.023.012-.029.03-.03.064-.052.094-.082.04.018.07.03.105.04-.023-.017-.04-.04-.058-.057.235.023.357.181.498.292.053-.04.036-.03.1-.006v-.012a.426.426 0 0 0-.076-.075v-.012c.094.012.14.058.205.105-.006-.018-.023-.035-.029-.053.006 0 .006-.005.011-.012.085.021.177.058.267.082a23.573 23.573 0 0 0-2.336-.916c-.233-.044-.474-.089-.671-.03v.075c-.282.041-.482.158-.781.094 0-.006-.006-.018-.011-.03.023-.03.04-.059.064-.094-.024.007-.041.007-.064.012-.007.03-.018.065-.024.1-.147 0-.205-.006-.305-.065 0 .007-.006.007-.012.012.017.023.041.047.053.07-.006 0-.012.006-.03.006a.508.508 0 0 1-.21-.017v.011h.023c.041.036.076.07.117.1-.018.012-.029.023-.04.035-.048-.012-.042-.023-.077 0 .059.035.047.047.064.11-.117.03-.164.112-.305.13-.012.088 0 .094.035.158-.07.082-.094.187-.2.251.018.042.018.042.013.082-.018.006-.03.012-.042.012-.17-.047-.346-.088-.51-.134 0-.053.018-.035-.012-.065-.17-.1-.475-.087-.675-.181.012-.035.036-.024 0-.041-.082-.07-.2-.112-.3-.175-.046-.036-.028-.082-.052-.112-.058-.087-.34-.228-.41-.316-.03-.035.011-.082-.047-.135-.042.007-.042.012-.077-.01a1.27 1.27 0 0 1-.023-.165.766.766 0 0 1-.3-.2l.018-.07c.018-.005.04-.011.058-.022-.028-.024-.058-.047-.082-.077.1-.292.294-.198.57-.152-.029-.068.02-.088.055-.152h-.003a.338.338 0 0 1-.04.03c-.025-.016-.055-.03-.081-.044l-.084-.01c.003.003.01.003.012.006v.012c-.238.028-.41-.04-.579-.083a23.96 23.96 0 0 0-1.087-.095c.006.004.012.005.017.009v.012c-.07.005-.082-.012-.123.04.176-.01.2-.005.311.077v.04c-.006 0-.012 0-.012.012-.047-.012-.094-.035-.135-.047a.138.138 0 0 0-.012.035c.083 0 .165.035.224.094a.045.045 0 0 0-.024.023 7.25 7.25 0 0 0-.282-.076c.018.041.018.024.012.07-.023.006-.047.006-.076.012v.012c.1.023.2.047.299.076-.006.012-.018.024-.023.035.129.018.123.047.2.111.087-.047.117-.012.251.012-.017.011-.035.018-.052.029.005.012.017.018.023.024.082 0 .2.058.241.1-.047.01-.024 0-.053.022.135.006.17.082.217.1.041.006.083.006.123.006-.03.017-.052 0-.035.035.13-.012.264.03.3.14a.464.464 0 0 1-.253-.006c.011.024.03.047.047.071-.012.006-.024.006-.036.011-.046-.01-.01-.023-.052 0 .012.012.024.03.035.053h-.082v-.053c-.065.03-.129.006-.188-.017-.03.023-.023.006-.04.047.01.005.023.023.04.03-.065 0-.065.028-.147.04-.11-.088-.434-.135-.381-.298-.146-.006-.288-.141-.452-.153.018.024.035.03.047.053a.04.04 0 0 1-.012.023h-.105c.094.024.129.118.129.193.158-.023.382.159.446.211v.011c-.024.007-.047.007-.07.012 0 .007.006.018.011.024.086.027.166.07.235.129V3.6h-.088c.011.014.02.03.023.047h-.011c-.035-.029-.042-.029-.06-.076-.04.047-.017.053-.093.058-.011-.035-.006-.029-.035-.047-.006.007-.006.018-.012.024.03.04.041.053.036.093h-.012c-.036-.01-.065-.023-.106-.035.058.082.1.077.176.124v.01H44.6c-.018.007-.042.007-.06.013-.228-.135-.492-.287-.715-.422v.047c-.076-.041-.165-.082-.24-.129.005.024.011.03.011.053.2.082.487.258.61.421v.012c-.053.006-.03-.023-.047.035.047.006.036.006.06.023v.012c-.048-.012-.036-.006-.06-.035-.417-.064-.751-.327-1.12-.439v.012c.047.018.035.006.052.058h-.053c-.064-.035-.094-.064-.146-.11.012-.012.03-.018.052-.024-.11-.018-.158-.058-.2-.135.06.018.077.035.124.007-.194-.03-.234-.147-.41-.223-.17-.082-.382-.1-.54-.123-.159-.023-.4.03-.476-.11a.082.082 0 0 0-.011-.036c.27-.164.48-.017.757.029.123.017.276-.011.416.024v-.012a2.422 2.422 0 0 1-.129-.117.062.062 0 0 0 .018-.023c.193-.018.393-.042.593-.065-.024-.065-.041-.13-.06-.193-.105-.017-.14-.059-.21-.082l-.018.07a.46.46 0 0 1 .123.03c-.005.017-.005.028-.012.046-.105-.006-.258-.023-.282-.11.071 0 .1.005.16.022-.013-.03-.018-.064-.03-.093-.088.029-.17.053-.205-.035h.03c.057-.017.075.023.116 0 0-.006-.006-.017-.012-.03-.043 0-.203.007-.298-.015a27.17 27.17 0 0 0-1.314.05c-.13.02-.268.033-.418.07-.006.013-.006.024-.006.036-.036-.023-.067-.047-.099-.071l-.045.005.003.066c-.032-.016-.07-.036-.11-.053-.005 0-.009 0-.013.002v.004c.058.041.07.047.088.094.035-.018.018-.012.047-.012l-.012.012c-.006.035.012.012-.012.035a.621.621 0 0 1-.2-.123l-.08.01c.03.035.014.08.052.113.064.087.258.152.357.21-.005.03-.03.06-.04.088.08-.007.16.011.228.052.018.024.03.042.047.06-.217.011-.434.005-.551-.1.017-.006.041-.012.059-.023a5.475 5.475 0 0 0-.212-.053c-.112.076-.417.128-.604.093.017-.023.029-.047.04-.07.018-.012.03-.023.053-.035-.088 0-.258.012-.328-.03.07-.052.176-.052.288-.046.05-.105.182-.187.332-.227l-.285.033c-.002.003.001.004-.012.013-.252.127-.744.153-1.019.124l-.092.018c.02.027.026.043-.01.092-.135.018-.27 0-.388-.006.014.019.03.037.047.053-.34-.018-1.132.268-1.373.555-.006.018-.006.042-.006.06a.6.6 0 0 1 .264.028c-.076.111-.135.246-.222.346h.023c.129-.006.258-.006.388-.006.117.053.228.099.345.158.077.058.089.175.147.222.147.147.898.374 1.162.392-.059.094-.135.129-.205.205 0 .03.006.059.006.1-.047.07-.106.116-.165.174.082.182.212.3.247.498.04.018.082.041.13.059.07-.041.122-.083.227-.094.018.053.042.053.047.094.018-.006.036-.006.048-.012.005-.035.005-.07.005-.106.089 0 .177-.07.247-.117-.1-.145.041-.298.106-.427-.071-.03-.06-.105-.071-.157h.03c.129-.007.258-.007.387-.012.37-.059.675-.111.804-.398-.006-.199-.147-.322-.3-.369l.036-.07c.11-.006.417-.122.457-.164-.052-.07.018-.088-.082-.205.106-.017.176-.052.23-.117-.042-.017-.036-.017-.06-.047.006-.017.006-.028.012-.046l.077-.076c.264-.006.516.1.774.187.112-.006.211-.006.317-.012.123.047.323.193.423.281v.012c-.042.011-.035.006-.06.023v.012c0 .006.007.018.013.023.14.042.329.082.41.176.036-.017.077-.03.112-.047.017.023.03.04.041.058a2.092 2.092 0 0 1-.141.06c.006.134-.029.151-.065.251l.082.018c.007.035.007.07.012.105.135.017.182.128.247.122.429.34.828-.157 1.133-.24-.006.118.287.487.357.603.024 0 .042.006.065.006-.018.128.112.175.229.222 0 .076-.04.14-.03.147.031.01.06.025.09.04-.007.088-.007.165-.013.193-.041 0-.03-.01-.07.018.1.024.322.182.328.211-.04.035-.029.006-.011.058.088.035.1.082.152.13.047.04.188.029.24.064 0 .046-.01.052.036.082.088.052.176.029.281.058.018.088.16.1.212.182a6.62 6.62 0 0 0-.329-.042v.012c.159.023.294.07.317.222.088-.005.094.024.229.035-.012.047-.012.012-.012.053.065.024.141.053.211.077-.04.07-.005.269-.04.333-.007 0-.012-.006-.024-.012.024.059.03.018.012.064-.212.229-.828-.093-1.127.036a1.7 1.7 0 0 1-.411.123c-.188.028-.734-.194-.915-.258-.288-.1-.57-.123-.857-.21-.23-.059-.482-.094-.652-.006-.04.047-.076.087-.111.122-.035.006-.452-.023-.452-.023-.205.065-.868.31-.98.422.258 0 .381-.176.575-.211.47-.088 1.555-.228 1.866.187v.012c-.017-.007-.035-.012-.047-.018.012.047.047.047.012.076 0 .012 0 .024-.006.035l-.393.052c-.147-.017-.206-.098-.381-.11.005.005.012.012.012.023.1.017.17.052.193.14.188.006.3.024.428-.011v.012c-.005.017-.017.035-.023.046-.129.053-.188.123-.323.141v.023c.07 0 .106.012.141.04a.236.236 0 0 0-.059.053c.03.054.065.17.106.2.082.029.153.058.229.087-.006.006-.012.018-.012.024h-.053c.018.018.035.047.053.064.24.03.358.176.652.146.005.1.046.105.135.094.005-.176.299-.251.422-.31l.077.018c0 .058-.007.035.023.076-.03.04-.065.075-.1.117v.012c.082.005.2.07.194.145v.036c-.217-.006-.388.029-.54-.024-.024.035-.03.03-.065.047.082.006.117.018.153.059h-.024c-.2.059-.88-.088-.986.029-.064-.024-.111-.024-.122-.105-.019.011-.036.029-.054.046-.006-.017-.018-.029-.023-.04-.06.023-.04.04-.065.087-.194.012-.357.13-.534.117-.1-.005-.07-.047-.117-.111-.023 0-.053 0-.077-.006 0-.129.018-.135.077-.205a.217.217 0 0 0 .053-.023.51.51 0 0 1-.088.023c.005-.005.005-.017.012-.023.24-.041.487-.082.727-.117-.065-.012-.135-.03-.2-.041 0-.006.007-.018.012-.023.059-.012.112-.035.176-.041-.006-.018-.011-.024-.023-.03-.165.053-.534.094-.728.053-.04-.006-.17-.058-.2-.058.012.023.024.052.036.081-.258.065-.493.047-.74.065 0-.047.006-.035-.023-.07-.2.1-.329.105-.528.07-.077.07-.258.134-.34.234a.498.498 0 0 1 .046.082c-.053.011-.117.029-.176.04v.024c.135.018.1.129.123.199l.1.017c.07 0 .047-.005.077-.07.017.017.03.037.04.06-.017.022-.04.045-.052.07-.147-.007-.223 0-.252-.077-.3.117-.986-.135-1.21.041.189-.041.359.029.546.006.023.023.042.052.065.082-.247.023-.575-.047-.804-.012.006.007.01.015.011.024.042.023.024.005.042.046-.088.141-.358.392-.552.369v-.012c.018-.023.035-.04.047-.064-.088-.03-.111-.07-.17-.123.03.111-.012.164.07.246-.129.21-.428.31-.498.468-.047-.012-.042-.006-.065-.03.006-.011.011-.017.011-.023.047-.093.124-.117.194-.187l-.111-.035c.047-.235-.03-.24.117-.44-.062.05-.12.103-.176.16-.006.057-.041.262-.006.292-.04.058-.129.181-.129.234.006.058-.03.035.012.064a.298.298 0 0 1 .076.023c-.006.132-.02.263-.04.392v-.094a3.25 3.25 0 0 0-.247-.04v.012c.1.005.187.04.235.1-.024.034-.048.063-.07.092a.868.868 0 0 0-.324.083v.011c.024.059.012.041.06.07-.007.006-.007.018-.013.024-.229.059-.628.012-.75.24-.47-.094-.377.123-.635.204-.546.164-1.092.328-1.15 1.013.023.175.053.357.082.532-.03.012-.053.017-.076.03 0 .234.082.503-.006.702-.07.146-.27.31-.264.468-.06-.012-.282.052-.346-.041.087-.205-.112-.205-.118-.398.018-.07.006-.1-.023-.14-.03.011-.017.017-.047.011.035-.059.035-.087.082-.152 0-.006-.006-.017-.012-.024a.123.123 0 0 1-.023.047l-.059-.017c-.018-.111-.053-.24-.03-.287l.142-.105c-.065-.006-.035.005-.06-.058-.01.005-.017.005-.028.01.018.06.023.053-.024.106-.012-.011-.023-.018-.03-.018-.028-.18.265-.297.16-.537-.07-.018-.195-.317-.247-.387-.135 0-.4.147-.494.076-.023-.023-.023-.123-.07-.17-.21-.222-.416-.11-.698-.145v-.164c-.011.017-.023.023-.035.029-.012.029-.03.058-.041.088-.2-.035-.423-.065-.616.058a.074.074 0 0 0 .023.036h.012l.093-.06c.007.076.019.07-.01.118-.071.012-.1.023-.136.064l.023.023c.042.047.083.082.123.123l-.052.059h-.012l-.035-.018c-.064-.035-.111-.111-.159-.164-.052.053-.059.1-.152.117-.006-.023-.012-.052-.024-.082a2.68 2.68 0 0 1-.176.07c-.035-.028-.076-.058-.117-.093a.14.14 0 0 0 .023-.035c.012-.006.018-.012.024-.017-.036-.047-.111-.117-.123-.164-.03.012-.065.017-.094.03 0 .017.006.029.011.04.03 0 .053.005.083.005v.047c-.012.007-.024.007-.036.007a1.87 1.87 0 0 0-.451-.159c-.124-.011-.324.1-.376.053l-.047-.023.053-.053a.012.012 0 0 1-.012-.012c-.04.024-.076.035-.105.07.011.065.058.147-.06.117-.187.105-.351.194-.568.17a.21.21 0 0 0 .04.059c-.017.023-.035.047-.052.064-.03-.006-.012.006-.07.036.017-.047.017-.03.011-.077-.012.024-.03.041-.041.07-.011.065-.147.124-.23.117.007.176-.145.217-.199.352-.058.152-.005.262-.035.38-.046.176-.205.152-.287.246-.082.21-.165.415-.252.631-.106.235-.294.51-.177.779-.029.047-.052.087-.082.129-.029.122.136.964.17 1.006.041.03.13.058.1.058-.833.018-2.23.065-2.23.065-.035-.018-.059-.041-.088-.053-.006-.345-.387-.456-.21-.883.057-.024.081-.018.122-.07-.03-.083-.03-.06.024-.142.228-.163.07-1.263-.047-1.427.018-.076.011-.105.058-.158-.064-.117-.135-.152-.152-.304.082-.112.147-.164.147-.328-.024 0-.042.006-.06.006l.036-.152c-.041-.012-.035-.006-.064-.03-.007-.134.035-.175.076-.262-.012-.006-.018-.018-.023-.024-.036.006-.018.024-.036-.006-.076-.07-.041-.304-.041-.38-.023.023-.047.053-.07.076-.012-.011-.024-.023-.035-.03a.425.425 0 0 1 .146-.157c-.035-.293.235-.62.164-.837a.112.112 0 0 0-.04.035c-.018-.035-.036-.059-.048-.087-.31.234-.352 1.035-.434 1.41-.035.157.035.386.012.52-.042.205-.235.69-.205.884h.011a.37.37 0 0 1 .06-.077c.005.024.01.06.022.088-.023.293.03.27-.193.498-.006 0-.012-.006-.024-.006v-.012c.047-.38-.082-.52-.14-.767.193-.18.245-.467.146-.737-.035.024-.023.024-.059.024.012-.146-.059-.246-.035-.415.006 0 .006 0 .012-.006.064.023.082.006.14.006l.141-.247c.042-.145 0-.292-.017-.41-.018-.087.047-.25.064-.32.1-.328.312-.697.376-1.001.053-.205-.052-.21-.03-.38-.034 0-.07-.007-.105-.007 0-.028.223-.602.253-.667.047-.058.087-.105.135-.152.027-.07.069-.134.1-.204a26.256 26.256 0 0 0-5.007 6.33C25.158 6.526 33.298.787 42.782.787c9.483 0 17.628 5.745 21.114 13.931a24.47 24.47 0 0 0-1.65-2.559c.084.17.172.332.277.506zm-38.627 4.71c.03.023.047.064.047.105l.047 10.461c0 .082-.059.141-.129.141l-2.277.117h-.006a.15.15 0 0 1-.1-.041.138.138 0 0 1-.04-.1l-.06-10.467a.14.14 0 0 1 .13-.135l2.288-.117a.15.15 0 0 1 .1.035zm20.64 18.782h-.065c-.005-.006-.017-.012-.023-.024.011-.005.023-.017.04-.023a.345.345 0 0 1 .048.035v.012zm-6.602 7.454c-.064-.017-.123-.012-.153-.052.053.005.106.017.165.023-.006.012-.006.017-.012.03zM26.138 11.313c.011-.065.029-.123.041-.181a.72.72 0 0 1 .035.017c-.017.059-.03.123-.047.181l-.018.007c-.005-.012-.005-.018-.01-.024zm8.051 5.74c.018-.053.065-.082.124-.082l2.06-.059c.053 0 .094.018.117.059.024.04.03.088.012.128l-4.59 10.609a.136.136 0 0 1-.117.075l-1.79.06H30c-.054 0-.1-.03-.124-.09l-4.471-10.332c-.024-.047-.024-.093.005-.128a.152.152 0 0 1 .112-.065l2.617-.076a.136.136 0 0 1 .13.082l2.916 6.752 3.004-6.934zM50.211 29.83c.006 0-.182 1.042-.217 1.2-.006.082-.012.17-.012.252-.14.439-.422.637-.769.86-.094.076-.194.146-.287.228-.082.012-.153.03-.23.047l-.645.562c-.147.1-.282.07-.434.157-.018.211-.158.311-.23.474-.064.153-.029.293-.087.457-.05.066-.105.129-.164.187a1.36 1.36 0 0 0-.212.474c-.345.123-.235.246-.399.521-.046.07-.123.065-.193.11-.165.112-.153.182-.387.305-.147.065-.153.299-.247.38-.152.065-.388-.011-.376.188-.04.018-.04.018-.064.047a2.742 2.742 0 0 0-.91-.2v.036c.041.04.041.03 0 .064-.111-.035-.223.135-.34.164v.012c.017.005.035.005.052.012a.789.789 0 0 0-.023.093c-.053-.04-.1-.082-.152-.117-.23-.07-1.11.374-1.168.515-.065.175-.077.34-.106.457.015.007.03.01.047.01-.088.329-.382.364-.61.54-.188.14-.294.38-.493.508-.165.07-.329.147-.493.217-.07.082-.135.17-.2.252-.093.04-.176.082-.27.117-.147.105-.194.222-.446.25-.1.013-.14-.057-.2-.087-.082-.04-.14.018-.217 0-.093-.017-.175-.163-.246-.217-.088-.016-.164-.035-.246-.052-.018-.07-.053-.088-.089-.14-.01.005-.023.012-.035.012-.017.023-.035.047-.052.064.105.175.328.198.381.42-.035.03-.065.065-.1.095.012.129.06.134.17.175v.176c-.075.058-.264.292-.317.316-.217.129-1.02.011-1.202-.059.012.023.017.047.03.07h-.013a.217.217 0 0 1-.052-.023c.047.123-.036.216-.1.31a.188.188 0 0 1 .047.047c.023-.006.04-.017.058-.024-.023.047-.04.088-.065.135-.1.012-.205.012-.299.017-.128-.035-.345-.269-.44-.152.035.094.035.24.077.317.081.03.081.058.129.087.029.012.059.018.082.03v-.018a.43.43 0 0 1-.059-.047 1 1 0 0 1 .135-.012c.012.012.018.024.03.035.029.042.035.07.035.152a.234.234 0 0 0-.035.042l-.106-.018a.27.27 0 0 0-.123-.134c-.03.01-.059.023-.088.035.011 0 .018.005.023.012.047.04.123.058.153.117-.13 0-.17.035-.223.11.023.07.047.14.04.217-.052.018-.064.011-.094.065.048.023.03 0 .042.046h-.053a.35.35 0 0 0-.346.059c-.07.298.235.34.44.474.012.082.012.163-.012.193-.064.07-.229.105-.31.164.005.087.022.163-.024.198l-.176.036c-.006.011-.006.017-.012.029.017.21.176.298.276.421v.024c-.06-.036-.123-.059-.182-.082-.018.005-.03.017-.04.023.005.006.01.012.022.012.07.088.17.082.253.163l-.036.054c.27.075.388.368.722.41 0 .017.006.029.006.04-.006.012-.012.017-.017.024h-.012c-.053-.007-.112-.012-.177-.024v.052a.199.199 0 0 0-.072-.043l.025.026c-.04-.015-.04-.003-.035-.028-.064-.018-.133-.012-.223-.048.03.035.053.065.083.093v.012c-.182-.047-.57-.187-.687-.304.018-.035.011 0 .011-.047-.11.024-.516-.245-.616-.333.018-.041.007-.006.018-.047-.106-.018-.17-.053-.258-.164.07.035.135.064.2.094v-.012a1.897 1.897 0 0 0-.212-.175c.006.01.018.028.024.046a.485.485 0 0 1-.188-.175c.006-.012.006-.018.012-.024.047.012.087.024.129.036a.216.216 0 0 1 .023-.053c-.053-.012-.047-.018-.076-.047a1.19 1.19 0 0 1-.153.047c0-.106-.011-.141-.058-.211 0-.006.005-.006.012-.012h.046c-.011-.029-.023-.058-.035-.093a1.357 1.357 0 0 0-.046.117c-.03-.007-.048-.018-.071-.024a3.998 3.998 0 0 0-.036-.152v-.011c.03.005.065.01.1.023l-.175-.088c-.083-.105-.1-.292-.165-.421l.058-.035-.035-.035v-.012c.07.006.083.017.13.047l.035-.123c-.023-.024-.018-.012-.035-.053.012 0 .03.012.047.018-.06-.065-.171-.082-.23-.13-.011.018-.034.03-.052.048l-.082-.047v-.053c.03-.03.064-.052.094-.075l-.036-.077v-.012h.089c.005-.064.005-.116.01-.175l-.105-.105a.467.467 0 0 1 .083-.229.33.33 0 0 1 .17.141c-.03.018.024.21.041.275h.023c.006-.229-.035-.38 0-.591-.023-.018-.04-.035-.07-.053.082-.03.053-.17-.012-.216.012-.018.03-.03.042-.053-.03-.023-.048-.053-.071-.076a.19.19 0 0 1-.024.053c.053.006.018-.006.03.053h-.018c-.024-.012-.053-.03-.082-.042a.136.136 0 0 0-.024.03c.065.1.077.257.053.391a.077.077 0 0 1-.04.012c-.071-.029-.118-.035-.159-.087.029-.147-.036-.275.006-.398.017.017.04.029.058.04v-.052c-.2-.304-.04-.38-.029-.643-.094-.2-.206-.451-.229-.679 0-.006.006-.012.012-.012l.106.035v-.17c.017.012.03.018.04.035.024-.327.147-.596.253-.877.018-.041-.03-.17-.047-.176.129-.316-.082-.544-.047-.965.053 0 .035 0 .082-.012.012-.193-.047-.28-.064-.462.117-.082.047-.222.117-.357a1.65 1.65 0 0 0 .13-.556l-.025-.135c.012-.064.083-.082.095-.122-.012-.117-.024-.228-.041-.34.017-.111.029-.222.046-.333h-.058c0-.059.005-.123.005-.181.065.005.036.017.088 0 0-.217.077-.392.106-.562-.012-.053-.024-.106-.035-.17-.012-.082.018-.188.029-.269.03-.176-.046-.41-.064-.579.006-.053.011-.117.018-.17-.124-.123-.247-.24-.37-.363-.258-.538-.922-.76-1.333-1.176-.193-.199-.328-.544-.48-.79 0 0 7.212-.117 16.936-.1zm-3.2-21.52v.035c-.017.018-.045.03-.063.04h-.036c0-.01.007-.022.012-.04.012-.012.03-.023.047-.035h.04zm-6.5.398c.046.017.034.011.058.047v.011c-.041 0-.082-.006-.124-.011v-.024c.024-.006.042-.017.065-.023zm.152.111c.005-.006.005-.017.011-.023.048.006.048.006.076.023a.074.074 0 0 1-.017.024h-.011l-.06-.024zm5.932 8.21l.012 2.04c.006.037-.017.065-.04.095a.136.136 0 0 1-.095.035l-5.868.005.006 1.82 3.944-.006c.075 0 .14.06.14.13l.006 2.059c.006.035-.012.07-.041.1a.136.136 0 0 1-.094.04h-3.938l.012 1.967 5.928-.007c.075 0 .134.06.134.135l.012 2.054c0 .041-.012.076-.041.1-.023.023-.06.034-.1.034l-8.468.012a.136.136 0 0 1-.135-.134l-.065-10.468c0-.035.018-.07.047-.1a.118.118 0 0 1 .094-.04l8.415-.012c.077 0 .135.064.135.14zm-1.314-9.468h.076c.018.023.042.047.06.07a2.073 2.073 0 0 1-.171-.023c.006-.017.006-.03.012-.041.012 0 .017-.006.023-.006zm1.83.187c-.028 0-.063-.005-.093-.005 0-.018.006-.03.011-.047.072.005.065-.006.083.052zm.394.68c.007.034.007.064.012.104-.082.053-.105.147-.205.2-.065-.018-.117-.036-.188-.053 0-.082.012-.1.035-.141l-.17.052c-.047-.028-.04-.017-.058-.063.07-.047.129-.077.134-.182-.017-.017-.035-.047-.052-.07-.235.076-.446.2-.716.093a.304.304 0 0 0 .017-.052.785.785 0 0 0 .393-.053 1.474 1.474 0 0 0-.17-.064c-.006.04 0 .035-.023.058-.082-.035-.17-.064-.252-.1.017 0 .035.006.052.006-.07-.075-.922-.245-1.132-.297a.883.883 0 0 1-.024-.13c.124-.017.253-.075.358-.058a.891.891 0 0 1-.076-.064c.047-.053.082-.112.164-.13.03.025.012.018.065.03v-.012c-.018-.052-.024-.04 0-.087.182-.041.234-.21.37-.28.07-.037.205-.112.258-.124.07 0 .152 0 .222-.006.07.023.142.04.206.058a.09.09 0 0 0-.012.035c-.012.007-.017.019-.024.024-.07.006-.117-.012-.182-.03v.025c.065.005.065.01.107.04a.223.223 0 0 0-.053.065c-.124.029-.353.134-.388.263.082-.029.153-.058.23-.088.081.065.164.065.246.117v.012c-.06.006-.106.006-.153.006v.058a.502.502 0 0 0 .023.024c.048-.012.012-.024.06 0-.007.012-.018.023-.024.035.059 0 .082.017.129.04.012-.035-.012-.023.047-.028-.006.064-.03.064.04.058.03 0 .053.006.077.006-.024-.03-.017-.018-.012-.053.042.017.007.006.042-.006.076.03.035.059.082.117.117-.023.252.053.334.123-.041.047-.07.06-.14.07.011.1.04.047.005.124.1.01.235 0 .288.052l-.024.023c-.035.035-.223.082-.31.165.029.023.005.005.035.01.01.018.017.03.03.048.087-.065.116-.1.28-.111 0 .006.006.006.012.011a.048.048 0 0 0-.011.03c-.065.023-.112.052-.141.105 0 .012.005.03.012.047.105-.018.117-.07.175-.053zm8.228.057c-.023.007-.047.007-.065.018-.011-.018-.011-.029-.018-.04.007-.024.024-.048.03-.07.023.017.042.04.065.057-.006.012-.012.024-.012.035zm-1.091-1.228c.005.04.017.082.03.123a.54.54 0 0 0-.09.076.093.093 0 0 0-.04-.024c-.006-.04-.023-.058-.065-.1a.695.695 0 0 0 .1-.087c.024.006.04.006.065.012zm-.112.2c.017.005.035.017.053.022.011.058.023.11.041.158a.115.115 0 0 1-.041-.011.472.472 0 0 0-.106-.147.428.428 0 0 0 .053-.023zm.569.432c.041.047.024.134-.012.17-.053-.036-.07-.012-.093-.088.064-.018.07-.035.105-.082zm-.34.55c0-.053.023-.036.047-.106-.06.018-.106.03-.152-.017.046-.053.04-.053.052-.135a.322.322 0 0 0 .188-.07c.041.012.076.03.112.047-.018.035-.018.023-.024.052.07-.064.153-.082.24-.029.083.112.159.112.253.2v.058c-.06.029-.053.064-.13.088.002.01.006.02.013.028.164.082.234.34.246.504-.234-.006-.768.468-.922.1.036-.018.065-.041.094-.06-.049.008-.098.018-.146.03.012-.03.017-.046.03-.07.034 0 .07.005.099.005-.012-.063-.018-.028.017-.087-.052-.035-.058-.018 0-.076 0-.082-.03-.082.06-.14-.154-.047-.236.035-.33-.094l.083-.094c-.07 0-.117.006-.165-.04l.036-.018c-.03-.047-.042 0-.047-.07.117 0 .229-.006.346-.006zm2.218 1.106c-.012 0-.417-.035-.417-.035-.035.03-.017.105-.024.146-.063-.017-.14-.052-.205-.035-.093.023-.07.064-.111.117-.064-.047-.07-.035-.135-.041v-.023c.094-.089.176-.217.17-.334h.253c0-.047-.007-.04.012-.082-.03.012-.065.03-.106.047-.141-.047-.265-.135-.405-.065a2.212 2.212 0 0 1-.124-.11c.012-.012.03-.024.042-.042.075-.005.146-.04.164-.117-.035-.046-.077-.093-.106-.134l-.1.035c-.005-.006-.011-.012-.011-.023.011-.018.029-.036.047-.06-.047-.046-.077-.028-.094-.11.105.017.205.076.305 0-.035-.065-.059-.1-.065-.205-.205.035-.164-.134-.258-.24-.059.047-.087.07-.176.035v.047c-.04-.012-.076-.03-.111-.041v.012c.006.012.018.03.023.047h-.012c-.035-.035-.082-.065-.117-.094.024-.076.024-.128 0-.182-.035-.023-.07-.052-.1-.075l.035.122h-.011a.537.537 0 0 0-.082-.047c.017.018.023.042.035.06a.04.04 0 0 0-.012.022h-.058c-.036-.14-.107-.24-.13-.374h-.012v.024c0 .023-.012.046-.017.064l-.123.017c.011-.076-.006-.076-.035-.14.017-.012.04-.023.058-.035-.006-.012-.012-.03-.023-.047a.49.49 0 0 1-.27-.123c.035-.047.029-.023.053-.07.052.04.105.076.163.117v-.012a1.267 1.267 0 0 1-.075-.117c.023-.04.005-.035.047-.03.005-.005.023-.005.028-.01-.04-.048-.052-.053-.028-.106-.024-.041-.03-.047 0-.088.123.047.252-.018.381.012.003.03.013.06.029.087a.174.174 0 0 0-.093.118c.064.03.04 0 .04.076.153-.035.359-.059.476.046-.018.1.035.176-.012.281.023.012.042.03.065.047a2.27 2.27 0 0 1-.106.065c.317.006.417.158.616.35.076.036.147.065.229.106.2.117.317.304.399.468.012 0 .024.006.035.012.141-.159.364.088.393.21.018.082-.047.164-.07.211l.176.018c.006.023.017.053.024.076-.007.005-.007.017-.012.024-.153.075-.247.08-.44.07.006.023.018.04.029.058h-.041zm1.526 18.349a.137.137 0 0 1-.117.064h-.007l-2.722-.076a.144.144 0 0 1-.112-.07l-2.307-3.955-1.49-.047.018 3.815a.135.135 0 0 1-.042.093c-.023.024-.064.035-.099.035l-2.294-.064a.133.133 0 0 1-.135-.134l-.047-10.504c0-.035.01-.075.04-.099.024-.023.06-.041.095-.035l5.78.17c1.919.058 3.022 1.275 3.034 3.34.012 1.996-1.056 2.827-2.025 3.172l2.43 4.154a.151.151 0 0 1 0 .14zm-4.343-8.513l-2.447-.077.011 2.206 1.867.052c.082 0 .164.007.24.007.693 0 1.092-.1 1.31-.322.175-.17.252-.445.252-.89-.007-.497-.1-.941-1.233-.976zM42.752 45.126c10.164 0 18.809-6.085 21.901-14.534-2.97 9.063-11.332 16.12-21.925 16.12-11.232 0-18.78-6.957-21.818-15.92 3.163 8.349 11.742 14.334 21.842 14.334zM18.925 28.322l-1.76.129a.148.148 0 0 1-.123-.059l-4.865-6.425.035 6.694a.136.136 0 0 1-.13.135l-1.713.123h-.018a.118.118 0 0 1-.087-.036.127.127 0 0 1-.047-.105l-.053-10.497a.14.14 0 0 1 .13-.14l2.124-.146a.16.16 0 0 1 .123.052l4.5 5.928-.028-6.168c0-.07.053-.129.128-.134l1.72-.123c.036 0 .07.011.1.035.029.023.04.058.04.1l.054 10.502a.13.13 0 0 1-.13.135zM4.131 29.796c-.205.018-.399.03-.586.03-2.29 0-3.504-1.457-3.515-4.23L0 19.234c0-.07.053-.13.123-.14l1.99-.194c.04-.005.076.012.105.042a.115.115 0 0 1 .042.093l.035 6.296c.005 1.38.534 2.083 1.572 2.083.077 0 .165 0 .247-.012 1.215-.117 1.836-.942 1.825-2.452l-.03-6.29c.001-.07.054-.13.124-.14l2-.193c.042-.006.077.012.107.041a.115.115 0 0 1 .04.094l.03 6.366c.012 1.708-.505 4.622-4.079 4.967z"/>
</svg>
