<svg xmlns="http://www.w3.org/2000/svg" xmlns:xlink="http://www.w3.org/1999/xlink" width="108" height="27" viewBox="0 0 108 27">
    <defs>
        <path id="a" d="M0 .428h20.894v21.135H0z"/>
    </defs>
    <g fill="none" fill-rule="evenodd">
        <g transform="translate(0 .022)">
            <mask id="b" fill="#fff">
                <use xlink:href="#a"/>
            </mask>
            <path fill="#000" d="M7.985 11.97c.553-4.013 2.452-4.483 2.769-4.463.175.012 1.805.036.457 4.76-.632 2.229-1.645 3.69-2.666 4.62-.562-1.33-.826-2.997-.56-4.916M17.165.7c-.398-.354-.805-.304-.921-.182-.12.125 0 .324.287.604.276.286 2.578 2.804 2.246 9.328-.374 6.96-3.343 9.749-6.114 9.822-1.223.027-2.57-.796-3.523-2.257 2.272-1.704 4.063-4.523 4.497-6.993.388-2.21.019-4.945-2.443-4.719-2.704.252-4.887 3.486-5.109 7.546-.069 1.24.221 2.742.901 4.091-.707.333-1.307.433-1.626.393-.532-.069-3.092-.342-3.129-5.413-.042-5.395 4.343-9.928 4.61-10.213.265-.279.254-.535.145-.631-.223-.26-.862.037-1.488.438C4.876 2.922.7 5.912.045 11.971c-.312 2.943.969 7.434 4.781 7.597.935.04 1.873-.192 2.772-.615 1.063 1.49 2.7 2.601 4.969 2.61 4.99.018 8.181-5.595 8.32-11.084C21.054 4.42 18.22 1.63 17.166.7" mask="url(#b)"/>
        </g>
        <path fill="#000" d="M23.81 15.736c.589-1.625 1.168-3.107 1.47-3.744.307-.637.43-.407.506.013.023.142.326 1.976.63 3.703-.79.054-1.683.072-2.607.028zm4.413 2.541c-.266-1.561-1.044-6.132-1.152-6.676-.105-.544-.332-2.198-.927-2.306-.593-.108-1.252.684-1.922 1.805a37.041 37.041 0 0 0-2.243 4.433c-.654-.15-.765-.328-.82-.36-.073-.045-.073-.116-.166-.116-.134.007-.277 1.02.549 1.65-.253.81-.527 1.872-.533 2.174-.005.438.19 1.045.35 1.288.116.186.262.453.597.41.247-.021.445-.71.688-1.442.187-.588.402-1.232.629-1.886 1.294.148 2.685-.007 3.391-.157.114.614.214 1.13.284 1.427.181.792.666 1.665 1.311 1.746.29.032.079-1.26-.036-1.99zM33.288 17.929a11.3 11.3 0 0 1-1.756.224c-.1-1.797.73-7.104.806-7.652.073-.576.044-.895-.215-.882-.188.006-.442.253-.633.676-.331.724-1.699 4.288-1.699 7.414 0 .99.494 2.055 1.64 2.124 1.452.072 2.709-.547 3.15-.994.367-.368.625-.93.504-1.13-.123-.206-1.168.094-1.797.22M40.06 11.073c.456-.598.954-.829 1.373-.937.54-.143.738.05.729.16-.01.146-.148.71-2.102.777m3.362-.554c.068-.986-1.263-1.085-1.748-1.048-.758.05-2.049.305-3.082 1.57-2.82-.188-3.06-.914-3.12-1.092a.44.44 0 0 1 .108-.463c.054-.057.105-.138.076-.219-.054-.1-.31-.142-.617-.024-.3.124-.9.445-.938 1.097-.047.626.58 1.748 3.655 2.113-1.131 2.459-1.27 4.577-1.311 5.842-.073 1.777 1.11 2.506 1.31 2.484.196-.025.196-.405.296-1.693.126-1.53.462-4.436 1.262-6.556 2.551-.07 4.06-1.136 4.109-2.01"/>
        <path fill="#000" d="M44.067 14.448c.082-.993 1.887-1.56 4.992-1.746a85.098 85.098 0 0 0-.096 2.32c-.027.89-.057 1.921-.05 2.917-2.917-1.03-4.92-2.597-4.846-3.49m16.484-7.95C54.86 2.462 48.316 1.286 44.237 1.166c-4.503-.133-4.891.743-4.891 1.11 0 .466.664.896.897.993.281.12 1.043.26 1.043.024 0-.408-.95-.612-.93-.733.023-.12-.097-.443 3.268-.243 10.993.67 19.223 6.563 19.177 11.34-.027 2.738-2.813 5.416-8.48 5.293a17.152 17.152 0 0 1-3.405-.432c.045-1.317.035-2.894.064-4.545a49.8 49.8 0 0 0 .006-1.338l.088-.002c4.329-.051 5.531.33 5.727.377.2.042.12.116.064.166-.064.046-.879.65-.894.755-.011.106-.077.406.66.313.745-.086 1.867-.98 1.84-1.679-.03-.67-2.403-2.085-7.554-1.985-.155-2.538-.535-3.88-.825-3.88-.426 0-.712 1.862-.892 3.97-4.714.444-5.986 2.32-6.104 3.212-.12 2.56 2.718 4.41 5.86 5.487.088 1.49.327 2.644.899 2.679.586.038.85-.795.977-2.13 1.41.344 2.778.532 3.865.557 5.292.126 10.458-1.816 10.545-6.42.057-3.274-1.797-5.505-4.69-7.556M67.906 3.787c.856-.506 1.763-.542 2.514-.484-.224.09-.447.189-.667.297a9.324 9.324 0 0 0-2.876 2.243c-.259-.773.192-1.552 1.03-2.056m5.496.287c.363.508-.331 1.681-1.943 2.49-1.05.52-2.678.71-3.708.223.61-.548 1.333-1.132 2.019-1.575 1.227-.813 3.188-1.744 3.632-1.138M72.041 7.35c1.709-.913 3.194-2.649 2.326-3.922-.346-.507-1.018-.695-1.832-.647.007-.269-.171-.553-.57-.705-1.28-.489-3.027-.592-4.827.482-1.476.886-2.421 2.773-1.648 4.072.122.205.273.38.438.538-.49.893-.377 1.333-.29 1.393.285.24.747-.382.977-.652.046-.053.105-.115.16-.174 1.598.711 3.94.322 5.266-.385M67.982 10.012c-.647.039-1.17 3.635-1.287 5.699-.126 2.056.162 4.085.926 4.085s1.052-1.583 1.216-5.213c.163-3.637-.452-4.57-.855-4.57M74.847 13.768c-1.97-.402-2.744-.692-2.75-1.069-.02-.37 1.354-.776 4.408-.713 3.064.06 3.473-.65 3.457-.81-.038-.301-.605-.884-4.02-.83-3.42.061-5.712 1.353-5.662 2.568.04 1.213 2.047 1.588 4.057 2.056 2.008.464 3.944.836 3.918 1.736-.037.9-1.882 1.565-3.663 1.565-1.782 0-3.243-.301-3.27-.742-.012-.224.606-.177.933-.177.241 0 1.676.043 2.22.03.536-.014 1.584-.042 1.548-.574-.024-.516-1.28-.82-2.634-.834-1.349-.022-3.453.318-3.448 1.421.014 1.115 2.582 2.254 5.07 2.254 2.607 0 5.07-1.251 5.07-2.961 0-1.824-2.726-2.41-5.234-2.92M88.182 9.33c-.298-.227-.426-.205-.485-.147-.06.06-.045.167.083.427.115.262.526 1.596.526 4.058 0 1.784-.227 2.83-.367 3.375-.075.278-.159.462-.419.18-.387-.411-1.072-1.438-1.861-2.606-.954-1.395-2.16-3.473-2.71-3.431v-.001c-.357 0-1.068.862-1.411 3.795-.327 2.812-.154 3.461-.085 3.7.123.406.365.578.573.768.198.182.699.624.805-.086.1-.703.34-4.866.362-4.986.018-.12.07-.347.328-.02.377.488 2.34 3.516 3.228 4.626.613.774 1.03 1.11 1.392 1.09.366-.023 1.428-.097 1.617-5.333.135-3.792-1.275-5.194-1.576-5.41M97.474 17.83c-.483.021-1.906.18-2.647.238-.744.065-1.576.288-1.488-1.414.01-.23.033-.474.063-.723 1.016.02 2.057-.1 2.355-.165.385-.074.825-.454.99-.769.156-.297.202-.481.041-.58-.17-.103-.77-.136-1.579-.084a37.76 37.76 0 0 0-1.562.145c.235-1.127.544-2.185.708-2.71 1.577.063 3.846 0 4.086-.262.24-.262-.222-.91-.41-1.099-.168-.17-1.142-.396-2.844-.312-1.61.075-3.653.588-3.654 1.01-.047.535.991.563 1.378.607-.175.461-.497 1.667-.771 2.952a20.49 20.49 0 0 0-.638.094c-.3.05-.44.104-.47.22-.044.147.175.531.895.76-.17.93-.287 1.807-.276 2.372.024.976.363 1.736 1.737 1.799 1.909.079 3.808-1.053 4.155-1.314.265-.186.436-.34.413-.563-.025-.211-.34-.211-.482-.202M91.533 11.105zM106.133 14.907c-.51 1.296-2.119 3.508-3.819 3.354-.048-.004-.093-.012-.14-.018.449-1.086.844-1.88 1.147-2.494.983-2.02 2.416-4.21 3.114-3.966.699.242.21 1.82-.302 3.124m.798-4.821c-1.887-.423-5.159 5.208-6.064 7.176-.044.094-.09.198-.136.295-.44-.513-.566-1.274-.444-2.202.283-2.185 1.485-4.696 1.67-5.09.18-.393.272-.7.028-.7-.24-.12-.459.24-.706.548-.596.789-1.703 2.895-2.114 4.362-.484 1.778-.257 3.672.889 4.6-.716 1.657-1.416 3.502-1.614 4.94-.273 2.001.612 2.52.821 2.548.215.028.392.058.637-.964.587-2.498 1.173-4.406 1.71-5.893 3.292.57 5.068-3.01 5.675-4.35.465-1.016 1.515-4.846-.352-5.27"/>
    </g>
</svg>
