<svg xmlns="http://www.w3.org/2000/svg" width="124" height="55" viewBox="0 0 124 55">
    <g fill="#171717" fill-rule="evenodd">
        <path d="M83.344 15.278h.476v3.266h1.56v.396h-2.036zM88.965 17.417l-.365-1.05c-.073-.24-.129-.457-.183-.67h-.014c-.05.213-.11.44-.18.663l-.359 1.057h1.101zm-1.198.373l-.379 1.15h-.486l1.24-3.662h.568l1.245 3.662h-.502l-.392-1.15h-1.294zM91.599 17.91c.21.137.515.24.84.24.482 0 .764-.25.764-.624 0-.337-.193-.537-.688-.723-.597-.215-.964-.53-.964-1.04 0-.574.471-.994 1.182-.994.367 0 .644.085.8.176l-.128.387a1.374 1.374 0 0 0-.69-.174c-.5 0-.69.3-.69.55 0 .34.224.51.726.705.62.244.927.538.927 1.077 0 .564-.41 1.056-1.273 1.056-.353 0-.737-.107-.93-.237l.124-.398zM97.756 18.94l-1.199-3.662h.518l.568 1.805c.152.492.286.944.389 1.37h.01c.105-.426.252-.888.419-1.366l.62-1.81h.504l-1.308 3.663h-.52zM103.023 17.222h-1.414v1.322h1.58v.396h-2.058v-3.662h1.979v.395h-1.501v1.159h1.414zM107.691 18.305c-.211.08-.633.201-1.126.201-.555 0-1.008-.143-1.367-.483-.311-.305-.51-.793-.51-1.366 0-1.09.753-1.888 1.98-1.888.421 0 .76.094.915.17l-.117.383c-.196-.091-.441-.157-.81-.157-.889 0-1.47.553-1.47 1.473 0 .927.556 1.476 1.413 1.476.307 0 .52-.042.626-.095v-1.093h-.736v-.383h1.202v1.762zM111.33 17.417l-.366-1.05c-.075-.24-.13-.457-.185-.67h-.015c-.05.213-.107.44-.179.663l-.357 1.057h1.102zm-1.2.373l-.38 1.15h-.488l1.242-3.662h.567l1.25 3.662h-.506l-.39-1.15h-1.295zM113.454 17.91c.212.137.516.24.84.24.481 0 .763-.25.763-.624 0-.337-.195-.537-.687-.723-.596-.215-.966-.53-.966-1.04 0-.574.471-.994 1.183-.994.368 0 .645.085.8.176l-.13.387a1.364 1.364 0 0 0-.687-.174c-.498 0-.687.3-.687.55 0 .34.22.51.725.705.62.244.926.538.926 1.077 0 .564-.411 1.056-1.273 1.056-.352 0-.736-.107-.933-.237l.126-.398zM12.269 25.771c-.195.016-.003.434-.056.665-.056.229-.19 1.227-.211 1.445-.222 2.183 1.51 1.851 2.922 2.293.836.109 4.435-.442 8.88-4.643 1.825-1.723 3.563-3.182 6.111-6.449 3.002-3.853 1.973-3.455 4.727-7.281a999.258 999.258 0 0 0 2.015-3.14c.963-1.385 2.276-2.92 2.716-4.521.4-1.462-.604-4.011-2.148-4.117-.032-.117-1.072.215-.996.793.204 1.035.302 2.608-.076 3.492-.877 2.037-2.33 3.823-3.405 5.837-4.652 8.724-10.182 13.802-15.502 17.227-.397.258-2.407.968-2.77.232-1.112-2.242 3.924-7.29 4.643-9.313.025-.291.044-.584.068-.879-.098-.21-.2-.425-.299-.64-.283-.247-.71-.272-1.108-.238-.064.01-.133.018-.2.029-.07.023-.143.045-.214.067-1.437.567-2.198 2.174-3.346 3.188a40.29 40.29 0 0 1-4.704 3.522c-.92.589-2.308 1.627-2.792 1.998-.483.37-2.112 1.531-3.215 1.2-.548-.161-.608-.866-.484-1.35.425-1.751 2.317-3.327 3.583-4.544 1.331-1.293 2.587-3.055 3.51-4.622.396-.684.961-1.408.948-2.24-.071-3.348-4.277.97-4.763 2.04.038 0 .071-.004.11-.005-.337.362-.668.721-1.006 1.08-1.962 3.23-8.302 9.596-3.368 12.789.738.445 1.811.617 3.593-.438 1.34-.793 5.56-3.77 6.837-3.477"/>
        <path d="M82.492 30.263c.595-.1 9.027-2.412 12.91-2.006 1.767 0 6.981 1.62 8.65 1.72 1.387.161 6.408.267 6.516.267 1.656.003 3.41.115 4.49-1.405.23-.334-.04-.597-.343-.697-1.41-.463-4.14-.312-4.861-.19-6.744.524-8.56-1.11-14.915-1.562-1.705-.123-12.283 1.919-12.61 1.977 0 0-1.35.272-2.756.65-1.404.377-1.512-.974-1.567-1.409-.052-.434.543-3.152.705-3.79.324-1.299-.324-2.22-.919-2.275-.649-.06-1.892.76-2.378 1.191-.486.433-4.053 2.871-5.077 3.737-1.026.868-1.348-.268-1.081-.703.27-.433.864-2.004 1.188-2.926.327-.92-.324-1.517-.861-1.784-.54-.274-1.675.431-2 .756-.326.327-2.05 1.517-3.187 2.33-1.134.812-4.16 2.49-5.51 3.14-1.353.649-1.353-.975-1.243-1.734.107-.759.426-1.973.595-3.304.215-1.732-1.46-1.352-2.106-1.027-.651.324-5.89 4.005-6.592 4.55-.701.54-.701-.383-.648-.707.055-.325.164-.974.758-2.272.592-1.3.108-1.68 0-2.276-.11-.595-1.405-.326-2.433.108-.566.24-6.813 2.502-7.044 2.557l-.593.046c-.003-.03-.109-.062-.112-.192-.02-.687-.312-1.202-1.086-1.09-1.621.22-2.501 1.701-3.685 2.651-1.66 1.337-3.368 2.783-5.278 3.71-.583.315-.47-1.041-.054-1.537 2.612-3.128 1.615-2.06 2.86-3.395.938-1.217 2.2-2.546 2.676-3.977.43-1.308-.213-3.439-1.606-3.607-.517-.027-.895.412-.894.784.07.923-.065 2.01-.434 2.822-.833 1.835-2.021 3.558-3.36 5.138-1.934 2.287-2.038 4.211-2.038 4.211s-2.986 1.976-4.152 3c-1.881 1.56-3.767 3.116-5.654 4.678-3.256 2.943-11.269 8.379-8.608 13.667.563 1.124 1.496 2.127 2.638 2.738 1.75.936 4.064 1.953 6.228 1.783.141.04.337.069.498.07 1.706.029 3.58-.192 5.133-.689 10.302-3.31 16.785-14.58 15.933-25.597-.05-.62.298-1.354.763-1.77 1.057-.95 5.171-3.556 6.464-3.782 1.566-.271.864 2.114.65 2.87-.218.76-.868 1.844-.975 2.765-.107.918.833 1.328 1.512 1.568.92.328 2.27-.866 2.702-1.243.432-.38 4.373-3.792 5.077-4.28.701-.485.81.598.701 1.084-.106.488-.43 1.787-.485 2.599-.053.812.108 1.68.809 2.11.704.435 1.405.11 2.216-.376.81-.488 5.89-3.845 6.322-4.063.433-.216 1.673-1.19 2.484-1.407.812-.217.756.703.378 1.515-.139.3-.485 1.844-.647 2.6-.164.758-.217 1.571.7 2.328.713.587 2.379-1.027 2.81-1.41.43-.376 4.158-3.733 4.86-4.167.704-.434 1.026.63.756 1.624-.324 1.193-.395 2.305-.18 2.712.488.92 1.437 1.407 3.69 1.187.383-.036 3.3-.594 3.3-.594M35.013 35.27c-1.149 7.653-3.679 12.59-11.233 15.324-.507.192-2.278.686-2.535.695-3.894.305-6.767.387-9.659-1.584-.61-.417-1.233-1.8-1.099-2.67.384-2.616 2.501-4.33 4.346-6.164 2.579-2.578 5.248-4.945 8.085-7.118 1.71-1.28 3.421-2.563 5.134-3.839.583-.047 1.164.172 1.834.077 1.334-.196 4.035-1.318 5.076-2.116.05-.138.795-.39.891-.066.08.392.152.778.228 1.17-.011 2.22-.756 4.21-1.068 6.291M117.45 29.305c.238.685.639 1.215 1.758 1.426.516.095 1.163-.213 1.255-.551.12-.445.36-.677.254-1.237-.132-.706-.638-1.216-1.761-1.425-.51-.096-1.162.214-1.25.551-.122.443-.442.692-.256 1.236M122.748 31.425h.142c.123 0 .257-.008.257-.153 0-.144-.134-.154-.257-.15h-.142v.303zm-.2-.471h.415c.26 0 .382.117.382.327 0 .187-.111.277-.26.297l.282.457h-.208l-.269-.443h-.142v.443h-.2v-1.081zm.364 1.325a.775.775 0 0 0 .774-.778.777.777 0 1 0-1.551 0c0 .43.348.778.777.778zm0-1.723a.945.945 0 0 1 0 1.89.946.946 0 0 1-.945-.945c0-.521.425-.945.945-.945z"/>
    </g>
</svg>
