<svg xmlns="http://www.w3.org/2000/svg" width="81" height="84" viewBox="0 0 81 84">
    <defs>
        <filter id="a" width="104.3%" height="113.3%" x="-2.1%" y="-5.8%" filterUnits="objectBoundingBox">
            <feOffset dy="3" in="SourceAlpha" result="shadowOffsetOuter1"/>
            <feGaussianBlur in="shadowOffsetOuter1" result="shadowBlurOuter1" stdDeviation="7.5"/>
            <feColorMatrix in="shadowBlurOuter1" result="shadowMatrixOuter1" values="0 0 0 0 0 0 0 0 0 0 0 0 0 0 0 0 0 0 0.03 0"/>
            <feMerge>
                <feMergeNode in="shadowMatrixOuter1"/>
                <feMergeNode in="SourceGraphic"/>
            </feMerge>
        </filter>
    </defs>
    <g fill="none" fill-rule="evenodd" stroke-linejoin="round" filter="url(#a)" transform="translate(-380 -220)">
        <path stroke="#323232" d="M422.045 239.45c0-2.474.217-7.45-6.153-7.45-5.075 0-9.69 5.47-9.843 8.69-3.827.515-7.462 4.287-6.957 9.106-3.637 1.798-6.275 11.402-1.53 15.957-.862 3.917 1.792 12.89 9.717 12.183 1.93 10.462 14.766 10.15 14.766 2.483v-6.208M414.318 248.2c-4.416 0-8.5-.729-8.5-7.714"/>
        <path stroke="#3F7FE7" d="M406.59 256.724c2.081 1.324 5.602.8 7.492-1.133 1.396-1.426 2.886-3.69 4.424-3.525h19.767M415.864 273.657c.915-1.837 3.112-2.314 6.224-2.314h16.185"/>
        <path stroke="#323232" d="M408.91 270.571c-2.053-.321-3.865-2.253-3.865-3.857M407.364 277.514c0-4.712 2.603-10.8 9.272-10.8"/>
        <path stroke="#3F7FE7" d="M402.727 252.829c2.134 0 3.864 1.551 3.864 3.743 0 1.73-1.075 3.426-2.575 3.97M429.773 241.257h-7.518c-3.406 0-6.758-.467-7.937-3.086"/>
        <path stroke="#323232" d="M422.045 244.343v7.714M422.045 255.143v13.886"/>
        <path stroke="#3F7FE7" d="M422.045 261.314h7.728M424.364 281.371H429M446 252.057a3.86 3.86 0 0 1-3.864 3.857 3.86 3.86 0 0 1-3.863-3.857 3.86 3.86 0 0 1 3.863-3.857 3.86 3.86 0 0 1 3.864 3.857zM436.727 242.029a3.86 3.86 0 0 1-3.863 3.857 3.86 3.86 0 0 1-3.864-3.857 3.86 3.86 0 0 1 3.864-3.858 3.86 3.86 0 0 1 3.863 3.858zM436.727 262.086a3.86 3.86 0 0 1-3.863 3.857 3.86 3.86 0 0 1-3.864-3.857 3.86 3.86 0 0 1 3.864-3.857 3.86 3.86 0 0 1 3.863 3.857zM436.727 281.371a3.86 3.86 0 0 1-3.863 3.858A3.86 3.86 0 0 1 429 281.37a3.86 3.86 0 0 1 3.864-3.857 3.86 3.86 0 0 1 3.863 3.857zM446 271.343a3.86 3.86 0 0 1-3.864 3.857 3.86 3.86 0 0 1-3.863-3.857 3.86 3.86 0 0 1 3.863-3.857 3.86 3.86 0 0 1 3.864 3.857z"/>
    </g>
</svg>
