<svg xmlns="http://www.w3.org/2000/svg" width="84" height="81" viewBox="0 0 84 81">
    <defs>
        <filter id="a" width="104.3%" height="113.3%" x="-2.1%" y="-5.8%" filterUnits="objectBoundingBox">
            <feOffset dy="3" in="SourceAlpha" result="shadowOffsetOuter1"/>
            <feGaussianBlur in="shadowOffsetOuter1" result="shadowBlurOuter1" stdDeviation="7.5"/>
            <feColorMatrix in="shadowBlurOuter1" result="shadowMatrixOuter1" values="0 0 0 0 0 0 0 0 0 0 0 0 0 0 0 0 0 0 0.03 0"/>
            <feMerge>
                <feMergeNode in="shadowMatrixOuter1"/>
                <feMergeNode in="SourceGraphic"/>
            </feMerge>
        </filter>
    </defs>
    <g fill="none" fill-rule="evenodd" filter="url(#a)" transform="translate(-4 -40)">
        <path stroke="#1476F2" d="M50.696 98.256c0 2.62-2.103 4.744-4.696 4.744-2.593 0-4.696-2.124-4.696-4.744 0-2.62 2.103-4.744 4.696-4.744 2.593 0 4.696 2.124 4.696 4.744zM50.696 74.535c0 2.62-2.103 4.744-4.696 4.744-2.593 0-4.696-2.124-4.696-4.744 0-2.62 2.103-4.744 4.696-4.744 2.593 0 4.696 2.124 4.696 4.744z"/>
        <path stroke="#505050" d="M41.304 56.744c0 2.62-2.102 4.744-4.695 4.744-2.593 0-4.696-2.124-4.696-4.744 0-2.62 2.103-4.744 4.696-4.744 2.593 0 4.695 2.124 4.695 4.744z"/>
        <path stroke="#1476F2" d="M46 91.14V79.28"/>
        <path stroke="#505050" d="M42.478 67.419l-3.521-5.93"/>
        <path stroke="#1476F2" d="M54.217 82.837c0 2.62 2.103 4.744 4.696 4.744 2.593 0 4.696-2.124 4.696-4.744 0-2.62-2.103-4.744-4.696-4.744-2.593 0-4.696 2.124-4.696 4.744z"/>
        <path stroke="#505050" d="M50.696 56.744c0 2.62 2.102 4.744 4.695 4.744 2.593 0 4.696-2.124 4.696-4.744 0-2.62-2.103-4.744-4.696-4.744-2.593 0-4.695 2.124-4.695 4.744zM63.609 75.72l2.348-3.557"/>
        <path stroke="#1476F2" d="M51.87 92.326l4.142-5.93"/>
        <path stroke="#505050" d="M73 67.419c0 2.62-2.102 4.744-4.696 4.744-2.593 0-4.695-2.124-4.695-4.744 0-2.62 2.102-4.745 4.695-4.745C70.898 62.674 73 64.8 73 67.42z"/>
        <path stroke="#1476F2" d="M37.783 82.837c0 2.62-2.103 4.744-4.696 4.744-2.593 0-4.696-2.124-4.696-4.744 0-2.62 2.103-4.744 4.696-4.744 2.593 0 4.696 2.124 4.696 4.744z"/>
        <path stroke="#505050" d="M28.391 75.72l-2.348-3.557"/>
        <path stroke="#1476F2" d="M40.13 92.326l-4.142-5.93"/>
        <path stroke="#505050" d="M19 67.419c0 2.62 2.102 4.744 4.696 4.744 2.593 0 4.695-2.124 4.695-4.744 0-2.62-2.102-4.745-4.695-4.745C21.102 62.674 19 64.8 19 67.42zM49.522 67.419l3.521-5.93"/>
    </g>
</svg>
