<svg xmlns="http://www.w3.org/2000/svg" width="39" height="55" viewBox="0 0 39 55">
    <g fill="none" fill-rule="evenodd">
        <path stroke="#494946" stroke-linejoin="round" d="M29.824 44.66V55M9.176 44.66V55m24.089-18.383c0 1.503-.36 4.56-1.147 5.745-.79 1.184-4.589 4.595-4.589 4.595a8.254 8.254 0 0 1-5.735 2.298h-4.588a8.254 8.254 0 0 1-5.735-2.298s-3.8-3.41-4.589-4.595c-.789-1.185-1.147-4.242-1.147-5.745M16.06 11.34V1h6.882v10.34M39 23.98H0M12.618 7.894V2.149C7.169 3.968 3.44 7.844 3.44 13.639v4.595l-2.294 1.149v2.298M26.382 7.894V2.149c5.449 1.819 9.177 5.695 9.177 11.49v4.595l2.294 1.149v2.298"/>
        <path stroke="#1476F2" d="M33.3 26.376h2.21v5.795c-1.59 1.525-2.505 2.313-2.746 2.366-1.705.376-4.206.84-7.502 1.392a5.486 5.486 0 0 1-2.62-.66l-1.346-.733c-.536-.292-1.185-.808-1.787-.816-.635-.007-1.223.508-1.788.816l-1.345.733a5.48 5.48 0 0 1-2.62.66c-3.296-.55-5.803-1.014-7.52-1.392-.23-.05-1.195-.839-2.897-2.366v-5.814h2.335"/>
    </g>
</svg>
