<svg xmlns="http://www.w3.org/2000/svg" width="85" height="82" viewBox="0 0 85 82">
    <defs>
        <filter id="a" width="104.3%" height="113.3%" x="-2.1%" y="-5.8%" filterUnits="objectBoundingBox">
            <feOffset dy="3" in="SourceAlpha" result="shadowOffsetOuter1"/>
            <feGaussianBlur in="shadowOffsetOuter1" result="shadowBlurOuter1" stdDeviation="7.5"/>
            <feColorMatrix in="shadowBlurOuter1" result="shadowMatrixOuter1" values="0 0 0 0 0 0 0 0 0 0 0 0 0 0 0 0 0 0 0.03 0"/>
            <feMerge>
                <feMergeNode in="shadowMatrixOuter1"/>
                <feMergeNode in="SourceGraphic"/>
            </feMerge>
        </filter>
    </defs>
    <g fill="none" fill-rule="evenodd" stroke-linejoin="round" filter="url(#a)" transform="translate(-9 -39)">
        <path stroke="#323232" d="M73.182 100.2c2.343 0 4.818-1.266 4.818-3.6V85.8c0-3.964-7.075-6-10.84-6-.373 0-.779.02-1.205.06M73.182 105V88.2 105zm-4.818-28.8c2.807 0 4.818-1.764 4.818-4.32v-2.16c0-2.556-2.01-4.32-4.818-4.32s-4.819 1.764-4.819 4.32v2.16c0 2.556 2.01 4.32 4.819 4.32zm-38.546 24c-2.343 0-4.818-1.266-4.818-3.6V85.8c0-3.964 7.075-6 10.84-6 .373 0 .779.02 1.205.06M29.818 105V88.2 105zm4.818-28.8c-2.807 0-4.818-1.764-4.818-4.32v-2.16c0-2.556 2.01-4.32 4.818-4.32s4.819 1.764 4.819 4.32v2.16c0 2.556-2.01 4.32-4.819 4.32zm6.023-14.4c-2.808 0-4.818-1.764-4.818-4.32v-2.16c0-2.556 2.01-4.32 4.818-4.32s4.818 1.764 4.818 4.32v2.16c0 2.556-2.01 4.32-4.818 4.32zm21.682 0c-2.808 0-4.818-1.764-4.818-4.32v-2.16c0-2.556 2.01-4.32 4.818-4.32s4.818 1.764 4.818 4.32v2.16c0 2.556-2.01 4.32-4.818 4.32z"/>
        <path stroke="#1476F2" d="M58.727 97.8c2.603 0 4.818-2.466 4.818-4.8V82.2c0-3.964-7.86-6-12.045-6s-12.045 2.036-12.045 6V93c0 2.334 2.215 4.8 4.818 4.8M51.5 72.6c2.808 0 4.818-1.764 4.818-4.32v-2.16c0-2.556-2.01-4.32-4.818-4.32s-4.818 1.764-4.818 4.32v2.16c0 2.556 2.01 4.32 4.818 4.32zM58.727 105V84.6 105zM44.273 84.6V105 84.6z"/>
    </g>
</svg>
