<svg xmlns="http://www.w3.org/2000/svg" width="85" height="82" viewBox="0 0 85 82">
    <defs>
        <filter id="a" width="104.3%" height="113.3%" x="-2.1%" y="-5.8%" filterUnits="objectBoundingBox">
            <feOffset dy="3" in="SourceAlpha" result="shadowOffsetOuter1"/>
            <feGaussianBlur in="shadowOffsetOuter1" result="shadowBlurOuter1" stdDeviation="7.5"/>
            <feColorMatrix in="shadowBlurOuter1" result="shadowMatrixOuter1" values="0 0 0 0 0 0 0 0 0 0 0 0 0 0 0 0 0 0 0.03 0"/>
            <feMerge>
                <feMergeNode in="shadowMatrixOuter1"/>
                <feMergeNode in="SourceGraphic"/>
            </feMerge>
        </filter>
    </defs>
    <g fill="none" fill-rule="evenodd" filter="url(#a)" transform="translate(-385 -47)">
        <path stroke="#323232" d="M451.478 110h-46.956c-1.945 0-3.522-1.562-3.522-3.488v-2.326h21.13l1.174 1.163h9.392l1.174-1.163H455v2.326c0 1.926-1.577 3.488-3.522 3.488zm-46.956-5.814v-3.488 3.488zm21.13-31.395h23.478a2.336 2.336 0 0 1 2.348 2.325v29.07"/>
        <path stroke="#1476F2" d="M423.304 86.744v9.303a2.336 2.336 0 0 1-2.347 2.325h-17.61A2.336 2.336 0 0 1 401 96.047V62.326A2.336 2.336 0 0 1 403.348 60h17.609a2.336 2.336 0 0 1 2.347 2.326v17.441"/>
        <path stroke="#1476F2" stroke-linejoin="round" d="M401 91.395h22.304m0-25.581H401m9.391 29.07h3.522"/>
        <path stroke="#1476F2" d="M433.87 83.256h-21.13m3.52 3.488l-3.52-3.488 3.52-3.489m14.088 6.977l3.522-3.488-3.522-3.489"/>
    </g>
</svg>
