<svg xmlns="http://www.w3.org/2000/svg" width="55" height="50" viewBox="0 0 55 50">
    <g fill="none" fill-rule="evenodd">
        <path stroke="#1476F2" d="M35.892 17h10.34v-4.571l8.031 9.142-8.031 8V25h-5.745M15.21 27.286H9.467v-4.572l-8.043 9.143 8.043 8v-4.571h13.787M28.998 35.286h-3.447M38.19 25h-3.447M20.955 27.286H17.51M26.7 27.286h-3.447M19.806 17h4.17c.952 0 1.723-.768 1.723-1.714 0-.947-.77-1.715-1.723-1.715h-1.149a1.72 1.72 0 0 1-1.723-1.714 1.72 1.72 0 0 1 1.723-1.714H26.7M23.253 17v3.429M23.253 10.143V6.714"/>
        <path stroke="#1476F2" d="M33.594 13.571c0-5.68-4.663-10.285-10.415-10.285-5.752 0-10.414 4.604-10.414 10.285 0 5.682 4.662 10.286 10.414 10.286s10.415-4.604 10.415-10.286z"/>
        <path stroke="#323232" d="M32.71 4.04A4.595 4.595 0 0 1 37.04 1c2.539 0 4.597 2.047 4.597 4.572 0 2.524-2.058 4.571-4.596 4.571-.398 0-.784-.05-1.151-.145M32.445 34.143c0-2.525 2.058-4.572 4.596-4.572 2.538 0 4.595 2.047 4.595 4.572 0 2.524-2.057 4.571-4.595 4.571s-4.596-2.047-4.596-4.571zM22.104 44.429c0-2.525 2.058-4.572 4.596-4.572 2.538 0 4.596 2.047 4.596 4.572 0 2.524-2.058 4.571-4.596 4.571-2.538 0-4.596-2.047-4.596-4.571z"/>
    </g>
</svg>
