<svg xmlns="http://www.w3.org/2000/svg" width="54" height="45" viewBox="0 0 54 45">
    <g fill="none" fill-rule="evenodd" stroke-linejoin="round">
        <path stroke="#323232" d="M50.033 19.105c.171-.658.305-1.325.404-2.003.61-4.179-.109-9.928-4.495-13.469C41.033-.33 31.495-.353 27 7.285 22.503-.353 12.967-.33 8.057 3.633c-4.385 3.54-5.104 9.29-4.494 13.47a18.46 18.46 0 0 0 .735 3.13M8.05 27.025C11.698 31.746 17.017 38.06 27 44c5.719-7.638 15.844-12.164 19.783-18.105"/>
        <path stroke="#1476F2" d="M0 23.632h12.375l3.375 2.263 5.625-15.842 2.25 22.631 5.625-12.447 2.25 4.526 3.375-2.263H54"/>
    </g>
</svg>
