<svg xmlns="http://www.w3.org/2000/svg" width="55" height="49" viewBox="0 0 55 49">
    <g fill="none" fill-rule="evenodd" stroke-linejoin="round">
        <path stroke="#323232" stroke-linecap="round" d="M10.756 49v-3.026c0-1.003.82-1.816 1.83-1.816h8.536c1.01 0 1.83-.814 1.83-1.816v-1.21c0-1.003.819-1.816 1.828-1.816H26c1.01 0 1.83-.814 1.83-1.816v-2.421c0-1.002-.82-1.816-1.83-1.816h-8.537c-1.01 0-1.829.814-1.829 1.816 0 1.002-.82 1.816-1.83 1.816H4.66M29.049 49v-2.421a2.43 2.43 0 0 1 2.439-2.421h6.097a2.43 2.43 0 0 0 2.44-2.421 2.43 2.43 0 0 0-2.44-2.421h-1.22a2.43 2.43 0 0 1-2.438-2.421 2.43 2.43 0 0 1 2.439-2.421h8.536M1 49c0-13.371 11.193-23 25-23s25 9.629 25 23"/>
        <path stroke="#1476F2" d="M15 22h23V1H15v21zM30.737 1v4.941h-8.474V1h8.474zm3.631 16.059h-2.42 2.42zm-3.631 0h-2.421 2.42z"/>
        <path stroke="#323232" stroke-linecap="round" d="M6.893 21.499A35.28 35.28 0 0 1 11.156 19M0 27.644A36.664 36.664 0 0 1 3.652 24m46.63.954A36.892 36.892 0 0 1 54 29M41.719 19a35.27 35.27 0 0 1 4.89 2.939"/>
    </g>
</svg>
