<?xml version="1.0" encoding="utf-8"?>
<svg version="1.1" id="Layer_1" xmlns="http://www.w3.org/2000/svg" xmlns:xlink="http://www.w3.org/1999/xlink" x="0px" y="0px"
	 viewBox="0 0 85 84" style="enable-background:new 0 0 85 84;" xml:space="preserve">
<style type="text/css">
	.st0{fill:none;stroke:#505050;}
	.st1{fill:none;stroke:#1476F2;}
</style>
<g>
	<polyline class="st0" points="49.2,67.2 44.5,71.8 49.2,76.5 	"/>
	<path class="st0" d="M44.5,71.8h26.3c2.6,0,4.6-2.1,4.6-4.7V39.2"/>
	<polyline class="st0" points="36.8,14.4 41.5,9.8 36.8,5.1 	"/>
	<path class="st0" d="M41.5,9.8H15.2c-2.6,0-4.6,2.1-4.6,4.7v27.9"/>
	<polygon class="st1" points="19.8,61 66.2,61 66.2,20.6 19.8,20.6 	"/>
	<path class="st1" d="M24.5,25.3h3.1 M29.1,25.3h3.1 M19.8,29.9h46.4"/>
	<polygon class="st0" points="26,54.8 41.5,54.8 41.5,36.1 26,36.1 	"/>
	<path class="st0" d="M46.1,36.1h15.5 M46.1,42.4h15.5 M46.1,48.6h9.3 M75.5,36.1V33 M75.5,29.9v-3.1 M10.5,54.8v-3.1 M10.5,48.6
		v-3.1"/>
</g>
</svg>
