<svg xmlns="http://www.w3.org/2000/svg" width="40" height="56" viewBox="0 0 40 56">
    <g fill="none" fill-rule="evenodd">
        <path stroke="#323232" d="M35.438 55H4.561C2.595 55 1 53.423 1 51.478V4.522C1 2.577 2.595 1 4.563 1h30.875C37.404 1 39 2.577 39 4.522v46.956C39 53.423 37.405 55 35.437 55zM18.813 4.522h5.937M14.063 4.522h2.374M1 47.957h38M1 8.043h38M17.625 51.478h4.75"/>
        <path stroke="#1476F2" d="M12.875 19.783h19.779c.796 0 1.366.758 1.138 1.51l-2.85 9.392c-.151.496-.613.837-1.138.837H14.062"/>
        <path stroke="#1476F2" d="M29.5 36.217H16.437c-.55 0-1.03-.652-1.187-1.174L9.312 17.435h-4.75M14.063 39.74h2.374M27.125 39.74H29.5"/>
    </g>
</svg>
