<svg xmlns="http://www.w3.org/2000/svg" width="54" height="56" viewBox="0 0 54 56">
    <g fill="none" fill-rule="evenodd">
        <path stroke="#323232" stroke-linejoin="round" d="M7.043 55v-2.935c0-.972.79-1.76 1.761-1.76h8.805a2.347 2.347 0 0 0 2.348-2.348v-.587c0-.972.788-1.761 1.76-1.761h.587a2.347 2.347 0 0 0 2.348-2.348v-1.174a2.347 2.347 0 0 0-2.348-2.348h-7.043c-.972 0-1.761.789-1.761 1.761 0 .972-.789 1.76-1.76 1.76H3.521M28.174 55v-3.522a2.347 2.347 0 0 1 2.348-2.348h8.217a2.347 2.347 0 1 0 0-4.695h-1.174a2.347 2.347 0 1 1 0-4.696H48.13"/>
        <path stroke="#323232" d="M1.174 55c0-14.263 11.563-25.826 25.826-25.826S52.826 40.737 52.826 55H1.174z"/>
        <path stroke="#1476F2" d="M30.522 8.043l.03-1.173L25.825 1h-3.522l2.348 5.87v1.173zM44.609 12.74a2.347 2.347 0 0 0-2.348-2.349H15.919c-.128 0-4.18-3.521-4.18-3.521H9.391l1.123 4.714c-.658.347-1.123.695-1.123 1.314 0 1.858 4.164 2.189 5.355 2.189h9.906v2.348l-3.522 7.043h3.522l5.87-5.87 2.267-3.521h9.472a2.347 2.347 0 0 0 2.348-2.348z"/>
        <path stroke="#323232" d="M0 31.774a36.357 36.357 0 0 1 18.783-11.06M34.043 20.463a36.348 36.348 0 0 1 19.73 11.061"/>
    </g>
</svg>
