<svg xmlns="http://www.w3.org/2000/svg" width="75" height="75" viewBox="0 0 75 75">
    <g fill="#FFF" fill-rule="evenodd">
        <path d="M28.125 48.926l4.006-23.145 7.36.016c2.903.01 5.07.562 6.501 1.653 1.43 1.092 2.082 2.623 1.955 4.594-.159 2.438-1.494 4.165-4.006 5.182.901.318 1.603.893 2.107 1.725.503.832.718 1.83.643 2.996-.148 2.236-1.03 3.959-2.646 5.167-1.616 1.208-3.828 1.812-6.637 1.812h-9.283zm7.153-9.84l-.97 5.548 3.26.016c1.017 0 1.864-.252 2.543-.755a2.968 2.968 0 0 0 1.208-2.011c.296-1.77-.382-2.697-2.035-2.782l-4.006-.016zm.62-3.656l2.56.016c2.363-.053 3.687-.959 3.973-2.718.255-1.738-.646-2.612-2.702-2.623l-2.893-.016-.938 5.341z"/>
        <path fill-rule="nonzero" d="M37.368 58.553c-11.554 0-20.92-9.367-20.92-20.921 0-11.555 9.366-20.921 20.92-20.921 11.555 0 20.921 9.366 20.921 20.92 0 11.555-9.366 20.922-20.92 20.922zm0-.79c11.119 0 20.132-9.013 20.132-20.131 0-11.119-9.013-20.132-20.132-20.132-11.118 0-20.131 9.013-20.131 20.132 0 11.118 9.013 20.131 20.131 20.131z" opacity=".8"/>
        <path fill-rule="nonzero" d="M37.368 64.342c-14.751 0-26.71-11.959-26.71-26.71 0-14.752 11.959-26.71 26.71-26.71 14.752 0 26.71 11.958 26.71 26.71 0 14.751-11.958 26.71-26.71 26.71zm0-.79c14.316 0 25.921-11.605 25.921-25.92 0-14.316-11.605-25.921-25.92-25.921-14.316 0-25.922 11.605-25.922 25.92 0 14.316 11.606 25.922 25.921 25.922z" opacity=".6"/>
        <path fill-rule="nonzero" d="M37.5 69.868c-17.877 0-32.368-14.491-32.368-32.368 0-17.877 14.491-32.368 32.368-32.368 17.877 0 32.368 14.491 32.368 32.368 0 17.877-14.491 32.368-32.368 32.368zm0-.79c17.44 0 31.579-14.137 31.579-31.578 0-17.44-14.138-31.579-31.579-31.579C20.06 5.921 5.921 20.06 5.921 37.5c0 17.44 14.138 31.579 31.579 31.579z" opacity=".4"/>
        <path fill-rule="nonzero" d="M37.5 74.868C16.862 74.868.132 58.138.132 37.5S16.862.132 37.5.132 74.868 16.862 74.868 37.5 58.138 74.868 37.5 74.868zm0-.79c20.202 0 36.579-16.376 36.579-36.578S57.702.921 37.5.921.921 17.298.921 37.5 17.298 74.079 37.5 74.079z" opacity=".2"/>
    </g>
</svg>
