<svg xmlns="http://www.w3.org/2000/svg" width="65" height="61" viewBox="0 0 65 61">
    <g fill="#FFF" fill-rule="nonzero">
        <path d="M4.417 51.823c0 .17-.079.482-.212.703h-.159c-.133 0-.278-.039-.438-.09a1.9 1.9 0 0 0-.703-.157c-.04 0-.08 0-.146.013-.769.065-1.313.743-1.313 2.24 0 1.798.756 2.176 1.539 2.176.411 0 .875-.143 1.22-.313.067.196.12.404.12.495-.014.196-.16.417-.345.56-.265.183-.717.3-1.234.3C1.273 57.75 0 57.216 0 54.598c0-1.368.464-2.228.995-2.71.53-.482 1.22-.638 1.884-.638.836 0 1.472.39 1.538.56v.013M9.893 52.805v4.221c0 .215-.014.375-.145.55-.233.16-.452.174-1.398.174.014-.71.029-1.622.029-2.654l.014-2.238a2.68 2.68 0 0 0-.19-1.005c.117-.107.307-.214.627-.335.087-.027.146-.027.204-.027.306 0 .437.08.524.268.277-.174.583-.294.86-.388.247-.094.567-.148.844-.107.422.04.685.174.728.375 0 .2-.058.576-.262.844-.102.027-.102.027-.233.027-.16 0-.306-.013-.422-.027-.102-.027-.146-.027-.19-.027-.393 0-.713.094-.99.349M14.31 52.805v4.221c0 .215-.014.375-.145.55-.233.16-.451.174-1.398.174.015-.71.03-1.622.03-2.654l.014-2.238a2.68 2.68 0 0 0-.19-1.005c.117-.107.306-.214.626-.335.088-.027.146-.027.204-.027.306 0 .437.08.525.268.276-.174.582-.294.859-.388.248-.094.568-.148.845-.107.422.04.684.174.728.375 0 .2-.058.576-.262.844-.102.027-.102.027-.233.027-.16 0-.306-.013-.423-.027-.102-.027-.145-.027-.189-.027-.393 0-.714.094-.99.349M18.685 52.982l-.137 2.345c0 1.107.343 1.342.905 1.342.412.026.823-.156 1.043-.404V52.2c0-.287.027-.456.165-.625.192-.157.343-.157.946-.17h.357c-.014.69-.027 1.576-.027 2.566v2.189c0 .417.054.716.15.977-.096.091-.274.195-.576.325-.082.026-.164.026-.192.026a.537.537 0 0 1-.494-.286 2.953 2.953 0 0 1-.81.404 2.833 2.833 0 0 1-.89.143c-1.675-.065-2.004-.847-2.031-2.254l.123-2.683a3.33 3.33 0 0 0-.178-1.146c.11-.091.315-.222.686-.39.11-.027.164-.027.192-.027.384 0 .562.26.617.482.082.3.151.586.151 1.25M25.544 51.276c.903.065 1.334.405 1.391.587 0 .17-.13.483-.287.666-.057-.013-.215-.04-.287-.052-.157-.026-.315-.052-.473-.105a1.874 1.874 0 0 0-.645-.117c-.502 0-.818.248-.818.6 0 .21.086.392.387.614.158.104.373.248.603.391.272.196.588.392.832.562.602.456.889.913.889 1.462 0 1.24-1.119 1.866-2.51 1.866-.932 0-1.735-.261-1.908-.627 0-.195.115-.496.287-.704h.144c.129 0 .272.039.43.117v-.013c.301.118.674.209 1.018.209.072 0 .172-.013.259-.026.43-.04.688-.314.688-.705 0-.287-.144-.535-.545-.783-.058-.04-.2-.13-.172-.105-.33-.208-.703-.483-.975-.691l-.359-.261c-.445-.405-.66-.81-.66-1.266 0-1.032.932-1.645 2.295-1.645.158 0 .315.013.416.026M33.341 51.29c.094.219.106.409.106.98v4.555c0 .313-.047.53-.164.748-.082.15-.28.15-1.087.177v-1.115c0-.394.012-.816.012-1.251v-2.366c0-.612-.012-1.034-.024-1.387.14-.34.538-.381 1.064-.381l.093.04M36.263 52.865l.041-.04v4.11c0 .294-.027.454-.165.641-.192.16-.343.16-.949.174h-.357c.013-.707.027-1.615.027-2.63v-2.242c0-.427-.055-.734-.151-1 .096-.107.275-.214.578-.334.082-.027.165-.027.192-.027.248 0 .413.12.495.28.275-.187.564-.32.812-.4.289-.094.564-.147.894-.147 1.72 0 2.05.854 2.05 2.376v2.015c0 .721.014 1.375.027 1.895-.178.16-.426.214-1.334.214-.11-.2-.151-.4-.151-.6v-3.498c0-.96-.234-1.308-.936-1.308-.44 0-.798.227-1.073.521M43.845 51.276c.903.065 1.334.405 1.391.587 0 .17-.129.483-.287.666-.057-.013-.215-.04-.287-.052a3.065 3.065 0 0 1-.473-.105 1.872 1.872 0 0 0-.645-.117c-.502 0-.818.248-.818.6 0 .21.086.392.387.614.158.104.373.248.603.391.272.196.588.392.832.562.602.456.889.913.889 1.462 0 1.24-1.119 1.866-2.51 1.866-.932 0-1.735-.261-1.908-.627 0-.195.115-.496.288-.704h.143c.129 0 .272.039.43.117v-.013c.301.118.674.209 1.018.209.072 0 .172-.013.259-.026.43-.04.688-.314.688-.705 0-.287-.144-.535-.545-.783-.057-.04-.2-.13-.172-.105-.33-.208-.703-.483-.976-.691l-.358-.261c-.445-.405-.66-.81-.66-1.266 0-1.032.932-1.645 2.295-1.645.158 0 .315.013.416.026M47.225 51.29c.093.219.105.409.105.98v4.555c0 .313-.047.53-.163.748-.082.15-.28.15-1.088.177v-1.115c0-.394.012-.816.012-1.251v-2.366c0-.612-.012-1.034-.023-1.387.14-.34.538-.381 1.064-.381l.093.04M50.5 53.219c.069.791.398 1.281 1.071 1.281.618 0 .865-.59.797-1.382-.083-.766-.426-1.218-1.044-1.218-.536 0-.92.427-.824 1.319m.814 2.555c-.245 0-.409-.013-.572-.04l-.273.265a.263.263 0 0 0-.068.185c0 .12.245.239.695.278l.531.04c.219.013.437.04.655.053.177.013.368.026.49.053.845.159 1.432.622 1.473 1.402 0 1.164-1.24 2.487-2.931 2.87-.355.067-.831.12-1.268.12-.681 0-1.308-.145-1.444-.582-.137-.661 1.24-1.8 2.098-2.355.341.172.423.622.178.847-.437.357-.913.82-.859 1.058.027.106.164.133.34.133.273 0 .669-.08.914-.12.9-.238 1.595-1.071 1.581-1.614v-.185c-.109-.278-.245-.502-.709-.556-.3-.04-.6-.052-.913-.066-.082 0-.177-.013-.259-.013-.627-.053-1.036-.185-1.036-.185-.668-.199-1.008-.556-1.022-.953 0-.092.068-.185.177-.317.191-.185.45-.397.654-.582.069-.053.055-.066.11-.12-.587-.357-.873-.978-.873-1.798 0-1.495 1.009-2.342 2.413-2.342.477 0 .9.159 1.213.304-.028-.013-.041-.026 0-.053.3-.013.682-.026.968-.04h-.014c.177-.013.463-.026.6-.026a1 1 0 0 1 .109.45c0 .344-.164.595-.49.595-.192 0-.274 0-.437-.013.218.33.313.648.313 1.072 0 1.415-.886 2.235-2.344 2.235M54.903 57.681c.014-.782.028-1.703.028-2.815V49.69c0-.563-.014-.961-.028-1.263.184-.357.638-.426 1.347-.426.114.206.156.398.156.961v2.61c.227-.152.468-.262.68-.358.256-.096.582-.164.965-.164 1.475 0 1.886.755 1.886 2.609v1.991c0 .742 0 1.387.014 1.881-.17.179-.382.22-1.39.22a1.856 1.856 0 0 1-.127-.687v-3.282c0-.247 0-.425-.028-.563-.043-.81-.34-1.03-.766-1.03-.482 0-.922.261-1.234.55v4.106c0 .274-.028.494-.156.714-.255.192-.425.192-1.22.192l-.127-.069M64.265 56.456c.013.083.026.193.026.317s0 .275-.013.385a.56.56 0 0 1-.181.262c-.299.206-.791.33-1.206.33-1.297 0-1.543-1.225-1.543-2.353V52.12a1.755 1.755 0 0 1-.765-.192c0-.4.012-.4.116-.51.195-.137.39-.192.558-.247.104-.028.13 0 .207-.042.013-.385.052-.812.065-1.197.104-.317.441-.578 1.22-.633v.22c-.014.578-.027 1.018-.027 1.541h1.647c-.039.771-.143.95-.402 1.005-.09.014-.22.028-.324.028-.26.013-.441.013-.92.013-.014.606-.027 1.198-.027 1.776 0 .316.013.605.013.894v.675c.052.716.143 1.225.558 1.225.168.013.687-.18.778-.262l.22.041M6.837 51.29c.093.219.105.409.105.98v4.555c0 .313-.047.53-.164.748-.082.15-.28.15-1.087.177v-1.115c0-.394.012-.816.012-1.251v-2.366c0-.612-.012-1.034-.023-1.387.14-.34.537-.381 1.063-.381l.094.04M35.275 21.367c7.071-7.272 3.49-12.205 1.185-12.832-5.534-1.41-9.915 1.096-12.912 4.072-8.686 9.555-4.734 20.758-4.359 22.393-4.164-3.609-7.47-10.96-5.702-19.496C16.332 4.228 25.7-.008 33.179 0c2.33.017 15.425.86 13.657 12.998-1.153 4.308-6.413 7.91-11.561 8.369zM30.857 18c-2.84 7.43-.04 13.85 6.323 13.925 7.726.094 14.456-6.85 15.82-11.41.023 8.878-5.83 14.243-8.934 16.29-3.107 2.048-9.143 4.494-16.51 2.386-3.406-4.172-4.386-17.097 3.3-21.191z"/>
    </g>
</svg>
