<svg xmlns="http://www.w3.org/2000/svg" width="57" height="65" viewBox="0 0 57 65">
    <path fill="#333" fill-rule="evenodd" d="M.009 20.66l-.003-.012L57 0v10.673L.009 20.66zm1.267 40.576l.156.873.123-.455.097-.45.39-1.32h.786l.357 1.32.22.906.188-.906.006.002-.006-.002.325-1.32h.92l-1.04 3.64h-.785l-.39-1.514-.22-.78-.19.812-.388 1.481H1.04l-.002-.001-.034-.034L0 59.884h.919l.357 1.352zm-1.233-1.34H.016l.027.097v-.098zm5.73-4.372v.224l.033.192.064.127.064.127.096.096.096.063.16.064h.29l.16-.064.096-.063.096-.096.097-.127.031-.127.033-.192.032-.193v-2.027h.886v3.64H7.12v-.283l-.184.152-.196.13-.26.065-.26.031H6.22l-.194-.031-.195-.033-.162-.032h-.002l-.16-.097-.131-.064v-.002l-.098-.128-.194-.225-.131-.258-.065-.29-.032-.257v-2.318h.917v1.996zm-.658 5.423l.162-.355.195-.257.26-.225.26-.162.324-.129.357-.032.358.032.325.13.26.16.26.226.194.257.163.355.065.354.032.386-.033.418-.064.355-.163.322-.194.29-.26.225-.26.162-.325.096-.357.032-.357-.032-.325-.096-.26-.162-.26-.225-.195-.29-.162-.322-.065-.355-.033-.418.033-.386.065-.354zm.852.964l.033.225.065.159.064.16.129.127.127.095.128.03.16.033.161-.032.129-.031.127-.095.129-.128.065-.16.064-.159.064-.224v-.448l-.064-.191-.064-.194-.065-.158-.128-.095-.13-.096-.127-.063h-.32l-.128.063-.13.096-.127.095-.064.159L6 61.27l-.033.192-.031.224.031.224zm3.787-9.797v.91h-.918v-.91h.918zm0 1.412v3.641h-.918v-3.64h.918zm.065 6.363v.304l.152-.18.195-.13h.001l.195-.064.26-.032h.001l.161.032.196.032.163.064.161.098.005.002-.263.878-.007-.003-.129-.064-.16-.065-.13-.031-.16-.032-.16.032-.13.031-.126.064-.065.095-.096.095-.032.16-.032.16v2.188H8.9v-3.64h.918v.006zm.7-2.722V52.47l.918-.456v5.153h-.918zm2.115 4.084l.313-.434.713-.934h1.084l-.976 1.194 1.102 2.446h-1.016l-.774-1.696-.446.6v1.096h-.918v-4.697l.918-.456v2.881zm1.67-4.09v-.245l-.184.121-.195.13-.195.065h-.001l-.227.031-.325-.031-.292-.098-.228-.161-.228-.225-.162-.29-.098-.323-.064-.386-.033-.418.033-.418.064-.386.13-.29.163-.29.195-.195.26-.16.26-.097.325-.032h.228l.227.064.195.098.153.15V52.47l.918-.456v5.153h-.918v-.006zm0-2.534l-.095-.094-.128-.128-.193-.096-.224-.031-.096.031-.13.033-.127.031-.096.095-.096.127-.064.192-.033.224-.032.288.032.32.033.256.064.192.096.127.129.096.096.063.128.064h.128l.192-.032.193-.095.128-.096.096-.127v-1.44zm2.019 3.843v.911h-.918v-.911h.918zm0 5.052h-.918v-3.64h.918v3.64zm-.303-6.356v-3.64h.918v3.64h-.918zm2.018 2.721v.277l.186-.15.227-.131.227-.065.292-.032.293.032.293.097.228.129.194.16.13.26.098.29.065.32.031.387v2.061h-.917v-2.22l-.031-.19-.065-.16-.063-.097-.098-.094-.095-.064-.128-.065h-.322l-.16.065-.095.062-.097.096-.095.127-.033.127-.032.193-.033.193v2.027h-.917v-3.639h.917v.004zm2.966.994l.13-.322.162-.255.194-.228.26-.16.262-.098.324-.032.227.032.227.065h.003l.194.096.152.15v-.246h.92v3.28l-.033.42-.065.386-.13.322h-.002l-.098.129-.097.097-.13.127v.002l-.13.096-.324.129-.357.097-.426.032-.329-.718h.041l.387-.033.29-.063.195-.129.16-.127.063-.126.065-.16v-.403l-.152.152-.227.097-.197.097h-.227l-.324-.032-.295-.097-.227-.16-.226-.227-.163-.257-.097-.356-.065-.385-.033-.42.033-.418.065-.354zm.852 1.061l.032.258.065.191.096.158.13.095.094.065.128.032h.322l.16-.097.16-.126.096-.127v-1.409l-.095-.127-.128-.094-.193-.096-.225-.033h-.097l-.128.033-.127.064-.097.094-.096.127-.065.161-.032.255-.032.256.032.32zm1.809-3.427l-.357.097-.426.032-.329-.719h.042l.387-.032.29-.063.193-.096.16-.127.065-.159.064-.16v-.372l-.185.121-.195.13-.195.064h-.001l-.26.032-.292-.032-.293-.13-.227-.16-.228-.193-.162-.291-.098-.322-.097-.386v-.837l.098-.385.097-.322.195-.258.195-.226.26-.13.26-.096.325-.032h.227l.229.064.195.13.152.12v-.25h.918v3.313l-.032.418-.065.354-.162.322-.066.13-.13.128-.097.097-.13.098-.325.128zm.089-3.889l-.095-.125-.129-.096-.193-.096-.225-.032h-.127l-.096.032-.129.063-.096.096-.096.127-.064.192-.032.224-.033.288.033.32.032.224.064.224.096.127.096.095.129.064.128.064h.095l.225-.033.16-.095.162-.095.095-.127v-1.44zm3.766 6.61l.187.87.092-.452.13-.451.39-1.32h.753l.389 1.32.22.905.189-.904.006.001-.005-.001.324-1.321h.919l-1.04 3.64h-.785l-.422-1.514-.188-.778-.189.81-.422 1.482h-.787v-.037l-1.037-3.603h.951l.325 1.353zm3.871-.29l.162-.322.195-.29.228-.225.292-.161.324-.13.358-.031.325.031.325.13.292.16.227.227.228.29.13.322.097.353.032.386-.032.42-.097.354-.13.321-.228.29-.227.226-.292.162-.325.096-.325.032-.358-.032-.324-.096-.292-.162-.228-.226-.195-.29-.162-.321-.097-.354-.032-.42.032-.386.097-.354zm.854 1.188l.063.16.097.16.096.128.128.094.16.032.161.032.16-.032.128-.031.129-.095.096-.128.096-.16.065-.16.032-.223v-.449l-.032-.19-.065-.193-.096-.16-.096-.095-.13-.095-.126-.064h-.322l-.16.064-.128.095-.096.096-.096.159-.064.192-.034.191v.45l.034.222zm-3.184-7.54l-.032-.128-.064-.095-.063-.063-.096-.063-.129-.032-.257-.032-.259.032-.257.032-.226.097-.194.096-.005.002-.362-.621.33-.164.324-.128.357-.064h.68l.293.064.26.13.228.128.163.193.13.195.064.258.033.29v2.446h-.918v-.283l-.185.153-.26.13-.227.064-.195.032h-.002l-.259-.032-.227-.032-.227-.098-.196-.128-.195-.194-.13-.226-.097-.258-.033-.322.033-.322.097-.259.163-.194.195-.162.228-.129.227-.064.26-.063h.454l.228.031.194.065.154.06v-.343zm-.158.967l-.162-.064-.192-.033h-.323l-.128.033-.096.032-.096.063-.064.064-.064.094-.032.095v.223l.032.127.064.095.064.064.096.063.096.032.129.032.128.032.225-.032.225-.096.128-.127.128-.127v-.507l-.158-.063zm-10.25 1.606h-.918v-3.64h.918v.313l.185-.183.228-.097.227-.097h.584l.26.097.229.128.195.195.162.226.098.29.065.321.032.386v2.061H20v-2.221l-.032-.16-.065-.159-.064-.127-.096-.095-.095-.063-.16-.032-.13-.032-.16.032-.16.032-.096.063-.096.095-.096.128-.065.159-.032.159v2.221zm5.625-23.716l3.49-6.668v-.003h6.779l-7.221 12.368v8.064h-6.161v-8.064L13.976 26.78h6.843l3.459 6.671zm-7.34 18.662v.91h-.918v-.91h.918zM.358 26.78h11.691l2.725 4.699H6.518v3.36h7.475v4.314H6.518v3.36h10.323v4.7H.358V26.78zM3.7 54.588l.13.097.13.13.098.128.098.194v.001l.032.193.033.257-.033.355-.097.322-.13.258-.195.225-.26.194-.293.13-.357.063-.389.032H.357V52.18H2.5l.324.033.324.063.26.096.228.162.195.195.13.226.065.257.033.291-.033.13-.032.159-.033.13-.065.162-.098.096-.096.129H3.7l-.098.097-.12.06.217.123zm-.656-1.148l-.033-.097-.03-.095-.064-.063-.096-.064-.129-.032-.29-.03H1.276v1.047h1.19l.161-.033.13-.032.127-.063.064-.064.064-.063.032-.094.032-.191-.032-.126zm.161 2.022l-.031-.16-.065-.128-.064-.094-.128-.064-.128-.064-.129-.032H1.276v1.401h1.352l.16-.032.129-.063.096-.096.096-.096.065-.127.031-.127.033-.16-.033-.158zm30.845 1.801l-.228-.031-.227-.066-.196-.129-.152-.12v.25h-.918v-4.6l.918-.457v1.667l.152-.12.228-.13.196-.064h.228l.324.032.26.097.26.16.196.195.163.29.129.29.065.386.032.418-.032.418-.065.386-.098.322-.162.29-.227.226-.228.161-.293.098-.325.031zm.415-1.292l.032-.192.033-.224.032-.256-.032-.255-.032-.226-.065-.158-.096-.16-.096-.095-.128-.063-.13-.033-.095-.032-.192.032-.193.064-.128.127-.128.16v1.407l.095.094.13.129.192.095.096.032h.128l.161-.032.129-.032.127-.095.096-.127.064-.16zm1.598 3.918v.307l.184-.183.195-.13h.002l.194-.064.228-.032h.001l.193.032.196.032.163.064v.001l.13.097.002.002-.229.878-.006-.003-.129-.064-.161-.065-.161-.031-.161-.033-.128.033-.129.031-.128.064-.096.095-.064.095-.032.16-.033.16-.03.224v1.964h-.92v-3.64h.92v.006zm.865-2.787l-.293-.161-.228-.193-.226-.29-.13-.323-.097-.354-.034-.418.034-.418.097-.355.13-.322.195-.29.26-.226.26-.16.324-.097.357-.032.326.032.292.097.26.16.228.226.194.258.13.323.065.386.032.418v.263h-2.263l.062.25.065.19.129.128.096.095.16.064.096.031.226.033.225-.033.193-.064.16-.096.13-.127.004-.004.591.587-.005.004-.161.128-.13.129-.164.096v.001l-.162.064-.324.129-.357.032-.39-.032-.357-.13zm-.056-2.13h1.346l-.032-.282-.064-.126-.064-.096-.096-.096-.128-.095-.13-.032-.16-.032-.127.032-.128.032-.129.064-.096.095-.064.095-.064.128-.064.16v.153zm2.038 8.55h-.917v-4.696l.917-.456v5.152zm.991-10.924l.918-.456v1.384h.777v.847h-.777v1.534l.033.225.064.127.063.062.062.032.161.03h.16l.129-.03.258-.129.01-.005-.098.85h-.003l-.163.097-.195.033-.194.031-.228.033h-.001l-.227-.033-.227-.097-.164-.096v-.001l-.13-.161-.098-.161-.065-.194v-.001l-.031-.192-.034-.193v-1.76h-.55v-.848h.55v-.928zm-.29 8.284l.129-.321.162-.258.196-.226.26-.161.292-.097.325-.032h.002l.194.032.227.065.195.097.185.152v-1.307l.919-.456v5.153h-.919v-.282l-.185.153-.228.13-.194.064h-.228l-.325-.032-.26-.097-.26-.162-.196-.226-.162-.258-.13-.353-.064-.355-.033-.45.033-.418.065-.355zm.917 1.317l.065.192.096.16.096.094.128.064.096.032h.353l.16-.096.13-.127.126-.127v-1.407l-.095-.127-.161-.095-.16-.097-.225-.032h-.128l-.128.032-.096.064-.096.095-.096.127-.065.16-.065.256v.577l.065.255zm2.092-5.486l-.065-.193v-.001l-.032-.192-.033-.193v-1.76h-.55v-.848h.55v-.928l.918-.456v1.384h.842v.847h-.842v1.534l.033.225.063.127.064.062.063.032.16.03h.16l.13-.03.267-.134-.098.85h-.003l-.163.097h-.001l-.194.033-.195.032-.227.032h-.001l-.227-.033-.228-.097-.163-.096v-.001l-.13-.161-.098-.161zm2.136-2.123l.162-.322.195-.29.227-.226.294-.16.324-.098.325-.031.356.031.293.098.26.16.228.226.163.258.129.323.097.386.033.418v.263h-2.265l.031.25.097.19.097.128.127.095.129.064.128.031.194.033.225-.033.193-.064.16-.096.161-.127.005-.004.558.586-.004.004-.13.13-.162.128-.13.096v.001l-.162.064-.357.129-.357.032-.357-.032-.358-.13-.292-.16-.26-.193-.195-.29-.162-.323-.065-.354-.033-.418.033-.418.065-.355zm.853.381h1.345l-.063-.28-.031-.128-.065-.095-.096-.096-.128-.095-.128-.032-.16-.032-.16.032-.13.032-.095.062-.096.097-.097.096-.063.127-.033.159v.153zm3.721-1.438v.304l.152-.18.001-.002.195-.096.227-.096h.39l.196.031h.002l.16.098.162.063.005.002-.263.913-.007-.005-.128-.096-.13-.064-.16-.032h-.322l-.127.032-.096.064-.097.094-.063.128-.064.127-.033.193v2.155h-.918v-3.64h.918v.007z"/>
</svg>
