<svg xmlns="http://www.w3.org/2000/svg" width="64" height="39" viewBox="0 0 64 39">
    <g fill="none" fill-rule="evenodd">
        <path fill="#FFF" fill-rule="nonzero" d="M18.439 35.94c.012.384.15.771.151.775l.013.034-.865.001.007-.031c.001-.003.058-.25.067-.399.007-.12.001-.18-.003-.223 0-.012-.002-.023-.003-.034a.675.675 0 0 0-.003-.038c-.297.477-.817.77-1.374.77-.945 0-1.581-.665-1.581-1.655 0-.963.657-1.61 1.636-1.61.003 0 .312.001.698.057.325.048.604.147.652.165l.418-.084.183-.022v1.517l-.001.074c-.002.136-.005.389.005.703zm-.86-1.639a1.68 1.68 0 0 0-.37-.276c-.09-.048-.316-.168-.713-.168-.045 0-.092.002-.141.005-.493.034-.824.485-.824 1.123 0 .693.37 1.158.92 1.158.622 0 1.128-.52 1.128-1.158v-.684zm-1.536-1.423c-.283 0-.512-.147-.512-.327 0-.18.23-.327.512-.327.282 0 .512.147.512.327 0 .18-.23.327-.512.327zm1.706 0c-.282 0-.512-.147-.512-.327 0-.18.23-.327.512-.327.283 0 .512.147.512.327 0 .18-.23.327-.512.327zm-12.97 0c-.283 0-.512-.147-.512-.327 0-.18.23-.327.512-.327.282 0 .512.147.512.327 0 .18-.23.327-.512.327zm1.706 0c-.282 0-.512-.147-.512-.327 0-.18.23-.327.512-.327.283 0 .512.147.512.327 0 .18-.23.327-.512.327zM2.312 31.57c.387 0 .685.027.91.08l.02.005v.622l-.04-.023a1.955 1.955 0 0 0-.89-.234c-.437 0-.668.253-.668.731v.643h1.378v.45H1.644c0 .198-.004 1.532 0 1.824.003.312.159.764.16.768l.012.032H.853l.006-.029c0-.003.068-.343.069-.57v-3.096l.001-.022c0-.761.491-1.18 1.383-1.18zm3.15 1.96c1.122 0 1.877.656 1.877 1.632 0 .977-.755 1.633-1.878 1.633-1.123 0-1.877-.656-1.877-1.633 0-.976.754-1.632 1.877-1.632zM6.655 35c0-.684-.48-1.143-1.195-1.143-.714 0-1.194.46-1.194 1.143 0 .684.48 1.143 1.194 1.143.715 0 1.195-.46 1.195-1.143zm2.108-.744c.313-.456.804-.725 1.325-.725h.322v.657h-.554c-.647 0-1.082.401-1.082.999 0 .004-.01.428-.01.778 0 .346.16.792.161.796l.013.035H8.02l.007-.031c0-.003.063-.315.063-.596v-2.592h.63l.043.679zm4.116.625c.65.14 1.285.328 1.285.925 0 .638-.636.99-1.792.99-.33 0-.754-.078-1.26-.23l-.02-.007v-.661l.043.024c.399.231.891.364 1.351.364.528 0 .883-.164.883-.406 0-.266-.403-.375-.89-.48-.67-.145-1.387-.354-1.387-.999 0-.57.6-.87 1.736-.87.336 0 .681.038 1.087.12l.022.004v.682l-.043-.024c-.3-.173-.73-.272-1.18-.272-.479 0-.826.144-.826.342 0 .284.504.393.991.498zm9.719 1.627c.147.114.356.238.358.24l.083.048h-1.057l-.007-.012c-.001 0-.054-.077-.254-.296-.202-.221-1.381-1.34-1.393-1.352l-.02-.018 1.62-1.587h.896l-1.705 1.585c.12.127.805.848 1.019 1.023.194.16.349.284.46.37zm-2.497-.843c-.005.441.184.764.185.768l.022.036h-1.024l.006-.029c0-.004.07-.387.07-.575V31.57h.746v.025c0 .037 0 3.62-.005 4.069zm4.357-1.41c.315-.455.807-.724 1.33-.724h.323v.657h-.555c-.65 0-1.086.401-1.086.999 0 .004-.004.396 0 .776a3.2 3.2 0 0 0 .137.8l.01.033h-.895l.003-.03c.001-.004.058-.447.058-.597v-2.592h.632l.043.679zm2.848-2.357c.282 0 .512.22.512.49s-.23.49-.512.49a.502.502 0 0 1-.512-.49c0-.27.23-.49.512-.49zm.361 4.093c.003.366.138.767.14.771l.01.034h-1.023l.006-.031c0-.004.078-.405.077-.57-.002-.169 0-.23 0-.23v-2.434h.79v1.68c0 .003-.003.41 0 .78zm4.433-.048c.005.466.14.814.141.818l.014.035h-.933l.004-.03c0-.004.059-.398.059-.598v-1.587c0-.347-.323-.58-.803-.58-.718 0-1.301.553-1.301 1.232v.737c-.002.5.117.787.118.79l.015.036h-.914l.005-.03c0-.004.057-.381.057-.597v-2.592h.661l.046.66a1.679 1.679 0 0 1 1.368-.706c.877 0 1.466.384 1.466.957 0 .01-.008.984-.003 1.455zm4.592-2.304v3.244c0 .924-.834 1.546-2.076 1.546-.36 0-1.15-.05-1.505-.117l-.022-.004v-.703l.042.023c.316.175 1.105.34 1.485.34.8 0 1.338-.436 1.338-1.085v-.89a1.729 1.729 0 0 1-1.361.648c-.99 0-1.655-.634-1.655-1.577 0-.917.688-1.533 1.712-1.533.005 0 .391.013.71.05.295.036.65.144.704.16l.628-.102zm-.682.665c-.056-.042-.332-.244-.54-.323a1.962 1.962 0 0 0-.46-.109 2.923 2.923 0 0 0-.303-.015h-.026c-.635 0-1.06.454-1.06 1.129 0 .692.43 1.157 1.073 1.157.725 0 1.316-.54 1.316-1.203v-.636zm26.278 2.415c.001-.003.058-.25.067-.399.007-.12.001-.18-.003-.223l-.002-.034a.589.589 0 0 0-.004-.038c-.297.477-.817.77-1.374.77-.945 0-1.581-.665-1.581-1.655 0-.963.657-1.61 1.636-1.61.003 0 .312.001.698.057.325.048.604.147.652.165l.418-.084.183-.022v1.517l-.001.074c-.002.136-.005.389.005.703.012.384.15.771.151.775l.013.034-.865.001.007-.031zm-.166-2.418a1.676 1.676 0 0 0-.37-.276c-.09-.048-.316-.168-.713-.168-.045 0-.092.002-.141.005-.493.034-.824.485-.824 1.123 0 .693.37 1.158.92 1.158.622 0 1.128-.52 1.128-1.158v-.684zM51.889 35.94c.013.384.15.771.152.775l.012.034-.864.001.007-.031c0-.003.058-.25.066-.399.008-.12.002-.18-.002-.223l-.003-.034a.589.589 0 0 0-.004-.038c-.297.477-.816.77-1.373.77-.946 0-1.581-.665-1.581-1.655 0-.963.657-1.61 1.635-1.61.004 0 .313.001.7.057.323.048.603.147.651.165l.417-.084.183-.022v1.591c-.002.136-.006.389.004.703zm-.86-1.639a1.676 1.676 0 0 0-.37-.276c-.09-.048-.315-.168-.712-.168-.045 0-.092.002-.142.005-.493.034-.824.485-.824 1.123 0 .693.37 1.158.92 1.158.622 0 1.128-.52 1.128-1.158v-.684zm-1.536-1.423c-.282 0-.512-.147-.512-.327 0-.18.23-.327.512-.327.283 0 .512.147.512.327 0 .18-.23.327-.512.327zm1.707 0c-.282 0-.512-.147-.512-.327 0-.18.23-.327.512-.327.282 0 .512.147.512.327 0 .18-.23.327-.512.327zm-3.733 2.79c0 .386.136.765.137.768l.012.033h-.924l.004-.028c0-.004.056-.41.056-.576v-1.53c0-.334-.322-.559-.8-.559-.715 0-1.297.553-1.297 1.232v.657c0 .38.12.769.12.772l.01.032h-.924l.005-.029c0-.004.074-.438.074-.575V31.57h.715v2.434c.318-.43.816-.683 1.352-.683.873 0 1.46.37 1.46.923v1.424zm6.45-.005c.002.411.167.768.168.772l.016.034h-1.024l.005-.028c0-.005.072-.474.072-.608v-4.262h.762V35.663zm3.535-.959c.723.148 1.428.344 1.428.971 0 .67-.707 1.04-1.991 1.04-.367 0-.839-.082-1.401-.243l-.021-.006v-.695l.047.026c.443.243.99.382 1.501.382.587 0 .981-.172.981-.427 0-.279-.447-.393-.988-.504-.746-.152-1.541-.371-1.541-1.048 0-.598.666-.914 1.928-.914.373 0 .757.04 1.208.126l.024.004v.717l-.047-.026c-.333-.182-.811-.285-1.312-.285-.532 0-.918.15-.918.358 0 .299.56.413 1.102.524zm-16.323.657v1.353h-.688v-1.353h-1.378v-.677h1.378v-1.353h.688v1.353h1.379v.677h-1.379z"/>
        <path fill="#FFFFFE" d="M0 29v-7.589h64V29H0zm22.203-5.101c.344-.019.614.044.813.12l.199-.844c-.173-.081-.556-.175-1.061-.175-1.305 0-2.384.747-2.384 2.088 0 1.12.798 1.972 2.288 1.972.524 0 .927-.093 1.105-.175l-.174-.825c-.26.057-.447.078-.786.086-.706.016-1.148-.272-1.148-1.06 0-.875.505-1.153 1.148-1.187zm-7.208-.015c.416-.028.752.136.752.136l.233-.845c-.173-.081-.556-.175-1.061-.175-1.305 0-2.384.747-2.384 2.088 0 1.12.798 1.972 2.288 1.972.524 0 .927-.093 1.106-.175l-.223-.842c-.192.07-.5.118-.82.138-.627.038-1.097-.317-1.097-1.105 0-.875.55-1.147 1.206-1.192zM27.35 27.06h1.378V23H27.35v4.06zm-20.178-.95l.314.935 1.26.015L7.341 23H5.61l-1.344 4.06 1.251-.015.288-.927 1.365-.008zm-.904-1.5c.076-.226.12-.364.19-.595h.065c.07.23.127.363.21.594l.29.76H5.99l.278-.76zm44.492-.142l-.813-1.465L48.364 23v4.06h1.189v-1.223c0-.662-.003-.967-.03-1.503l.02-.006c.242.484.466.867.684 1.243.218.376.828 1.49.828 1.49H52.5V23h-1.145v1.181c.021.663.024.716.06 1.366h-.02c-.236-.414-.365-.625-.635-1.08zm7.868 2.592v-3.12h1.106V23h-3.445v.94h1.106v3.12h1.233zm-14.5-3.212l.008-.847L41.13 23v4.057l3.1.003-.007-.903h-1.87v-.773h1.68v-.828l-1.68.002v-.71h1.775zm-7.132 1.081c0-.704-.29-1.195-.753-1.503-.43-.29-.98-.426-1.826-.426-.509 0-1.185.049-1.555.102v3.902c.251.03.815.056 1.338.056.872 0 1.586-.165 2.056-.515.43-.325.74-.852.74-1.616zm-2.428 1.28c-.12 0-.246.016-.328-.001v-2.191c.12 0 .223-.004.45 0 .72.012 1.157.248 1.15 1.035 0 .904-.4 1.164-1.272 1.158z"/>
        <path fill="#FFFFFE" fill-rule="nonzero" d="M44.413 12.68c2.662 2.188 4.528 6.317 4.528 6.317h-5.415s-.709-2.615-2.715-4.304c-1.713.296-4.108.29-4.108.29v4.014h-4.874l.017-17.558.17-.008c.095-.007.254-.005.345-.012.264-.02.685-.02 1.217.003 2.242.026 6.338.24 9.527 1.302 1.314.438 2.73 1.391 3.301 2.932.739 1.99.112 5.241-1.993 7.023zm-7.793-.238c.336.007 3.743-.264 4.854-2.929.544-1.304.294-2.833-.74-3.785-.827-.761-2.062-1.097-4.114-1.22v7.934zM0 18.997V1.404h13.348V4.04l-8.484.002v3.922h6.847v2.672H4.905v5.721h8.443v2.64H0zM24.76 1.42l5.014-.017.001 15.057c-.84 2.994-7.367 3.225-7.367 3.225-5.733 0-7.35-3.225-7.35-3.225V1.421h4.92l-.027 14.313s.154 1.423 2.406 1.423c2.252 0 2.361-1.37 2.361-1.37L24.76 1.42zM64 15.932c.006 0-.165 3.402-7.259 3.41-6.709.006-7.8-3.456-7.8-3.456V4.453C49.2 3.877 50.2.714 56.703.714S64 4.453 64 4.453v11.48zm-5.143-.34l.01-11.294s-.46-1.17-2.306-1.17c-1.847 0-2.486 1.17-2.486 1.17l.09 11.242s.38 1.438 2.306 1.385c1.926-.052 2.386-1.333 2.386-1.333z"/>
    </g>
</svg>
