<svg xmlns="http://www.w3.org/2000/svg" width="70" height="26" viewBox="0 0 70 26">
    <g fill="#FFF" fill-rule="evenodd">
        <path d="M69.804 7.778c-1.388 1.511-2.876 2.913-4.522 4.143-1.89 1.413-3.92 2.557-6.214 3.189a16.154 16.154 0 0 1-3.734.569c-3.408.12-6.742-.365-10.017-1.288-1.971-.555-3.936-1.138-5.916-1.666a32.965 32.965 0 0 0-5.069-.935 30.23 30.23 0 0 0-3.728-.138c-1.981.037-3.886.466-5.755 1.103-2.45.833-4.82 1.862-7.219 2.826a350.412 350.412 0 0 1-4.318 1.7c-.195.075-.273.187-.278.378-.044 1.426-.06 2.848.308 4.244.099.372.13.394.523.34.892-.122 1.764-.336 2.637-.563.26-.065.832-.237 1.356-.428 1.238-.45 3.666-1.462 3.666-1.462s2.824-1.364 3.175-1.552l-.005-.002 1.29-.677c.014-.007.035-.019.048-.014.265.106.3.397.468.583.099.109.008.192-.07.26-.285.251-7.117 5.55-9.07 6.5-1.507.733-3.084 1.17-4.777 1.106a8.977 8.977 0 0 1-1.772-.229c-.999-.24-1.647-.901-2.102-1.785-.545-1.06-.81-2.198-.936-3.373-.04-.368-.08-.738-.09-1.107-.008-.22-.068-.262-.278-.201-1.072.31-2.15.593-3.253.775-.964.16-1.93.325-2.905.067-.37-.098-.73-.217-.991-.524-.258-.304-.328-.664-.178-.956.045-.089.093-.175.214-.135.31.1.623.023.926-.018 2.206-.291 4.33-.901 6.41-1.677.146-.054.187-.148.205-.29.264-2.05.838-4.016 1.637-5.92.852-2.033 2.024-3.861 3.473-5.523 1.148-1.317 2.412-2.497 3.881-3.448A10.204 10.204 0 0 1 21.639.03c1.567-.124 3.057.108 4.409.946 1.19.738 1.877 1.809 2.024 3.208.082.788.202 1.578-.043 2.361-.006.017-.007.034-.012.05-.08.256-1.176 2.06-1.44 2.369-.049.151-.206.21-.276.37.163.013.3-.028.436-.067a25.453 25.453 0 0 1 4.657-.87 26.908 26.908 0 0 1 3.99-.033c3.035.183 5.978.9 8.925 1.583 2.106.489 4.224.915 6.373 1.165a44.99 44.99 0 0 0 3.668.285c.718.024 1.435.054 2.152.03 1.311-.043 2.622-.103 3.93-.238 1.539-.16 3.038-.476 4.48-1.044 1.368-.54 2.546-1.383 3.678-2.299.329-.266.653-.537.972-.815.114-.098.183-.088.273.028.23.297.22.445-.031.718zM23.079 3.026a1.728 1.728 0 0 0-.385-.344c-.234-.166-.47-.18-.736-.078-.722.273-1.346.698-1.933 1.19-1.505 1.263-2.612 2.844-3.61 4.509a28.548 28.548 0 0 0-2.584 5.61 9.555 9.555 0 0 0-.08.25l1.42-.601 2.704-1.3-.014-.01c.423-.204.845-.407 1.268-.613 1.275-.62 2.554-1.234 3.642-2.168.302-.26.584-.539.842-.842.053-.062.121-.082.485-.726.072-.128.123-.546.147-.822.129-1.497-.245-2.857-1.166-4.055z"/>
        <path d="M32.243 19.182h-2.08v1.09h1.97v.64h-1.97v1.212h2.188v.678h-2.953v-4.286h2.845v.666zm2.128 2.015c0 .126.016.25.049.373a.918.918 0 0 0 .16.33.829.829 0 0 0 .298.236c.123.06.276.09.457.09.183 0 .335-.03.459-.09a.834.834 0 0 0 .457-.566 1.46 1.46 0 0 0 .049-.373v-2.681h.764v2.711c0 .26-.045.492-.133.7a1.57 1.57 0 0 1-.364.53 1.601 1.601 0 0 1-.546.335c-.22.08-.452.12-.686.118a1.941 1.941 0 0 1-.685-.118 1.625 1.625 0 0 1-.549-.336 1.506 1.506 0 0 1-.363-.53 1.787 1.787 0 0 1-.131-.699v-2.711h.764v2.681zm6.437-2.618c.19.043.359.112.506.21.148.096.266.223.355.38.09.158.134.35.134.576 0 .31-.088.564-.264.76-.176.195-.416.327-.72.396l1.147 1.9h-.922l-.994-1.816h-.766v1.817h-.764v-4.286h1.7c.202 0 .398.021.588.063zm-1.524.578v1.205h.832c.11 0 .219-.008.328-.024a.945.945 0 0 0 .294-.091.577.577 0 0 0 .215-.19.549.549 0 0 0 .085-.318.491.491 0 0 0-.278-.466.84.84 0 0 0-.276-.091c-.1-.016-.2-.024-.3-.025h-.9zm4.25-.145c.21-.197.457-.35.728-.448.294-.107.606-.16.92-.157.335 0 .644.053.927.157.283.105.528.254.734.448.206.194.367.429.482.705.115.277.173.587.173.93 0 .334-.058.64-.173.917a2.107 2.107 0 0 1-1.216 1.18c-.296.113-.61.17-.928.166a2.482 2.482 0 0 1-.92-.166 2.16 2.16 0 0 1-.727-.466 2.133 2.133 0 0 1-.479-.714 2.361 2.361 0 0 1-.173-.917c0-.343.058-.653.173-.93.115-.276.275-.511.48-.705zm.285 2.267c.07.192.172.358.303.5.132.14.287.25.467.329.18.08.38.118.598.118.218 0 .419-.039.6-.118.179-.076.339-.188.47-.33.132-.14.233-.307.304-.5.07-.19.106-.402.106-.631 0-.222-.036-.428-.106-.618a1.518 1.518 0 0 0-.3-.496 1.395 1.395 0 0 0-.468-.333 1.476 1.476 0 0 0-.606-.121 1.399 1.399 0 0 0-1.067.454 1.5 1.5 0 0 0-.3.496 1.743 1.743 0 0 0-.107.618c0 .23.035.44.106.632zm5.61.857c.177.084.35.127.52.127.088 0 .18-.011.272-.034a.72.72 0 0 0 .252-.112.632.632 0 0 0 .182-.197.57.57 0 0 0 .07-.293.476.476 0 0 0-.08-.281.705.705 0 0 0-.211-.194 1.552 1.552 0 0 0-.316-.142l-.382-.127a3.838 3.838 0 0 1-.388-.146 1.29 1.29 0 0 1-.35-.224 1.081 1.081 0 0 1-.25-.342 1.165 1.165 0 0 1-.097-.505c0-.218.045-.405.135-.563.09-.155.212-.288.359-.39a1.59 1.59 0 0 1 .503-.23c.188-.051.379-.076.573-.076.218 0 .44.038.664.115.218.073.417.19.586.345l-.498.545a.925.925 0 0 0-.342-.263 1.03 1.03 0 0 0-.713-.073.815.815 0 0 0-.243.103.572.572 0 0 0-.179.182.5.5 0 0 0-.07.269.48.48 0 0 0 .228.423c.07.049.157.091.258.128.1.036.212.072.333.109.138.044.28.094.428.151.148.057.283.131.406.223.124.093.225.21.304.352.079.141.118.317.118.526 0 .23-.042.43-.127.602-.08.166-.197.312-.34.427a1.449 1.449 0 0 1-.498.255 2.11 2.11 0 0 1-.6.084 2.26 2.26 0 0 1-.819-.154 1.58 1.58 0 0 1-.654-.457l.545-.509c.105.146.246.26.422.346zm6.233-2.954h-1.317v3.62h-.764v-3.62h-1.316v-.666h3.397v.666zm2.687-.666l1.85 4.286h-.874l-.4-.98h-1.862l-.388.98h-.855l1.868-4.286h.66zm.31 2.65l-.662-1.742-.673 1.743h1.334zm4.798-2.587c.19.043.359.112.506.21.148.096.266.223.355.38.089.158.134.35.134.576 0 .31-.088.564-.264.76-.176.195-.416.327-.719.396l1.146 1.9h-.921l-.995-1.816h-.766v1.817h-.764v-4.286h1.7c.202 0 .398.021.588.063zm-1.524.578v1.205h.833c.109 0 .218-.008.327-.024a.942.942 0 0 0 .294-.091.572.572 0 0 0 .215-.19.549.549 0 0 0 .085-.318.487.487 0 0 0-.078-.288.589.589 0 0 0-.2-.178.84.84 0 0 0-.276-.091c-.1-.016-.2-.024-.3-.025h-.9zm3.74-.484h-.262v.736h-.225v-.736h-.262v-.192h.75v.192zm.752.403h.005l.203-.595h.324v.928h-.22l.005-.657h-.004l-.241.657h-.158l-.235-.657H66.1l.005.657h-.211v-.928h.32l.21.595z"/>
    </g>
</svg>
