<svg xmlns="http://www.w3.org/2000/svg" width="70" height="70" viewBox="0 0 70 70">
    <g fill="none" fill-rule="nonzero">
        <path fill="#FECB00" d="M64.376 0H5.568C2.504 0 0 2.493 0 5.538V47.14h69.946V5.538c0-3.045-2.507-5.538-5.57-5.538"/>
        <path fill="gray" d="M0 47.333v16.88c0 3.046 2.504 5.536 5.568 5.536h58.808c3.063 0 5.57-2.49 5.57-5.537V47.333H0z"/>
        <path fill="#444" d="M60.768 22.406c.471 0 .854-.38.854-.85v-4c0-.47-.383-.85-.854-.85H45.655a.852.852 0 0 0-.855.85v4c0 .47.383.85.855.85h15.113z"/>
        <path fill="#444" d="M37.8 15.989c0-3.446 2.81-6.24 6.276-6.24l16.632-.004c.47 0 .855.38.855.85v4.028c0 .47-.384.85-.855.85l-15.206-.002a1.941 1.941 0 0 0-1.946 1.936V35.17c0 .47-.38.851-.852.851h-4.047a.853.853 0 0 1-.856-.85L37.8 15.988zM22.322 16.893a2.813 2.813 0 0 1 2.454-1.428l4.035.002c1.076 0 1.948.867 1.948 1.936l-.003 17.765c0 .47.382.85.854.85h4.047a.854.854 0 0 0 .856-.85V15.985c0-3.446-2.811-6.24-6.276-6.24l-5.474.003a8.58 8.58 0 0 0-7.51 4.403L5.7 34.782a.84.84 0 0 0 .743 1.233l4.68-.001a.84.84 0 0 0 .737-.432l10.463-18.689z"/>
        <path fill="#444" d="M14.1 34.923a.839.839 0 0 0 .741 1.233l4.681-.002a.84.84 0 0 0 .737-.431l7.216-12.892a.84.84 0 0 1 .731-.425h1.132c.473 0 .855-.38.855-.85v-4c0-.47-.382-.85-.855-.85h-4.03c-.644 0-1.205.352-1.497.873l-9.712 17.344z"/>
        <path fill="#FFF" d="M11.035 59.094l-.312-1.715c-.1-.487-.2-1.173-.278-1.693h-.033c-.078.52-.19 1.24-.278 1.703L9.8 59.094h1.235zm-1.078.72l-.4 1.937H8.4l1.669-7.457h1.39l1.547 7.457h-1.157l-.4-1.936H9.956zM14 54.294h3.082v1.029H15.19v2.224h1.768v.984h-1.768v3.22H14zM25.295 61.618c-.323.133-.935.266-1.458.266-.768 0-1.402-.21-1.902-.73-.59-.61-.946-1.682-.935-2.999.022-2.799 1.558-3.86 3.027-3.86.522 0 .923.098 1.156.22l-.233 1.018c-.2-.11-.479-.177-.857-.177-.968 0-1.858.708-1.858 2.81 0 2.025.779 2.711 1.569 2.711.2 0 .322-.022.39-.055V58.73h-.802v-.974h1.903v3.861zM28 58.241h.311c.713 0 1.158-.552 1.158-1.316 0-.73-.3-1.228-1.068-1.239-.156 0-.3.01-.401.044v2.511zm0-3.803c.411-.1.934-.144 1.424-.144.779 0 1.424.133 1.858.542.423.398.567.897.567 1.516 0 .863-.422 1.538-1.18 1.88v.023c.535.188.802.686.958 1.571.155.907.334 1.704.456 1.959h-1.235c-.089-.21-.256-.94-.378-1.815-.145-.973-.423-1.284-1.024-1.284h-.267v3.099H28v-7.347zM34.79 54.294v4.913c0 1.205.379 1.593.846 1.593.524 0 .868-.377.868-1.593v-4.913h1.191v4.713c0 1.925-.768 2.833-2.059 2.833-1.368 0-2.036-.93-2.036-2.777v-4.769h1.19zM40.6 58.33c.089.023.166.023.29.023.777 0 1.212-.53 1.212-1.383 0-.697-.29-1.284-1.09-1.284-.167 0-.312.022-.412.056v2.589zm-1.4-3.892a6.332 6.332 0 0 1 1.39-.144c.79 0 1.435.144 1.88.565.4.375.601.95.601 1.593 0 .752-.211 1.261-.556 1.659-.446.52-1.168.775-1.802.775-.123 0-.223 0-.334-.011v2.91H39.2v-7.347zM46.2 58.33c.09.023.167.023.29.023.779 0 1.213-.53 1.213-1.383 0-.697-.29-1.284-1.09-1.284-.168 0-.313.022-.413.056v2.589zm-1.4-3.892a6.337 6.337 0 0 1 1.39-.144c.79 0 1.436.144 1.88.565.401.375.602.95.602 1.593 0 .752-.212 1.261-.557 1.659-.444.52-1.168.775-1.802.775-.122 0-.223 0-.334-.011v2.91H44.8v-7.347zM53.37 58.355h-1.78v2.367h2.025v1.029H50.4v-7.457h3.082v1.029H51.59v2.047h1.78zM56 61.75v-7.456h1.09l1.268 3.186c.267.675.646 1.637.88 2.357h.022a48.12 48.12 0 0 1-.134-3.43v-2.113h1.046v7.457h-1.09l-1.28-3.176c-.278-.686-.612-1.582-.823-2.367h-.022c.054.863.089 1.914.089 3.463v2.08H56z"/>
    </g>
</svg>
