<svg xmlns="http://www.w3.org/2000/svg" width="70" height="39" viewBox="0 0 70 39">
    <path fill="#FFF" fill-rule="evenodd" d="M68.871 27.19a.691.691 0 0 1-.626-.372.814.814 0 0 1 0-.774.691.691 0 0 1 .626-.373c.38.013.68.35.68.76 0 .41-.3.747-.68.76zm0-1.37a.54.54 0 0 0-.402.175.635.635 0 0 0-.167.433.636.636 0 0 0 .166.436c.107.116.252.18.403.178.312 0 .565-.273.565-.611 0-.338-.253-.611-.565-.611zm.101.635l.213.352h-.12l-.202-.352h-.124v.352h-.104v-.768h.308a.336.336 0 0 1 .173.036c.052.034.079.103.079.168 0 .15-.099.207-.223.212zm-.05-.328h-.183v.23h.115c.099 0 .235.02.235-.117 0-.1-.078-.113-.166-.113zm-3.236 4.992c1.819 1.322 2.38 2.277 2.38 3.925 0 2.42-1.556 3.904-3.843 3.904-1.613 0-2.55-.548-3.056-.548v-2.848h.262c.225 1.241 1.407 2.096 2.662 2.096 1.07 0 1.914-.612 1.914-1.832 0-.833-.376-1.565-1.35-2.297l-1.37-1.017c-1.18-.874-2.174-1.871-2.174-3.661 0-2.115 1.312-3.478 3.487-3.478 1.294 0 1.837.326 2.588.407v2.46h-.263c-.17-.935-1.068-1.687-2.268-1.687-1.126 0-1.632.672-1.632 1.566 0 .773.431 1.383 1.482 2.155l1.18.855zm-7.707 0c1.82 1.322 2.382 2.277 2.382 3.925 0 2.42-1.557 3.904-3.844 3.904-1.613 0-2.55-.548-3.057-.548v-2.848h.263c.225 1.241 1.406 2.096 2.662 2.096 1.07 0 1.913-.612 1.913-1.832 0-.833-.375-1.565-1.35-2.297l-1.37-1.017c-1.18-.874-2.174-1.871-2.174-3.661 0-2.115 1.313-3.478 3.488-3.478 1.294 0 1.837.326 2.587.407v2.46h-.262c-.17-.935-1.07-1.687-2.269-1.687-1.125 0-1.631.672-1.631 1.566 0 .773.43 1.383 1.481 2.155l1.181.855zm-11.963 7.362c.095-.101.114-.63.114-.915V27.193c0-.853-.263-1.3-.545-1.361v-.265h6.581v1.79h-.243c-.057-.305-.618-.509-.975-.509h-2.493v4.515h2.099c.281 0 .938-.082 1.013-.285h.244v1.709h-.244c-.095-.102-.62-.143-.938-.143h-2.174v4.82h2.474c.676 0 1.088-.285 1.163-.61h.243v1.892h-6.319v-.265zm-1.52-17.713l.002-.151c.455.018.71-.273.72-.754-.042.076-.161.15-.289.164-.341.038-.552-.149-.578-.483-.028-.36.185-.661.508-.69.428-.042.664.259.68.753.03.865-.465 1.241-1.043 1.16zm.426-1.769c-.22 0-.241.305-.242.436 0 .238.059.413.24.413.24 0 .242-.326.242-.435 0-.13-.039-.414-.24-.414zm-8.56 7.85c-.208-.408-.601-.956-.957-1.017v-.265h2.999l4.331 8.42v-6.794c0-.853-.206-1.3-.469-1.361v-.265h1.782v13.179h-1.482l-6.205-11.898zm7.181-6.735c0 .37-.261.664-.689.664a.838.838 0 0 1-.374-.077l.006-.157a.702.702 0 0 0 .364.055c.207-.026.362-.216.36-.441 0-.264-.155-.409-.394-.409-.101 0-.195.018-.284.057l.06-.923h.878v.244a.647.647 0 0 0-.182-.026h-.424l-.025.47a.922.922 0 0 1 .21-.014c.304.018.494.243.494.557zm-.258-15.323h-.02l-.2.828h-.122l-.2-.828v.828h-.161V4.573h.241l.18.742.181-.742h.241V5.62h-.14v-.828zm-1.064.828h-.181v-.87h-.24v-.176h.662v.175h-.241v.871zm-5.16-.794c-1.129-.061-2.149-.369-3.572-1.05a22.791 22.791 0 0 1-1.587-.855 9.169 9.169 0 0 1-.544 1.68c-.382.926-.785 1.52-.807 1.55l.507 1.21c.008-.05.195-.93.677-2.06.469-1.142.958-1.876.983-1.91-.007.042-.194.926-.677 2.06-.468 1.139-.956 1.872-.983 1.91l.54 1.29c.01-.057.236-1.126.82-2.5.57-1.385 1.166-2.276 1.196-2.317-.009.052-.234 1.125-.82 2.502-.568 1.383-1.163 2.272-1.195 2.316l.582 1.388c.013-.07.288-1.35.989-2.996.683-1.662 1.395-2.734 1.43-2.783-.01.061-.286 1.347-.99 3-.682 1.657-1.39 2.726-1.429 2.78l.626 1.491c.015-.084.347-1.613 1.184-3.583.82-1.989 1.668-3.27 1.71-3.33-.012.074-.344 1.609-1.186 3.586-.817 1.984-1.66 3.262-1.708 3.328l.68 1.619c.019-.106.427-1.947 1.436-4.316.985-2.395 2-3.944 2.051-4.015-.016.09-.422 1.938-1.435 4.318-.983 2.389-1.997 3.936-2.052 4.014l.734 1.748c.023-.12.545-2.356 1.776-5.253 1.203-2.921 2.416-4.822 2.476-4.91-.02.107-.542 2.35-1.775 5.254-1.201 2.915-2.412 4.814-2.477 4.91l.429 1.02c.14.35.382.567.643.61-.482.763-2.051 2.462-2.412 2.723L28.242 5.401a1.712 1.712 0 0 1-.743.175c-1.125 0-1.988-.937-1.988-2.309C25.51 1.59 26.836 0 29.427 0c.984 0 2.168.239 3.514.783 3.457 1.417 6.328.785 8.176-.783l1.044 2.94c-1.096 1.118-3.197 1.988-5.1 1.885zm-9.622-2.08c-.402 0-.743.37-.743.805 0 .436.34.806.743.806.401 0 .742-.37.742-.806 0-.436-.34-.806-.742-.806zm2.999-.641c-.67-.294-1.47-.329-1.954-.142.404.236.657.77.962 1.534.055.138.29.702.626 1.509.006-.031.114-.6.421-1.32a6.592 6.592 0 0 1 .64-1.214 7.694 7.694 0 0 0-.695-.367zm.695.367c-.005.03-.113.599-.421 1.32a6.575 6.575 0 0 1-.64 1.215l.479 1.144c.006-.04.152-.76.544-1.679a8.9 8.9 0 0 1 .807-1.551c-.281-.163-.537-.315-.769-.449zM25.129 19.02c-.178 0-.304.099-.318.245a.256.256 0 0 0 .072.202c.048.053.125.095.247.158.316.15.441.305.441.589 0 .283-.18.566-.603.566a.698.698 0 0 1-.442-.145v-.182c.126.091.261.15.444.137.154-.011.284-.112.292-.277.008-.166-.089-.252-.294-.36-.32-.16-.445-.289-.442-.567a.537.537 0 0 1 .543-.545.732.732 0 0 1 .395.092l-.001.196a.57.57 0 0 0-.334-.109zm-.603 19.727h-2.643v-.265c.075-.06.131-.63.131-.977v-10.31c0-.854-.262-1.301-.543-1.362v-.265h2.85v11.715c0 .752.13 1.178.205 1.199v.265zM22.901 20.43v-1.285c0-.11 0-.153-.02-.262h.943v.24a.88.88 0 0 0-.208-.022h-.374v.567h.28c.04 0 .115-.003.181-.017v.25a.903.903 0 0 0-.18-.016h-.281v.632h.442c.08 0 .124-.014.18-.03v.247h-.984c.02-.109.02-.217.02-.304zm-6.755 18.517c-2.85 0-4.05-1.728-4.05-4.372v-7.383c0-.853-.263-1.3-.544-1.361v-.265h2.887v9.07c0 .875.094 1.343.263 1.708.374.794 1.05 1.038 1.781 1.038.77 0 1.5-.244 1.875-1.038.169-.365.263-.833.263-1.81v-7.342c0-.853-.263-1.3-.545-1.361v-.265h1.932v8.786c0 1.036-.075 1.606-.225 2.114-.45 1.648-1.669 2.481-3.637 2.481zm-5.925-.61c-.132.062-1.782.652-3.957.652-3.394 0-6.262-2.665-6.262-8.236 0-4.821 2.512-8.015 6.15-8.015 1.781 0 2.624.489 3.15.489.075 0 .112-.02.131-.041h.187v3.275h-.3c-.356-1.668-1.537-2.4-2.85-2.4-2.137 0-3.881 1.932-3.881 6.59 0 4.982 1.931 6.954 3.957 6.954.581 0 .993-.081 1.256-.202v-4.76c0-.691-.169-1.566-.863-1.729v-.284h3.413v.264c-.094.061-.131.996-.131 1.404v6.039zm16.053-19.214c-.06 0-.12 0-.18.022v-.262h1.264v.262c-.06-.022-.12-.022-.18-.022h-.281v1.307c0 .087 0 .195.02.304h-.382c.02-.109.02-.217.02-.304v-1.308l-.281.001zm6.597 14.862v-6.793c0-.853-.207-1.3-.47-1.361v-.265h1.783v13.179h-1.482l-6.206-11.898c-.207-.407-.6-.955-.957-1.016v-.265h3l4.332 8.42zm-6.507-5.613l1.313 2.624v6.407c0 .508.094 1.016.187 1.077v.265h-1.612v-.265c.093-.101.112-.875.112-1.017v-9.091zm2.36-7.849v.228a.324.324 0 0 0-.12-.017h-.201c-.04 0-.089 0-.12.015v-.226c.038.012.079.017.12.016h.2c.041 0 .082-.006.121-.016zm-.663-.464v-1.067c0-.022 0-.065-.02-.109h.442c.402 0 .643.152.643.61 0 .392-.241.676-.583.676h-.502c.02-.044.02-.088.02-.11zm.281-.062h.12c.222 0 .362-.139.362-.508 0-.3-.14-.439-.321-.439h-.16v.947zm12.342-.868v-.247h1.118l-.783 1.852h-.355l.722-1.633h-.521a.458.458 0 0 0-.181.028zm-9.029 2.651L27.56 6.731c-.04-.153-.12-.437-.12-.567 0-.175.12-.283.28-.283a.26.26 0 0 1 .262.196l4.398 14.572c4.701-4.117 7.211-9.214 6.77-15.509.642-.152 1.465-.48 1.947-.784 1.104 6.709-.963 12.851-5.984 17.425h-3.457zm7.598-2.771l.455-.17v1.59c0 .086 0 .195.02.305h-.359c.02-.11.02-.219.02-.305V19.29a.334.334 0 0 0-.136-.281zm-3.024 9.363l1.313 2.624v6.407c0 .508.093 1.016.187 1.077v.265h-1.612v-.265c.094-.101.112-.875.112-1.017v-9.091z"/>
</svg>
