<svg xmlns="http://www.w3.org/2000/svg" width="70" height="57" viewBox="0 0 70 57">
    <path fill="#FFF" fill-rule="evenodd" d="M70 18.04H55.137c.092-1.716 1.41-3.074 3.025-3.074v-7.17C44.432 7.279 38.007 2.446 35.05 0c-2.957 2.445-9.4 7.278-23.13 7.797v7.169c1.614 0 2.933 1.358 3.024 3.075H0v19.823h13.89c0 .633-.311 2.51-4.043 2.957C12.405 43.356 27.31 57 35.05 57c7.74 0 22.685-13.644 25.242-16.179-3.49-.41-4.043-2.063-4.043-2.957H70V18.041zm-56.563-4.298l.003-4.472c12.424-.696 18.555-4.718 21.61-7.19 3.277 2.507 9.168 6.494 21.592 7.19l-.006 4.472c-1.69.658-2.91 2.262-2.968 4.299h-1.491c.048-2.306 1.216-4.196 2.94-5.299l.005-2.025C45.089 9.955 38.539 6.6 35.05 4.011c-3.046 2.413-9.171 5.646-20.089 6.706l.004 2.025c1.724 1.103 2.892 2.993 2.94 5.299h-1.491c-.057-2.037-1.286-3.641-2.977-4.3zm37.387 2.476v1.823h-1.623v-1.432c0-.448-.5-.653-.726-.653H46.92v2.085h-1.624v-7.694l3.905.876c.553.13 1.623.521 1.623 1.678v1.248c0 .447-.052.839-.57 1.119.242.148.57.651.57.95zm-6.91-4.585v4.697c.018.578-.294 1.71-1.71 1.71h-2.125c-.708 0-1.624-.406-1.624-1.785V9.396c0-.82.777-1.343 1.642-1.006l2.833 1.174c.69.298 1.002.95.984 2.07zM32.098 9.49V7.55l2.952-1.733 3.094 1.827v1.938l-2.142-1.249v9.708h-1.761V8.222l-2.143 1.267zm-.207-.093v6.86c0 1.378-.916 1.785-1.624 1.785h-2.125c-1.416 0-1.728-1.133-1.71-1.711v-4.697c-.018-1.119.294-1.771.985-2.069L30.25 8.39c.864-.337 1.64.185 1.64 1.006zm-9.312 8.645l-1.33-3.072v3.072h-1.624v-6.464l1.624-.317 1.278 2.944 1.417-3.56 1.52-.429v7.826h-1.623v-3.183l-1.262 3.183zm34.258 23.451C52.759 45.966 40.44 55.285 35.05 55.285c-5.39 0-17.67-9.32-21.747-13.793 2.107-1.007 2.452-2.472 2.59-3.628h1.693c-.103 1.08-.31 2.808-1.692 3.851 1.59 1.641 13.49 11.93 19.156 11.93 5.667 0 17.606-10.289 19.195-11.93-1.382-1.043-1.59-2.77-1.693-3.85h1.693c.138 1.155.484 2.62 2.592 3.627zM21.1 42.532c.093.066 3.74 3.135 3.74 3.135v1.867s-5.13-4.135-5.285-4.235c-.186-.133-.433-.6-.495-.933-.061-.335 0-3.003 0-3.302 0-.301.31-1.2.742-1.2h3.988v1.767h-2.38c-.372-.034-.588.1-.588.466v1.968c0 .134.155.4.278.467zm3.647-4.668h1.668l.897 3.002 1.453-3.002h1.576l-2.257 5.27v6.302c0 .3-1.576-.633-1.607-.867-.062-.234 0-5.502 0-5.502l-1.73-5.203zm7.792 11.433c.092.2 2.132 1.234 2.132 1.234v2.067s-3.276-1.5-3.586-1.833a1.36 1.36 0 0 1-.37-.934V39.359c0-.634 1.174-1.495 1.452-1.495h2.412v1.895c0 .066-1.391.066-1.731 0-.186-.032-.433.234-.433 1.168v7.736c0 .167 0 .468.124.634zm6.953-.5v1.8s-2.72 1.301-3.152 1.535c-.248.133-.526-.1-.526-.501V37.864h1.855v11.733l1.823-.8zm3.986-6.333V44h-1.731V47.7l2.102-1.068v1.635l-2.782 1.5c-.34.167-.773 0-.773-.333V38.53a.64.64 0 0 1 .618-.665h3.246v1.9h-2.411v2.7h1.73zm5.344.13s-2.72.067-3.215 0c-.463-.067-.649-.167-.649-.534 0-.333-.03-2.535 0-3.167.062-.635.99-.964 1.422-1.029.403-.033 4.08 0 4.08 0v1.728h-3.925c-.155 0-.124 1.434 0 1.434h3.523c.495 0 .433.134.433.367v2.135c0 .233-.31.5-.433.633-.092.1-5.255 3.468-5.255 3.468v-1.5s4.112-2.802 4.143-3c.061-.3-.124-.535-.124-.535zm19.693-6.396H1.555V19.945h66.96v16.253zm-40.08-25.143l1.314-.56c.241-.111.518 0 .518.411v4.77c0 .318-.139.58-.501.58h-1.192c-.38 0-.518-.206-.518-.542v-3.802c0-.41.034-.67.38-.857zm13.855.857v3.802c0 .336-.137.541-.518.541H40.58c-.362 0-.5-.261-.5-.578v-4.77c0-.412.276-.523.517-.412l1.314.56c.345.186.379.447.379.857zm6.565.932c.346.075.346.43.346.746s-.052.614-.363.614H46.92v-1.79l1.935.43zM3.11 21.437V34.52h63.884V21.437H3.11zM9.07 32.992H7.663v-4.375H6.552v4.375H5.145V22.801h1.407v4.076h1.11V22.8H9.07v10.191zm3.275 0l-.248-2.65h-1.03l-.287 2.65H9.505l1.075-10.191h2.109l1.075 10.191h-1.42zm5.889-6.998c0 .757-.128 1.351-.633 1.783.073.09.615.48.632 1.17v4.045h-1.406v-3.408c0-.616-.241-.812-1.138-.812v4.22h-1.406V22.801h2.323c1.129 0 1.628.429 1.628 1.746v1.447zm3.648 6.998h-2.835V22.801h1.407v8.58h1.428v1.611zm3.404 0h-2.932V22.801h2.906v1.592h-1.5v2.49h1.434v1.61h-1.434v2.889h1.526v1.61zm3.263 0h-1.407v-3.807l-1.446-6.384h1.446l.758 3.56.781-3.56h1.314l-1.446 6.313v3.878zm3.585-4.492h-2.574v-1.285h2.574V28.5zm4.432 2.646c0 .974-.584 1.846-1.672 1.846h-2.004V22.801h1.699c1.393 0 1.977.515 1.977 2.305v6.04zm3.212 1.846l-.248-2.65H38.5l-.288 2.65h-1.274l1.075-10.191h2.11l1.074 10.191h-1.42zm3.871 0h-1.573l-1.32-10.191h1.433l.683 6.129.681-6.13h1.417l-1.32 10.192zm3.125 0h-1.407V22.801h1.407v10.191zm4.51-1.846c0 .974-.584 1.846-1.672 1.846h-2.003V22.801h1.699c1.392 0 1.976.515 1.976 2.305v6.04zm4.577-4.885h-1.407v-1.422c0-.517-.283-.63-.562-.63-.292 0-.558.113-.558.63v1.129c0 .73 2.51 2.02 2.51 3.052v2.455c0 1.332-1.09 1.718-1.965 1.718-.862 0-1.935-.386-1.935-1.718v-2.217h1.406v1.809c0 .516.25.63.542.63.279 0 .546-.114.546-.63v-1.073c0-1.432-2.511-1.829-2.511-3.489v-2.187c0-1.331 1.09-1.717 1.952-1.717.876 0 1.982.386 1.982 1.717v1.943zm4.567 5.214c0 1.332-1.133 1.718-1.996 1.718s-1.97-.386-1.97-1.718v-7.157c0-1.331 1.107-1.717 1.97-1.717s1.996.386 1.996 1.717v7.157zm4.828 1.517h-1.72l-1.119-5.801v5.801h-1.413V22.801h1.902l.92 5.182v-5.182h1.43v10.191zM11.234 28.62l.327-3.957h.093l.274 3.957h-.694zm4.454-4.415h.556c.319 0 .53.245.53.632v1.53c0 .37-.106.825-.596.825h-.49v-2.987zm18.608.205h.332c.357 0 .53.1.53.759v5.458c0 .658-.173.759-.53.759h-.332v-6.976zm4.371 4.21l.328-3.957h.092l.275 3.957h-.695zm10.347-4.21h.332c.359 0 .531.1.531.759v5.458c0 .658-.172.759-.53.759h-.333v-6.976zm8.854 6.454v-5.987c0-.516.284-.63.576-.63s.576.114.576.63v5.987c0 .514-.284.63-.576.63s-.576-.116-.576-.63z"/>
</svg>
