<svg xmlns="http://www.w3.org/2000/svg" width="70" height="34" viewBox="0 0 70 34">
    <path fill="#FFF" fill-rule="evenodd" d="M66.74 31.678L70 33.801h-2.523l-3.103-2.083h-2.72v2.083h-2.072v-6.01h6.421c1.323 0 1.988.087 2.526.342.605.289.937.803.937 1.606 0 .601-.251 1.18-.779 1.488-.508.296-1.168.423-1.947.451zm.654-1.971c0-.431-.08-.71-.304-.89-.237-.192-.58-.27-1.357-.27h-4.08v2.413h4.106c.66 0 1.025-.043 1.285-.236.264-.199.35-.515.35-.904v-.113zm-5.938-8.043c.482.389.678.845.737 1.32 0 0-.606 1.04-1.144 1.308-1.518.754-2.66-.627-3.9-1.902-.906-.935-1.203-1.046-1.737-1.349-1.227-.7-2.437-.636-3.922-.54l-2.435.238c-5.383.511-6.934-3.689-8.156-5.804-.3-.518-1.291-1.307-2.377-1.395 0 0-.635-.026-1.442.087-4.648.649-6.422.324-8.313-.346-1.183 1.56-4.324.677-4.324.677-1.056-.3-5.746-2.073-6.277-2.258-.812-.286-1.117.595-1.117.595-.835 1.987-2.565 2.134-2.582 2.152 0 0-1.832-.688-.936-2.684.345-.765 1.528-2.645 3.372-3 .646-.125 1.492-.308 2.203-.37-2.489-2.151-3.954-1.71-4.043-1.699 0 0-1.34.254-2.295 1.2-.349.343-.6.764-.93 1.257 0 0-.17.328-.62.299-.653-.044-1.327-.538-1.327-.538-.157-.124-.095-.395-.022-.537.048-.084.122-.227.122-.227a7.078 7.078 0 0 1-.115-.402c-.054-.238-.044-.297-.044-.297s.38.232.585.232c.058 0 .086-.011.086-.011.304-.1.587-.752.598-.822.257-.92-.051-1.566-.31-1.764-.324-.242-.727-.05-.883.119-.18.188-.343.56-.425.856 0 0-.07.25-.04.51.03.236.232.628.291.828 0 0-.471.009-.762-.302 0 0-.046.086-.26.127-.58.109-.992-.346-1.195-.609-.141-.178-.247-.477-.361-.678a.989.989 0 0 0-.184-.205c-.288-.288-.132-.701.008-.946.4-.676 1.184-1.435 1.184-1.435.059-.063.03-.158.03-.158-.141-.331.108-.637.108-.637C9.762.262 14.427.038 14.427.038c8.999-.576 21.889 5.546 21.889 5.546 6.663 2.851 11.196 5.308 11.196 5.308 3.952 2.101 11.724 6.91 14.141 8.04 0 0 1.254.584 2.825.081.731-.233 1.223-.768 1.655-.865 0 0 .911-.259 1.243.538.118.285.084.756-.227 1.286-1.204 2.275-4.315 2.046-5.693 1.692zM11.016 4.732c.166.126.307.329.41.583-.242-.886-.766-.865-.876-.85 0 0-.168.01-.273.095a.933.933 0 0 1 .739.172zM8.372 3.506c-.006.01-.016.017-.025.026A7.948 7.948 0 0 0 7.149 4.98S8.172 3.8 8.564 3.62a.612.612 0 0 1-.164-.147c-.01.01-.018.022-.028.033zM36.169 5.98l-.007-.002-.009-.002C36.03 5.914 23.25-.098 14.451.466c-.021 0-.806.044-1.812.245.63-.067 1.5-.11 2.627-.054l.63.03s-.2.404-.26.522c.52-.27 1.19-.507 1.956-.507h.009c.186.006 3.992.128 7.17 2.56l-.447-.785.81.101c.01 0 .213.025.746.12.14.019 2.108.315 6.611 1.994.03.01 3.465 1.232 5.333 2.034l1.387.594c-.954-.43-1.971-.88-3.042-1.34zm30.58 12.957c-.404-.434-1.328.333-1.837.542 0 0-1.566.667-3.828-.431 0 0-8.168-4.604-8.975-5.078-4.516-2.661-11.6-5.627-14.428-6.845-1.881-.807-5.32-2.027-5.32-2.027-4.588-1.713-6.541-1.976-6.541-1.976-.534-.094-.73-.119-.73-.119l.216.378c.511.905.654 1.545.654 1.545-3.25-3.676-8.368-3.794-8.368-3.794-1.64-.001-2.821 1.198-2.821 1.198-.122.169.127.227.127.227 1.998.654 3.176 3.181 3.176 3.181C15.612 3.6 14.16 3.321 14.16 3.321c-1.606-.255-1.618-.966-1.618-.966 1.48.352 2.375-.599 2.6-1.06l.106-.212c-2.553-.125-3.748.264-3.748.264C9.08 1.953 8.708 2.656 8.61 2.82c-.11.179-.126.764.505.609 0 .001.253-.947.998-1.089 0 0 .37-.054 1.127-.043 0 0-.53 1.264-1.653 1.468 0 0-.407.064-.531.08-.12.017-1.004.184-1.459 1.33 0 0-.245.512.093.904l.046.055s.28.368.65.382c.033.002.134.004.19-.007.125-.025.367-.15.604-.705 0 0 .386-.931.569-1.236 0 0 .214-.473.745-.529 0 0 1.092-.192 1.383 1.46.14.823.003 1.443-1.146 2.713 0 0-.165.174-.37.348 0 0-.067.058-.08.148-.008.042.003.107.044.13 0 0 .53.293.774.256.241-.038.184-.07 1.271-1.56 0 0 1.56-.46 1.573-1.914a6.751 6.751 0 0 0-.041-.592c-.037-.304-.136-.79-.397-1.175 0 0 .73.028 1.468 1.39.019.034.038.066.056.102 0 0 .248.697.778.77 0 0 1.264.185 2.864 1.24.372.245 1.346.937 1.408.961-.217-.655-.353-1.43-.106-2.351l.002.005c.015.053.025 2.843 4.482 4.262-2.1-.22-2.979-1.076-4.381-1.285-.537-.08-1.242-.015-2.087.072-1.934.191-2.988.817-4.023 2.77-.743 1.402.586 2.257.586 2.257.163-.065.355-.142.557-.248-.339-.05-1.41-.748-.387-2.33 0 0-.648 1.63.978 1.946.308-.204.92-.86.93-1.422.223-.382.649-1.019 1.883-.619 5.253 1.574 5.694 1.71 6.068 1.79 3.51.767 3.84-1.136 3.84-1.136.477-1.784-1.536-4.51-1.536-4.51 3.235 2.788 7.849 2.762 7.849 2.762-2.835.622-5.82-.468-6.289-.63 0 0 .85 1.35.568 2.666 0 0 2.066 1.643 8.138.707 1.41-.217 1.93.043 1.93.043.073-.77-1.178-1.934-1.178-1.934 1.273.58 2.532 2.345 2.768 2.685.153.209.312.466.49.786.51.92 2.446 5.333 7.055 4.958l2.367-.134s3.224-.303 4.662.773c.946.708 1.01.833 1.567 1.33.734.658 2.042 2.435 3.376 2.515.394.023.77-.125 1.156-.472-1.276.4-2.022-.446-2.122-.553 1.424.411 2.018.275 2.496-.243.031-.479-.573-.975-.943-1.179-1.064-.579-1.458-1.17-1.996-1.75-.451-.49-1.185-1.604-1.613-1.993-.463-.422-1.092-.913-2.5-.889-1.432.022-3.1.04-3.595-.05-.516-.092-.814-.17-1.29-.584-.384-.333-.638-.71-.863-1.136-.224-.423-.432-1.001-.845-1.796-.286-.549-.791-.982-.791-.982.658.451 1.002.663 1.486 1.433 1.005 1.61 1.761 2.069 2.388 2.295.937.336 3.43.41 4.451.558.98.142 1.57.778 1.81 1.05.544.607 1.133 1.221 1.613 1.763 1.52 1.716 3.254 1.907 3.258 1.907.895.158 2.446.064 3.19-.296.708-.34 1.29-.928 1.408-1.37.1-.295.072-.597-.137-.821zM14.368 2.593l-.001-.012c-.196.096-.4.168-.61.214.135.037.282.071.46.101h.012c.042.009.695.147 1.83.833-.373-.326-.799-.604-1.274-.761-.102-.03-.331-.12-.418-.375zm-5.013.816c.091-.003.315-.06.315-.06.573-.108.719-.613.719-.613-.298 0-.491.013-.491.013-.334.037-.468.434-.481.47l-.062.19zm4.537-1.976c.134 0 .492.004.717.006.014 0-.097.076-.27.164-.243.122-.607.266-.93.26l-.206-.005c-.125-.006-.205-.015-.203-.035.003-.033.31-.39.892-.39zM8.88 27.79v2.932c0 .948-.201 1.523-.618 1.984-.728.805-2.123 1.096-4.098 1.096H0v-.807h3.834c1.176 0 1.97-.21 2.45-.723.363-.387.527-.927.527-1.73V27.79h2.07zm7.811 0l4.83 6.012H19.2l-1.02-1.28h-6.136l-1.017 1.28h-1.2l4.825-6.012h2.04zm.869 3.955l-2.453-3.08-2.447 3.08h4.9zm9.007-3.955h5.818v.803h-5.173c-1.109 0-1.713.18-2.173.585-.41.36-.627.897-.627 1.617 0 .746.23 1.295.667 1.655.46.38 1.083.548 2.15.548l3.306.001V31.04h2.061v2.76h-5.993c-1.123 0-2.008-.14-2.677-.431-1.113-.486-1.622-1.373-1.622-2.585 0-1.145.554-1.94 1.26-2.367.75-.454 1.595-.628 3.003-.628zM36.953 30.7c0 .781.091 1.24.356 1.643.448.682 1.221.928 2.612.928h.176c1.454 0 2.164-.246 2.612-.928.265-.404.356-.883.356-1.64v-2.914h2.071v2.996c0 .775-.079 1.389-.44 1.9-.59.835-1.668 1.314-4.677 1.314l-.031.001c-2.993 0-4.078-.48-4.666-1.313-.361-.513-.44-1.127-.44-1.901V27.79h2.071v2.91zm15.962-2.91l4.83 6.01h-2.323l-1.02-1.28h-6.136l-1.017 1.28h-1.2l4.824-6.01h2.042zm.868 3.954l-2.454-3.08-2.446 3.08h4.9z"/>
</svg>
