<svg xmlns="http://www.w3.org/2000/svg" width="91" height="91" viewBox="0 0 91 91">
    <g fill="none" fill-rule="evenodd">
        <path stroke="#323232" d="M81.91 91V63v28zm-8.091-48c4.713 0 8.09-2.94 8.09-7.2v-3.6c0-4.26-3.375-7.2-8.09-7.2-4.716 0-8.092 2.94-8.092 7.2v3.6c0 4.26 3.375 7.2 8.092 7.2zM9.09 91V63v28zm8.09-48c-4.713 0-8.09-2.94-8.09-7.2v-3.6c0-4.26 3.375-7.2 8.09-7.2 4.716 0 8.092 2.94 8.092 7.2v3.6c0 4.26-3.375 7.2-8.092 7.2zm10.114-24c-4.715 0-8.09-2.94-8.09-7.2V8.2c0-4.26 3.375-7.2 8.09-7.2 4.716 0 8.09 2.94 8.09 7.2v3.6c0 4.26-3.374 7.2-8.09 7.2zm36.41 0c-4.716 0-8.09-2.94-8.09-7.2V8.2c0-4.26 3.374-7.2 8.09-7.2 4.715 0 8.09 2.94 8.09 7.2v3.6c0 4.26-3.375 7.2-8.09 7.2zM81.91 83c3.934 0 8.09-2.11 8.09-6V59c0-6.607-11.88-10-18.203-10-.626 0-1.308.033-2.024.1M9.09 83C5.157 83 1 80.89 1 77V59c0-6.607 11.88-10 18.203-10 .626 0 1.308.033 2.024.1"/>
        <path stroke="#1476F2" d="M45.5 37c-4.715 0-8.09-2.94-8.09-7.2v-3.6c0-4.26 3.375-7.2 8.09-7.2s8.09 2.94 8.09 7.2v3.6c0 4.26-3.375 7.2-8.09 7.2zm12.136 54V57v34zM57.636 79c4.371 0 8.09-4.11 8.09-8V53c0-6.607-13.198-10-20.226-10-7.028 0-20.227 3.393-20.227 10v18c0 3.89 3.72 8 8.091 8M33.364 57v34"/>
    </g>
</svg>
