<svg xmlns="http://www.w3.org/2000/svg" width="92" height="80" viewBox="0 0 92 80">
    <g fill="none" fill-rule="evenodd">
        <path stroke="#323232" d="M73.392 55h3.913C84.868 55 91 48.733 91 41c0-7.732-6.132-14-13.695-14-1.455 0-2.853.233-4.167.664.167-.878.252-1.77.254-2.665 0-7.733-6.134-14.001-13.697-14.001-3.29 0-6.468 1.213-8.945 3.415C48.083 6.608 40.837 1 32.293 1 21.487 1 12.727 9.956 12.727 21.004c0 2.11.321 4.14.915 6.05C6.572 27.606 1 33.633 1 41c0 7.73 6.132 14 13.695 14h3.913m-4.97-27.958c2.91-.234 5.817.491 8.29 2.069m28.855-14.712c.5 1.462.84 3.001.995 4.595m21.365 8.672a14.146 14.146 0 0 1-1.708 4.55"/>
        <path stroke="#1476F2" stroke-linejoin="round" d="M69.228 49.218l-3.1-7.648-4.55 1.552a19.486 19.486 0 0 0-4.508-4.602l1.517-4.658-7.48-3.168-2.149 4.39a18.87 18.87 0 0 0-6.37-.005l-2.146-4.383-7.48 3.166 1.515 4.65a19.497 19.497 0 0 0-4.504 4.613l-4.556-1.553-3.097 7.646 4.295 2.195a20.155 20.155 0 0 0-.003 6.515l-4.292 2.194 3.1 7.646 4.55-1.548a19.515 19.515 0 0 0 4.508 4.6l-1.516 4.658 7.48 3.168 2.148-4.39c2.08.356 4.228.37 6.37.003l2.147 4.387 7.48-3.168-1.515-4.653a19.497 19.497 0 0 0 4.501-4.61l4.555 1.553 3.1-7.647-4.295-2.195a20.15 20.15 0 0 0 .004-6.514l4.291-2.194z"/>
        <path stroke="#1476F2" stroke-linejoin="round" d="M53.827 55.001C53.827 59.42 50.322 63 46 63S38.173 59.419 38.173 55c0-4.418 3.505-8 7.827-8s7.827 3.582 7.827 8z"/>
    </g>
</svg>
