<svg xmlns="http://www.w3.org/2000/svg" width="92" height="85" viewBox="0 0 92 85">
    <g fill="none" fill-rule="evenodd">
        <path stroke="#323232" d="M85.13 84H6.87C3.628 84 1 81.407 1 78.21v-3.861h35.217l1.956 1.93h15.654l1.956-1.93H91v3.86C91 81.408 88.372 84 85.13 84zM6.87 74.349v-5.79 5.79z"/>
        <path stroke="#1476F2" d="M38.173 45.395v15.443a3.87 3.87 0 0 1-1.153 2.737 3.901 3.901 0 0 1-2.758 1.123H4.912a3.901 3.901 0 0 1-2.759-1.123A3.87 3.87 0 0 1 1 60.838V4.861a3.87 3.87 0 0 1 1.153-2.738A3.901 3.901 0 0 1 4.913 1h29.349a3.901 3.901 0 0 1 2.759 1.123 3.87 3.87 0 0 1 1.152 2.738v28.952"/>
        <path stroke="#1476F2" stroke-linejoin="round" d="M1 53.116h37.173m0-42.465H1m15.652 48.256h5.87"/>
        <path stroke="#323232" d="M42.087 22.233h39.13a3.901 3.901 0 0 1 2.76 1.122 3.87 3.87 0 0 1 1.153 2.738v48.256"/>
        <path stroke="#1476F2" d="M55.783 39.605H20.567m5.866 5.79l-5.866-5.79 5.866-5.792m23.48 11.582l5.87-5.79-5.87-5.792"/>
    </g>
</svg>
