<svg xmlns="http://www.w3.org/2000/svg" width="90" height="96" viewBox="0 0 90 96">
    <g fill="none" fill-rule="evenodd">
        <path stroke="#323232" d="M45 0v18.19V0zM22.5 5.957l9.205 15.756L22.5 5.957zM6.028 22.234l15.944 9.095-15.944-9.095zM0 44.469h18.41H0zm6.028 22.233l15.944-9.095-15.944 9.095zm77.944 0l-15.944-9.095 15.944 9.095zM90 44.47H71.59 90zm-6.028-22.235l-15.944 9.095 15.944-9.095zM67.5 5.957l-9.205 15.756L67.5 5.957z"/>
        <path stroke="#1476F2" d="M32.726 76.81h24.548m-24.548 8.083h24.548M32.726 44.47c0-6.7 5.496-12.129 12.274-12.129"/>
        <path stroke="#323232" d="M38.864 50.531L45 56.595l6.136-6.064M45 56.595v14.15"/>
        <path stroke="#1476F2" d="M53.181 92.979h-2.045L49.09 95h-8.182l-2.047-2.021H36.82m18.407-22.234v-2.023c0-3.649 1.285-7.014 3.851-9.602 3.865-3.895 6.378-8.714 6.378-14.651 0-11.164-9.16-20.214-20.455-20.214-11.298 0-20.453 9.05-20.453 20.214 0 5.937 2.513 10.756 6.376 14.65 2.566 2.587 3.85 5.954 3.85 9.605v2.021"/>
    </g>
</svg>
