<?xml version="1.0" encoding="UTF-8"?>
<svg width="70px" height="70px" viewBox="0 0 70 70" version="1.1" xmlns="http://www.w3.org/2000/svg" xmlns:xlink="http://www.w3.org/1999/xlink">
    <!-- Generator: Sketch 50.2 (55047) - http://www.bohemiancoding.com/sketch -->
    <title>button2 copy</title>
    <desc>Created with Sketch.</desc>
    <defs></defs>
    <g id="Copy-from-here" stroke="none" stroke-width="1" fill="none" fill-rule="evenodd">
        <g id="button2-copy">
            <circle id="Oval-Copy-3" fill="#17CA8E" opacity="0.8" cx="35" cy="35" r="35"></circle>
            <path d="M28.6667776,40.3332224 C37.3329451,48.99939 45.6106813,50.8331254 48.6662785,51 C50.618806,48.1386185 51.444694,45.777861 52,43.6660012 C49.8881402,41.610709 46.8155727,39.5139339 43.9994454,38.3335552 L40.6666667,41.6663339 C39.5277708,41.3608685 36.4024069,40.0692399 32.6670549,36.3329451 C28.9307601,32.5975931 27.6391315,29.4722292 27.3336661,28.3333333 L30.6664448,24.9996118 C29.4860661,22.1844273 27.389291,19.110917 25.333056,17 C23.222139,17.555306 20.8613815,18.381194 18,20.3337215 C18.1668746,23.3893187 20.00061,31.6670549 28.6667776,40.3332224 Z" id="Stroke-1-Copy-3" fill="#FFFFFF" transform="translate(35.000000, 34.000000) scale(-1, 1) translate(-35.000000, -34.000000) "></path>
        </g>
    </g>
</svg>