<svg height="50" width="37" xmlns="http://www.w3.org/2000/svg" viewBox="0 0 37 50"><path fill="#fff" fill-rule="evenodd" d="M28.27 0H3.06C1.37 0-.01 1.38-.01 3.07v43.86c0 1.69 1.38 3.07 3.07 3.07h30.87c1.7 0 3.07-1.38 3.07-3.07V9.48L28.27 0zm.72 4.59l3.83 4.16h-3.83V4.59zm5.44 42.34a.5.5 0 0 1-.5.49H3.06a.49.49 0 0 1-.49-.49V3.07c0-.27.22-.49.49-.49h23.35v7.45c0 .71.58 1.29 1.29 1.29h6.73v35.61zM7.12 13.7h21.9c.53 0 .96.43.96.96s-.43.97-.96.97H7.12c-.53 0-.96-.44-.96-.97s.43-.96.96-.96zm22.86 7.44c0 .54-.43.97-.96.97H7.12c-.53 0-.96-.43-.96-.97 0-.53.43-.96.96-.96h21.9c.53 0 .96.43.96.96zm0 6.27c0 .54-.43.97-.96.97H7.12c-.53 0-.96-.43-.96-.97 0-.53.43-.96.96-.96h21.9c.53 0 .96.43.96.96zm0 6.38c0 .53-.43.96-.96.96H7.12a.96.96 0 0 1-.96-.96c0-.53.43-.97.96-.97h21.9c.53 0 .96.44.96.97z"/></svg>