<svg xmlns="http://www.w3.org/2000/svg" preserveAspectRatio="xMidYMid" width="166" height="45" viewBox="0 0 166 45"><defs><style>.cls-1{fill:#fff;fill-rule:evenodd}</style></defs><path d="M163.905 25.718c0 .439.092.753.274.941.183.189.428.283.737.283.161 0 .3-.009.416-.026.115-.017.251-.047.405-.089l.263 2.208c-.309.105-.61.183-.905.235a5.422 5.422 0 0 1-.958.079c-1.059 0-1.875-.29-2.447-.868-.572-.58-.858-1.497-.858-2.753v-5.776h-1.663v-2.146h1.663v-2.773h3.073v2.773h1.916v2.146h-1.916v5.766zm-5.414-10.716a4.263 4.263 0 0 0-.553-.032c-.498 0-.876.137-1.131.409-.257.272-.385.663-.385 1.171v1.256h2.263v2.146h-2.263v9.177h-3.073v-9.177h-1.695v-2.146h1.695V16.55c0-1.269.368-2.248 1.105-2.935.737-.687 1.772-1.031 3.105-1.031.26 0 .524.02.794.058.271.039.567.093.89.162l-.263 2.271a15.812 15.812 0 0 0-.489-.073zm-13.204 14.347c-1.684 0-3.002-.535-3.952-1.606-.951-1.071-1.426-2.458-1.426-4.16v-.22c0-1.688.473-3.071 1.42-4.149.948-1.078 2.26-1.617 3.937-1.617 1.684 0 3.003.537 3.957 1.612.954 1.074 1.432 2.459 1.432 4.154v.22c0 1.702-.476 3.089-1.426 4.16-.952 1.071-2.265 1.606-3.942 1.606zm2.294-5.991c0-1.003-.186-1.822-.558-2.455-.371-.634-.957-.951-1.757-.951-.793 0-1.374.318-1.742.956-.369.637-.553 1.454-.553 2.45v.22c0 1.03.183 1.858.548 2.481.364.624.954.935 1.768.935.793 0 1.373-.313 1.741-.94.369-.627.553-1.453.553-2.476v-.22zm-13.324-.937c1.403.279 2.445.69 3.126 1.23.68.54 1.02 1.285 1.02 2.234 0 1.019-.438 1.851-1.315 2.496s-2.035.968-3.473.968c-1.516 0-2.714-.382-3.595-1.146-.881-.764-1.3-1.634-1.257-2.611l.021-.062h2.81c.021.606.221 1.046.6 1.318s.873.408 1.484.408c.568 0 1.001-.112 1.3-.335.297-.223.447-.526.447-.91 0-.335-.163-.625-.489-.869-.327-.244-.932-.46-1.816-.648-1.347-.273-2.363-.676-3.047-1.21-.684-.533-1.026-1.26-1.026-2.181 0-.977.412-1.805 1.237-2.486.824-.68 1.927-1.02 3.309-1.02 1.453 0 2.609.339 3.469 1.015.859.677 1.271 1.532 1.236 2.564l-.021.063h-2.968c0-.454-.146-.823-.437-1.109-.291-.287-.717-.43-1.279-.43-.498 0-.889.121-1.173.361a1.14 1.14 0 0 0-.426.906c0 .349.149.634.447.858.298.223.903.422 1.816.596zm-8.42 6.928c-.8 0-1.423-.251-1.868-.754-.446-.502-.669-1.297-.669-2.385v-7.378h-1.968v-1.026h1.968v-2.898h1.274v2.898h2.504v1.026h-2.504v7.378c0 .739.134 1.264.405 1.574.27.311.63.466 1.079.466.203 0 .401-.009.594-.026a8.96 8.96 0 0 0 .669-.089l.189.931a3.284 3.284 0 0 1-.768.21 5.762 5.762 0 0 1-.905.073zm-7.021-7.702c0-.907-.307-1.631-.921-2.172-.614-.54-1.366-.811-2.258-.811-1.22 0-2.124.434-2.71 1.302-.585.868-.879 1.96-.879 3.277v.439c0 1.338.292 2.439.874 3.304.582.863 1.491 1.296 2.726 1.296.835 0 1.572-.237 2.211-.709.638-.473.957-1.13.957-1.97h1.116l.021.062c.035 1.047-.386 1.923-1.263 2.627-.877.705-1.891 1.057-3.042 1.057-1.55 0-2.749-.529-3.594-1.586-.846-1.056-1.269-2.415-1.269-4.075v-.44c0-1.647.425-3 1.274-4.06.849-1.061 2.042-1.591 3.578-1.591 1.249 0 2.289.366 3.121 1.099.831.733 1.234 1.695 1.206 2.888l-.021.063h-1.127zm-17.924 2.155c0 1.274.34 2.339 1.021 3.195.68.857 1.575 1.285 2.684 1.285.786 0 1.456-.109 2.01-.325a3.95 3.95 0 0 0 1.421-.931l.537.858c-.428.448-.97.804-1.626 1.068-.657.265-1.437.397-2.342.397-1.425 0-2.609-.523-3.552-1.57-.944-1.046-1.416-2.372-1.416-3.976v-.576c0-1.618.468-2.961 1.405-4.029.937-1.067 2.072-1.601 3.405-1.601 1.396 0 2.494.44 3.294 1.319.8.879 1.2 2.051 1.2 3.516v1.067h-8.041v.303zm.116-1.37h6.673v-.313c0-.981-.292-1.802-.874-2.463-.582-.661-1.372-.992-2.368-.992-.933 0-1.716.353-2.347 1.06-.632.706-1 1.591-1.105 2.656l.021.052zm-5.421-9.628h1.253v16.325h-1.253V12.804zm-4.894 0h1.253v16.325h-1.253V12.804zM80 23.802c0 1.274.34 2.339 1.021 3.195.68.857 1.575 1.285 2.684 1.285.785 0 1.456-.109 2.01-.325a3.95 3.95 0 0 0 1.421-.931l.537.858c-.429.448-.97.804-1.626 1.068-.657.265-1.437.397-2.342.397-1.425 0-2.609-.523-3.552-1.57-.944-1.046-1.416-2.372-1.416-3.976v-.576c0-1.618.468-2.961 1.405-4.029.937-1.067 2.072-1.601 3.405-1.601 1.396 0 2.494.44 3.294 1.319.8.879 1.2 2.051 1.2 3.516v1.067H80v.303zm.116-1.37h6.672v-.313c0-.981-.291-1.802-.873-2.463-.583-.661-1.372-.992-2.368-.992-.934 0-1.716.353-2.347 1.06-.632.706-1 1.591-1.106 2.656l.022.052zm-4.6 6.917c-.8 0-1.422-.251-1.868-.754-.446-.502-.668-1.297-.668-2.385v-7.378h-1.969v-1.026h1.969v-2.898h1.273v2.898h2.505v1.026h-2.505v7.378c0 .739.135 1.264.406 1.574.269.311.629.466 1.078.466.204 0 .402-.009.595-.026.193-.017.416-.047.668-.089l.19.931a3.28 3.28 0 0 1-.769.21 5.743 5.743 0 0 1-.905.073zm-7.799-7.119c0-1.301-.244-2.22-.731-2.758-.488-.538-1.181-.808-2.079-.808-.884 0-1.605.233-2.163.698-.558.464-.96 1.082-1.205 1.85v7.917h-1.263V17.806h1.116l.115 1.978c.365-.697.858-1.236 1.479-1.617.621-.38 1.356-.57 2.205-.57 1.235 0 2.175.375 2.821 1.125.645.75.968 1.92.968 3.511v6.896h-1.263V22.23zM55.54 17.806h1.252v11.323H55.54V17.806zm0-5.002h1.252v1.759H55.54v-1.759zM22.63 45C10.184 45 0 34.875 0 22.5S10.184 0 22.63 0c12.447 0 22.63 10.125 22.63 22.5S35.077 45 22.63 45zm-1.81-31.613h-3.734c-.792 0-.905.45-1.132 1.125-.226.675-3.281 11.701-3.507 12.376-.227.787.006 1.124.572 1.124h3.674c.453 0 .848-.343 1.072-1.124.224-.782 3.308-11.697 3.507-12.376.2-.678 0-1.125-.452-1.125zm8.599 1.794h3.392c.408 0 .896-.53.968-1.171.052-.463-.173-.51-.626-.51h-8.826c-.678 0-1.018.45-1.244 1.125-.227.675-3.454 12.315-3.734 13.394-.281 1.079-1.271 1.575-1.95 1.575h-5.066c-.678 0-1.131.84-1.131 1.383 0 .338.226.523.679.523h11.428c1.018 0 1.245-1.125 1.245-1.125l3.734-14.069s.226-1.125 1.131-1.125z" class="cls-1"/></svg>