<?xml version="1.0" encoding="UTF-8"?>
<svg viewBox="0 0 260 260" version="1.1" xmlns="http://www.w3.org/2000/svg" xmlns:xlink="http://www.w3.org/1999/xlink">
    <!-- Generator: sketchtool 46.2 (44496) - http://www.bohemiancoding.com/sketch -->
    <title>AED97235-9BB3-401B-8120-A0EA1BACCEBA</title>
    <desc>Created with sketchtool.</desc>
    <defs></defs>
    <style>
        .line.animated{
            opacity: 1;
            stroke-dasharray: 770;
            stroke-dashoffset: 0;
            -webkit-animation: dash 1s linear forwards;
            -o-animation: dash 1s linear forwards;
            -moz-animation: dash 1s linear forwards;
            animation: dash 1s linear forwards;
        }

        .line{
            opacity: 0
        }

        @-webkit-keyframes dash{
        from{
            stroke-dashoffset: 770;
        }
        to{
            stroke-dashoffset: 0;
        }
        }
        svg{
            padding: 5px;
            box-sizing: border-box;
            overflow: hidden;
        }
    </style>
    <g id="Page-2" stroke="none" stroke-width="1" fill="none" fill-rule="evenodd">
        <g id="IS_Fintech_1200_2" transform="translate(-95.000000, -2185.000000)" stroke-width="2">
            <g id="payment-processing" transform="translate(96.000000, 2186.000000)">
                <path class="line additional" d="M199.361702,72.3431739 L189.760638,49.132087 C187.223404,47.971 185.702128,47.2786087 183.164894,46.1175217 L171.787234,49.9096957 C169.62234,49.2332826 168.079787,48.7486087 165.914894,48.0668696 C161.734043,42.7354565 156.968085,38.0005652 151.744681,33.9048043 C151.069149,31.7317609 150.585106,30.1871957 149.904255,28.0194783 L153.696809,16.611 C152.537234,14.0704565 151.845745,12.5525217 150.68617,10.0119783 L127.510638,0.398391304 C124.893617,1.37306522 123.329787,1.95893478 120.718085,2.9336087 L115.345745,13.6816522 C113.329787,14.7362174 111.898936,15.4871957 109.888298,16.5417609 C103.303191,15.7428478 96.5904255,15.7162174 89.8670213,16.5257826 C87.8510638,15.4712174 86.4202128,14.7202391 84.4095745,13.671 L79.0425532,2.9336087 C76.4255319,1.95893478 74.8617021,1.37306522 72.25,0.398391304 L49.0691489,10.0119783 C47.9095745,12.5525217 47.2180851,14.0704565 46.0585106,16.611 L49.8457447,28.0035 C49.1702128,30.1712174 48.6861702,31.7157826 48.0053191,33.8835 C42.6755319,38.0751304 37.9468085,42.8473043 33.856383,48.0721957 C31.6914894,48.7539348 30.1489362,49.2386087 27.9840426,49.9150217 L16.5904255,46.1175217 C14.0531915,47.2786087 12.537234,47.971 10,49.132087 L0.393617021,72.3431739 C1.37234043,74.9636087 1.95212766,76.5241522 2.93085106,79.144587 L13.6648936,84.5239348 C14.7180851,86.5425217 15.4680851,87.9752391 16.5212766,89.9885 C15.7180851,96.5821957 15.6914894,103.303717 16.5,110.035891 C15.4521277,112.049152 14.7021277,113.487196 13.6542553,115.500457 L2.93085106,120.874478 C1.95212766,123.489587 1.37234043,125.055457 0.393617021,127.675891 L10,150.881652 C12.537234,152.042739 14.0531915,152.73513 16.5904255,153.896217 L27.9680851,150.104043 C30.1329787,150.785783 31.6755319,151.270457 33.8404255,151.952196 C38.0265957,157.283609 42.7925532,162.0185 48.0106383,166.114261 C48.6914894,168.287304 49.1702128,169.826543 49.8510638,171.999587 L46.0585106,183.402739 C47.2180851,185.943283 47.9095745,187.466543 49.0691489,190.007087 L72.25,199.620674 C74.8617021,198.646 76.4255319,198.06013 79.0425532,197.085457 L84.4148936,186.332087 C86.4255319,185.277522 87.856383,184.53187 89.8723404,183.477304 C96.4574468,184.276217 103.170213,184.302848 109.893617,183.493283 C111.904255,184.547848 113.335106,185.2935 115.351064,186.348065 L120.712766,197.085457 C123.329787,198.06013 124.893617,198.646 127.510638,199.620674 L150.68617,190.007087 C151.845745,187.466543 152.537234,185.948609 153.696809,183.402739 L149.909574,172.010239 C150.590426,169.842522 151.074468,168.297957 151.755319,166.130239 C157.079787,161.943935 161.808511,157.171761 165.898936,151.941543 C168.069149,151.26513 169.606383,150.780457 171.776596,150.098717 L183.164894,153.896217 C185.702128,152.73513 187.223404,152.042739 189.760638,150.881652 L199.361702,127.675891 C198.388298,125.055457 197.803191,123.489587 196.829787,120.874478 L186.090426,115.49513 C185.037234,113.476543 184.292553,112.043826 183.239362,110.030565 C184.037234,103.43687 184.06383,96.7153478 183.255319,89.9831739 C184.303191,87.969913 185.053191,86.5318696 186.106383,84.5186087 L196.829787,79.144587 C197.803191,76.5241522 198.388298,74.9636087 199.361702,72.3431739 Z" id="Stroke-1" stroke="#505050"></path>
                <path class="line additional" d="M243.594149,157.576543 C241.71117,156.346217 240.407979,155.49937 238.525,154.269043 L235.604787,146.034913 C233.115426,144.847196 231.716489,144.181435 229.221809,142.993717 L217.275,147.238609 C216.08883,149.731217 215.423936,151.131978 214.237766,153.629913 L217.15266,161.864043 C216.46117,164.00513 215.987766,165.485783 215.296277,167.62687 C212.90266,169.432413 210.700532,171.429696 208.695213,173.597413 C206.493085,174.066109 204.971809,174.385674 202.769681,174.85437 L194.886702,171.094152 C192.285638,172.015565 190.822872,172.537522 188.221809,173.458935 L182.769681,184.920674 C183.695213,187.52513 184.21117,188.984478 185.131383,191.594261 L193.019681,195.349152 C194.040957,197.357087 194.748404,198.74187 195.775,200.749804 C195.360106,203.673826 195.200532,206.645783 195.306915,209.64437 C194.083511,211.529804 193.237766,212.834696 192.009043,214.72013 L183.785638,217.644152 C182.599468,220.136761 181.934574,221.537522 180.743085,224.035457 L184.982447,235.997848 C187.477128,237.185565 188.876064,237.851326 191.365426,239.04437 L199.58883,236.120348 C201.732447,236.812739 203.205851,237.292087 205.349468,237.979152 C207.14734,240.375891 209.14734,242.586217 211.306915,244.594152" id="Stroke-3" stroke="#505050"></path>
                <path class="line additional" d="M158.330851,99.4311196 C158.330851,131.733837 132.134043,157.922207 99.8148936,157.922207 C67.5010638,157.922207 41.2989362,131.733837 41.2989362,99.4311196 C41.2989362,67.1284022 67.5010638,40.9400326 99.8148936,40.9400326 C132.134043,40.9400326 158.330851,67.1284022 158.330851,99.4311196 Z" id="Stroke-5" stroke="#505050"></path>
                <path class="line additional" d="M83.8579787,109.991685 L83.8579787,109.991685 C83.8579787,115.877011 88.618617,120.643859 94.4962766,120.643859 L106.517553,120.643859 C111.629255,120.643859 115.772872,116.494837 115.772872,111.376467 L115.772872,111.344511 C115.772872,107.355272 113.225,103.813424 109.443085,102.551141 L90.187766,96.1278804 C86.4058511,94.8655978 83.8579787,91.32375 83.8579787,87.3345109 L83.8579787,87.3025543 C83.8579787,82.1841848 88.0015957,78.035163 93.1132979,78.035163 L105.134574,78.035163 C111.012234,78.035163 115.772872,82.8020109 115.772872,88.687337" id="Stroke-7" stroke="#1476F2"></path>
                <path class="line" d="M99,78.035163 L99,62.0569022" id="blue-line" stroke="#1476F2"></path>
                <path class="line additional" d="M99,120.643859 L99,136.62212" id="Stroke-11" stroke="#1476F2"></path>
                <path class="line additional" d="M248.751596,232.491685 C237.001596,232.491685 227.475,222.952663 227.475,211.187337 C227.475,199.422011 237.001596,189.882989 248.751596,189.882989" id="Stroke-13" stroke="#505050"></path>
            </g>
        </g>
    </g>
    <script type="text/javascript">
        document.animate = function(){
            var isAnimated = false;

            var animatedElement = document.getElementById("blue-line");
            animatedElement.setAttribute("class", "line animated");
            animatedElement.addEventListener("animationstart", function(){
                isAnimated = true;
            });
            if (animatedElement.addEventListener){
            animatedElement.addEventListener("animationend", function(){
                var elemArr = document.getElementsByClassName("additional");
                for (var i = elemArr.length - 1; i>=0 ; i-- ){
                    elemArr[i].setAttribute("class", "line additional animated");
                }
            })
            }else if (animatedElement.attachEvent){
                animatedElement.attachEvent("animationend", function(){
                    var elemArr = document.getElementsByClassName("additional");
                    for (var i = elemArr.length - 1; i>=0 ; i-- ){
                        elemArr[i].setAttribute("class", "line additional animated");
                    }
                })
            }

            setTimeout(function(){
                if(!isAnimated){
                    var elemArr = document.getElementsByClassName("additional");
                    for (var i = elemArr.length - 1; i>=0 ; i-- ){
                        elemArr[i].setAttribute("class", "line additional animated");
                    }
                }
            },1000)

        }
    </script>
</svg>