<?xml version="1.0" encoding="UTF-8"?>
<svg width="124px" height="34px" viewBox="0 0 124 34" version="1.1" xmlns="http://www.w3.org/2000/svg" xmlns:xlink="http://www.w3.org/1999/xlink">
    <style>.dot.animated {
        -webkit-animation: dash 0.5s linear forwards;
        -o-animation: dash 0.5s linear forwards;
        -moz-animation: dash 0.5s linear forwards;
        animation: dash 0.5s linear forwards;
        }
        .dot {
        fill: #1476f2;
        fill-opacity: 0;
        }
        @-webkit-keyframes dash {
        0% { fill-opacity: 0; }
        100% { fill-opacity: 1; }
        }
        @-moz-keyframes dash {
        0% { fill-opacity: 0; }
        100% { fill-opacity: 1; }
        }</style>
    <g id="Page-1" stroke="none" stroke-width="1" fill="none" fill-rule="evenodd">
        <g id="inclined-dops-third" fill="#1476F2" fill-rule="nonzero">
            <path class="dot" d="M1.61996707,0.00442084365 C0.790205432,-0.0586036953 0.0664133517,0.55963702 0.00443115706,1.38595875 C-0.0585507504,2.21228049 0.557272345,2.93356132 1.37903628,2.99558547 C2.20080022,3.05861001 2.9245923,2.43936891 2.99457219,1.61404756 C3.06455209,0.787725828 2.44972871,0.0674453826 1.61996707,0.00442084365" id="15"></path>
            <path class="dot" d="M22.7037717,2.01227645 C21.8789853,1.90714702 21.1220989,2.48886323 21.0132591,3.31087529 C20.9044192,4.13288735 21.4775759,4.88381189 22.2943741,4.9879401 C23.1111722,5.0920683 23.8680586,4.51035209 23.9848867,3.68934126 C24.1017148,2.86833043 23.5285581,2.11740589 22.7037717,2.01227645" id="16"></path>
            <path class="dot" d="M42.7863183,6.02386352 C41.969986,5.87743868 41.1815624,6.42001291 41.0270673,7.23537861 C40.8715755,8.05174723 41.4018426,8.83100818 42.2111977,8.9764301 C43.0195561,9.12185203 43.8079796,8.57927781 43.9704487,7.76491501 C44.1339145,6.94954931 43.6026506,6.17028836 42.7863183,6.02386352" id="17"></path>
            <path class="dot" d="M63.8759726,10.039436 C63.0661089,9.85157594 62.2462591,10.3528709 62.0455407,11.1605685 C61.8438237,11.9672615 62.33114,12.7729499 63.133015,12.9588008 C63.9368871,13.1416378 64.7397606,12.7036326 64.9514636,11.8889028 C65.1581736,11.0932603 64.6868349,10.2242822 63.8759726,10.039436" id="18"></path>
            <path class="dot" d="M83.0411828,18.9221137 C83.8264548,19.1846165 84.6710494,18.7620268 84.9264387,17.9784958 C85.1828336,17.1949649 84.7474651,16.3438195 83.9551549,16.0793281 C83.1618392,15.8138424 82.31825,16.236432 82.069899,17.022946 C81.821548,17.8084656 82.2559109,18.659611 83.0411828,18.9221137" id="19"></path>
            <path class="dot" d="M102.961026,25.8968334 C103.730732,26.1977046 104.59778,25.8181287 104.898839,25.0490142 C105.19789,24.2789034 104.811532,23.4091664 104.034801,23.1053064 C103.257067,22.8004502 102.390018,23.1800261 102.097992,23.9531257 C101.804962,24.7252289 102.19132,25.5959622 102.961026,25.8968334" id="20"></path>
            <path class="dot" d="M123.112,31.1342373 C122.35334,30.7917061 121.465568,31.1272469 121.130277,31.8842108 C120.793984,32.6401762 121.131278,33.5279611 121.882931,33.8674963 C122.634585,34.2070316 123.522357,33.8714909 123.865655,33.1185215 C124.208954,32.3645534 123.87166,31.4767685 123.112,31.1342373" id="21"></path>
        </g>
    </g>
    <script type="text/javascript">
        document.animate = function() {
        var elemArr = document.getElementsByClassName("dot");
        if (!this.hasOwnProperty('animated')) this.animated = false;
        if (!this.animated) {
        for (var i = elemArr.length - 1; i >= 0 ; i-- ) {
        (function(n) {
        var elmTiming = elemArr[n].getAttribute("id") * 100;
        setTimeout(function() {
        elemArr[n].setAttribute("class", "dot animated");
        }, elmTiming);
        })(i)
        }
        this.animated = true;
        }
        }
    </script>
</svg>