<?xml version="1.0" encoding="UTF-8"?>
<svg width="89px" height="95px" viewBox="0 0 89 95" version="1.1" xmlns="http://www.w3.org/2000/svg" xmlns:xlink="http://www.w3.org/1999/xlink">
    <style>.dot.animated {
        -webkit-animation: dash 0.5s linear forwards;
        -o-animation: dash 0.5s linear forwards;
        -moz-animation: dash 0.5s linear forwards;
        animation: dash 0.5s linear forwards;
        }
        .dot {
        fill: #1476f2;
        fill-opacity: 0;
        }
        @-webkit-keyframes dash {
        0% { fill-opacity: 0; }
        100% { fill-opacity: 1; }
        }
        @-moz-keyframes dash {
        0% { fill-opacity: 0; }
        100% { fill-opacity: 1; }
        }</style>
    <g id="Page-1" stroke="none" stroke-width="1" fill="none" fill-rule="evenodd">
        <g id="inclined-dops-fourth" fill="#1476F2" fill-rule="nonzero">
            <path class="dot" d="M0.668,3.3808 C1.316,3.8908 2.25,3.7698 2.753,3.1118 C3.257,2.4538 3.134,1.5038 2.48,0.9898 C1.825,0.4748 0.892,0.5958 0.395,1.2578 C-0.103,1.9208 0.02,2.8708 0.668,3.3808" id="22"></path>
            <path class="dot" d="M19.0103,16.3098 C19.5503,15.6808 19.4773,14.7298 18.8473,14.1848 C18.2183,13.6398 17.2763,13.7118 16.7423,14.3458 C16.2093,14.9788 16.2813,15.9308 16.9053,16.4708 C17.5283,17.0098 18.4703,16.9388 19.0103,16.3098" id="23"></path>
            <path class="dot" d="M32.396,30.4324 C32.993,31.0014 33.942,30.9784 34.516,30.3814 C35.09,29.7834 35.067,28.8344 34.465,28.2594 C33.862,27.6854 32.913,27.7084 32.345,28.3104 C31.776,28.9134 31.799,29.8634 32.396,30.4324" id="24"></path>
            <path class="dot" d="M49.2256,45.2832 C49.8326,44.7192 49.8586,43.7732 49.2846,43.1712 C48.7096,42.5682 47.7566,42.5422 47.1556,43.1122 C46.5546,43.6812 46.5276,44.6272 47.0966,45.2242 C47.6656,45.8212 48.6196,45.8472 49.2256,45.2832" id="25"></path>
            <path class="dot" d="M63.0952,60.9724 C63.7332,60.4434 63.8082,59.5044 63.2632,58.8754 C62.7182,58.2464 61.7632,58.1704 61.1312,58.7044 C60.4982,59.2394 60.4242,60.1784 60.9632,60.8024 C61.5032,61.4254 62.4582,61.5014 63.0952,60.9724" id="26"></path>
            <path class="dot" d="M76.0088,77.458 C76.6758,76.966 76.8238,76.017 76.3418,75.339 C75.8608,74.66 74.8838,74.551 74.2288,75.044 C73.5598,75.548 73.4608,76.46 73.9378,77.133 C74.4148,77.804 75.3428,77.95 76.0088,77.458" id="27"></path>
            <path class="dot" d="M87.9453,94.6633 C88.6383,94.2093 88.8363,93.2733 88.3863,92.5723 C87.9373,91.8723 87.0143,91.6773 86.3263,92.1373 C85.6373,92.5983 85.4403,93.5343 85.8843,94.2283 C86.3293,94.9223 87.2523,95.1173 87.9453,94.6633" id="28"></path>
        </g>
    </g>
    <script type="text/javascript">
        document.animate = function() {
        var elemArr = document.getElementsByClassName("dot");
        if (!this.hasOwnProperty('animated')) this.animated = false;
        if (!this.animated) {
        for (var i = elemArr.length - 1; i >= 0 ; i-- ) {
        (function(n) {
        var elmTiming = elemArr[n].getAttribute("id") * 100;
        setTimeout(function() {
        elemArr[n].setAttribute("class", "dot animated");
        }, elmTiming);
        })(i)
        }
        this.animated = true;
        }
        }
    </script>
</svg>