<?xml version="1.0" encoding="UTF-8"?>
<svg width="124px" height="35px" viewBox="0 0 124 35" version="1.1" xmlns="http://www.w3.org/2000/svg" xmlns:xlink="http://www.w3.org/1999/xlink">
    <style>.dot.animated {
        -webkit-animation: dash 0.5s linear forwards;
        -o-animation: dash 0.5s linear forwards;
        -moz-animation: dash 0.5s linear forwards;
        animation: dash 0.5s linear forwards;
        }
        .dot {
        fill: #1476f2;
        fill-opacity: 0;
        }
        @-webkit-keyframes dash {
        0% { fill-opacity: 0; }
        100% { fill-opacity: 1; }
        }
        @-moz-keyframes dash {
        0% { fill-opacity: 0; }
        100% { fill-opacity: 1; }
        }</style>
    <g id="Page-1" stroke="none" stroke-width="1" fill="none" fill-rule="evenodd">
        <g id="inclined-dops-six" fill="#1476F2" fill-rule="nonzero">
            <path class="dot" d="M2.12798557,2.86710417 C2.87898557,2.52710417 3.21198557,1.64010417 2.87198557,0.885104169 C2.53098557,0.129104169 1.63998557,-0.204895831 0.880985571,0.138104169 C0.122985571,0.481104169 -0.210014429,1.36910417 0.137985571,2.12010417 C0.485985571,2.87210417 1.37698557,3.20710417 2.12798557,2.86710417" id="8" transform="translate(1.502624, 1.501648) scale(-1, 1) rotate(-180.000000) translate(-1.502624, -1.501648) "></path>
            <path class="dot" d="M22.0451635,10.896146 C22.8121635,10.594146 23.1931635,9.72114596 22.8961635,8.94814596 C22.5991635,8.17514596 21.7301635,7.79514596 20.9561635,8.10114596 C20.1811635,8.40614596 19.8001635,9.27814596 20.1051635,10.049146 C20.4101635,10.819146 21.2781635,11.198146 22.0451635,10.896146" id="9" transform="translate(21.498524, 9.497633) scale(-1, 1) rotate(-180.000000) translate(-21.498524, -9.497633) "></path>
            <path class="dot" d="M40.0330614,15.0684506 C39.2440614,15.3354506 38.8160614,16.1894506 39.0760614,16.9754506 C39.3360614,17.7624506 40.1800614,18.1854506 40.9610614,17.9214506 C41.7420614,17.6574506 42.1700614,16.8034506 41.9180614,16.0144506 C41.6650614,15.2254506 40.8220614,14.8014506 40.0330614,15.0684506" id="10" transform="translate(40.495168, 16.494273) scale(-1, 1) rotate(-180.000000) translate(-40.495168, -16.494273) "></path>
            <path class="dot" d="M60.1123716,21.0424055 C59.3113716,21.2694055 58.8373716,22.1024055 59.0513716,22.9024055 C59.2663716,23.7024055 60.0833716,24.1684055 60.8763716,23.9434055 C61.6693716,23.7184055 62.1443716,22.8854055 61.9373716,22.0834055 C61.7303716,21.2814055 60.9133716,20.8154055 60.1123716,21.0424055" id="11" transform="translate(60.492925, 22.492481) scale(-1, 1) rotate(-180.000000) translate(-60.492925, -22.492481) "></path>
            <path class="dot" d="M81.1984859,26.036503 C80.3774859,26.174503 79.8644859,27.019503 80.0314859,27.819503 C80.2014859,28.641503 80.9834859,29.113503 81.7964859,28.976503 C82.6074859,28.831503 83.1354859,28.055503 82.9734859,27.242503 C82.8124859,26.430503 82.0184859,25.890503 81.1984859,26.036503" id="12" transform="translate(81.501354, 27.506337) scale(-1, 1) rotate(-180.000000) translate(-81.501354, -27.506337) "></path>
            <path class="dot" d="M101.289692,29.0189372 C100.463692,29.1239372 99.8936924,29.8729372 100.016692,30.6929372 C100.138692,31.5119372 100.901692,32.0919372 101.719692,31.9879372 C102.537692,31.8839372 103.106692,31.1349372 102.992692,30.3149372 C102.877692,29.4939372 102.115692,28.9139372 101.289692,29.0189372" id="13" transform="translate(101.503613, 30.503329) scale(-1, 1) rotate(-180.000000) translate(-101.503613, -30.503329) "></path>
            <path class="dot" d="M122.371387,32.0067144 C121.541387,32.0697144 120.930387,32.7897144 121.006387,33.6147144 C121.082387,34.4397144 121.810387,35.0577144 122.632387,34.9957144 C123.454387,34.9327144 124.066387,34.2127144 123.997387,33.3877144 C123.929387,32.5617144 123.201387,31.9437144 122.371387,32.0067144" id="14" transform="translate(122.501347, 33.501148) scale(-1, 1) rotate(-180.000000) translate(-122.501347, -33.501148) "></path>
        </g>
    </g>
    <script type="text/javascript">
        document.animate = function() {
        var elemArr = document.getElementsByClassName("dot");
        if (!this.hasOwnProperty('animated')) this.animated = false;
        if (!this.animated) {
        for (var i = elemArr.length - 1; i >= 0 ; i-- ) {
        (function(n) {
        var elmTiming = elemArr[n].getAttribute("id") * 100;
        setTimeout(function() {
        elemArr[n].setAttribute("class", "dot animated");
        }, elmTiming);
        })(i)
        }
        this.animated = true;
        }
        }
    </script>
</svg>