<?xml version="1.0" encoding="UTF-8"?>
<svg width="125px" height="35px" viewBox="0 0 125 35" version="1.1" xmlns="http://www.w3.org/2000/svg" xmlns:xlink="http://www.w3.org/1999/xlink">
    <style>.dot.animated {
        -webkit-animation: dash 0.5s linear forwards;
        -o-animation: dash 0.5s linear forwards;
        -moz-animation: dash 0.5s linear forwards;
        animation: dash 0.5s linear forwards;
        }
        .dot {
        fill: #1476f2;
        fill-opacity: 0;
        }
        @-webkit-keyframes dash {
        0% { fill-opacity: 0; }
        100% { fill-opacity: 1; }
        }
        @-moz-keyframes dash {
        0% { fill-opacity: 0; }
        100% { fill-opacity: 1; }
        }</style>
    <g id="Page-1" stroke="none" stroke-width="1" fill="none" fill-rule="evenodd">
        <g id="inclined-dops-second" fill="#1476F2" fill-rule="nonzero">
            <path class="dot" d="M2.12798557,34.8638089 C2.87898557,34.5238089 3.21198557,33.6368089 2.87198557,32.8818089 C2.53098557,32.1258089 1.63998557,31.7918089 0.880985571,32.1348089 C0.122985571,32.4778089 -0.210014429,33.3658089 0.137985571,34.1168089 C0.485985571,34.8688089 1.37698557,35.2038089 2.12798557,34.8638089" id="8"></path>
            <path class="dot" d="M22.0451635,26.9008795 C22.8121635,26.5988795 23.1931635,25.7258795 22.8961635,24.9528795 C22.5991635,24.1798795 21.7301635,23.7998795 20.9561635,24.1058795 C20.1811635,24.4108795 19.8001635,25.2828795 20.1051635,26.0538795 C20.4101635,26.8238795 21.2781635,27.2028795 22.0451635,26.9008795" id="9"></path>
            <path class="dot" d="M39.0760614,18.9869039 C39.3360614,19.7739039 40.1800614,20.1969039 40.9610614,19.9329039 C41.7420614,19.6689039 42.1700614,18.8149039 41.9180614,18.0259039 C41.6650614,17.2369039 40.8220614,16.8129039 40.0330614,17.0799039 C39.2440614,17.3469039 38.8160614,18.2009039 39.0760614,18.9869039 Z" id="10"></path>
            <path class="dot" d="M60.1123716,11.0574443 C59.3113716,11.2844443 58.8373716,12.1174443 59.0513716,12.9174443 C59.2663716,13.7174443 60.0833716,14.1834443 60.8763716,13.9584443 C61.6693716,13.7334443 62.1443716,12.9004443 61.9373716,12.0984443 C61.7303716,11.2964443 60.9133716,10.8304443 60.1123716,11.0574443" id="11"></path>
            <path class="dot" d="M81.1984859,6.02382924 C80.3774859,6.16182924 79.8644859,7.00682924 80.0314859,7.80682924 C80.2014859,8.62882924 80.9834859,9.10082924 81.7964859,8.96382924 C82.6074859,8.81882924 83.1354859,8.04282924 82.9734859,7.22982924 C82.8124859,6.41782924 82.0184859,5.87782924 81.1984859,6.02382924" id="12"></path>
            <path class="dot" d="M101.289692,3.0122789 C100.463692,3.1172789 99.8936924,3.8662789 100.016692,4.6862789 C100.138692,5.5052789 100.901692,6.0852789 101.719692,5.9812789 C102.537692,5.8772789 103.106692,5.1282789 102.992692,4.3082789 C102.877692,3.4872789 102.115692,2.9072789 101.289692,3.0122789" id="13"></path>
            <path class="dot" d="M122.895,3.2768 C122.073,3.3388 121.345,2.7208 121.269,1.8958 C121.193,1.0718 121.804,0.3518 122.634,0.2878 C123.464,0.2248 124.192,0.8428 124.26,1.6688 C124.329,2.4948 123.717,3.2148 122.895,3.2768" id="14"></path>
        </g>
    </g>
    <script type="text/javascript">
        document.animate = function() {
        var elemArr = document.getElementsByClassName("dot");
        if (!this.hasOwnProperty('animated')) this.animated = false;
        if (!this.animated) {
        for (var i = elemArr.length - 1; i >= 0 ; i-- ) {
        (function(n) {
        var elmTiming = elemArr[n].getAttribute("id") * 100;
        setTimeout(function() {
        elemArr[n].setAttribute("class", "dot animated");
        }, elmTiming);
        })(i)
        }
        this.animated = true;
        }
        }
    </script>
</svg>